<svg width="451" height="467" viewBox="0 0 451 467" fill="none" xmlns="http://www.w3.org/2000/svg">
<path d="M294.502 433.042C297.047 440.431 292.869 448.493 285.332 450.558C212.944 470.386 134.51 453.085 76.9447 402.4C71.0857 397.241 70.8745 388.171 76.3945 382.651L129.733 329.313C134.688 324.357 142.575 324.008 147.998 328.446C177.972 352.973 217.212 361.569 254.036 352.883C260.804 351.287 267.671 355.126 269.935 361.701L294.502 433.042Z" stroke="black" stroke-width="15" stroke-miterlimit="10" stroke-linecap="round" stroke-linejoin="round"/>
<path d="M12.0777 304.744C-7.87478 245.079 -2.40377 177.018 31.3386 119.522C35.2815 112.787 44.146 110.847 50.6086 115.216L113.159 157.4C118.978 161.325 120.8 169.011 117.473 175.201C98.0059 211.388 98.0059 255.251 117.473 291.438C120.8 297.628 118.978 305.315 113.159 309.239L50.6086 351.423C44.146 355.792 35.2815 353.852 31.3386 347.118C28.1354 341.67 24.2325 334.194 24.2325 334.038" fill="black"/>
<path d="M183.469 117.935C213.307 107.018 246.821 108.029 276.193 121.289C282.583 124.171 290.106 121.797 293.614 115.724L331.338 50.3907C335.236 43.629 332.689 34.9276 325.7 31.4561C245.895 -8.14711 147.09 2.47042 76.94 64.2404C71.0847 69.3978 70.8762 78.4708 76.3962 83.9908L129.729 137.323C134.687 142.281 142.572 142.635 147.992 138.193C150.349 136.272 152.778 134.432 155.271 132.682" stroke="black" stroke-width="15" stroke-miterlimit="10" stroke-linecap="round" stroke-linejoin="round"/>
<path d="M436.905 233.319H361.484C354.486 233.319 348.65 228.005 347.959 221.042C345.281 194.053 333.868 169.632 316.585 150.658C311.889 145.502 311.888 137.622 316.554 132.439L367.024 76.3867C372.262 70.5694 381.345 70.3383 386.816 75.9362C423.323 113.292 446.936 163.309 450.471 218.778C450.972 226.643 444.786 233.319 436.905 233.319Z" fill="black"/>
<path d="M443.618 290.491C429.5 344.458 395.86 390.528 350.694 420.707C344.143 425.085 335.259 423.049 331.32 416.226L293.603 350.895C290.103 344.831 291.8 337.13 297.481 333.037C319.162 317.411 335.538 294.89 343.399 268.687C345.408 261.988 352.15 257.89 359.016 259.224L433.079 273.624C440.815 275.129 445.613 282.865 443.618 290.491Z" fill="black"/>
<path fill-rule="evenodd" clip-rule="evenodd" d="M223.914 143.223V132.445C210.682 132.66 198.055 135.408 186.518 140.263L190.851 150.137C201.06 145.864 212.22 143.435 223.914 143.223ZM183.495 141.619L187.825 151.487C178.606 155.752 170.23 161.525 163.003 168.492L155.385 160.874C163.552 152.967 173.043 146.429 183.495 141.619ZM124.614 235.056H135.392C135.597 246.413 137.907 257.259 141.955 267.23L132.039 271.455C127.436 260.187 124.822 247.911 124.614 235.056ZM141.955 199.571L132.039 195.346C127.436 206.615 124.822 218.888 124.614 231.745H135.392C135.597 220.387 137.907 209.54 141.955 199.571ZM133.345 274.497L143.26 270.271C147.561 279.835 153.474 288.514 160.661 295.966L153.043 303.584C144.89 295.163 138.193 285.333 133.345 274.497ZM163.003 298.307L155.385 305.925C163.552 313.833 173.044 320.371 183.495 325.181L187.825 315.313C178.606 311.048 170.23 305.276 163.003 298.307ZM295.753 160.874L288.135 168.492C280.909 161.525 272.532 155.752 263.313 151.487L267.642 141.619C278.093 146.429 287.585 152.967 295.753 160.874ZM317.792 192.303L307.878 196.528C303.576 186.967 297.664 178.288 290.476 170.834L298.094 163.216C306.247 171.637 312.944 181.466 317.792 192.303ZM315.746 231.745H326.524C326.316 218.89 323.701 206.615 319.099 195.346L309.183 199.571C313.231 209.54 315.541 220.387 315.746 231.745ZM227.225 132.445C240.456 132.66 253.082 135.408 264.621 140.263L260.288 150.137C250.077 145.864 238.918 143.435 227.225 143.223V132.445ZM186.518 326.537C198.055 331.393 210.682 334.141 223.914 334.355V323.576C212.221 323.364 201.062 320.935 190.851 316.662L186.518 326.537ZM153.043 163.216L160.661 170.834C153.474 178.288 147.561 186.967 143.26 196.528L133.345 192.303C138.193 181.466 144.89 171.638 153.043 163.216ZM227.225 323.576V334.355C240.458 334.14 253.084 331.391 264.621 326.537L260.288 316.662C250.077 320.935 238.918 323.364 227.225 323.576ZM319.099 271.454L309.183 267.228C313.231 257.259 315.541 246.413 315.746 235.055H326.524C326.316 247.91 323.7 260.185 319.099 271.454ZM290.476 295.966L298.094 303.584C306.247 295.162 312.944 285.333 317.792 274.497L307.878 270.271C303.576 279.835 297.664 288.514 290.476 295.966ZM267.642 325.181L263.313 315.313C272.532 311.048 280.909 305.276 288.135 298.307L295.753 305.925C287.585 313.833 278.095 320.371 267.642 325.181ZM225.587 162.613C186.546 162.613 154.781 194.376 154.781 233.419C154.781 272.461 186.546 304.224 225.587 304.224C264.628 304.224 296.393 272.461 296.393 233.419C296.393 194.376 264.628 162.613 225.587 162.613ZM225.587 299.009C189.418 299.009 159.995 269.586 159.995 233.417C159.995 197.248 189.418 167.826 225.587 167.826C261.756 167.826 291.179 197.25 291.179 233.419C291.179 269.587 261.754 299.009 225.587 299.009ZM225.587 146.511C273.508 146.511 312.495 185.498 312.495 233.419C312.495 281.339 273.508 320.326 225.587 320.326C177.667 320.326 138.68 281.339 138.68 233.419C138.68 185.498 177.667 146.511 225.587 146.511ZM151.47 233.417C151.47 274.284 184.718 307.534 225.587 307.534C266.455 307.534 299.705 274.286 299.705 233.419C299.705 192.551 266.457 159.301 225.587 159.301C184.718 159.301 151.47 192.549 151.47 233.417ZM288.177 232.513C288.177 266.803 260.379 294.601 226.088 294.601C191.798 294.601 164 266.803 164 232.513C164 198.222 191.798 170.424 226.088 170.424C260.379 170.424 288.177 198.222 288.177 232.513ZM263.606 254.939L258.14 264.405C257.078 266.243 255.095 267.392 252.97 267.392L198.381 267.371L206.691 252.986L226.318 253.007H226.325L247.109 253.029C247.756 253.029 248.345 252.684 248.668 252.131L257.458 236.841L263.606 247.485C264.927 249.783 264.927 252.641 263.606 254.939ZM255.899 232.354L263.598 218.981C264.927 216.676 264.92 213.818 263.591 211.512L257.444 200.898L229.435 249.417L246.075 249.439L255.899 232.354ZM223.273 217.078L195.271 265.576L189.131 254.961C187.795 252.663 187.795 249.805 189.124 247.499L196.801 234.149C196.801 234.149 196.803 234.149 196.805 234.148C196.806 234.147 196.808 234.145 196.808 234.141L206.618 217.078H223.273ZM246.033 213.487L254.335 199.102L199.754 199.087C197.628 199.087 195.646 200.229 194.583 202.075L189.118 211.533C187.789 213.831 187.789 216.69 189.118 218.995L195.251 229.645L204.027 214.392C204.35 213.831 204.939 213.487 205.586 213.487H246.033Z" fill="black"/>
</svg>
