<svg width="450" height="467" viewBox="0 0 450 467" fill="none" xmlns="http://www.w3.org/2000/svg">
<path d="M294.002 433.042C296.547 440.431 292.369 448.493 284.832 450.558C212.444 470.386 134.01 453.085 76.4447 402.4C70.5857 397.241 70.3745 388.171 75.8945 382.651L129.233 329.313C134.188 324.357 142.075 324.008 147.498 328.446C177.472 352.973 216.712 361.569 253.536 352.883C260.304 351.287 267.171 355.126 269.435 361.701L294.002 433.042Z" stroke="white" stroke-width="15" stroke-miterlimit="10" stroke-linecap="round" stroke-linejoin="round"/>
<path d="M11.5777 304.744C-8.37478 245.079 -2.90377 177.018 30.8386 119.522C34.7815 112.787 43.646 110.847 50.1086 115.216L112.659 157.4C118.478 161.325 120.3 169.011 116.973 175.201C97.5059 211.388 97.5059 255.251 116.973 291.438C120.3 297.628 118.478 305.315 112.659 309.239L50.1086 351.423C43.646 355.792 34.7815 353.852 30.8386 347.118C27.6354 341.67 23.7325 334.194 23.7325 334.038" fill="white"/>
<path d="M182.969 117.935C212.807 107.018 246.321 108.029 275.693 121.289C282.083 124.171 289.606 121.797 293.114 115.724L330.838 50.3907C334.736 43.629 332.189 34.9276 325.2 31.4561C245.395 -8.14711 146.59 2.47042 76.44 64.2404C70.5847 69.3978 70.3762 78.4708 75.8962 83.9908L129.229 137.323C134.187 142.281 142.072 142.635 147.492 138.193C149.849 136.272 152.278 134.432 154.771 132.682" stroke="white" stroke-width="15" stroke-miterlimit="10" stroke-linecap="round" stroke-linejoin="round"/>
<path d="M436.405 233.319H360.984C353.986 233.319 348.15 228.005 347.459 221.042C344.781 194.053 333.368 169.632 316.085 150.658C311.389 145.502 311.388 137.622 316.054 132.439L366.524 76.3867C371.762 70.5694 380.845 70.3383 386.316 75.9362C422.823 113.292 446.436 163.309 449.971 218.778C450.472 226.643 444.286 233.319 436.405 233.319Z" fill="white"/>
<path d="M443.118 290.491C429 344.458 395.36 390.528 350.194 420.707C343.643 425.085 334.759 423.049 330.82 416.226L293.103 350.895C289.603 344.831 291.3 337.13 296.981 333.037C318.662 317.411 335.038 294.89 342.899 268.687C344.908 261.988 351.65 257.89 358.516 259.224L432.579 273.624C440.315 275.129 445.113 282.865 443.118 290.491Z" fill="white"/>
<path fill-rule="evenodd" clip-rule="evenodd" d="M223.414 143.223V132.445C210.182 132.66 197.555 135.408 186.018 140.263L190.351 150.137C200.56 145.864 211.72 143.435 223.414 143.223ZM182.995 141.619L187.325 151.487C178.106 155.752 169.73 161.525 162.503 168.492L154.885 160.874C163.052 152.967 172.543 146.429 182.995 141.619ZM124.114 235.056H134.892C135.097 246.413 137.407 257.259 141.455 267.23L131.539 271.455C126.936 260.187 124.322 247.911 124.114 235.056ZM141.455 199.571L131.539 195.346C126.936 206.615 124.322 218.888 124.114 231.745H134.892C135.097 220.387 137.407 209.54 141.455 199.571ZM132.845 274.497L142.76 270.271C147.061 279.835 152.974 288.514 160.161 295.966L152.543 303.584C144.39 295.163 137.693 285.333 132.845 274.497ZM162.503 298.307L154.885 305.925C163.052 313.833 172.544 320.371 182.995 325.181L187.325 315.313C178.106 311.048 169.73 305.276 162.503 298.307ZM295.253 160.874L287.635 168.492C280.409 161.525 272.032 155.752 262.813 151.487L267.142 141.619C277.593 146.429 287.085 152.967 295.253 160.874ZM317.292 192.303L307.378 196.528C303.076 186.967 297.164 178.288 289.976 170.834L297.594 163.216C305.747 171.637 312.444 181.466 317.292 192.303ZM315.246 231.745H326.024C325.816 218.89 323.201 206.615 318.599 195.346L308.683 199.571C312.731 209.54 315.041 220.387 315.246 231.745ZM226.725 132.445C239.956 132.66 252.582 135.408 264.121 140.263L259.788 150.137C249.577 145.864 238.418 143.435 226.725 143.223V132.445ZM186.018 326.537C197.555 331.393 210.182 334.141 223.414 334.355V323.576C211.721 323.364 200.562 320.935 190.351 316.662L186.018 326.537ZM152.543 163.216L160.161 170.834C152.974 178.288 147.061 186.967 142.76 196.528L132.845 192.303C137.693 181.466 144.39 171.638 152.543 163.216ZM226.725 323.576V334.355C239.958 334.14 252.584 331.391 264.121 326.537L259.788 316.662C249.577 320.935 238.418 323.364 226.725 323.576ZM318.599 271.454L308.683 267.228C312.731 257.259 315.041 246.413 315.246 235.055H326.024C325.816 247.91 323.2 260.185 318.599 271.454ZM289.976 295.966L297.594 303.584C305.747 295.162 312.444 285.333 317.292 274.497L307.378 270.271C303.076 279.835 297.164 288.514 289.976 295.966ZM267.142 325.181L262.813 315.313C272.032 311.048 280.409 305.276 287.635 298.307L295.253 305.925C287.085 313.833 277.595 320.371 267.142 325.181ZM225.087 162.613C186.046 162.613 154.281 194.376 154.281 233.419C154.281 272.461 186.046 304.224 225.087 304.224C264.128 304.224 295.893 272.461 295.893 233.419C295.893 194.376 264.128 162.613 225.087 162.613ZM225.087 299.009C188.918 299.009 159.495 269.586 159.495 233.417C159.495 197.248 188.918 167.826 225.087 167.826C261.256 167.826 290.679 197.25 290.679 233.419C290.679 269.587 261.254 299.009 225.087 299.009ZM225.087 146.511C273.008 146.511 311.995 185.498 311.995 233.419C311.995 281.339 273.008 320.326 225.087 320.326C177.167 320.326 138.18 281.339 138.18 233.419C138.18 185.498 177.167 146.511 225.087 146.511ZM150.97 233.417C150.97 274.284 184.218 307.534 225.087 307.534C265.955 307.534 299.205 274.286 299.205 233.419C299.205 192.551 265.957 159.301 225.087 159.301C184.218 159.301 150.97 192.549 150.97 233.417ZM287.677 232.513C287.677 266.803 259.879 294.601 225.588 294.601C191.298 294.601 163.5 266.803 163.5 232.513C163.5 198.222 191.298 170.424 225.588 170.424C259.879 170.424 287.677 198.222 287.677 232.513ZM263.106 254.939L257.64 264.405C256.577 266.243 254.595 267.392 252.47 267.392L197.881 267.371L206.191 252.986L225.818 253.007H225.825L246.609 253.029C247.256 253.029 247.845 252.684 248.168 252.131L256.958 236.841L263.106 247.485C264.427 249.783 264.427 252.641 263.106 254.939ZM255.399 232.354L263.098 218.981C264.427 216.676 264.42 213.818 263.091 211.512L256.943 200.898L228.935 249.417L245.575 249.439L255.399 232.354ZM222.773 217.078L194.771 265.576L188.631 254.961C187.295 252.663 187.295 249.805 188.624 247.499L196.301 234.149C196.301 234.149 196.308 234.149 196.308 234.141L206.118 217.078H222.773ZM245.533 213.487L253.835 199.102L199.254 199.087C197.128 199.087 195.146 200.229 194.083 202.075L188.618 211.533C187.289 213.831 187.289 216.69 188.618 218.995L194.751 229.645L203.527 214.392C203.85 213.831 204.439 213.487 205.086 213.487H245.533Z" fill="white"/>
</svg>
