<svg width="451" height="469" viewBox="0 0 451 469" fill="none" xmlns="http://www.w3.org/2000/svg">
<path d="M266.916 451.745C287.618 446.218 310.628 435.627 336.885 418.012C328.883 407.844 319.064 399.729 308.227 392.686C271.962 369.122 229.37 358.257 202.256 323.244C190.12 332 175.998 338.778 161.641 341.951C146.86 345.255 125.988 345.472 117.9 329.806C110.472 315.392 120.621 300.988 130.893 291.404L156.962 267.123C141.239 271.661 125.997 276.735 111.056 281.189L100.945 279.023C100.973 280.52 100.841 282.008 100.521 283.533L75.8356 398.985C75.572 400.246 75.1954 401.47 74.7153 402.619C75.459 402.779 76.2122 402.967 76.956 403.127C78.7636 397.817 81.9175 392.912 86.3989 388.958L109.804 368.302C123.521 356.214 144.742 357.551 156.83 371.268C157.63 372.181 158.374 373.113 159.071 374.074C172.119 367.992 188.266 370.901 198.217 382.189C200.081 384.326 201.634 386.623 202.858 389.024C213.374 387.828 224.314 391.585 231.761 400.049C234.962 403.683 237.231 407.844 238.568 412.222C246.335 413.239 253.754 416.92 259.28 423.19C266.407 431.221 268.865 441.897 266.916 451.745Z" fill="white"/>
<path d="M376.596 403.297C375.956 401.969 375.476 400.529 375.156 399.004L350.499 283.552C350.151 282.027 350.019 280.539 350.047 279.042L335.746 282.083C296.751 258.462 249.866 247.23 189.471 258.998C188.623 259.158 187.898 259.535 187.258 260.119L141.494 302.795C107.62 334.099 162.488 338.797 201.616 303.859C202.651 302.927 203.913 302.55 205.297 302.767C206.652 302.955 207.745 303.699 208.469 304.876C239.528 356.242 311.212 359.34 349.642 409.059L376.596 403.297Z" fill="white"/>
<path d="M120.188 427.295L143.593 406.667C150.936 400.209 151.652 388.892 145.165 381.577C138.707 374.243 127.419 373.518 120.075 379.977L96.6703 400.632C89.3363 407.091 88.6396 418.379 95.098 425.722C101.556 433.057 112.845 433.781 120.188 427.295Z" fill="white"/>
<path d="M161.584 438.206L184.989 417.579C192.323 411.12 193.048 399.832 186.562 392.489C180.103 385.155 168.815 384.43 161.471 390.916L138.067 411.544C130.733 418.002 130.008 429.291 136.494 436.634C142.953 443.968 154.241 444.693 161.584 438.206Z" fill="white"/>
<path d="M195.129 456.066L218.534 435.41C225.868 428.952 226.564 417.654 220.106 410.32C213.648 402.986 202.331 402.289 195.016 408.748L171.611 429.375C164.277 435.834 163.552 447.15 170.039 454.465C176.497 461.799 187.785 462.524 195.129 456.066Z" fill="white"/>
<path d="M246.043 458.551C253.377 452.093 254.102 440.795 247.616 433.461C241.167 426.118 229.869 425.402 222.535 431.889L216.048 437.623C208.714 444.081 207.989 455.379 214.448 462.713C220.925 470.047 232.213 470.743 239.557 464.285L246.043 458.551Z" fill="white"/>
<path d="M60.6498 395.756L85.3068 280.304C85.8434 277.875 84.2712 275.474 81.8328 274.975L30.617 264.035C28.188 263.498 25.7873 265.071 25.2789 267.5L0.593629 382.923C0.094652 385.381 1.63866 387.781 4.06764 388.29L55.2834 399.23C57.7124 399.757 60.1131 398.185 60.6498 395.756Z" fill="white"/>
<path d="M395.708 399.22L446.924 388.28C449.353 387.772 450.925 385.371 450.398 382.914L425.741 267.49C425.204 265.071 422.804 263.489 420.375 264.026L369.159 274.966C366.73 275.474 365.177 277.875 365.685 280.304L390.37 395.746C390.879 398.175 393.279 399.757 395.708 399.22Z" fill="white"/>
<path fill-rule="evenodd" clip-rule="evenodd" d="M166.196 159.922C166.196 197.148 196.568 227.491 233.765 227.491C270.99 227.491 301.334 197.148 301.334 159.922C301.334 122.725 270.99 92.3533 233.765 92.3533C196.568 92.3533 166.196 122.716 166.196 159.922ZM196.347 152.023C199.388 148.982 204.302 148.982 207.343 152.023L224.741 169.421L260.178 133.956C263.219 130.915 268.162 130.915 271.174 133.956C274.215 136.997 274.215 141.912 271.174 144.953L230.239 185.887C227.198 188.928 222.284 188.928 219.243 185.887L196.347 163.019C193.306 159.978 193.306 155.036 196.347 152.023Z" fill="white"/>
<path fill-rule="evenodd" clip-rule="evenodd" d="M314.513 135.153C315.53 135.209 316.537 135.228 317.554 135.228C354.864 135.228 385.123 104.969 385.123 67.6591C385.123 30.3488 354.864 0.0900879 317.554 0.0900879C280.244 0.0900879 249.985 30.3582 249.985 67.6591C249.985 73.0537 250.625 78.2788 251.83 83.3251C280.592 88.5126 304.213 108.519 314.513 135.153ZM299.553 68.4882C303.507 66.8594 308.036 68.7235 309.693 72.6777C310.144 73.7698 310.653 74.7583 311.237 75.6433C313.242 78.7125 315.906 80.473 318.684 81.2168C321.461 81.9605 324.314 81.7534 326.639 80.7649C327.147 80.5483 327.656 80.2847 328.136 79.9929C328.513 79.7293 328.861 79.4562 329.096 79.1926C329.896 78.3924 330.405 77.4038 330.537 76.3871C330.64 75.5303 330.452 74.5983 329.925 73.7415C329.68 73.3932 329.445 73.1013 329.153 72.8377C328.032 71.7456 324.718 70.9454 321.226 70.1169C314.852 68.62 308.092 67.0195 302.65 61.446C300.598 59.3371 299.101 56.8328 298.197 54.1308C296.992 50.5815 296.757 46.6838 297.585 43.0027C298.386 39.2368 300.278 35.6404 303.272 32.7313C305.437 30.6224 308.13 28.9183 311.387 27.8168C311.692 27.6964 312.007 27.6079 312.337 27.5154C312.446 27.4849 312.556 27.454 312.668 27.4214V22.008C312.668 17.7149 316.142 14.2126 320.435 14.2126C324.728 14.2126 328.202 17.7055 328.202 22.008V27.1296C329.162 27.3461 330.094 27.6379 331.007 27.9863C337.061 30.227 342.192 34.6048 344.508 41.4587C344.696 42.0235 344.885 42.6355 345.045 43.3039C346.061 47.4652 343.519 51.6547 339.358 52.6998C335.197 53.7166 331.007 51.1746 329.962 47.0133C329.934 46.8533 329.887 46.665 329.802 46.4484C329.162 44.5278 327.562 43.2475 325.641 42.5508C324.201 42.0141 322.628 41.7505 321.028 41.7505C320.84 41.7788 320.623 41.7788 320.444 41.7788H320.256C319.296 41.8353 318.363 41.9671 317.431 42.2024C317.232 42.2495 317.021 42.3112 316.799 42.3761C316.665 42.4152 316.528 42.4554 316.386 42.4943C315.398 42.8426 314.654 43.2945 314.089 43.8312C313.421 44.4996 312.969 45.3752 312.781 46.2884C312.536 47.2769 312.592 48.2655 312.884 49.141C313.101 49.7247 313.393 50.2331 313.788 50.638C316.017 52.9232 320.463 53.9879 324.69 54.9999L324.756 55.0158L324.806 55.0275C330.445 56.36 335.765 57.6168 339.998 61.7096C341.147 62.8582 342.136 64.035 342.936 65.2589C345.628 69.392 346.513 74.0146 345.92 78.4395C345.337 82.7608 343.331 86.8185 340.234 89.9912C339.142 91.1398 337.937 92.1284 336.628 92.9757C335.404 93.7759 334.039 94.5009 332.598 95.0846C331.215 95.6683 329.746 96.1484 328.192 96.4968V101.43C328.192 105.704 324.718 109.197 320.425 109.197C316.132 109.197 312.658 105.704 312.658 101.43V95.5553C307.188 93.663 302.067 89.9536 298.244 84.1353C297.18 82.5066 296.192 80.6613 295.363 78.6089C293.706 74.6736 295.571 70.1357 299.553 68.4882Z" fill="white"/>
<path fill-rule="evenodd" clip-rule="evenodd" d="M148.865 7.30414V0.0900879C140.009 0.234147 131.558 2.07368 123.837 5.32277L126.737 11.9318C133.569 9.07164 141.038 7.44598 148.865 7.30414ZM121.813 6.23029L124.711 12.8349C118.541 15.6895 112.934 19.5536 108.097 24.2167L102.999 19.1181C108.465 13.8255 114.817 9.44946 121.813 6.23029ZM82.4038 68.7678H89.6179C89.7553 76.3686 91.3011 83.628 94.0106 90.3013L87.3739 93.1293C84.2932 85.5873 82.5434 77.3714 82.4038 68.7678ZM94.0106 45.0178L87.3739 42.1898C84.2932 49.7319 82.5434 57.9466 82.4038 66.5514H89.6179C89.7553 58.9494 91.3011 51.69 94.0106 45.0178ZM88.248 95.165L94.8836 92.337C97.7625 98.7377 101.72 104.547 106.53 109.534L101.432 114.633C95.9751 108.997 91.4926 102.418 88.248 95.165ZM108.097 111.101L102.999 116.2C108.465 121.492 114.818 125.868 121.813 129.088L124.711 122.483C118.541 119.628 112.934 115.765 108.097 111.101ZM196.947 19.1181L191.848 24.2167C187.012 19.5536 181.405 15.6895 175.235 12.8349L178.132 6.23029C185.127 9.44946 191.48 13.8255 196.947 19.1181ZM211.697 40.153L205.062 42.981C202.183 36.5815 198.225 30.7726 193.415 25.7837L198.514 20.6851C203.97 26.3211 208.453 32.9002 211.697 40.153ZM210.328 66.5514H217.542C217.402 57.9477 215.653 49.7319 212.572 42.1898L205.935 45.0178C208.645 51.69 210.19 58.9494 210.328 66.5514ZM151.082 0.0900879C159.937 0.234147 168.387 2.07368 176.11 5.32277L173.21 11.9318C166.376 9.07164 158.907 7.44598 151.082 7.30414V0.0900879ZM123.837 129.995C131.558 133.245 140.009 135.085 148.865 135.228V128.014C141.039 127.872 133.57 126.246 126.737 123.386L123.837 129.995ZM101.432 20.6851L106.53 25.7837C101.72 30.7726 97.7625 36.5815 94.8836 42.981L88.248 40.153C91.4926 32.9002 95.9751 26.3222 101.432 20.6851ZM151.082 128.014V135.228C151.613 135.219 152.144 135.204 152.673 135.183C152.913 134.116 153.24 133.025 153.675 131.896C154.204 130.521 154.791 129.148 155.435 127.78C153.997 127.909 152.546 127.987 151.082 128.014ZM217.542 68.7666C217.465 73.5257 216.894 78.166 215.879 82.6394C213.212 83.0531 210.584 83.6151 208.005 84.3119C209.427 79.3597 210.231 74.149 210.328 68.7666H217.542ZM208.152 67.6715C208.152 73.716 207.225 79.548 205.506 85.0331C201.762 86.1841 198.127 87.6171 194.628 89.2901C197.807 82.7524 199.592 75.4164 199.592 67.6715C199.592 40.319 177.339 18.0652 149.985 18.0652C122.632 18.0652 100.379 40.3179 100.379 67.6704C100.379 95.0228 122.632 117.277 149.985 117.277C154.394 117.277 158.67 116.699 162.742 115.614C160.382 118.814 158.315 122.117 156.578 125.467C154.414 125.712 152.214 125.838 149.985 125.838C117.912 125.838 91.8185 99.7447 91.8185 67.6715C91.8185 35.5983 117.912 9.50473 149.985 9.50473C182.058 9.50473 208.152 35.5983 208.152 67.6715ZM197.375 67.6715C197.375 76.1556 195.134 84.1261 191.213 91.0222C188.746 92.3453 186.356 93.7872 184.052 95.3316C190.197 87.7771 193.885 78.1471 193.885 67.6715C193.885 43.4639 174.193 23.771 149.985 23.771C125.777 23.771 106.085 43.4628 106.085 67.6704C106.085 91.8779 125.777 111.571 149.985 111.571C157.452 111.571 164.49 109.697 170.653 106.394C168.672 108.393 166.81 110.467 165.078 112.598C160.335 114.195 155.259 115.061 149.985 115.061C123.855 115.061 102.595 93.8027 102.595 67.6715C102.595 41.5402 123.855 20.2815 149.985 20.2815C176.115 20.2815 197.375 41.5402 197.375 67.6715ZM191.876 67.0652C191.876 90.0157 173.271 108.621 150.32 108.621C127.37 108.621 108.765 90.0157 108.765 67.0652C108.765 44.1147 127.37 25.5096 150.32 25.5096C173.271 25.5096 191.876 44.1147 191.876 67.0652ZM175.431 82.0752L171.773 88.4104C171.062 89.641 169.735 90.41 168.312 90.41L131.777 90.3956L137.338 80.7678L150.475 80.7822H150.479L164.39 80.7967C164.823 80.7967 165.217 80.5659 165.433 80.1958L171.316 69.9624L175.431 77.0859C176.315 78.624 176.315 80.5371 175.431 82.0752ZM170.274 66.9583L175.426 58.0082C176.316 56.4653 176.311 54.5522 175.422 53.0093L171.307 45.905L152.561 78.3789L163.698 78.3934L170.274 66.9583ZM148.436 56.7344L129.695 89.194L125.585 82.0897C124.691 80.5515 124.691 78.6385 125.58 77.0955L130.719 68.1599C130.719 68.1599 130.719 68.1599 130.72 68.1597C130.721 68.1595 130.722 68.1592 130.722 68.1586C130.723 68.1579 130.724 68.1568 130.724 68.1551L137.29 56.7344H148.436ZM163.669 54.331L169.225 44.7032L132.694 44.6936C131.272 44.6936 129.945 45.4579 129.234 46.6932L125.576 53.0236C124.687 54.5617 124.687 56.4748 125.576 58.0178L129.681 65.1461L135.554 54.9367C135.771 54.5617 136.165 54.331 136.598 54.331H163.669Z" fill="white"/>
</svg>
