<svg width="451" height="451" viewBox="0 0 451 451" fill="none" xmlns="http://www.w3.org/2000/svg">
<path fill-rule="evenodd" clip-rule="evenodd" d="M133.892 112.053C121.968 112.072 112.291 121.749 112.272 133.671V316.712C112.291 328.635 121.969 338.311 133.892 338.33H317.144C329.068 338.311 338.745 328.634 338.764 316.712V133.479C338.745 121.556 329.067 111.88 317.144 111.861L133.892 112.053ZM316.702 310.665C316.702 313.756 314.186 316.271 311.095 316.271H139.94C136.849 316.271 134.334 313.756 134.334 310.665V139.527C134.334 136.436 136.849 133.921 139.94 133.921H311.095C314.186 133.921 316.702 136.436 316.702 139.527V310.665ZM145.586 305.02H305.45V145.173H145.586V305.02ZM73.4886 161.2H101.023V172.45H67.882C64.7523 172.45 62.2372 169.916 62.2372 166.806V134.514C54.403 131.768 49.6989 123.781 51.1008 115.602C52.4832 107.443 59.5686 101.453 67.8633 101.453C76.1581 101.453 83.2432 107.443 84.6259 115.602C86.0084 123.781 81.3042 131.768 73.4895 134.514L73.4886 161.2ZM101.944 67.8162C101.906 59.5222 107.858 52.3995 116.038 50.9978C124.218 49.5963 132.205 54.3192 134.932 62.1714H166.978C170.108 62.1714 172.623 64.6864 172.623 67.8157V100.934H161.621V73.4025L134.931 73.4217C132.224 81.2551 124.236 85.9778 116.057 84.5952C107.896 83.1937 101.925 76.1101 101.944 67.8162ZM188.598 36.1572C188.598 36.1073 188.599 36.0574 188.599 36.0075C188.663 43.1467 193.211 49.5026 199.966 51.8427V100.934L211.16 100.954V52.1883C217.15 50.096 221.47 44.835 222.354 38.5572C223.237 32.2789 220.549 26.0203 215.383 22.3532C210.218 18.6862 203.421 18.2063 197.796 21.1053C192.195 24.0003 188.673 29.7302 188.599 36.0075C188.599 35.9559 188.599 35.9042 188.599 35.8525L188.598 36.1572ZM251.078 100.607H239.884V17.0529C239.884 13.9427 242.38 11.447 245.472 11.447H277.575C280.302 3.63323 288.27 -1.05166 296.43 0.330904C304.571 1.71323 310.543 8.77866 310.543 17.0529C310.543 25.3085 304.572 32.3737 296.43 33.7558C288.27 35.1381 280.302 30.4536 277.575 22.6397H251.078V100.607ZM284.065 61.8249H316.111C318.857 53.9915 326.845 49.2879 335.024 50.6896C343.185 52.072 349.175 59.1566 349.175 67.4505C349.175 75.7444 343.184 82.8288 335.024 84.2114C326.845 85.5937 318.857 80.89 316.111 73.0761H289.672V100.608H278.42V67.4702C278.42 64.3407 280.936 61.8249 284.065 61.8249ZM383.16 172.199H350.019V161.198H377.553V134.512C369.758 131.766 365.073 123.799 366.475 115.658C367.857 107.518 374.923 101.566 383.179 101.566C391.455 101.566 398.501 107.518 399.903 115.658C401.285 123.799 396.6 131.766 388.805 134.512V166.554C388.805 168.052 388.21 169.492 387.154 170.548C386.098 171.604 384.658 172.199 383.16 172.199ZM398.789 210.731H350.019V199.538H398.789C401.516 191.725 409.484 187.04 417.645 188.422C425.785 189.805 431.757 196.87 431.757 205.144C431.757 213.4 425.786 220.465 417.645 221.847C409.484 223.249 401.516 218.545 398.789 210.731ZM450.5 293.169C450.5 299.505 446.948 305.303 441.322 308.221C435.677 311.12 428.899 310.64 423.734 306.973C418.549 303.287 415.861 297.047 416.745 290.769C417.647 284.491 421.948 279.23 427.938 277.138V250.644H350.019V239.451H433.581C436.692 239.451 439.188 241.947 439.188 245.038V277.138C445.985 279.519 450.538 285.951 450.5 293.169ZM400.117 331.701C400.117 338.037 396.565 343.835 390.939 346.753C385.294 349.652 378.516 349.172 373.351 345.505C368.166 341.838 365.478 335.579 366.362 329.301C367.264 323.023 371.565 317.762 377.555 315.67V289.233H350.021V277.982H383.162C386.292 277.982 388.807 280.497 388.807 283.627V315.67C395.585 318.089 400.098 324.502 400.117 331.701ZM349.1 382.713C349.138 391.007 343.186 398.13 335.006 399.531C326.826 400.933 318.839 396.21 316.112 388.358H284.066C280.936 388.358 278.421 385.843 278.421 382.713V349.576H289.673V377.108H316.113C318.82 369.274 326.808 364.551 334.987 365.934C343.147 367.336 349.119 374.419 349.1 382.713ZM262.446 414.372C262.426 420.708 258.893 426.506 253.248 429.424C247.623 432.323 240.826 431.843 235.661 428.176C230.495 424.49 227.807 418.25 228.69 411.972C229.574 405.694 233.894 400.433 239.884 398.341V349.576H251.078V398.341C257.894 400.702 262.465 407.153 262.446 414.372ZM199.966 349.574H211.179V433.127H211.16C211.16 436.237 208.663 438.733 205.572 438.733H173.469C170.742 446.547 162.774 451.232 154.614 449.849C146.473 448.467 140.501 441.402 140.501 433.127C140.501 424.872 146.472 417.807 154.614 416.424C162.774 415.042 170.742 419.727 173.469 427.54H199.966L199.966 349.574ZM166.979 388.355H134.933C132.187 396.189 124.199 400.892 116.02 399.491C107.859 398.108 101.869 391.024 101.869 382.73C101.869 374.436 107.86 367.351 116.02 365.969C124.199 364.587 132.187 369.29 134.933 377.104H161.622V349.573H172.874V382.71C172.874 384.246 172.259 385.724 171.146 386.799C170.032 387.855 168.515 388.432 166.979 388.355ZM67.884 277.981H101.006V289.232H73.4714V315.669H73.4905C81.2859 318.414 85.9713 326.382 84.5694 334.522C83.187 342.662 76.1208 348.614 67.8649 348.614C59.5892 348.614 52.5425 342.662 51.1411 334.522C49.7587 326.382 54.4436 318.414 62.2392 315.669V283.626C62.2392 280.496 64.7544 277.981 67.884 277.981ZM52.2544 239.449H101.025V250.642H52.2544C49.5279 258.456 41.5595 263.14 33.3994 261.758C25.2585 260.376 19.2867 253.31 19.2867 245.036C19.2867 236.78 25.258 229.715 33.3994 228.333C41.56 226.931 49.5279 231.635 52.2544 239.449ZM23.1075 199.534H101.027V210.746H17.4646V210.727C14.354 210.727 11.858 208.231 11.858 205.14V173.04C4.04351 170.314 -0.641867 162.346 0.740841 154.187C2.1233 146.047 9.18946 140.076 17.4646 140.076C25.721 140.076 32.7869 146.046 34.1691 154.187C35.5516 162.347 30.8666 170.314 23.0519 173.04L23.1075 199.534ZM280.496 256.249L272.304 270.437C270.711 273.192 267.74 274.915 264.554 274.915L182.733 274.883L195.188 253.321L224.607 253.354H224.618L255.77 253.386C256.739 253.386 257.621 252.869 258.106 252.04L271.282 229.123L280.496 245.076C282.477 248.52 282.477 252.805 280.496 256.249ZM268.946 222.395L280.485 202.352C282.477 198.896 282.466 194.612 280.474 191.157L271.26 175.247L229.279 247.971L254.22 248.004L268.946 222.395ZM220.041 199.499L178.071 272.191L168.867 256.281C166.865 252.837 166.865 248.553 168.856 245.097L180.363 225.086C180.363 225.086 180.374 225.086 180.374 225.075L195.078 199.499H220.041ZM254.154 194.117L266.598 172.555L184.788 172.534C181.602 172.534 178.631 174.245 177.038 177.012L168.846 191.189C166.855 194.633 166.855 198.918 168.846 202.373L178.039 218.337L191.193 195.473C191.677 194.633 192.56 194.117 193.529 194.117H254.154Z" fill="white"/>
</svg>
