<svg width="511" height="451" viewBox="0 0 511 451" fill="none" xmlns="http://www.w3.org/2000/svg">
<path fill-rule="evenodd" clip-rule="evenodd" d="M253.533 195.434V181.073C235.903 181.36 219.08 185.022 203.709 191.49L209.482 204.646C223.084 198.953 237.953 195.717 253.533 195.434ZM199.681 193.296L205.45 206.444C193.167 212.127 182.007 219.819 172.377 229.102L162.228 218.952C173.11 208.416 185.755 199.705 199.681 193.296ZM121.229 317.789H135.59C135.864 332.92 138.941 347.371 144.335 360.656L131.123 366.285C124.991 351.271 121.507 334.916 121.229 317.789ZM144.335 270.51L131.123 264.881C124.991 279.895 121.507 296.247 121.229 313.377H135.59C135.864 298.244 138.941 283.793 144.335 270.51ZM132.863 370.338L146.073 364.708C151.804 377.45 159.682 389.014 169.258 398.943L159.108 409.092C148.246 397.873 139.323 384.776 132.863 370.338ZM172.377 402.062L162.228 412.212C173.11 422.747 185.757 431.459 199.681 437.867L205.45 424.719C193.167 419.037 182.007 411.347 172.377 402.062ZM349.249 218.952L339.099 229.102C329.472 219.819 318.31 212.127 306.027 206.444L311.795 193.296C325.72 199.705 338.366 208.416 349.249 218.952ZM378.613 260.826L365.403 266.456C359.672 253.716 351.795 242.152 342.218 232.221L352.368 222.071C363.23 233.291 372.154 246.388 378.613 260.826ZM375.887 313.377H390.248C389.97 296.25 386.486 279.895 380.354 264.881L367.142 270.51C372.536 283.793 375.613 298.244 375.887 313.377ZM257.946 181.073C275.574 181.36 292.396 185.022 307.77 191.49L301.997 204.646C288.392 198.953 273.524 195.717 257.946 195.434V181.073ZM203.709 439.673C219.08 446.144 235.903 449.806 253.533 450.09V435.729C237.955 435.447 223.087 432.211 209.482 426.517L203.709 439.673ZM159.108 222.071L169.258 232.221C159.682 242.152 151.804 253.716 146.073 266.456L132.863 260.826C139.323 246.388 148.246 233.293 159.108 222.071ZM257.946 435.729V450.09C275.576 449.803 292.399 446.141 307.77 439.673L301.997 426.517C288.392 432.211 273.524 435.447 257.946 435.729ZM380.354 366.283L367.142 360.653C372.536 347.371 375.613 332.92 375.887 317.787H390.248C389.97 334.914 386.484 351.269 380.354 366.283ZM342.218 398.943L352.368 409.092C363.23 397.871 372.154 384.776 378.613 370.338L365.403 364.708C359.672 377.45 351.795 389.014 342.218 398.943ZM311.795 437.867L306.027 424.719C318.31 419.037 329.472 411.347 339.099 402.062L349.249 412.212C338.366 422.747 325.722 431.459 311.795 437.867ZM255.763 221.268C203.746 221.268 161.424 263.587 161.424 315.607C161.424 367.626 203.746 409.945 255.763 409.945C307.78 409.945 350.102 367.626 350.102 315.607C350.102 263.587 307.78 221.268 255.763 221.268ZM255.763 402.997C207.573 402.997 168.37 363.794 168.37 315.605C168.37 267.415 207.573 228.215 255.763 228.215C303.952 228.215 343.155 267.417 343.155 315.607C343.155 363.796 303.95 402.997 255.763 402.997ZM255.763 199.815C319.611 199.815 371.555 251.759 371.555 315.607C371.555 379.454 319.611 431.399 255.763 431.399C191.915 431.399 139.971 379.454 139.971 315.607C139.971 251.759 191.915 199.815 255.763 199.815ZM157.012 315.605C157.012 370.055 201.311 414.355 255.763 414.355C310.213 414.355 354.514 370.057 354.514 315.607C354.514 261.157 310.216 216.856 255.763 216.856C201.311 216.856 157.012 261.154 157.012 315.605ZM339.155 314.4C339.155 360.087 302.118 397.124 256.43 397.124C210.743 397.124 173.706 360.087 173.706 314.4C173.706 268.713 210.743 231.676 256.43 231.676C302.118 231.676 339.155 268.713 339.155 314.4ZM306.417 344.281L299.136 356.892C297.72 359.342 295.079 360.873 292.246 360.873L219.515 360.844L230.586 341.678L256.737 341.707H256.747L284.438 341.735C285.299 341.735 286.084 341.276 286.515 340.539L298.227 320.168L306.417 334.348C308.178 337.41 308.178 341.219 306.417 344.281ZM296.15 314.187L306.408 296.371C308.178 293.299 308.168 289.491 306.398 286.419L298.207 272.277L260.89 336.922L283.06 336.951L296.15 314.187ZM252.68 293.835L215.372 358.452L207.19 344.309C205.411 341.247 205.411 337.439 207.181 334.367L217.41 316.579C217.41 316.579 217.412 316.579 217.415 316.578C217.417 316.577 217.419 316.574 217.419 316.57L230.49 293.835H252.68ZM283.003 289.051L294.065 269.885L221.343 269.865C218.511 269.865 215.87 271.387 214.454 273.846L207.172 286.448C205.402 289.51 205.402 293.318 207.172 296.39L215.344 310.58L227.036 290.256C227.467 289.51 228.252 289.051 229.113 289.051H283.003Z" fill="white"/>
<path d="M344.766 200.086L442.668 199.879C439.398 189.643 432.244 181.098 422.742 176.079C413.24 171.06 402.149 169.968 391.851 173.038L392.477 172.653C393.105 172.264 448.429 137.291 441.318 77.1413C457.092 94.6661 466.776 116.821 468.926 140.301C471.076 163.781 465.576 187.326 453.248 207.424C452.763 208.15 452.106 208.745 451.335 209.155C450.564 209.565 449.704 209.778 448.831 209.774L354.601 210.04C351.629 206.433 348.337 203.102 344.766 200.086Z" fill="white"/>
<path d="M267.347 93.0412C279.729 72.9777 298.267 57.4555 320.195 48.7908C342.122 40.126 366.263 38.7831 389.016 44.9624C332.122 65.73 325.842 130.878 325.781 131.617L325.718 132.359C323.82 121.78 317.847 112.368 309.083 106.146C300.32 99.9238 289.465 97.3882 278.852 99.084L322.795 186.569C318.494 184.741 314.037 183.304 309.477 182.277L267.24 98.0428C266.844 97.2648 266.647 96.4012 266.666 95.5286C266.684 94.656 266.918 93.8016 267.347 93.0412Z" fill="white"/>
<path d="M397.825 156.548L343.022 198.663C340.348 196.481 337.534 194.478 334.598 192.664L380.828 157.098C377.421 150.492 372.284 144.936 365.966 141.022C359.62 137.136 352.33 135.068 344.89 135.043L334.006 192.3C331.064 190.497 328.007 188.888 324.854 187.485L337.746 119.581C340.976 102.771 349.078 87.2811 361.043 75.0391C373.008 62.7971 388.308 54.3429 405.04 50.7282C413.634 54.5404 421.677 59.4893 428.953 65.4421C433.235 82.0084 432.568 99.4661 427.036 115.658C421.504 131.849 411.348 146.065 397.825 156.548Z" fill="white"/>
<path d="M166.234 200.086L68.3318 199.879C71.602 189.643 78.7564 181.098 88.258 176.079C97.7597 171.06 108.851 169.968 119.149 173.038L118.523 172.653C117.895 172.264 62.5715 137.291 69.6818 77.1413C53.9084 94.6661 44.2242 116.821 42.0742 140.301C39.9243 163.781 45.4238 187.326 57.7523 207.424C58.2371 208.15 58.8942 208.745 59.6649 209.155C60.4355 209.565 61.2958 209.778 62.1687 209.774L156.399 210.04C159.371 206.433 162.663 203.102 166.234 200.086Z" fill="white"/>
<path d="M243.653 93.0412C231.271 72.9777 212.733 57.4555 190.805 48.7908C168.878 40.126 144.737 38.7831 121.984 44.9624C178.878 65.73 185.158 130.878 185.219 131.617L185.282 132.359C187.18 121.78 193.153 112.368 201.917 106.146C210.68 99.9238 221.535 97.3882 232.148 99.084L188.205 186.569C192.506 184.741 196.963 183.304 201.523 182.277L243.76 98.0428C244.156 97.2648 244.353 96.4012 244.334 95.5286C244.316 94.656 244.082 93.8016 243.653 93.0412Z" fill="white"/>
<path d="M113.175 156.548L167.979 198.663C170.653 196.481 173.467 194.478 176.403 192.664L130.172 157.098C133.579 150.492 138.716 144.936 145.035 141.022C151.38 137.136 158.671 135.068 166.111 135.043L176.994 192.3C179.936 190.497 182.994 188.888 186.146 187.485L173.255 119.581C170.024 102.771 161.923 87.2811 149.958 75.0391C137.993 62.7971 122.693 54.3429 105.961 50.7282C97.367 54.5404 89.324 59.4893 82.0473 65.4421C77.7658 82.0084 78.4324 99.4661 83.9645 115.658C89.4967 131.849 99.6521 146.065 113.175 156.548Z" fill="white"/>
</svg>
