<svg width="451" height="398" viewBox="0 0 451 398" fill="none" xmlns="http://www.w3.org/2000/svg">
<path fill-rule="evenodd" clip-rule="evenodd" d="M223.764 173.109V160.434C208.204 160.688 193.357 163.919 179.791 169.628L184.886 181.239C196.891 176.214 210.013 173.358 223.764 173.109ZM176.236 171.222L181.327 182.826C170.487 187.841 160.637 194.63 152.139 202.823L143.181 193.865C152.785 184.566 163.945 176.878 176.236 171.222ZM106.998 281.094H119.672C119.914 294.448 122.63 307.203 127.39 318.927L115.73 323.895C110.317 310.645 107.243 296.21 106.998 281.094ZM127.39 239.368L115.73 234.4C110.317 247.65 107.243 262.083 106.998 277.2H119.672C119.914 263.845 122.63 251.09 127.39 239.368ZM117.266 327.472L128.924 322.503C133.982 333.749 140.934 343.954 149.386 352.717L140.428 361.675C130.841 351.773 122.966 340.214 117.266 327.472ZM152.139 355.47L143.181 364.428C152.785 373.726 163.947 381.415 176.236 387.071L181.327 375.467C170.487 370.452 160.637 363.665 152.139 355.47ZM308.239 193.865L299.281 202.823C290.785 194.63 280.933 187.841 270.093 182.826L275.184 171.222C287.473 176.878 298.634 184.566 308.239 193.865ZM334.154 230.821L322.496 235.79C317.438 224.546 310.486 214.341 302.034 205.576L310.992 196.618C320.578 206.52 328.454 218.079 334.154 230.821ZM331.748 277.2H344.423C344.177 262.085 341.103 247.65 335.691 234.4L324.031 239.368C328.791 251.09 331.507 263.845 331.748 277.2ZM227.658 160.434C243.216 160.688 258.063 163.919 271.631 169.628L266.536 181.239C254.529 176.214 241.407 173.358 227.658 173.109V160.434ZM179.791 388.665C193.357 394.375 208.204 397.607 223.764 397.858V385.184C210.015 384.935 196.893 382.078 184.886 377.053L179.791 388.665ZM140.428 196.618L149.386 205.576C140.934 214.341 133.982 224.546 128.924 235.79L117.266 230.821C122.966 218.079 130.841 206.522 140.428 196.618ZM227.658 385.184V397.858C243.218 397.605 258.065 394.373 271.631 388.665L266.536 377.053C254.529 382.078 241.407 384.935 227.658 385.184ZM335.691 323.893L324.031 318.925C328.791 307.202 331.507 294.448 331.748 281.092H344.423C344.177 296.208 341.101 310.643 335.691 323.893ZM302.034 352.717L310.992 361.675C320.578 351.771 328.454 340.214 334.154 327.472L322.496 322.503C317.438 333.749 310.486 343.954 302.034 352.717ZM275.184 387.071L270.093 375.467C280.933 370.452 290.785 363.665 299.281 355.47L308.239 364.428C298.634 373.726 287.475 381.415 275.184 387.071ZM225.732 195.909C179.823 195.909 142.472 233.258 142.472 279.168C142.472 325.078 179.823 362.428 225.732 362.428C271.64 362.428 308.991 325.078 308.991 279.168C308.991 233.258 271.64 195.909 225.732 195.909ZM225.732 356.295C183.201 356.295 148.603 321.697 148.603 279.166C148.603 236.636 183.201 202.04 225.732 202.04C268.262 202.04 302.861 236.638 302.861 279.168C302.861 321.699 268.26 356.295 225.732 356.295ZM225.732 176.975C282.082 176.975 327.926 222.819 327.926 279.168C327.926 335.518 282.082 381.362 225.732 381.362C169.383 381.362 123.539 335.518 123.539 279.168C123.539 222.819 169.383 176.975 225.732 176.975ZM138.578 279.166C138.578 327.222 177.674 366.32 225.732 366.32C273.788 366.32 312.886 327.224 312.886 279.168C312.886 231.113 273.79 192.015 225.732 192.015C177.674 192.015 138.578 231.111 138.578 279.166ZM299.33 278.103C299.33 318.425 266.643 351.112 226.321 351.112C185.999 351.112 153.312 318.425 153.312 278.103C153.312 237.781 185.999 205.094 226.321 205.094C266.643 205.094 299.33 237.781 299.33 278.103ZM270.437 304.475L264.011 315.605C262.761 317.767 260.43 319.118 257.93 319.118L193.741 319.093L203.512 302.178L226.591 302.203H226.6L251.039 302.228C251.799 302.228 252.492 301.823 252.872 301.173L263.208 283.193L270.437 295.709C271.991 298.411 271.991 301.772 270.437 304.475ZM261.375 277.916L270.428 262.191C271.991 259.481 271.982 256.12 270.42 253.409L263.191 240.927L230.256 297.981L249.823 298.006L261.375 277.916ZM223.01 259.954L190.083 316.982L182.863 304.5C181.292 301.798 181.292 298.437 182.854 295.726L191.882 280.027C191.882 280.027 191.891 280.027 191.891 280.019L203.426 259.954H223.01ZM249.774 255.731L259.536 238.816L195.355 238.799C192.855 238.799 190.525 240.142 189.275 242.312L182.848 253.434C181.286 256.136 181.286 259.498 182.848 262.208L190.06 274.732L200.38 256.795C200.76 256.136 201.452 255.731 202.212 255.731H249.774Z" fill="black"/>
<path d="M304.283 177.215L390.687 177.031C387.801 167.997 381.487 160.456 373.101 156.027C364.715 151.597 354.927 150.634 345.838 153.343L346.39 153.003C346.945 152.659 395.771 121.794 389.496 68.7082C403.417 84.1749 411.964 103.728 413.861 124.45C415.759 145.173 410.905 165.953 400.024 183.691C399.597 184.332 399.017 184.856 398.336 185.218C397.656 185.58 396.897 185.768 396.127 185.765L312.963 185.999C310.34 182.816 307.435 179.876 304.283 177.215Z" fill="black"/>
<path d="M235.955 82.7408C246.884 65.0335 263.245 51.3342 282.597 43.6871C301.949 36.0399 323.255 34.8547 343.336 40.3083C293.124 58.637 287.581 116.134 287.527 116.786L287.471 117.441C285.796 108.104 280.525 99.7979 272.79 94.3065C265.056 88.815 255.476 86.5772 246.109 88.0739L284.892 165.285C281.096 163.671 277.162 162.403 273.138 161.497L235.861 87.1549C235.512 86.4683 235.338 85.7061 235.354 84.936C235.371 84.1659 235.577 83.4118 235.955 82.7408Z" fill="black"/>
<path d="M351.11 138.789L302.743 175.958C300.383 174.033 297.899 172.265 295.308 170.664L336.109 139.275C333.102 133.445 328.569 128.541 322.992 125.087C317.392 121.657 310.958 119.832 304.391 119.81L294.786 170.343C292.189 168.751 289.491 167.331 286.709 166.093L298.086 106.164C300.938 91.3277 308.088 77.6572 318.648 66.8529C329.207 56.0486 342.71 48.5873 357.477 45.397C365.062 48.7615 372.16 53.1292 378.583 58.383C382.361 73.0037 381.773 88.4112 376.89 102.701C372.008 116.991 363.045 129.537 351.11 138.789Z" fill="black"/>
<path d="M146.717 177.215L60.3126 177.031C63.1987 167.997 69.5128 160.456 77.8986 156.027C86.2844 151.597 96.0729 150.634 105.161 153.343L104.61 153.003C104.055 152.659 55.2287 121.794 61.504 68.7082C47.583 84.1749 39.0361 103.728 37.1386 124.45C35.2412 145.173 40.0949 165.953 50.9755 183.691C51.4033 184.332 51.9833 184.856 52.6634 185.218C53.3436 185.58 54.1028 185.768 54.8732 185.765L138.037 185.999C140.66 182.816 143.565 179.876 146.717 177.215Z" fill="black"/>
<path d="M215.045 82.7408C204.116 65.0335 187.755 51.3342 168.403 43.6871C149.051 36.0399 127.745 34.8547 107.664 40.3083C157.876 58.637 163.419 116.134 163.473 116.786L163.529 117.441C165.204 108.104 170.475 99.7979 178.21 94.3065C185.944 88.815 195.524 86.5772 204.891 88.0739L166.108 165.285C169.904 163.671 173.838 162.403 177.862 161.497L215.139 87.1549C215.488 86.4683 215.662 85.7061 215.646 84.936C215.629 84.1659 215.423 83.4118 215.045 82.7408Z" fill="black"/>
<path d="M99.8898 138.789L148.257 175.958C150.617 174.033 153.1 172.265 155.692 170.664L114.891 139.275C117.898 133.445 122.431 128.541 128.008 125.087C133.608 121.657 140.042 119.832 146.608 119.81L156.214 170.343C158.81 168.751 161.509 167.331 164.291 166.093L152.914 106.164C150.062 91.3277 142.912 77.6572 132.352 66.8529C121.793 56.0486 108.289 48.5873 93.5224 45.397C85.9379 48.7615 78.8394 53.1292 72.4173 58.383C68.6387 73.0037 69.2269 88.4112 74.1094 102.701C78.9919 116.991 87.9546 129.537 99.8898 138.789Z" fill="black"/>
</svg>
