<svg width="583" height="451" viewBox="0 0 583 451" fill="none" xmlns="http://www.w3.org/2000/svg">
<path d="M239.359 331.118L179.773 301.325V348.604L239.359 378.397V331.118Z" fill="black"/>
<path d="M135.084 376.223L284.048 450.706V303.501L135.084 229.019V376.223ZM164.877 289.274C164.877 286.692 166.212 284.295 168.408 282.935C170.605 281.578 173.347 281.455 175.656 282.608L250.139 319.849C252.663 321.111 254.259 323.693 254.255 326.515V390.451C254.255 393.033 252.921 395.429 250.724 396.79C248.531 398.146 245.789 398.27 243.48 397.117L168.997 359.876C166.47 358.614 164.877 356.032 164.877 353.209V289.274Z" fill="black"/>
<path d="M343.635 378.397L403.22 348.604V301.325L343.635 331.118V378.397Z" fill="black"/>
<path d="M387.192 191.217C384.399 197.651 380.954 203.782 376.921 209.518H395.771V224.414H187.221V209.518H206.074C202.037 203.782 198.597 197.651 195.8 191.217L144.288 216.966L291.496 290.568L438.704 216.966L387.192 191.217Z" fill="black"/>
<path d="M298.944 303.501V450.706L447.908 376.223V229.019L298.944 303.501ZM418.115 353.209C418.119 356.032 416.522 358.614 413.998 359.876L339.516 397.117C337.207 398.27 334.464 398.146 332.268 396.79C330.071 395.429 328.736 393.033 328.736 390.451V326.515C328.736 323.693 330.329 321.111 332.857 319.849L407.339 282.608C409.649 281.455 412.391 281.578 414.584 282.935C416.78 284.295 418.115 286.692 418.115 289.274V353.209Z" fill="black"/>
<path fill-rule="evenodd" clip-rule="evenodd" d="M289.684 80.426V70.3694C277.339 70.5702 265.558 73.1346 254.794 77.6639L258.837 86.8771C268.362 82.8899 278.774 80.6237 289.684 80.426ZM251.973 78.929L256.013 88.136C247.411 92.1154 239.596 97.5021 232.853 104.003L225.745 96.895C233.366 89.517 242.221 83.4166 251.973 78.929ZM197.035 166.108H207.092C207.284 176.704 209.439 186.824 213.216 196.127L203.964 200.069C199.669 189.555 197.23 178.102 197.035 166.108ZM213.216 133L203.964 129.058C199.669 139.572 197.23 151.023 197.035 163.018H207.092C207.284 152.421 209.439 142.301 213.216 133ZM205.182 202.907L214.433 198.964C218.446 207.887 223.962 215.985 230.668 222.938L223.561 230.046C215.954 222.189 209.705 213.017 205.182 202.907ZM232.853 225.122L225.745 232.23C233.366 239.608 242.222 245.708 251.973 250.196L256.013 240.989C247.411 237.01 239.596 231.624 232.853 225.122ZM356.711 96.895L349.604 104.003C342.862 97.5021 335.046 92.1154 326.444 88.136L330.484 78.929C340.235 83.4166 349.091 89.517 356.711 96.895ZM377.274 126.218L368.024 130.161C364.011 121.24 358.494 113.142 351.788 106.187L358.896 99.0794C366.502 106.936 372.751 116.108 377.274 126.218ZM375.365 163.018H385.422C385.227 151.025 382.788 139.572 378.493 129.058L369.242 133C373.019 142.301 375.174 152.421 375.365 163.018ZM292.774 70.3694C305.119 70.5702 316.899 73.1346 327.665 77.6639L323.622 86.8771C314.095 82.8899 303.683 80.6237 292.774 80.426V70.3694ZM254.794 251.461C265.558 255.992 277.339 258.556 289.684 258.755V248.699C278.775 248.501 268.363 246.235 258.837 242.248L254.794 251.461ZM223.561 99.0794L230.668 106.187C223.962 113.142 218.446 121.24 214.433 130.161L205.182 126.218C209.705 116.108 215.954 106.938 223.561 99.0794ZM292.774 248.699V258.755C305.12 258.555 316.901 255.99 327.665 251.461L323.622 242.248C314.095 246.235 303.683 248.501 292.774 248.699ZM378.493 200.067L369.242 196.125C373.019 186.824 375.174 176.704 375.365 166.107H385.422C385.227 178.1 382.786 189.553 378.493 200.067ZM351.788 222.938L358.896 230.046C366.502 222.187 372.751 213.017 377.274 202.907L368.024 198.964C364.011 207.887 358.494 215.985 351.788 222.938ZM330.484 250.196L326.444 240.989C335.046 237.01 342.862 231.624 349.604 225.122L356.711 232.23C349.091 239.608 340.236 245.708 330.484 250.196ZM291.246 98.5168C254.819 98.5168 225.182 128.152 225.182 164.58C225.182 201.008 254.819 230.643 291.246 230.643C327.672 230.643 357.309 201.008 357.309 164.58C357.309 128.152 327.672 98.5168 291.246 98.5168ZM291.246 225.777C257.5 225.777 230.047 198.324 230.047 164.578C230.047 130.832 257.5 103.381 291.246 103.381C324.992 103.381 352.444 130.834 352.444 164.58C352.444 198.326 324.99 225.777 291.246 225.777ZM291.246 83.4937C335.957 83.4937 372.332 119.869 372.332 164.58C372.332 209.291 335.957 245.666 291.246 245.666C246.535 245.666 210.16 209.291 210.16 164.58C210.16 119.869 246.535 83.4937 291.246 83.4937ZM222.093 164.578C222.093 202.709 253.114 233.731 291.246 233.731C329.376 233.731 360.399 202.71 360.399 164.58C360.399 126.45 329.378 95.4272 291.246 95.4272C253.114 95.4272 222.093 126.448 222.093 164.578ZM349.643 163.735C349.643 195.729 323.707 221.665 291.713 221.665C259.719 221.665 233.783 195.729 233.783 163.735C233.783 131.741 259.719 105.805 291.713 105.805C323.707 105.805 349.643 131.741 349.643 163.735ZM326.717 184.659L321.618 193.49C320.626 195.206 318.777 196.278 316.794 196.278L265.862 196.258L273.615 182.836L291.928 182.856H291.934L311.326 182.876C311.929 182.876 312.478 182.555 312.78 182.039L320.982 167.773L326.717 177.703C327.95 179.848 327.95 182.515 326.717 184.659ZM319.528 163.586L326.711 151.11C327.95 148.959 327.944 146.292 326.704 144.141L320.968 134.238L294.836 179.507L310.361 179.527L319.528 163.586ZM289.086 149.333L262.96 194.583L257.231 184.679C255.985 182.535 255.985 179.868 257.224 177.717L264.387 165.261C264.387 165.261 264.389 165.261 264.391 165.26C264.393 165.259 264.394 165.257 264.394 165.254L273.547 149.333H289.086ZM310.322 145.982L318.068 132.561L267.143 132.548C265.159 132.548 263.31 133.613 262.318 135.335L257.219 144.16C255.979 146.304 255.979 148.971 257.219 151.122L262.941 161.059L271.13 146.827C271.431 146.304 271.981 145.982 272.584 145.982H310.322Z" fill="black"/>
<path d="M411.362 77.0894L449.554 96.1853V47.7265L411.362 28.6306V77.0894Z" fill="black"/>
<path d="M455.01 0.705811L492.556 19.4793L455.01 38.2527L417.463 19.4793L455.01 0.705811Z" fill="black"/>
<path d="M498.657 77.0894L460.466 96.1853V47.7265L498.657 28.6306V77.0894Z" fill="black"/>
<path d="M569.938 250.96L451.006 302.374V314.763L582.947 257.155L487.553 81.8529L480.739 85.5695L569.938 250.96Z" fill="black"/>
<path d="M76.864 77.0894L115.056 96.1853V47.7265L76.864 28.6306V77.0894Z" fill="black"/>
<path d="M120.512 0.705811L158.059 19.4793L120.512 38.2527L82.9649 19.4793L120.512 0.705811Z" fill="black"/>
<path d="M164.159 77.0894L125.968 96.1853V47.7265L164.159 28.6306V77.0894Z" fill="black"/>
<path d="M13.0617 250.96L131.994 302.374V314.763L0.053421 257.155L95.4472 81.8529L102.261 85.5695L13.0617 250.96Z" fill="black"/>
</svg>
