<svg width="583" height="451" viewBox="0 0 583 451" fill="none" xmlns="http://www.w3.org/2000/svg">
<path d="M239.359 330.503L179.773 300.71V347.988L239.359 377.781V330.503Z" fill="white"/>
<path d="M135.084 375.608L284.048 450.09V302.886L135.084 228.403V375.608ZM164.877 288.658C164.877 286.076 166.212 283.679 168.408 282.319C170.605 280.963 173.347 280.839 175.656 281.992L250.139 319.233C252.663 320.495 254.259 323.077 254.255 325.899V389.835C254.255 392.417 252.921 394.814 250.724 396.174C248.531 397.53 245.789 397.654 243.48 396.501L168.997 359.26C166.47 357.998 164.877 355.416 164.877 352.594V288.658Z" fill="white"/>
<path d="M343.635 377.781L403.22 347.988V300.71L343.635 330.503V377.781Z" fill="white"/>
<path d="M387.192 190.601C384.399 197.035 380.955 203.167 376.921 208.902H395.771V223.798H187.221V208.902H206.074C202.037 203.167 198.597 197.035 195.8 190.601L144.288 216.35L291.496 289.952L438.704 216.35L387.192 190.601Z" fill="white"/>
<path d="M298.944 302.886V450.09L447.908 375.608V228.403L298.944 302.886ZM418.115 352.594C418.119 355.416 416.522 357.998 413.998 359.26L339.516 396.501C337.207 397.654 334.464 397.53 332.268 396.174C330.071 394.814 328.736 392.417 328.736 389.835V325.899C328.736 323.077 330.329 320.495 332.857 319.233L407.339 281.992C409.649 280.839 412.391 280.963 414.584 282.319C416.78 283.679 418.115 286.076 418.115 288.658V352.594Z" fill="white"/>
<path fill-rule="evenodd" clip-rule="evenodd" d="M289.684 79.8103V69.7537C277.339 69.9545 265.558 72.5188 254.794 77.0482L258.837 86.2613C268.362 82.2742 278.774 80.008 289.684 79.8103ZM251.973 78.3133L256.013 87.5203C247.411 91.4997 239.596 96.8864 232.853 103.387L225.745 96.2793C233.366 88.9013 242.221 82.8009 251.973 78.3133ZM197.035 165.492H207.092C207.284 176.088 209.439 186.208 213.216 195.511L203.964 199.453C199.669 188.939 197.23 177.486 197.035 165.492ZM213.216 132.384L203.964 128.442C199.669 138.956 197.23 150.407 197.035 162.403H207.092C207.284 151.805 209.439 141.685 213.216 132.384ZM205.182 202.291L214.433 198.349C218.446 207.271 223.962 215.369 230.668 222.322L223.561 229.43C215.954 221.573 209.705 212.402 205.182 202.291ZM232.853 224.507L225.745 231.614C233.366 238.992 242.222 245.093 251.973 249.58L256.013 240.373C247.411 236.394 239.596 231.009 232.853 224.507ZM356.711 96.2793L349.604 103.387C342.862 96.8864 335.046 91.4997 326.444 87.5203L330.484 78.3133C340.235 82.8009 349.091 88.9013 356.711 96.2793ZM377.274 125.603L368.024 129.545C364.011 120.624 358.494 112.526 351.788 105.571L358.896 98.4637C366.502 106.321 372.751 115.492 377.274 125.603ZM375.365 162.403H385.422C385.227 150.409 382.788 138.956 378.493 128.442L369.242 132.384C373.019 141.685 375.174 151.805 375.365 162.403ZM292.774 69.7537C305.119 69.9545 316.899 72.5188 327.665 77.0482L323.622 86.2613C314.095 82.2742 303.683 80.008 292.774 79.8103V69.7537ZM254.794 250.845C265.558 255.376 277.339 257.94 289.684 258.14V248.083C278.775 247.885 268.363 245.619 258.837 241.632L254.794 250.845ZM223.561 98.4637L230.668 105.571C223.962 112.526 218.446 120.624 214.433 129.545L205.182 125.603C209.705 115.492 215.954 106.322 223.561 98.4637ZM292.774 248.083V258.14C305.12 257.939 316.901 255.374 327.665 250.845L323.622 241.632C314.095 245.619 303.683 247.885 292.774 248.083ZM378.493 199.452L369.242 195.509C373.019 186.208 375.174 176.088 375.365 165.491H385.422C385.227 177.485 382.786 188.938 378.493 199.452ZM351.788 222.322L358.896 229.43C366.502 221.572 372.751 212.402 377.274 202.291L368.024 198.349C364.011 207.271 358.494 215.369 351.788 222.322ZM330.484 249.58L326.444 240.373C335.046 236.394 342.862 231.009 349.604 224.507L356.711 231.614C349.091 238.992 340.236 245.093 330.484 249.58ZM291.246 97.901C254.819 97.901 225.182 127.536 225.182 163.964C225.182 200.392 254.819 230.027 291.246 230.027C327.672 230.027 357.309 200.392 357.309 163.964C357.309 127.536 327.672 97.901 291.246 97.901ZM291.246 225.161C257.5 225.161 230.047 197.709 230.047 163.963C230.047 130.217 257.5 102.766 291.246 102.766C324.992 102.766 352.444 130.218 352.444 163.964C352.444 197.71 324.99 225.161 291.246 225.161ZM291.246 82.878C335.957 82.878 372.332 119.253 372.332 163.964C372.332 208.675 335.957 245.05 291.246 245.05C246.535 245.05 210.16 208.675 210.16 163.964C210.16 119.253 246.535 82.878 291.246 82.878ZM222.093 163.963C222.093 202.093 253.114 233.115 291.246 233.115C329.376 233.115 360.399 202.094 360.399 163.964C360.399 125.834 329.378 94.8115 291.246 94.8115C253.114 94.8115 222.093 125.833 222.093 163.963ZM349.643 163.119C349.643 195.113 323.707 221.049 291.713 221.049C259.719 221.049 233.783 195.113 233.783 163.119C233.783 131.125 259.719 105.189 291.713 105.189C323.707 105.189 349.643 131.125 349.643 163.119ZM326.718 184.044L321.619 192.875C320.627 194.591 318.778 195.663 316.794 195.663L265.862 195.643L273.615 182.221L291.928 182.241H291.935L311.326 182.261C311.929 182.261 312.479 181.94 312.78 181.424L320.982 167.158L326.718 177.089C327.951 179.233 327.951 181.9 326.718 184.044ZM319.528 162.97L326.711 150.493C327.951 148.342 327.944 145.676 326.704 143.525L320.968 133.621L294.836 178.891L310.361 178.911L319.528 162.97ZM289.087 148.718L262.961 193.967L257.232 184.064C255.985 181.919 255.985 179.252 257.225 177.102L264.388 164.645C264.388 164.645 264.395 164.645 264.395 164.638L273.548 148.718H289.087ZM310.321 145.368L318.067 131.946L267.142 131.933C265.159 131.933 263.31 132.998 262.318 134.72L257.219 143.545C255.979 145.689 255.979 148.356 257.219 150.507L262.941 160.444L271.129 146.212C271.431 145.689 271.98 145.368 272.583 145.368H310.321Z" fill="white"/>
<path d="M411.362 76.4737L449.554 95.5696V47.1107L411.362 28.0148V76.4737Z" fill="white"/>
<path d="M455.01 0.0900879L492.556 18.8635L455.01 37.637L417.463 18.8635L455.01 0.0900879Z" fill="white"/>
<path d="M498.657 76.4737L460.466 95.5696V47.1107L498.657 28.0148V76.4737Z" fill="white"/>
<path d="M569.938 250.344L451.006 301.758V314.147L582.947 256.539L487.553 81.2372L480.739 84.9538L569.938 250.344Z" fill="white"/>
<path d="M76.864 76.4737L115.056 95.5696V47.1107L76.864 28.0148V76.4737Z" fill="white"/>
<path d="M120.512 0.0900879L158.059 18.8635L120.512 37.637L82.9649 18.8635L120.512 0.0900879Z" fill="white"/>
<path d="M164.159 76.4737L125.968 95.5696V47.1107L164.159 28.0148V76.4737Z" fill="white"/>
<path d="M13.0615 250.344L131.994 301.758V314.147L0.053299 256.539L95.4471 81.2372L102.261 84.9538L13.0615 250.344Z" fill="white"/>
</svg>
