<svg width="451" height="446" viewBox="0 0 451 446" fill="none" xmlns="http://www.w3.org/2000/svg">
<path fill-rule="evenodd" clip-rule="evenodd" d="M189.116 196.466V190.761C182.112 190.875 175.429 192.33 169.323 194.899L171.616 200.126C177.02 197.864 182.927 196.578 189.116 196.466ZM167.723 195.617L170.014 200.84C165.135 203.097 160.701 206.153 156.876 209.841L152.844 205.809C157.167 201.623 162.19 198.163 167.723 195.617ZM136.557 245.073H142.262C142.37 251.084 143.593 256.825 145.736 262.103L140.487 264.339C138.051 258.375 136.667 251.878 136.557 245.073ZM145.736 226.291L140.487 224.055C138.051 230.019 136.667 236.516 136.557 243.321H142.262C142.37 237.309 143.593 231.568 145.736 226.291ZM141.178 265.949L146.426 263.713C148.703 268.775 151.832 273.369 155.636 277.313L151.604 281.345C147.289 276.888 143.744 271.685 141.178 265.949ZM156.876 278.552L152.844 282.584C157.167 286.77 162.191 290.231 167.723 292.776L170.014 287.553C165.135 285.296 160.701 282.241 156.876 278.552ZM227.141 205.809L223.108 209.841C219.284 206.153 214.85 203.097 209.97 200.84L212.262 195.617C217.793 198.163 222.817 201.623 227.141 205.809ZM238.806 222.444L233.558 224.681C231.281 219.62 228.152 215.026 224.348 211.08L228.38 207.048C232.695 211.505 236.24 216.708 238.806 222.444ZM237.723 243.321H243.428C243.318 236.517 241.934 230.019 239.498 224.055L234.249 226.291C236.392 231.568 237.614 237.309 237.723 243.321ZM190.869 190.761C197.872 190.875 204.555 192.33 210.662 194.899L208.369 200.126C202.965 197.864 197.058 196.578 190.869 196.466V190.761ZM169.323 293.494C175.429 296.064 182.112 297.519 189.116 297.632V291.927C182.927 291.815 177.021 290.529 171.616 288.267L169.323 293.494ZM151.604 207.048L155.636 211.08C151.832 215.026 148.703 219.62 146.426 224.681L141.178 222.444C143.744 216.708 147.289 211.506 151.604 207.048ZM190.869 291.927V297.632C197.873 297.518 204.556 296.063 210.662 293.494L208.369 288.267C202.965 290.529 197.058 291.815 190.869 291.927ZM239.498 264.338L234.249 262.102C236.392 256.825 237.614 251.084 237.723 245.073H243.428C243.318 251.877 241.933 258.374 239.498 264.338ZM224.348 277.313L228.38 281.345C232.695 276.887 236.24 271.685 238.806 265.949L233.558 263.713C231.281 268.775 228.152 273.369 224.348 277.313ZM212.262 292.776L209.97 287.553C214.85 285.296 219.284 282.241 223.108 278.552L227.141 282.584C222.817 286.77 217.794 290.231 212.262 292.776ZM190.002 206.729C169.337 206.729 152.524 223.541 152.524 244.207C152.524 264.872 169.337 281.684 190.002 281.684C210.666 281.684 227.479 264.872 227.479 244.207C227.479 223.541 210.666 206.729 190.002 206.729ZM190.002 278.924C170.858 278.924 155.284 263.35 155.284 244.206C155.284 225.062 170.858 209.489 190.002 209.489C209.146 209.489 224.72 225.062 224.72 244.207C224.72 263.351 209.145 278.924 190.002 278.924ZM190.002 198.206C215.367 198.206 236.002 218.842 236.002 244.207C236.002 269.571 215.367 290.207 190.002 290.207C164.638 290.207 144.002 269.571 144.002 244.207C144.002 218.842 164.638 198.206 190.002 198.206ZM150.772 244.206C150.772 265.837 168.37 283.436 190.002 283.436C211.633 283.436 229.232 265.838 229.232 244.207C229.232 222.575 211.634 204.976 190.002 204.976C168.37 204.976 150.772 222.574 150.772 244.206ZM223.131 243.727C223.131 261.877 208.417 276.591 190.267 276.591C172.117 276.591 157.404 261.877 157.404 243.727C157.404 225.577 172.117 210.864 190.267 210.864C208.417 210.864 223.131 225.577 223.131 243.727ZM210.125 255.597L207.232 260.607C206.67 261.581 205.621 262.189 204.495 262.189L175.602 262.177L180 254.563L190.389 254.575H190.393L201.393 254.586C201.736 254.586 202.047 254.404 202.218 254.111L206.871 246.018L210.125 251.652C210.824 252.868 210.824 254.381 210.125 255.597ZM206.046 243.643L210.121 236.565C210.824 235.344 210.821 233.832 210.117 232.611L206.863 226.993L192.038 252.675L200.846 252.686L206.046 243.643ZM188.777 235.557L173.956 261.227L170.706 255.609C169.999 254.393 169.999 252.88 170.702 251.659L174.765 244.593C174.765 244.593 174.769 244.593 174.769 244.589L179.962 235.557H188.777ZM200.824 233.657L205.218 226.043L176.328 226.035C175.203 226.035 174.154 226.639 173.592 227.616L170.699 232.623C169.995 233.839 169.995 235.352 170.699 236.572L173.945 242.209L178.59 234.136C178.761 233.839 179.073 233.657 179.415 233.657H200.824Z" fill="white"/>
<path d="M55.1002 339.547H53.3389V358.006H328.172L327.889 192.658C302.667 176.029 285.83 154.119 275.474 130.73H53.3389V149.258H55.1002C58.9754 149.258 62.1453 152.358 62.1453 156.304V193.291C62.1453 197.164 58.9754 200.336 55.1002 200.336H53.3389V288.401H55.1002C58.9754 288.401 62.1453 291.573 62.1453 295.446V332.502C62.1453 336.379 58.9754 339.547 55.1002 339.547ZM120.339 239.085H131.118C132.245 226.542 137.246 215.132 144.856 205.971L137.246 198.293C135.134 196.249 135.134 192.868 137.246 190.824C139.29 188.781 142.601 188.781 144.715 190.824L152.324 198.502C161.481 190.824 172.966 185.895 185.507 184.766V173.917C185.507 171.027 187.832 168.633 190.79 168.633C193.678 168.633 196.074 171.027 196.074 173.917V184.766C208.615 185.895 220.027 190.824 229.186 198.502L236.866 190.824C238.91 188.781 242.221 188.781 244.335 190.824C246.376 192.868 246.376 196.249 244.335 198.293L236.655 205.971C244.335 215.132 249.266 226.542 250.392 239.085H261.242C264.13 239.085 266.526 241.479 266.526 244.368C266.526 247.327 264.13 249.652 261.242 249.652H250.392C249.266 262.191 244.335 273.677 236.655 282.766L244.335 290.444C246.376 292.556 246.376 295.869 244.335 297.913C243.277 298.969 241.939 299.461 240.599 299.461C239.261 299.461 237.852 298.969 236.866 297.913L229.186 290.231C220.027 297.913 208.615 302.914 196.074 303.97V314.82C196.074 317.779 193.678 320.104 190.79 320.104C187.832 320.104 185.507 317.779 185.507 314.82V303.97C172.966 302.914 161.481 297.913 152.324 290.231L144.715 297.913C143.659 298.969 142.32 299.461 140.981 299.461C139.572 299.461 138.234 298.969 137.246 297.913C135.134 295.869 135.134 292.556 137.246 290.444L144.856 282.766C137.246 273.677 132.245 262.191 131.118 249.652H120.339C117.38 249.652 115.055 247.327 115.055 244.368C115.055 241.479 117.38 239.085 120.339 239.085Z" fill="white"/>
<path d="M372.133 205.056C368.752 206.535 365.018 207.382 361.283 207.382C357.549 207.382 353.745 206.535 350.363 205.056C346.276 203.226 342.332 201.183 338.528 199.067L338.81 363.291C338.81 364.701 338.246 366.039 337.26 367.026C336.273 368.01 334.934 368.575 333.526 368.575H48.0549C45.0947 368.575 42.771 366.249 42.771 363.291V339.548H41.0097C37.1345 339.548 33.9645 336.379 33.9645 332.502V295.446C33.9645 291.573 37.1345 288.401 41.0097 288.401H42.771V200.336H41.0097C37.1345 200.336 33.9645 197.165 33.9645 193.291V156.304C33.9645 152.358 37.1345 149.259 41.0097 149.259H42.771V125.447C42.771 122.557 45.0947 120.163 48.0549 120.163H271.246C266.173 106.142 263.286 91.7691 262.157 77.892H24.3135C11.1382 77.892 0.499878 88.5286 0.499878 101.632V387.103C0.499878 400.209 11.1382 410.846 24.3135 410.846H42.1363V436.068C42.1363 441.562 46.5757 446.003 52.0712 446.003H76.3062C80.4617 446.003 84.1254 443.464 85.6046 439.591L96.5473 410.846H285.033L295.974 439.591C297.454 443.464 301.188 446.003 305.275 446.003H329.51C335.005 446.003 339.444 441.562 339.444 436.068V410.846H357.338C370.443 410.846 381.081 400.209 381.081 387.103V200.619C378.193 202.167 375.233 203.646 372.133 205.056Z" fill="white"/>
<path d="M361.282 36.9832C344.127 47.4684 325.441 55.1568 305.63 59.8765C304.918 80.7231 308.784 133.242 361.272 161.34C413.795 133.249 417.675 80.7266 416.963 59.8765C397.158 55.1602 378.459 47.4752 361.282 36.9832ZM382.7 86.8567L358.778 110.775C357.787 111.766 356.442 112.323 355.042 112.323C353.642 112.323 352.297 111.766 351.306 110.775L339.896 99.3647C337.832 97.3006 337.832 93.9535 339.896 91.8929C341.96 89.8289 345.304 89.8289 347.368 91.8929L355.042 99.5642L375.228 79.3849C377.292 77.3209 380.636 77.3209 382.7 79.3849C384.764 81.449 384.764 84.7927 382.7 86.8567Z" fill="white"/>
<path d="M449.058 43.1477C448.115 36.278 442.78 30.7326 435.941 29.5905C411.649 25.5313 389.822 16.5803 370.353 2.94403C364.915 -0.864101 357.623 -0.86065 352.188 2.95094C332.757 16.5838 310.937 25.5348 286.65 29.5905C279.812 30.7326 274.476 36.278 273.534 43.1477C266.261 96.1105 285.45 164.01 354.753 195.414C358.853 197.275 363.68 197.275 367.782 195.417C437.138 164.013 456.33 96.1104 449.058 43.1477ZM363.659 172.008C362.909 172.39 362.09 172.579 361.272 172.579C360.453 172.579 359.634 172.39 358.881 172.008C315.461 149.995 291.687 106.341 295.288 55.2394C295.453 52.8967 297.142 50.9428 299.44 50.4474C320.6 45.8584 340.452 37.7365 358.444 26.2984C360.171 25.1976 362.383 25.1976 364.11 26.2984C382.132 37.7399 401.998 45.8653 423.151 50.4474C425.445 50.9427 427.138 52.8967 427.303 55.2394C430.901 106.348 407.11 150.002 363.659 172.008Z" fill="white"/>
</svg>
