<svg width="451" height="447" viewBox="0 0 451 447" fill="none" xmlns="http://www.w3.org/2000/svg">
<path fill-rule="evenodd" clip-rule="evenodd" d="M189.116 197.082V191.377C182.113 191.491 175.429 192.945 169.323 195.515L171.616 200.741C177.02 198.48 182.927 197.194 189.116 197.082ZM167.723 196.233L170.014 201.456C165.135 203.713 160.701 206.769 156.876 210.457L152.844 206.425C157.167 202.239 162.19 198.778 167.723 196.233ZM136.557 245.689H142.262C142.37 251.7 143.593 257.441 145.736 262.719L140.487 264.955C138.051 258.991 136.667 252.493 136.557 245.689ZM145.736 226.907L140.487 224.671C138.051 230.635 136.667 237.131 136.557 243.936H142.262C142.37 237.925 143.593 232.184 145.736 226.907ZM141.178 266.565L146.426 264.329C148.703 269.39 151.832 273.984 155.637 277.929L151.604 281.961C147.289 277.504 143.744 272.301 141.178 266.565ZM156.876 279.168L152.844 283.2C157.167 287.385 162.191 290.846 167.723 293.392L170.014 288.169C165.135 285.911 160.701 282.856 156.876 279.168ZM227.141 206.425L223.109 210.457C219.284 206.769 214.85 203.713 209.97 201.456L212.262 196.233C217.793 198.778 222.818 202.239 227.141 206.425ZM238.806 223.06L233.558 225.296C231.282 220.235 228.152 215.641 224.348 211.696L228.38 207.664C232.695 212.121 236.24 217.324 238.806 223.06ZM237.723 243.936H243.428C243.318 237.132 241.934 230.635 239.498 224.671L234.249 226.907C236.392 232.184 237.614 237.925 237.723 243.936ZM190.869 191.377C197.872 191.491 204.555 192.945 210.663 195.515L208.369 200.741C202.965 198.48 197.058 197.194 190.869 197.082V191.377ZM169.323 294.11C175.429 296.68 182.113 298.135 189.116 298.248V292.543C182.928 292.431 177.021 291.145 171.616 288.883L169.323 294.11ZM151.604 207.664L155.637 211.696C151.832 215.641 148.703 220.235 146.426 225.296L141.178 223.06C143.744 217.324 147.289 212.122 151.604 207.664ZM190.869 292.543V298.248C197.873 298.134 204.556 296.679 210.663 294.11L208.369 288.883C202.965 291.145 197.058 292.431 190.869 292.543ZM239.498 264.954L234.249 262.718C236.392 257.441 237.614 251.7 237.723 245.688H243.428C243.318 252.492 241.933 258.99 239.498 264.954ZM224.348 277.929L228.38 281.961C232.695 277.503 236.24 272.301 238.806 266.565L233.558 264.329C231.282 269.39 228.152 273.984 224.348 277.929ZM212.262 293.392L209.97 288.169C214.85 285.911 219.284 282.856 223.109 279.168L227.141 283.2C222.818 287.385 217.794 290.846 212.262 293.392ZM190.002 207.345C169.337 207.345 152.524 224.157 152.524 244.822C152.524 265.488 169.337 282.3 190.002 282.3C210.667 282.3 227.48 265.488 227.48 244.822C227.48 224.157 210.667 207.345 190.002 207.345ZM190.002 279.539C170.858 279.539 155.284 263.965 155.284 244.821C155.284 225.677 170.858 210.104 190.002 210.104C209.146 210.104 224.72 225.678 224.72 244.822C224.72 263.966 209.145 279.539 190.002 279.539ZM190.002 198.822C215.367 198.822 236.002 219.458 236.002 244.822C236.002 270.187 215.367 290.822 190.002 290.822C164.638 290.822 144.002 270.187 144.002 244.822C144.002 219.458 164.638 198.822 190.002 198.822ZM150.772 244.821C150.772 266.453 168.37 284.052 190.002 284.052C211.633 284.052 229.232 266.453 229.232 244.822C229.232 223.191 211.634 205.592 190.002 205.592C168.37 205.592 150.772 223.19 150.772 244.821ZM223.131 244.343C223.131 262.493 208.417 277.206 190.267 277.206C172.117 277.206 157.404 262.493 157.404 244.343C157.404 226.193 172.117 211.479 190.267 211.479C208.417 211.479 223.131 226.193 223.131 244.343ZM210.125 256.214L207.232 261.224C206.67 262.197 205.621 262.805 204.495 262.805L175.602 262.794L180 255.18L190.389 255.191H190.393L201.394 255.202C201.736 255.202 202.047 255.02 202.218 254.727L206.871 246.634L210.125 252.268C210.825 253.484 210.825 254.997 210.125 256.214ZM206.046 244.259L210.121 237.181C210.824 235.961 210.821 234.448 210.117 233.228L206.864 227.609L192.039 253.291L200.846 253.302L206.046 244.259ZM188.777 236.173L173.956 261.843L170.706 256.225C169.999 255.008 169.999 253.495 170.702 252.275L174.765 245.209C174.765 245.209 174.769 245.209 174.769 245.205L179.962 236.173H188.777ZM200.824 234.272L205.218 226.658L176.329 226.651C175.203 226.651 174.154 227.255 173.592 228.232L170.699 233.238C169.996 234.455 169.996 235.968 170.699 237.188L173.945 242.825L178.59 234.751C178.761 234.455 179.073 234.272 179.415 234.272H200.824Z" fill="black"/>
<path d="M55.1002 340.163H53.3389V358.622H328.172L327.889 193.274C302.667 176.645 285.83 154.735 275.474 131.346H53.3389V149.874H55.1002C58.9754 149.874 62.1453 152.974 62.1453 156.919V193.907C62.1453 197.78 58.9754 200.952 55.1002 200.952H53.3389V289.017H55.1002C58.9754 289.017 62.1453 292.188 62.1453 296.062V333.118C62.1453 336.995 58.9754 340.163 55.1002 340.163ZM120.339 239.7H131.118C132.245 227.158 137.246 215.747 144.856 206.586L137.246 198.908C135.134 196.865 135.134 193.483 137.246 191.44C139.29 189.397 142.601 189.397 144.715 191.44L152.324 199.118C161.481 191.44 172.966 186.51 185.507 185.382V174.532C185.507 171.643 187.832 169.248 190.79 169.248C193.678 169.248 196.074 171.643 196.074 174.532V185.382C208.615 186.51 220.027 191.44 229.186 199.118L236.866 191.44C238.91 189.397 242.221 189.397 244.335 191.44C246.376 193.483 246.376 196.865 244.335 198.908L236.655 206.586C244.335 215.747 249.266 227.158 250.392 239.7H261.242C264.13 239.7 266.526 242.094 266.526 244.984C266.526 247.943 264.13 250.268 261.242 250.268H250.392C249.266 262.807 244.335 274.293 236.655 283.382L244.335 291.06C246.376 293.172 246.376 296.485 244.335 298.528C243.277 299.584 241.939 300.076 240.599 300.076C239.261 300.076 237.852 299.584 236.866 298.528L229.186 290.847C220.027 298.528 208.615 303.53 196.074 304.586V315.436C196.074 318.394 193.678 320.72 190.79 320.72C187.832 320.72 185.507 318.394 185.507 315.436V304.586C172.966 303.53 161.481 298.528 152.324 290.847L144.715 298.528C143.659 299.584 142.32 300.076 140.981 300.076C139.572 300.076 138.234 299.584 137.246 298.528C135.134 296.485 135.134 293.172 137.246 291.06L144.856 283.382C137.246 274.293 132.245 262.807 131.118 250.268H120.339C117.38 250.268 115.055 247.943 115.055 244.984C115.055 242.094 117.38 239.7 120.339 239.7Z" fill="black"/>
<path d="M372.133 205.672C368.752 207.151 365.018 207.997 361.284 207.997C357.549 207.997 353.745 207.151 350.363 205.672C346.276 203.842 342.332 201.798 338.528 199.683L338.81 363.906C338.81 365.317 338.246 366.655 337.26 367.642C336.273 368.626 334.935 369.19 333.526 369.19H48.055C45.0948 369.19 42.7711 366.865 42.7711 363.906V340.163H41.0098C37.1346 340.163 33.9646 336.995 33.9646 333.118V296.062C33.9646 292.189 37.1346 289.017 41.0098 289.017H42.7711V200.952H41.0098C37.1346 200.952 33.9646 197.78 33.9646 193.907V156.92C33.9646 152.974 37.1346 149.875 41.0098 149.875H42.7711V126.063C42.7711 123.173 45.0948 120.779 48.055 120.779H271.246C266.174 106.757 263.286 92.3848 262.157 78.5077H24.3136C11.1383 78.5077 0.5 89.1443 0.5 102.247V387.718C0.5 400.825 11.1383 411.461 24.3136 411.461H42.1365V436.684C42.1365 442.177 46.5758 446.618 52.0713 446.618H76.3063C80.4618 446.618 84.1255 444.08 85.6047 440.206L96.5474 411.461H285.034L295.975 440.206C297.454 444.08 301.188 446.618 305.275 446.618H329.51C335.005 446.618 339.444 442.177 339.444 436.684V411.461H357.338C370.443 411.461 381.081 400.825 381.081 387.718V201.234C378.193 202.782 375.233 204.261 372.133 205.672Z" fill="black"/>
<path d="M361.283 37.5989C344.127 48.0841 325.441 55.7726 305.63 60.4923C304.918 81.3388 308.784 133.858 361.272 161.956C413.795 133.865 417.675 81.3423 416.963 60.4923C397.159 55.7759 378.459 48.0909 361.283 37.5989ZM382.7 87.4724L358.778 111.391C357.787 112.382 356.442 112.939 355.042 112.939C353.642 112.939 352.297 112.382 351.307 111.391L339.896 99.9804C337.832 97.9164 337.832 94.5692 339.896 92.5086C341.96 90.4446 345.304 90.4446 347.368 92.5086L355.042 100.18L375.228 80.0007C377.293 77.9366 380.636 77.9366 382.7 80.0007C384.764 82.0647 384.764 85.4084 382.7 87.4724Z" fill="black"/>
<path d="M449.058 43.7634C448.115 36.8937 442.78 31.3484 435.941 30.2063C411.649 26.147 389.822 17.1961 370.353 3.55975C364.914 -0.248379 357.623 -0.244927 352.188 3.56666C332.757 17.1995 310.937 26.1505 286.65 30.2063C279.812 31.3484 274.476 36.8937 273.533 43.7634C266.261 96.7262 285.45 164.625 354.753 196.029C358.853 197.891 363.679 197.891 367.782 196.033C437.138 164.629 456.33 96.7261 449.058 43.7634ZM363.659 172.624C362.909 173.005 362.09 173.195 361.271 173.195C360.453 173.195 359.634 173.005 358.881 172.624C315.46 150.611 291.686 106.957 295.288 55.8551C295.453 53.5124 297.142 51.5585 299.44 51.0631C320.6 46.4741 340.452 38.3522 358.444 26.9141C360.171 25.8133 362.383 25.8133 364.109 26.9141C382.132 38.3556 401.998 46.481 423.151 51.0631C425.445 51.5584 427.138 53.5124 427.303 55.8551C430.901 106.964 407.11 150.618 363.659 172.624Z" fill="black"/>
</svg>
