<svg width="451" height="431" viewBox="0 0 451 431" fill="none" xmlns="http://www.w3.org/2000/svg">
<path d="M111.286 412.749V326.653C120.088 324.083 142.153 316.913 154.559 312.888L154.953 312.76C157.379 311.97 159.545 311.264 160.799 310.865L272.734 340.853C276.854 341.961 280.31 344.62 282.467 348.349C290.253 358.545 281.797 367.204 276.596 370.259C272.867 372.408 268.539 372.983 264.419 371.883L188.077 351.428C185.722 350.8 183.285 352.196 182.657 354.559C182.022 356.922 183.425 359.352 185.788 359.987L262.122 380.442C268.532 382.155 275.244 381.262 281.027 377.931C294.313 373.099 297.954 363.955 298.114 359.987L373.769 316.61C381.848 312.386 391.558 314.926 395.871 322.392C400.294 330.065 397.658 339.908 389.993 344.332L260.793 418.923C258.326 420.355 255.52 421.116 252.655 421.057C252.611 421.057 252.567 421.057 252.522 421.064L166.182 422.696C163.221 422.755 160.71 422.526 157.801 421.95L111.286 412.749Z" fill="black"/>
<path d="M102.224 430.362V304.219H52.2087V430.362H102.224Z" fill="black"/>
<path d="M203.128 212.25L184.528 220.96L184.526 220.962C182.972 219.581 180.989 218.779 178.912 218.69C176.835 218.601 174.791 219.232 173.125 220.476C171.459 221.719 170.273 223.5 169.768 225.516C169.262 227.533 169.468 229.662 170.35 231.545C171.232 233.427 172.736 234.948 174.609 235.85C176.483 236.751 178.609 236.98 180.631 236.495C182.653 236.011 184.446 234.844 185.707 233.191C186.968 231.538 187.62 229.501 187.554 227.423L206.153 218.709C207.772 220.148 209.853 220.957 212.018 220.989C214.183 221.022 216.288 220.275 217.948 218.885L233.877 226.92C233.803 228.137 233.976 229.356 234.385 230.504C234.795 231.652 235.433 232.705 236.261 233.6C237.088 234.495 238.088 235.213 239.201 235.711C240.313 236.209 241.515 236.476 242.734 236.497C243.952 236.519 245.163 236.293 246.292 235.834C247.421 235.375 248.445 234.692 249.303 233.826C250.162 232.961 250.836 231.93 251.285 230.797C251.734 229.664 251.95 228.452 251.918 227.234L270.352 218.734C271.898 220.123 273.876 220.936 275.952 221.036C278.028 221.136 280.075 220.517 281.748 219.283C283.421 218.05 284.616 216.277 285.134 214.263C285.651 212.25 285.458 210.121 284.588 208.233C283.717 206.346 282.222 204.816 280.355 203.903C278.488 202.99 276.363 202.749 274.339 203.22C272.315 203.691 270.515 204.847 269.243 206.491C267.972 208.135 267.306 210.167 267.359 212.245L248.925 220.747C247.309 219.295 245.222 218.474 243.05 218.436C240.877 218.398 238.763 219.144 237.096 220.539L221.168 212.504C221.242 211.285 221.068 210.063 220.657 208.913C220.245 207.763 219.605 206.709 218.774 205.814C217.943 204.918 216.94 204.201 215.824 203.704C214.708 203.208 213.502 202.943 212.281 202.926C211.06 202.909 209.848 203.14 208.718 203.604C207.589 204.069 206.565 204.758 205.709 205.629C204.854 206.501 204.184 207.537 203.74 208.675C203.296 209.813 203.088 211.029 203.128 212.25Z" fill="black"/>
<path d="M338.841 247.024H319.446H298.084V232.97C298.084 193.846 266.435 161.838 226.97 161.838C186.758 161.838 154.786 195.03 155.886 234.938L155.952 247.024H115.1V218.898H134.494C136.175 218.898 137.682 217.696 138.005 215.968C139.177 209.844 140.959 203.929 143.28 198.301C145.624 192.656 148.536 187.279 151.927 182.262C153.028 180.85 152.926 178.817 151.64 177.513L137.927 163.8L157.812 143.915L171.525 157.628C172.733 158.83 174.629 159.034 176.088 158.053C181.16 154.596 186.602 151.648 192.313 149.291C197.857 146.983 203.688 145.225 209.741 144.053C211.523 143.849 212.91 142.342 212.91 140.494V121.099H241.036V140.488C241.036 142.187 242.244 143.694 243.955 144.017C250.091 145.171 256.011 146.953 261.621 149.291C267.279 151.636 272.637 154.53 277.673 157.939C279.078 159.022 281.117 158.938 282.403 157.634L296.134 143.921L316.02 163.806L302.306 177.537C301.104 178.727 300.883 180.641 301.882 182.082C308.813 192.267 313.609 203.779 315.918 215.968C316.241 217.63 317.682 218.886 319.446 218.886H338.841V247.024Z" fill="black"/>
<path fill-rule="evenodd" clip-rule="evenodd" d="M49.021 193.522C67.4458 193.522 82.3821 208.458 82.3821 226.883C82.3821 245.308 67.4458 260.244 49.021 260.244C30.5962 260.244 15.6599 245.308 15.6599 226.883C15.6599 208.458 30.5962 193.522 49.021 193.522ZM49.1277 238.724L34.1468 229.874L49.1287 250.995L64.1249 229.874L49.1277 238.724ZM34.3706 227.032L49.3586 202.161L64.3426 227.04L49.3566 235.891L34.3706 227.032Z" fill="black"/>
<path d="M30.7268 187.468L28.6564 182.749C23.6582 185.049 19.1199 188.176 15.2143 191.957L18.857 195.6C22.313 192.268 26.3184 189.507 30.7268 187.468Z" fill="black"/>
<path d="M5.65398 227.43H0.499756C0.599515 233.577 1.84967 239.447 4.05071 244.836L8.79244 242.815C6.85663 238.048 5.75216 232.861 5.65398 227.43Z" fill="black"/>
<path d="M8.79244 210.462L4.05071 208.441C1.84967 213.83 0.599515 219.699 0.499756 225.847H5.65398C5.75216 220.415 6.85663 215.229 8.79244 210.462Z" fill="black"/>
<path d="M9.41617 244.27L4.67523 246.29C6.99344 251.472 10.196 256.173 14.0946 260.2L17.7374 256.557C14.3004 252.993 11.4731 248.843 9.41617 244.27Z" fill="black"/>
<path d="M18.857 257.676L15.2143 261.319C19.1199 265.101 23.6589 268.227 28.6564 270.527L30.7268 265.808C26.3184 263.769 22.313 261.009 18.857 257.676Z" fill="black"/>
<path d="M78.6943 195.6L82.3371 191.957C78.4314 188.176 73.8924 185.049 68.8949 182.749L66.8245 187.468C71.2329 189.507 75.2392 192.268 78.6943 195.6Z" fill="black"/>
<path d="M47.9844 183.516V178.362C41.6568 178.465 35.619 179.779 30.1022 182.101L32.1742 186.823C37.056 184.779 42.3923 183.618 47.9844 183.516Z" fill="black"/>
<path d="M88.1351 209.006L92.876 206.986C90.5578 201.804 87.3552 197.103 83.4567 193.077L79.8139 196.719C83.2508 200.284 86.0781 204.434 88.1351 209.006Z" fill="black"/>
<path d="M91.8976 225.847H97.0518C96.9521 219.7 95.7019 213.83 93.5009 208.441L88.7592 210.462C90.695 215.229 91.7994 220.415 91.8976 225.847Z" fill="black"/>
<path d="M67.4501 182.101C61.9325 179.779 55.8947 178.465 49.5679 178.362V183.516C55.1592 183.618 60.4955 184.779 65.3782 186.823L67.4501 182.101Z" fill="black"/>
<path d="M30.1022 271.175C35.619 273.498 41.6568 274.812 47.9844 274.914V269.76C42.3931 269.658 37.0568 268.497 32.1742 266.454L30.1022 271.175Z" fill="black"/>
<path d="M17.7374 196.719L14.0946 193.077C10.196 197.104 6.99344 201.804 4.67523 206.986L9.41617 209.006C11.4731 204.434 14.3004 200.284 17.7374 196.719Z" fill="black"/>
<path d="M49.5679 269.76V274.914C55.8955 274.811 61.9333 273.497 67.4501 271.175L65.3782 266.454C60.4955 268.497 55.1592 269.658 49.5679 269.76Z" fill="black"/>
<path d="M88.7592 242.815L93.5009 244.835C95.7011 239.447 96.9521 233.577 97.0518 227.43H91.8976C91.7994 232.861 90.695 238.048 88.7592 242.815Z" fill="black"/>
<path d="M79.8139 256.557L83.4567 260.2C87.3552 256.172 90.5578 251.472 92.876 246.29L88.1351 244.27C86.0781 248.843 83.2508 252.993 79.8139 256.557Z" fill="black"/>
<path d="M66.8245 265.808L68.8949 270.527C73.8932 268.227 78.4314 265.101 82.3371 261.319L78.6943 257.676C75.2392 261.009 71.2329 263.769 66.8245 265.808Z" fill="black"/>
<path d="M90.3431 226.647C90.3431 203.732 71.7 185.089 48.7846 185.089C25.8693 185.089 7.22623 203.732 7.22623 226.647C7.22623 249.562 25.8693 268.206 48.7846 268.206C71.7 268.206 90.3431 249.562 90.3431 226.647ZM48.7846 262.089C29.2413 262.089 13.3424 246.189 13.3424 226.646C13.3424 207.104 29.2413 191.205 48.7846 191.205C68.3279 191.205 84.2269 207.105 84.2269 226.647C84.2269 246.19 68.3272 262.089 48.7846 262.089Z" fill="black"/>
<path d="M384.148 190.882L382.076 185.881C377.076 188.319 372.536 191.633 368.629 195.64L372.273 199.501C375.73 195.97 379.737 193.044 384.148 190.882Z" fill="black"/>
<path d="M359.064 233.238H353.908C354.008 239.754 355.258 245.975 357.46 251.686L362.204 249.545C360.267 244.491 359.163 238.994 359.064 233.238Z" fill="black"/>
<path d="M362.204 215.253L357.46 213.112C355.258 218.823 354.008 225.044 353.908 231.56H359.064C359.163 225.803 360.267 220.306 362.204 215.253Z" fill="black"/>
<path d="M362.828 251.086L358.085 253.228C360.404 258.72 363.608 263.702 367.508 267.97L371.153 264.109C367.714 260.332 364.886 255.933 362.828 251.086Z" fill="black"/>
<path d="M372.273 265.296L368.629 269.157C372.536 273.165 377.077 276.479 382.076 278.916L384.148 273.915C379.737 271.753 375.73 268.828 372.273 265.296Z" fill="black"/>
<path d="M432.135 199.501L435.779 195.64C431.872 191.633 427.331 188.319 422.332 185.881L420.26 190.882C424.671 193.044 428.679 195.97 432.135 199.501Z" fill="black"/>
<path d="M401.412 186.694V181.231C395.082 181.34 389.042 182.733 383.523 185.194L385.596 190.198C390.479 188.033 395.818 186.802 401.412 186.694Z" fill="black"/>
<path d="M441.58 213.711L446.323 211.569C444.004 206.077 440.8 201.095 436.899 196.827L433.255 200.688C436.694 204.466 439.522 208.865 441.58 213.711Z" fill="black"/>
<path d="M445.344 231.56H450.5C450.4 225.045 449.15 218.823 446.948 213.112L442.204 215.253C444.141 220.306 445.246 225.803 445.344 231.56Z" fill="black"/>
<path d="M420.886 185.194C415.366 182.733 409.326 181.34 402.997 181.231V186.694C408.59 186.802 413.929 188.033 418.813 190.198L420.886 185.194Z" fill="black"/>
<path d="M383.523 279.603C389.042 282.065 395.082 283.458 401.412 283.566V278.103C395.819 277.996 390.48 276.765 385.596 274.599L383.523 279.603Z" fill="black"/>
<path d="M371.153 200.688L367.508 196.827C363.608 201.096 360.404 206.077 358.085 211.569L362.828 213.711C364.886 208.865 367.714 204.466 371.153 200.688Z" fill="black"/>
<path d="M402.997 278.103V283.566C409.327 283.457 415.367 282.064 420.886 279.603L418.813 274.599C413.929 276.765 408.59 277.996 402.997 278.103Z" fill="black"/>
<path d="M442.204 249.544L446.948 251.686C449.149 245.974 450.4 239.753 450.5 233.237H445.344C445.246 238.994 444.141 244.491 442.204 249.544Z" fill="black"/>
<path d="M433.255 264.109L436.899 267.97C440.8 263.702 444.004 258.72 446.323 253.228L441.58 251.086C439.522 255.933 436.694 260.332 433.255 264.109Z" fill="black"/>
<path d="M420.26 273.915L422.332 278.916C427.332 276.479 431.872 273.165 435.779 269.157L432.135 265.296C428.679 268.828 424.671 271.753 420.26 273.915Z" fill="black"/>
<path d="M443.789 232.408C443.789 208.12 425.138 188.361 402.213 188.361C379.288 188.361 360.637 208.12 360.637 232.408C360.637 256.696 379.288 276.456 402.213 276.456C425.138 276.456 443.789 256.696 443.789 232.408ZM402.213 269.972C382.662 269.972 366.756 253.12 366.756 232.407C366.756 211.694 382.662 194.843 402.213 194.843C421.764 194.843 437.67 211.695 437.67 232.408C437.67 253.121 421.764 269.972 402.213 269.972Z" fill="black"/>
<path d="M398.896 246.197V258.034C398.896 258.46 399.222 258.806 399.624 258.806H405.453C405.856 258.806 406.182 258.46 406.182 258.034V246.197C406.182 245.757 405.835 245.409 405.42 245.427C403.531 245.509 401.607 245.512 399.657 245.427C399.242 245.409 398.896 245.757 398.896 246.197Z" fill="black"/>
<path d="M418.964 233.794C416.612 232.823 413.456 232.078 409.911 231.643C409.477 231.59 409.096 231.948 409.096 232.411V241.202C409.096 241.664 409.477 242.022 409.911 241.969C412.709 241.628 415.271 241.093 417.433 240.38C421.636 238.996 422.758 237.482 422.758 236.805C422.758 236.139 421.764 234.951 418.964 233.794Z" fill="black"/>
<path d="M398.895 222.91V241.561C398.895 241.974 399.201 242.316 399.59 242.334C401.548 242.424 403.496 242.425 405.486 242.334C405.875 242.316 406.181 241.974 406.181 241.561V222.91C406.181 222.057 406.834 221.366 407.639 221.366H418.386C418.788 221.366 419.115 221.02 419.115 220.594V214.418C419.115 213.992 418.788 213.646 418.386 213.646H386.69C386.288 213.646 385.962 213.992 385.962 214.418V220.594C385.962 221.02 386.288 221.366 386.69 221.366H397.438C398.242 221.366 398.895 222.057 398.895 222.91Z" fill="black"/>
<path d="M386.112 233.794C383.312 234.951 382.319 236.139 382.319 236.805C382.319 237.482 383.44 238.996 387.643 240.38C389.805 241.093 392.367 241.628 395.166 241.969C395.599 242.022 395.981 241.664 395.981 241.202V232.411C395.981 231.948 395.599 231.59 395.166 231.643C391.62 232.078 388.464 232.823 386.112 233.794Z" fill="black"/>
<path d="M402.538 197.628C384.258 197.628 369.385 213.385 369.385 232.752C369.385 252.12 384.258 267.877 402.538 267.877C421.591 267.877 436.847 250.917 435.622 230.459C434.504 212.05 419.971 197.628 402.538 197.628ZM409.096 245.161V260.35C409.096 261.203 408.444 261.894 407.639 261.894H397.438C396.633 261.894 395.981 261.203 395.981 260.35V245.161C387 244.243 379.404 241.411 379.404 236.805C379.404 235.184 380.384 232.846 385.054 230.917C387.742 229.807 391.339 228.973 395.334 228.518C395.702 228.476 395.981 228.144 395.981 227.751V225.226C395.981 224.8 395.654 224.454 395.252 224.454H384.505C383.7 224.454 383.047 223.763 383.047 222.91V212.103C383.047 211.25 383.7 210.559 384.505 210.559H420.572C421.377 210.559 422.029 211.25 422.029 212.103V222.91C422.029 223.763 421.377 224.454 420.572 224.454H409.825C409.422 224.454 409.096 224.8 409.096 225.226V227.751C409.096 228.144 409.375 228.476 409.743 228.518C413.738 228.973 417.335 229.807 420.023 230.917C424.692 232.846 425.673 235.184 425.673 236.805C425.673 241.412 418.076 244.243 409.096 245.161Z" fill="black"/>
<path fill-rule="evenodd" clip-rule="evenodd" d="M226.625 6.16873V0.705811C220.295 0.814901 214.255 2.2079 208.735 4.66832L210.808 9.67306C215.692 7.50719 221.031 6.27615 226.625 6.16873ZM207.289 5.35555L209.36 10.3569C204.95 12.5186 200.943 15.4448 197.486 18.9759L193.841 15.115C197.749 11.1071 202.289 7.7933 207.289 5.35555ZM179.121 52.7128H184.277C184.375 58.4685 185.48 63.9659 187.417 69.0193L182.673 71.1608C180.471 65.4495 179.22 59.228 179.121 52.7128ZM187.417 34.7278L182.673 32.5863C180.471 38.2976 179.22 44.5183 179.121 51.0344H184.277C184.375 45.2777 185.48 39.7804 187.417 34.7278ZM183.298 72.7024L188.041 70.5608C190.099 75.4078 192.927 79.8067 196.365 83.5837L192.721 87.4447C188.821 83.1767 185.617 78.1946 183.298 72.7024ZM197.486 84.7702L193.841 88.6312C197.749 92.639 202.289 95.9529 207.289 98.3906L209.36 93.3892C204.95 91.2276 200.943 88.3023 197.486 84.7702ZM260.992 15.115L257.348 18.9759C253.891 15.4448 249.883 12.5186 245.473 10.3569L247.544 5.35555C252.544 7.7933 257.085 11.1071 260.992 15.115ZM271.535 31.0439L266.792 33.1855C264.735 28.3393 261.906 23.9405 258.468 20.1626L262.112 16.3016C266.012 20.5696 269.216 25.5516 271.535 31.0439ZM270.557 51.0344H275.713C275.613 44.5191 274.362 38.2976 272.161 32.5863L267.417 34.7278C269.353 39.7804 270.458 45.2777 270.557 51.0344ZM228.209 0.705811C234.539 0.814901 240.579 2.2079 246.099 4.66832L244.026 9.67306C239.141 7.50719 233.803 6.27615 228.209 6.16873V0.705811ZM208.735 99.0778C214.255 101.539 220.295 102.932 226.625 103.04V97.5774C221.031 97.4699 215.693 96.2389 210.808 94.073L208.735 99.0778ZM192.721 16.3016L196.365 20.1626C192.927 23.9405 190.099 28.3393 188.041 33.1855L183.298 31.0439C185.617 25.5516 188.821 20.5704 192.721 16.3016ZM228.209 97.5774V103.04C234.539 102.931 240.58 101.538 246.099 99.0778L244.026 94.073C239.141 96.2389 233.803 97.4699 228.209 97.5774ZM272.161 71.16L267.417 69.0184C269.353 63.9658 270.458 58.4685 270.557 52.7119H275.713C275.613 59.2271 274.362 65.4486 272.161 71.16ZM258.468 83.5837L262.112 87.4447C266.012 83.1759 269.216 78.1946 271.535 72.7024L266.792 70.5608C264.735 75.4078 261.906 79.8067 258.468 83.5837ZM247.544 98.3906L245.473 93.3892C249.883 91.2276 253.891 88.3023 257.348 84.7702L260.992 88.6312C257.085 92.639 252.545 95.9529 247.544 98.3906ZM227.425 15.996C208.748 15.996 193.553 32.0944 193.553 51.8826C193.553 71.6708 208.748 87.7692 227.425 87.7692C246.102 87.7692 261.298 71.6708 261.298 51.8826C261.298 32.0944 246.102 15.996 227.425 15.996ZM227.425 85.1258C210.123 85.1258 196.047 70.2132 196.047 51.8817C196.047 33.5503 210.123 18.6385 227.425 18.6385C244.728 18.6385 258.804 33.5512 258.804 51.8826C258.804 70.214 244.727 85.1258 227.425 85.1258ZM227.426 7.83515C250.351 7.83515 269.001 27.5948 269.001 51.8826C269.001 76.1704 250.351 95.93 227.426 95.93C204.501 95.93 185.85 76.1704 185.85 51.8826C185.85 27.5948 204.501 7.83515 227.426 7.83515ZM191.969 51.8818C191.969 72.5947 207.874 89.4467 227.426 89.4467C246.976 89.4467 262.883 72.5956 262.883 51.8826C262.883 31.1696 246.977 14.3177 227.426 14.3177C207.874 14.3177 191.969 31.1688 191.969 51.8818ZM257.368 51.4235C257.368 68.803 244.07 82.8919 227.665 82.8919C211.261 82.8919 197.963 68.803 197.963 51.4235C197.963 34.0439 211.261 19.955 227.665 19.955C244.07 19.955 257.368 34.0439 257.368 51.4235ZM245.613 62.7899L242.999 67.5873C242.49 68.5191 241.542 69.1015 240.525 69.1015L214.41 69.0906L218.386 61.7998L227.775 61.8108H227.779L237.721 61.8217C238.031 61.8217 238.312 61.647 238.467 61.3667L242.672 53.6173L245.613 59.0117C246.245 60.1764 246.245 61.6251 245.613 62.7899ZM241.927 51.3431L245.61 44.5655C246.245 43.3971 246.242 41.9484 245.606 40.78L242.665 35.4002L229.266 59.9915L237.227 60.0024L241.927 51.3431ZM226.318 43.6006L212.923 68.181L209.985 62.8012C209.346 61.6364 209.346 60.1877 209.982 59.0193L213.654 52.2527C213.654 52.2527 213.658 52.2527 213.658 52.2491L218.351 43.6006H226.318ZM237.207 41.7806L241.178 34.4898L215.067 34.4825C214.05 34.4825 213.102 35.0613 212.593 35.9967L209.979 40.7905C209.343 41.9553 209.343 43.404 209.979 44.5724L212.913 49.9704L217.111 42.2392C217.266 41.9553 217.548 41.7806 217.857 41.7806H237.207Z" fill="black"/>
<path d="M343.567 70.2191L341.496 65.2177C336.496 67.6555 331.956 70.9694 328.048 74.9772L331.693 78.8382C335.15 75.307 339.157 72.3808 343.567 70.2191Z" fill="black"/>
<path d="M318.484 112.575H313.328C313.427 119.09 314.678 125.312 316.88 131.023L321.624 128.882C319.687 123.828 318.582 118.331 318.484 112.575Z" fill="black"/>
<path d="M321.624 94.5901L316.88 92.4486C314.678 98.1599 313.427 104.381 313.328 110.897H318.484C318.582 105.14 319.687 99.6427 321.624 94.5901Z" fill="black"/>
<path d="M322.248 130.423L317.505 132.565C319.824 138.057 323.028 143.039 326.928 147.307L330.572 143.446C327.134 139.669 324.306 135.27 322.248 130.423Z" fill="black"/>
<path d="M331.693 144.633L328.048 148.494C331.956 152.502 336.496 155.815 341.496 158.253L343.567 153.252C339.157 151.09 335.15 148.165 331.693 144.633Z" fill="black"/>
<path d="M391.555 78.8382L395.199 74.9772C391.292 70.9694 386.751 67.6555 381.751 65.2177L379.68 70.2191C384.09 72.3808 388.098 75.307 391.555 78.8382Z" fill="black"/>
<path d="M360.832 66.0309V60.568C354.502 60.6771 348.462 62.0701 342.942 64.5305L345.015 69.5353C349.899 67.3694 355.238 66.1383 360.832 66.0309Z" fill="black"/>
<path d="M400.999 93.0478L405.742 90.9062C403.423 85.4139 400.219 80.4318 396.319 76.1638L392.675 80.0248C396.113 83.8027 398.942 88.2016 400.999 93.0478Z" fill="black"/>
<path d="M404.764 110.897H409.92C409.82 104.381 408.569 98.1599 406.368 92.4486L401.624 94.5901C403.56 99.6427 404.665 105.14 404.764 110.897Z" fill="black"/>
<path d="M380.306 64.5305C374.786 62.0701 368.746 60.6771 362.416 60.568V66.0309C368.01 66.1383 373.348 67.3694 378.233 69.5353L380.306 64.5305Z" fill="black"/>
<path d="M342.942 158.94C348.462 161.402 354.502 162.795 360.832 162.903V157.44C355.238 157.332 349.9 156.101 345.015 153.936L342.942 158.94Z" fill="black"/>
<path d="M330.572 80.0248L326.928 76.1638C323.028 80.4326 319.824 85.4139 317.505 90.9062L322.248 93.0478C324.306 88.2016 327.134 83.8027 330.572 80.0248Z" fill="black"/>
<path d="M362.416 157.44V162.903C368.746 162.794 374.787 161.401 380.306 158.94L378.233 153.936C373.348 156.101 368.01 157.332 362.416 157.44Z" fill="black"/>
<path d="M401.624 128.881L406.368 131.022C408.569 125.311 409.82 119.089 409.92 112.574H404.764C404.665 118.331 403.56 123.828 401.624 128.881Z" fill="black"/>
<path d="M392.675 143.446L396.319 147.307C400.219 143.038 403.423 138.057 405.742 132.565L400.999 130.423C398.942 135.27 396.113 139.669 392.675 143.446Z" fill="black"/>
<path d="M379.68 153.252L381.751 158.253C386.752 155.815 391.292 152.502 395.199 148.494L391.555 144.633C388.098 148.165 384.09 151.09 379.68 153.252Z" fill="black"/>
<path d="M403.208 111.745C403.208 87.4571 384.558 67.6974 361.633 67.6974C338.708 67.6974 320.057 87.4571 320.057 111.745C320.057 136.033 338.708 155.793 361.633 155.793C384.558 155.793 403.208 136.033 403.208 111.745ZM361.633 149.309C342.081 149.309 326.176 132.457 326.176 111.744C326.176 91.0311 342.081 74.1799 361.633 74.1799C381.184 74.1799 397.09 91.0319 397.09 111.745C397.09 132.458 381.183 149.309 361.633 149.309Z" fill="black"/>
<path fill-rule="evenodd" clip-rule="evenodd" d="M361.09 76.2523C379.522 76.2523 394.465 92.0832 394.465 111.612C394.465 131.14 379.522 146.971 361.09 146.971C342.657 146.971 327.715 131.14 327.715 111.612C327.715 92.0832 342.657 76.2523 361.09 76.2523ZM376.212 101.821L361.291 86.0494L346.37 101.873L351.884 107.716L361.291 97.6892L370.698 107.665L376.212 101.821ZM347.939 111.849L342.475 106.003L336.962 111.849L342.477 117.643L347.939 111.849ZM366.803 111.797L361.291 106.005H361.291L355.778 111.849L361.291 117.643L366.803 111.797ZM385.666 111.849L380.107 106.003L374.643 111.849L380.156 117.694L385.666 111.849ZM376.213 121.824L370.698 115.981L361.291 126.008L351.884 115.981L346.369 121.826L361.291 137.648L376.213 121.824Z" fill="black"/>
<path d="M79.0148 70.2191L76.9435 65.2177C71.9432 67.6555 67.4031 70.9694 63.4958 74.9772L67.1401 78.8382C70.5975 75.307 74.6046 72.3808 79.0148 70.2191Z" fill="black"/>
<path d="M53.9315 112.575H48.7751C48.8749 119.09 50.1256 125.312 52.3276 131.023L57.0713 128.882C55.1347 123.828 54.0297 118.331 53.9315 112.575Z" fill="black"/>
<path d="M57.0713 94.5901L52.3276 92.4486C50.1256 98.1599 48.8749 104.381 48.7751 110.897H53.9315C54.0297 105.14 55.1347 99.6427 57.0713 94.5901Z" fill="black"/>
<path d="M57.6953 130.423L52.9524 132.565C55.2715 138.057 58.4755 143.039 62.3756 147.307L66.0199 143.446C62.5816 139.669 59.7531 135.27 57.6953 130.423Z" fill="black"/>
<path d="M67.1401 144.633L63.4958 148.494C67.4031 152.502 71.944 155.815 76.9435 158.253L79.0148 153.252C74.6046 151.09 70.5975 148.165 67.1401 144.633Z" fill="black"/>
<path d="M127.002 78.8382L130.647 74.9772C126.739 70.9694 122.198 67.6555 117.199 65.2177L115.128 70.2191C119.538 72.3808 123.546 75.307 127.002 78.8382Z" fill="black"/>
<path d="M96.2796 66.0309V60.568C89.9494 60.6771 83.909 62.0701 78.3899 64.5305L80.4627 69.5353C85.3466 67.3694 90.6852 66.1383 96.2796 66.0309Z" fill="black"/>
<path d="M136.447 93.0478L141.19 90.9062C138.871 85.4139 135.667 80.4318 131.767 76.1638L128.122 80.0248C131.561 83.8027 134.389 88.2016 136.447 93.0478Z" fill="black"/>
<path d="M140.211 110.897H145.367C145.268 104.381 144.017 98.1599 141.815 92.4486L137.071 94.5901C139.008 99.6427 140.113 105.14 140.211 110.897Z" fill="black"/>
<path d="M115.753 64.5305C110.234 62.0701 104.193 60.6771 97.8638 60.568V66.0309C103.457 66.1383 108.796 67.3694 113.681 69.5353L115.753 64.5305Z" fill="black"/>
<path d="M78.3899 158.94C83.909 161.402 89.9494 162.795 96.2796 162.903V157.44C90.686 157.332 85.3474 156.101 80.4627 153.936L78.3899 158.94Z" fill="black"/>
<path d="M66.0199 80.0248L62.3756 76.1638C58.4755 80.4326 55.2715 85.4139 52.9524 90.9062L57.6953 93.0478C59.7531 88.2016 62.5816 83.8027 66.0199 80.0248Z" fill="black"/>
<path d="M97.8638 157.44V162.903C104.194 162.794 110.234 161.401 115.753 158.94L113.681 153.936C108.796 156.101 103.457 157.332 97.8638 157.44Z" fill="black"/>
<path d="M137.071 128.881L141.815 131.022C144.016 125.311 145.268 119.089 145.367 112.574H140.211C140.113 118.331 139.008 123.828 137.071 128.881Z" fill="black"/>
<path d="M128.122 143.446L131.767 147.307C135.667 143.038 138.871 138.057 141.19 132.565L136.447 130.423C134.389 135.27 131.561 139.669 128.122 143.446Z" fill="black"/>
<path d="M115.128 153.252L117.199 158.253C122.199 155.815 126.739 152.502 130.647 148.494L127.002 144.633C123.546 148.165 119.538 151.09 115.128 153.252Z" fill="black"/>
<path d="M138.656 111.745C138.656 87.4571 120.005 67.6974 97.0802 67.6974C74.1553 67.6974 55.5044 87.4571 55.5044 111.745C55.5044 136.033 74.1553 155.793 97.0802 155.793C120.005 155.793 138.656 136.033 138.656 111.745ZM97.0802 149.309C77.5287 149.309 61.6232 132.457 61.6232 111.744C61.6232 91.0311 77.5287 74.1799 97.0802 74.1799C116.632 74.1799 132.537 91.0319 132.537 111.745C132.537 132.458 116.631 149.309 97.0802 149.309Z" fill="black"/>
<path d="M96.8992 78.0608C115.332 78.0608 130.273 93.0017 130.273 111.434C130.273 129.867 115.332 144.808 96.8992 144.808C78.4665 144.808 63.5256 129.867 63.5256 111.434C63.5256 93.0017 78.4665 78.0608 96.8992 78.0608ZM103.891 89.6581C103.382 89.4078 102.873 89.6581 102.748 90.165C102.621 90.2922 102.621 90.4195 102.621 90.6717V92.4448L102.641 92.6618C102.75 93.0908 103.014 93.4644 103.382 93.7108C113.298 97.2569 118.383 108.27 114.695 118.017C112.789 123.336 108.595 127.385 103.382 129.285C102.873 129.537 102.621 129.917 102.621 130.551V132.324L102.631 132.508C102.651 132.708 102.734 132.897 102.87 133.046C103.005 133.195 103.185 133.296 103.382 133.336C103.509 133.336 103.764 133.336 103.891 133.21C106.752 132.317 109.408 130.867 111.706 128.943C114.004 127.019 115.898 124.659 117.281 122C118.663 119.34 119.505 116.434 119.76 113.447C120.014 110.461 119.676 107.454 118.763 104.599C116.477 97.3819 110.883 91.9359 103.891 89.6581ZM90.4164 89.5329C90.2891 89.5329 90.0346 89.5329 89.9074 89.6581C87.0464 90.5514 84.3906 92.0019 82.0926 93.9261C79.7947 95.8501 77.9 98.2098 76.5176 100.869C75.1354 103.528 74.2927 106.435 74.0382 109.421C73.7839 112.408 74.1228 115.415 75.0353 118.27C77.3215 125.361 82.7884 130.806 89.9074 133.083C90.4164 133.336 90.9254 133.083 91.0504 132.576C91.1776 132.451 91.1776 132.322 91.1776 132.07V130.297L91.1567 130.13C91.0692 129.777 90.7417 129.375 90.4164 129.158C80.5003 125.612 75.415 114.599 79.1026 104.851C81.0091 99.5325 85.2038 95.484 90.4164 93.5837C90.9254 93.3313 91.1776 92.9517 91.1776 92.3175V90.5446L91.1673 90.3611C91.1474 90.1607 91.0639 89.9721 90.9285 89.823C90.7933 89.6738 90.6137 89.5723 90.4164 89.5329ZM97.7897 96.1159H95.8812L95.6978 96.1324C95.2806 96.216 94.976 96.5747 94.8633 97.1295V100.042L94.4315 100.108C90.869 100.742 88.6371 103.202 88.6371 106.245C88.6371 110.421 91.1776 112.066 96.5173 112.7C100.078 113.333 101.221 114.094 101.221 116.119C101.221 118.142 99.4417 119.536 97.0263 119.536C93.7203 119.536 92.5773 118.145 92.1955 116.244C92.0704 115.739 91.6865 115.485 91.3049 115.485H89.144L88.9791 115.5C88.7735 115.533 88.5867 115.64 88.4538 115.8C88.3207 115.96 88.2501 116.163 88.2553 116.371V116.497L88.3242 116.872C88.9291 119.842 90.9648 121.968 94.9927 122.575V125.614L95.0092 125.797C95.0928 126.21 95.4536 126.515 96.0104 126.625H97.9171L98.1006 126.609C98.5177 126.525 98.8223 126.167 98.9348 125.614V122.573L99.3666 122.489C102.94 121.734 105.29 119.15 105.29 115.863C105.29 111.432 102.621 109.914 97.2808 109.28C93.4658 108.773 92.7045 107.761 92.7045 105.988C92.7045 104.215 93.9769 103.076 96.5173 103.076C98.8056 103.076 100.078 103.836 100.712 105.736C100.778 105.92 100.899 106.079 101.058 106.192C101.217 106.305 101.407 106.366 101.603 106.368H103.636L103.801 106.355C104.008 106.323 104.195 106.216 104.329 106.055C104.462 105.894 104.533 105.69 104.527 105.481V105.356L104.45 104.995C104.137 103.699 103.423 102.534 102.409 101.667C101.396 100.799 100.135 100.274 98.8056 100.165V97.1295L98.7889 96.946C98.7055 96.531 98.3466 96.2264 97.7897 96.1159Z" fill="black"/>
</svg>
