<svg width="451" height="430" viewBox="0 0 451 430" fill="none" xmlns="http://www.w3.org/2000/svg">
<path d="M111.286 412.133V326.037C120.088 323.467 142.153 316.297 154.559 312.272L154.953 312.144C157.379 311.354 159.545 310.649 160.799 310.249L272.734 340.238C276.854 341.345 280.31 344.004 282.467 347.733C290.253 357.93 281.797 366.588 276.596 369.643C272.867 371.792 268.539 372.368 264.419 371.267L188.077 350.812C185.722 350.185 183.285 351.58 182.657 353.943C182.022 356.306 183.425 358.736 185.788 359.371L262.122 379.826C268.532 381.539 275.244 380.646 281.027 377.315C294.313 372.483 297.954 363.339 298.114 359.371L373.769 315.994C381.848 311.77 391.558 314.311 395.871 321.776C400.294 329.449 397.658 339.292 389.993 343.716L260.793 418.307C258.326 419.74 255.52 420.5 252.655 420.441C252.611 420.441 252.567 420.441 252.522 420.448L166.182 422.08C163.221 422.139 160.71 421.911 157.801 421.335L111.286 412.133Z" fill="white"/>
<path d="M102.224 429.746V303.604H52.2087V429.746H102.224Z" fill="white"/>
<path d="M203.128 211.634L184.528 220.344L184.526 220.346C182.972 218.965 180.989 218.163 178.912 218.074C176.835 217.986 174.791 218.616 173.125 219.86C171.459 221.104 170.273 222.884 169.768 224.901C169.262 226.917 169.468 229.046 170.35 230.929C171.232 232.811 172.736 234.332 174.609 235.234C176.483 236.136 178.609 236.364 180.631 235.879C182.653 235.395 184.446 234.228 185.707 232.575C186.968 230.923 187.62 228.886 187.554 226.808L206.153 218.093C207.772 219.532 209.853 220.341 212.018 220.374C214.183 220.406 216.288 219.659 217.948 218.269L233.877 226.304C233.803 227.521 233.976 228.74 234.385 229.888C234.795 231.036 235.433 232.089 236.261 232.984C237.088 233.879 238.088 234.597 239.201 235.095C240.313 235.593 241.515 235.861 242.734 235.882C243.952 235.903 245.163 235.677 246.292 235.218C247.421 234.759 248.445 234.076 249.303 233.211C250.162 232.345 250.836 231.315 251.285 230.182C251.734 229.049 251.95 227.836 251.918 226.618L270.352 218.118C271.898 219.507 273.876 220.32 275.952 220.42C278.028 220.52 280.075 219.901 281.748 218.668C283.421 217.434 284.616 215.661 285.134 213.648C285.651 211.635 285.458 209.505 284.588 207.617C283.717 205.73 282.222 204.201 280.355 203.287C278.488 202.374 276.363 202.133 274.339 202.604C272.315 203.076 270.515 204.231 269.243 205.875C267.972 207.519 267.306 209.552 267.359 211.629L248.925 220.131C247.309 218.679 245.222 217.859 243.05 217.82C240.877 217.782 238.763 218.529 237.096 219.923L221.168 211.888C221.242 210.669 221.068 209.448 220.657 208.298C220.245 207.148 219.605 206.093 218.774 205.198C217.943 204.302 216.94 203.585 215.824 203.089C214.708 202.592 213.502 202.328 212.281 202.31C211.06 202.293 209.848 202.524 208.718 202.988C207.589 203.453 206.565 204.142 205.709 205.014C204.854 205.885 204.184 206.921 203.74 208.059C203.296 209.197 203.088 210.413 203.128 211.634Z" fill="white"/>
<path d="M338.841 246.408H319.446H298.084V232.354C298.084 193.23 266.435 161.223 226.97 161.223C186.758 161.223 154.786 194.414 155.886 234.322L155.952 246.408H115.1V218.282H134.494C136.175 218.282 137.682 217.08 138.005 215.352C139.177 209.228 140.959 203.313 143.28 197.686C145.624 192.04 148.536 186.664 151.927 181.646C153.028 180.235 152.926 178.201 151.64 176.897L137.927 163.184L157.812 143.299L171.525 157.012C172.733 158.215 174.629 158.418 176.088 157.437C181.16 153.98 186.602 151.032 192.313 148.676C197.857 146.367 203.688 144.609 209.741 143.437C211.523 143.233 212.91 141.726 212.91 139.878V120.484H241.036V139.872C241.036 141.571 242.244 143.078 243.955 143.401C250.091 144.555 256.011 146.337 261.621 148.676C267.279 151.02 272.637 153.915 277.673 157.323C279.078 158.406 281.117 158.322 282.403 157.018L296.134 143.305L316.02 163.19L302.306 176.921C301.104 178.112 300.883 180.025 301.882 181.467C308.813 191.651 313.609 203.164 315.918 215.352C316.241 217.014 317.682 218.27 319.446 218.27H338.841V246.408Z" fill="white"/>
<path fill-rule="evenodd" clip-rule="evenodd" d="M48.6592 192.545C67.084 192.545 82.0203 207.481 82.0203 225.906C82.0203 244.331 67.084 259.267 48.6592 259.267C30.2344 259.267 15.2981 244.331 15.2981 225.906C15.2981 207.481 30.2344 192.545 48.6592 192.545ZM48.766 237.7L33.785 228.851L48.767 249.972L63.7632 228.851L48.766 237.7ZM34.0088 226.008L48.9969 201.137L63.9809 226.017L48.9949 234.868L34.0088 226.008Z" fill="white"/>
<path d="M30.7268 186.852L28.6564 182.133C23.6582 184.433 19.1199 187.56 15.2143 191.341L18.857 194.984C22.313 191.652 26.3184 188.892 30.7268 186.852Z" fill="white"/>
<path d="M5.65398 226.815H0.499756C0.599515 232.962 1.84967 238.832 4.05071 244.22L8.79244 242.2C6.85663 237.432 5.75216 232.245 5.65398 226.815Z" fill="white"/>
<path d="M8.79244 209.846L4.05071 207.825C1.84967 213.214 0.599515 219.083 0.499756 225.231H5.65398C5.75216 219.8 6.85663 214.613 8.79244 209.846Z" fill="white"/>
<path d="M9.41617 243.654L4.67523 245.675C6.99344 250.857 10.196 255.557 14.0946 259.584L17.7374 255.941C14.3004 252.378 11.4731 248.227 9.41617 243.654Z" fill="white"/>
<path d="M18.857 257.061L15.2143 260.703C19.1199 264.485 23.6589 267.611 28.6564 269.911L30.7268 265.193C26.3184 263.153 22.313 260.393 18.857 257.061Z" fill="white"/>
<path d="M78.6943 194.984L82.3371 191.341C78.4314 187.56 73.8924 184.433 68.8949 182.133L66.8245 186.852C71.2329 188.892 75.2392 191.652 78.6943 194.984Z" fill="white"/>
<path d="M47.9844 182.901V177.746C41.6568 177.849 35.619 179.164 30.1022 181.485L32.1742 186.207C37.056 184.163 42.3923 183.002 47.9844 182.901Z" fill="white"/>
<path d="M88.1351 208.391L92.876 206.37C90.5578 201.188 87.3552 196.488 83.4567 192.461L79.8139 196.104C83.2508 199.668 86.0781 203.818 88.1351 208.391Z" fill="white"/>
<path d="M91.8976 225.231H97.0518C96.9521 219.084 95.7019 213.214 93.5009 207.825L88.7592 209.846C90.695 214.613 91.7994 219.8 91.8976 225.231Z" fill="white"/>
<path d="M67.4501 181.485C61.9325 179.164 55.8947 177.849 49.5679 177.746V182.901C55.1592 183.002 60.4955 184.163 65.3782 186.207L67.4501 181.485Z" fill="white"/>
<path d="M30.1022 270.56C35.619 272.882 41.6568 274.196 47.9844 274.298V269.144C42.3931 269.043 37.0568 267.881 32.1742 265.838L30.1022 270.56Z" fill="white"/>
<path d="M17.7374 196.104L14.0946 192.461C10.196 196.488 6.99344 201.188 4.67523 206.37L9.41617 208.391C11.4731 203.818 14.3004 199.668 17.7374 196.104Z" fill="white"/>
<path d="M49.5679 269.144V274.298C55.8955 274.195 61.9333 272.881 67.4501 270.56L65.3782 265.838C60.4955 267.881 55.1592 269.043 49.5679 269.144Z" fill="white"/>
<path d="M88.7592 242.199L93.5009 244.219C95.7011 238.831 96.9521 232.961 97.0518 226.814H91.8976C91.7994 232.245 90.695 237.432 88.7592 242.199Z" fill="white"/>
<path d="M79.8139 255.941L83.4567 259.584C87.3552 255.556 90.5578 250.857 92.876 245.675L88.1351 243.654C86.0781 248.227 83.2508 252.378 79.8139 255.941Z" fill="white"/>
<path d="M66.8245 265.193L68.8949 269.911C73.8932 267.611 78.4314 264.485 82.3371 260.703L78.6943 257.061C75.2392 260.393 71.2329 263.153 66.8245 265.193Z" fill="white"/>
<path d="M90.3431 226.031C90.3431 203.116 71.7 184.473 48.7846 184.473C25.8693 184.473 7.22623 203.116 7.22623 226.031C7.22623 248.947 25.8693 267.59 48.7846 267.59C71.7 267.59 90.3431 248.947 90.3431 226.031ZM48.7846 261.473C29.2413 261.473 13.3424 245.573 13.3424 226.031C13.3424 206.488 29.2413 190.589 48.7846 190.589C68.3279 190.589 84.2269 206.489 84.2269 226.031C84.2269 245.574 68.3272 261.473 48.7846 261.473Z" fill="white"/>
<path d="M384.148 190.267L382.076 185.265C377.076 187.703 372.536 191.017 368.629 195.025L372.273 198.886C375.73 195.354 379.737 192.428 384.148 190.267Z" fill="white"/>
<path d="M359.064 232.623H353.908C354.008 239.138 355.258 245.359 357.46 251.071L362.204 248.929C360.267 243.876 359.163 238.378 359.064 232.623Z" fill="white"/>
<path d="M362.204 214.638L357.46 212.496C355.258 218.207 354.008 224.428 353.908 230.944H359.064C359.163 225.188 360.267 219.69 362.204 214.638Z" fill="white"/>
<path d="M362.828 250.471L358.085 252.612C360.404 258.105 363.608 263.087 367.508 267.355L371.153 263.494C367.714 259.717 364.886 255.318 362.828 250.471Z" fill="white"/>
<path d="M372.273 264.68L368.629 268.541C372.536 272.549 377.077 275.863 382.076 278.301L384.148 273.299C379.737 271.138 375.73 268.212 372.273 264.68Z" fill="white"/>
<path d="M432.135 198.886L435.779 195.025C431.872 191.017 427.331 187.703 422.332 185.265L420.26 190.267C424.671 192.428 428.679 195.354 432.135 198.886Z" fill="white"/>
<path d="M401.412 186.078V180.615C395.082 180.725 389.042 182.118 383.523 184.578L385.596 189.583C390.479 187.417 395.818 186.186 401.412 186.078Z" fill="white"/>
<path d="M441.58 213.095L446.323 210.954C444.004 205.461 440.8 200.479 436.899 196.211L433.255 200.072C436.694 203.85 439.522 208.249 441.58 213.095Z" fill="white"/>
<path d="M445.344 230.944H450.5C450.4 224.429 449.15 218.207 446.948 212.496L442.204 214.638C444.141 219.69 445.246 225.188 445.344 230.944Z" fill="white"/>
<path d="M420.886 184.578C415.366 182.118 409.326 180.725 402.997 180.615V186.078C408.59 186.186 413.929 187.417 418.813 189.583L420.886 184.578Z" fill="white"/>
<path d="M383.523 278.988C389.042 281.449 395.082 282.842 401.412 282.95V277.487C395.819 277.38 390.48 276.149 385.596 273.983L383.523 278.988Z" fill="white"/>
<path d="M371.153 200.072L367.508 196.211C363.608 200.48 360.404 205.461 358.085 210.954L362.828 213.095C364.886 208.249 367.714 203.85 371.153 200.072Z" fill="white"/>
<path d="M402.997 277.487V282.95C409.327 282.841 415.367 281.448 420.886 278.988L418.813 273.983C413.929 276.149 408.59 277.38 402.997 277.487Z" fill="white"/>
<path d="M442.204 248.928L446.948 251.07C449.149 245.359 450.4 239.137 450.5 232.622H445.344C445.246 238.378 444.141 243.876 442.204 248.928Z" fill="white"/>
<path d="M433.255 263.494L436.899 267.355C440.8 263.086 444.004 258.105 446.323 252.612L441.58 250.471C439.522 255.318 436.694 259.717 433.255 263.494Z" fill="white"/>
<path d="M420.26 273.299L422.332 278.301C427.332 275.863 431.872 272.549 435.779 268.541L432.135 264.68C428.679 268.212 424.671 271.138 420.26 273.299Z" fill="white"/>
<path d="M443.789 231.792C443.789 207.505 425.138 187.745 402.213 187.745C379.288 187.745 360.637 207.505 360.637 231.792C360.637 256.08 379.288 275.84 402.213 275.84C425.138 275.84 443.789 256.08 443.789 231.792ZM402.213 269.357C382.662 269.357 366.756 252.505 366.756 231.792C366.756 211.079 382.662 194.227 402.213 194.227C421.764 194.227 437.67 211.079 437.67 231.792C437.67 252.505 421.764 269.357 402.213 269.357Z" fill="white"/>
<path d="M399.002 245.58V257.417C399.002 257.843 399.329 258.189 399.731 258.189H405.56C405.962 258.189 406.289 257.843 406.289 257.417V245.581C406.289 245.14 405.942 244.792 405.527 244.81C403.638 244.893 401.714 244.895 399.764 244.81C399.349 244.792 399.002 245.14 399.002 245.58Z" fill="white"/>
<path d="M419.07 233.178C416.718 232.207 413.563 231.461 410.017 231.027C409.584 230.974 409.202 231.332 409.202 231.794V240.585C409.202 241.047 409.584 241.405 410.017 241.353C412.816 241.012 415.378 240.476 417.54 239.764C421.743 238.379 422.864 236.865 422.864 236.189C422.864 235.523 421.87 234.334 419.07 233.178Z" fill="white"/>
<path d="M399.002 222.294V240.945C399.002 241.357 399.308 241.7 399.697 241.717C401.655 241.807 403.603 241.809 405.593 241.717C405.982 241.699 406.288 241.357 406.288 240.945V222.294C406.288 221.441 406.941 220.75 407.745 220.75H418.493C418.895 220.75 419.221 220.404 419.221 219.978V213.803C419.221 213.376 418.895 213.031 418.493 213.031H386.798C386.395 213.031 386.069 213.376 386.069 213.803V219.978C386.069 220.404 386.395 220.75 386.798 220.75H397.545C398.35 220.75 399.002 221.441 399.002 222.294Z" fill="white"/>
<path d="M386.219 233.178C383.419 234.334 382.426 235.523 382.426 236.189C382.426 236.865 383.547 238.379 387.75 239.764C389.912 240.476 392.474 241.012 395.272 241.353C395.706 241.405 396.087 241.047 396.087 240.585V231.794C396.087 231.332 395.706 230.974 395.272 231.027C391.727 231.461 388.571 232.207 386.219 233.178Z" fill="white"/>
<path d="M402.645 197.013C384.365 197.013 369.493 212.769 369.493 232.136C369.493 251.503 384.365 267.259 402.645 267.259C421.698 267.259 436.953 250.3 435.728 229.843C434.61 211.434 420.078 197.013 402.645 197.013ZM409.203 244.544V259.732C409.203 260.585 408.55 261.276 407.746 261.276H397.545C396.74 261.276 396.088 260.585 396.088 259.732V244.544C387.108 243.626 379.512 240.794 379.512 236.188C379.512 234.567 380.492 232.229 385.161 230.301C387.849 229.191 391.446 228.356 395.441 227.901C395.809 227.86 396.088 227.527 396.088 227.134V224.609C396.088 224.183 395.761 223.837 395.359 223.837H384.612C383.807 223.837 383.155 223.146 383.155 222.294V211.486C383.155 210.634 383.807 209.943 384.612 209.943H420.679C421.483 209.943 422.136 210.634 422.136 211.486V222.294C422.136 223.146 421.483 223.837 420.679 223.837H409.931C409.529 223.837 409.203 224.183 409.203 224.609V227.134C409.203 227.527 409.481 227.859 409.85 227.901C413.844 228.356 417.441 229.191 420.129 230.301C424.799 232.229 425.779 234.567 425.779 236.188C425.779 240.795 418.183 243.626 409.203 244.544Z" fill="white"/>
<path fill-rule="evenodd" clip-rule="evenodd" d="M226.625 5.55301V0.0900879C220.295 0.199179 214.255 1.59218 208.735 4.0526L210.808 9.05734C215.692 6.89147 221.031 5.66042 226.625 5.55301ZM207.289 4.73982L209.36 9.74121C204.95 11.9029 200.943 14.829 197.486 18.3602L193.841 14.4992C197.749 10.4914 202.289 7.17758 207.289 4.73982ZM179.121 52.097H184.277C184.375 57.8528 185.48 63.3502 187.417 68.4036L182.673 70.5451C180.471 64.8338 179.22 58.6123 179.121 52.097ZM187.417 34.1121L182.673 31.9706C180.471 37.6819 179.22 43.9026 179.121 50.4186H184.277C184.375 44.662 185.48 39.1647 187.417 34.1121ZM183.298 72.0866L188.041 69.9451C190.099 74.7921 192.927 79.1909 196.365 82.968L192.721 86.829C188.821 82.561 185.617 77.5789 183.298 72.0866ZM197.486 84.1545L193.841 88.0155C197.749 92.0233 202.289 95.3372 207.289 97.7749L209.36 92.7735C204.95 90.6118 200.943 87.6865 197.486 84.1545ZM260.992 14.4992L257.348 18.3602C253.891 14.829 249.883 11.9029 245.473 9.74121L247.544 4.73982C252.544 7.17758 257.085 10.4914 260.992 14.4992ZM271.535 30.4282L266.792 32.5697C264.735 27.7236 261.906 23.3247 258.468 19.5468L262.112 15.6859C266.012 19.9538 269.216 24.9359 271.535 30.4282ZM270.557 50.4186H275.713C275.613 43.9034 274.362 37.6819 272.161 31.9706L267.417 34.1121C269.353 39.1647 270.458 44.662 270.557 50.4186ZM228.209 0.0900879C234.539 0.199179 240.579 1.59218 246.099 4.0526L244.026 9.05734C239.141 6.89147 233.803 5.66042 228.209 5.55301V0.0900879ZM208.735 98.462C214.255 100.923 220.295 102.316 226.625 102.425V96.9616C221.031 96.8542 215.693 95.6232 210.808 93.4573L208.735 98.462ZM192.721 15.6859L196.365 19.5468C192.927 23.3247 190.099 27.7236 188.041 32.5697L183.298 30.4282C185.617 24.9359 188.821 19.9547 192.721 15.6859ZM228.209 96.9616V102.425C234.539 102.315 240.58 100.922 246.099 98.462L244.026 93.4573C239.141 95.6232 233.803 96.8542 228.209 96.9616ZM272.161 70.5442L267.417 68.4027C269.353 63.3501 270.458 57.8528 270.557 52.0962H275.713C275.613 58.6114 274.362 64.8329 272.161 70.5442ZM258.468 82.968L262.112 86.829C266.012 82.5602 269.216 77.5789 271.535 72.0866L266.792 69.9451C264.735 74.7921 261.906 79.1909 258.468 82.968ZM247.544 97.7749L245.473 92.7735C249.883 90.6118 253.891 87.6865 257.348 84.1545L260.992 88.0155C257.085 92.0233 252.545 95.3372 247.544 97.7749ZM227.425 15.3802C208.748 15.3802 193.553 31.4786 193.553 51.2668C193.553 71.055 208.748 87.1535 227.425 87.1535C246.102 87.1535 261.298 71.055 261.298 51.2668C261.298 31.4786 246.102 15.3802 227.425 15.3802ZM227.425 84.5101C210.123 84.5101 196.047 69.5974 196.047 51.266C196.047 32.9346 210.123 18.0227 227.425 18.0227C244.728 18.0227 258.804 32.9354 258.804 51.2668C258.804 69.5983 244.727 84.5101 227.425 84.5101ZM227.426 7.21943C250.351 7.21943 269.001 26.9791 269.001 51.2669C269.001 75.5546 250.351 95.3143 227.426 95.3143C204.501 95.3143 185.85 75.5546 185.85 51.2669C185.85 26.9791 204.501 7.21943 227.426 7.21943ZM191.969 51.266C191.969 71.979 207.874 88.831 227.426 88.831C246.976 88.831 262.883 71.9798 262.883 51.2669C262.883 30.5539 246.977 13.7019 227.426 13.7019C207.874 13.7019 191.969 30.5531 191.969 51.266ZM257.368 50.8078C257.368 68.1873 244.07 82.2762 227.665 82.2762C211.261 82.2762 197.963 68.1873 197.963 50.8078C197.963 33.4282 211.261 19.3393 227.665 19.3393C244.07 19.3393 257.368 33.4282 257.368 50.8078ZM245.613 62.1745L242.999 66.9719C242.49 67.9038 241.542 68.4861 240.525 68.4861L214.411 68.4752L218.386 61.1845L227.775 61.1954H227.779L237.722 61.2063C238.031 61.2063 238.313 61.0316 238.467 60.7513L242.672 53.0019L245.613 58.3963C246.246 59.5611 246.246 61.0098 245.613 62.1745ZM241.927 50.727L245.61 43.9495C246.245 42.7811 246.242 41.3324 245.606 40.164L242.665 34.7842L229.266 59.3754L237.227 59.3864L241.927 50.727ZM226.318 42.9849L212.923 67.5653L209.985 62.1855C209.346 61.0207 209.346 59.572 209.982 58.4036L213.655 51.637C213.655 51.637 213.658 51.637 213.658 51.6334L218.351 42.9849H226.318ZM237.206 41.1649L241.178 33.8741L215.067 33.8668C214.05 33.8668 213.102 34.4456 212.593 35.381L209.979 40.1748C209.343 41.3396 209.343 42.7883 209.979 43.9567L212.913 49.3547L217.111 41.6235C217.266 41.3396 217.547 41.1649 217.857 41.1649H237.206Z" fill="white"/>
<path d="M343.567 69.6034L341.496 64.602C336.496 67.0398 331.956 70.3536 328.048 74.3615L331.693 78.2225C335.15 74.6913 339.157 71.7651 343.567 69.6034Z" fill="white"/>
<path d="M318.484 111.959H313.328C313.427 118.475 314.678 124.696 316.88 130.408L321.624 128.266C319.687 123.213 318.582 117.715 318.484 111.959Z" fill="white"/>
<path d="M321.624 93.9744L316.88 91.8329C314.678 97.5442 313.427 103.765 313.328 110.281H318.484C318.582 104.524 319.687 99.027 321.624 93.9744Z" fill="white"/>
<path d="M322.248 129.808L317.505 131.949C319.824 137.441 323.028 142.423 326.928 146.691L330.572 142.83C327.134 139.053 324.306 134.655 322.248 129.808Z" fill="white"/>
<path d="M331.693 144.017L328.048 147.878C331.956 151.886 336.496 155.2 341.496 157.637L343.567 152.636C339.157 150.474 335.15 147.549 331.693 144.017Z" fill="white"/>
<path d="M391.555 78.2225L395.199 74.3615C391.292 70.3536 386.751 67.0398 381.751 64.602L379.68 69.6034C384.09 71.7651 388.098 74.6913 391.555 78.2225Z" fill="white"/>
<path d="M360.832 65.4152V59.9523C354.502 60.0614 348.462 61.4544 342.942 63.9148L345.015 68.9195C349.899 66.7537 355.238 65.5226 360.832 65.4152Z" fill="white"/>
<path d="M400.999 92.432L405.742 90.2905C403.423 84.7982 400.219 79.8161 396.319 75.5481L392.675 79.4091C396.113 83.187 398.942 87.5859 400.999 92.432Z" fill="white"/>
<path d="M404.764 110.281H409.92C409.82 103.766 408.569 97.5442 406.368 91.8329L401.624 93.9744C403.56 99.027 404.665 104.524 404.764 110.281Z" fill="white"/>
<path d="M380.306 63.9148C374.786 61.4544 368.746 60.0614 362.416 59.9523V65.4152C368.01 65.5226 373.348 66.7537 378.233 68.9195L380.306 63.9148Z" fill="white"/>
<path d="M342.942 158.325C348.462 160.786 354.502 162.179 360.832 162.287V156.824C355.238 156.717 349.9 155.486 345.015 153.32L342.942 158.325Z" fill="white"/>
<path d="M330.572 79.4091L326.928 75.5481C323.028 79.8169 319.824 84.7982 317.505 90.2905L322.248 92.432C324.306 87.5859 327.134 83.187 330.572 79.4091Z" fill="white"/>
<path d="M362.416 156.824V162.287C368.746 162.178 374.787 160.785 380.306 158.325L378.233 153.32C373.348 155.486 368.01 156.717 362.416 156.824Z" fill="white"/>
<path d="M401.624 128.265L406.368 130.407C408.569 124.695 409.82 118.474 409.92 111.959H404.764C404.665 117.715 403.56 123.213 401.624 128.265Z" fill="white"/>
<path d="M392.675 142.83L396.319 146.691C400.219 142.423 403.423 137.441 405.742 131.949L400.999 129.808C398.942 134.655 396.113 139.053 392.675 142.83Z" fill="white"/>
<path d="M379.68 152.636L381.751 157.637C386.752 155.2 391.292 151.886 395.199 147.878L391.555 144.017C388.098 147.549 384.09 150.474 379.68 152.636Z" fill="white"/>
<path d="M403.208 111.129C403.208 86.8414 384.558 67.0816 361.633 67.0816C338.708 67.0816 320.057 86.8414 320.057 111.129C320.057 135.417 338.708 155.177 361.633 155.177C384.558 155.177 403.208 135.417 403.208 111.129ZM361.633 148.693C342.081 148.693 326.176 131.841 326.176 111.128C326.176 90.4154 342.081 73.5642 361.633 73.5642C381.184 73.5642 397.09 90.4162 397.09 111.129C397.09 131.842 381.183 148.693 361.633 148.693Z" fill="white"/>
<path fill-rule="evenodd" clip-rule="evenodd" d="M361.507 75.637C379.94 75.637 394.882 91.4679 394.882 110.996C394.882 130.525 379.94 146.356 361.507 146.356C343.075 146.356 328.132 130.525 328.132 110.996C328.132 91.4679 343.075 75.637 361.507 75.637ZM376.63 101.207L361.708 85.4347L346.787 101.258L352.301 107.102L361.708 97.0745L371.115 107.05L376.63 101.207ZM348.356 111.234L342.892 105.388L337.38 111.234L342.894 117.028L348.356 111.234ZM367.22 111.182L361.708 105.39H361.708L356.196 111.234L361.708 117.028L367.22 111.182ZM386.083 111.234L380.524 105.388L375.06 111.234L380.573 117.08L386.083 111.234ZM376.63 121.21L371.115 115.366L361.708 125.393L352.301 115.366L346.787 121.212L361.708 137.033L376.63 121.21Z" fill="white"/>
<path d="M79.0148 69.6034L76.9435 64.602C71.9432 67.0398 67.4031 70.3536 63.4958 74.3615L67.1401 78.2225C70.5975 74.6913 74.6046 71.7651 79.0148 69.6034Z" fill="white"/>
<path d="M53.9315 111.959H48.7751C48.8749 118.475 50.1256 124.696 52.3276 130.408L57.0713 128.266C55.1347 123.213 54.0297 117.715 53.9315 111.959Z" fill="white"/>
<path d="M57.0713 93.9744L52.3276 91.8329C50.1256 97.5442 48.8749 103.765 48.7751 110.281H53.9315C54.0297 104.524 55.1347 99.027 57.0713 93.9744Z" fill="white"/>
<path d="M57.6953 129.808L52.9524 131.949C55.2715 137.441 58.4755 142.423 62.3756 146.691L66.0199 142.83C62.5816 139.053 59.7531 134.655 57.6953 129.808Z" fill="white"/>
<path d="M67.1401 144.017L63.4958 147.878C67.4031 151.886 71.944 155.2 76.9435 157.637L79.0148 152.636C74.6046 150.474 70.5975 147.549 67.1401 144.017Z" fill="white"/>
<path d="M127.002 78.2225L130.647 74.3615C126.739 70.3536 122.198 67.0398 117.199 64.602L115.128 69.6034C119.538 71.7651 123.546 74.6913 127.002 78.2225Z" fill="white"/>
<path d="M96.2796 65.4152V59.9523C89.9494 60.0614 83.909 61.4544 78.3899 63.9148L80.4627 68.9195C85.3466 66.7537 90.6852 65.5226 96.2796 65.4152Z" fill="white"/>
<path d="M136.447 92.432L141.19 90.2905C138.871 84.7982 135.667 79.8161 131.767 75.5481L128.122 79.4091C131.561 83.187 134.389 87.5859 136.447 92.432Z" fill="white"/>
<path d="M140.211 110.281H145.367C145.268 103.766 144.017 97.5442 141.815 91.8329L137.071 93.9744C139.008 99.027 140.113 104.524 140.211 110.281Z" fill="white"/>
<path d="M115.753 63.9148C110.234 61.4544 104.193 60.0614 97.8638 59.9523V65.4152C103.457 65.5226 108.796 66.7537 113.681 68.9195L115.753 63.9148Z" fill="white"/>
<path d="M78.3899 158.325C83.909 160.786 89.9494 162.179 96.2796 162.287V156.824C90.686 156.717 85.3474 155.486 80.4627 153.32L78.3899 158.325Z" fill="white"/>
<path d="M66.0199 79.4091L62.3756 75.5481C58.4755 79.8169 55.2715 84.7982 52.9524 90.2905L57.6953 92.432C59.7531 87.5859 62.5816 83.187 66.0199 79.4091Z" fill="white"/>
<path d="M97.8638 156.824V162.287C104.194 162.178 110.234 160.785 115.753 158.325L113.681 153.32C108.796 155.486 103.457 156.717 97.8638 156.824Z" fill="white"/>
<path d="M137.071 128.265L141.815 130.407C144.016 124.695 145.268 118.474 145.367 111.959H140.211C140.113 117.715 139.008 123.213 137.071 128.265Z" fill="white"/>
<path d="M128.122 142.83L131.767 146.691C135.667 142.423 138.871 137.441 141.19 131.949L136.447 129.808C134.389 134.655 131.561 139.053 128.122 142.83Z" fill="white"/>
<path d="M115.128 152.636L117.199 157.637C122.199 155.2 126.739 151.886 130.647 147.878L127.002 144.017C123.546 147.549 119.538 150.474 115.128 152.636Z" fill="white"/>
<path d="M138.656 111.129C138.656 86.8414 120.005 67.0816 97.0802 67.0816C74.1553 67.0816 55.5044 86.8414 55.5044 111.129C55.5044 135.417 74.1553 155.177 97.0802 155.177C120.005 155.177 138.656 135.417 138.656 111.129ZM97.0802 148.693C77.5287 148.693 61.6232 131.841 61.6232 111.128C61.6232 90.4154 77.5287 73.5642 97.0802 73.5642C116.632 73.5642 132.537 90.4162 132.537 111.129C132.537 131.842 116.631 148.693 97.0802 148.693Z" fill="white"/>
<path d="M96.9531 77.4454C115.386 77.4454 130.327 92.3863 130.327 110.819C130.327 129.252 115.386 144.192 96.9531 144.192C78.5205 144.192 63.5796 129.252 63.5796 110.819C63.5796 92.3863 78.5205 77.4454 96.9531 77.4454ZM103.945 89.0428C103.436 88.7924 102.927 89.0428 102.802 89.5497C102.674 89.6768 102.674 89.8042 102.674 90.0564V91.8295L102.695 92.0464C102.804 92.4755 103.068 92.8491 103.436 93.0955C113.352 96.6415 118.437 107.655 114.749 117.402C112.843 122.721 108.649 126.769 103.436 128.67C102.927 128.922 102.674 129.302 102.674 129.936V131.709L102.685 131.892C102.705 132.092 102.788 132.281 102.924 132.43C103.059 132.579 103.239 132.681 103.436 132.72C103.563 132.72 103.818 132.72 103.945 132.595C106.806 131.702 109.462 130.251 111.76 128.327C114.058 126.403 115.952 124.043 117.335 121.384C118.717 118.725 119.559 115.818 119.814 112.832C120.068 109.846 119.729 106.838 118.817 103.984C116.531 96.7666 110.937 91.3205 103.945 89.0428ZM90.4704 88.9175C90.343 88.9175 90.0885 88.9175 89.9614 89.0428C87.1004 89.936 84.4445 91.3866 82.1466 93.3108C79.8486 95.2347 77.9539 97.5944 76.5715 100.254C75.1893 102.913 74.3466 105.82 74.0921 108.806C73.8379 111.792 74.1768 114.799 75.0892 117.654C77.3754 124.746 82.8423 130.19 89.9614 132.468C90.4704 132.72 90.9793 132.468 91.1044 131.961C91.2315 131.836 91.2315 131.707 91.2315 131.454V129.681L91.2107 129.514C91.1232 129.162 90.7956 128.759 90.4704 128.542C80.5543 124.996 75.469 113.983 79.1566 104.236C81.063 98.9172 85.2577 94.8686 90.4704 92.9684C90.9793 92.7159 91.2315 92.3364 91.2315 91.7021V89.9292L91.2212 89.7458C91.2014 89.5454 91.1178 89.3567 90.9824 89.2077C90.8472 89.0585 90.6677 88.9569 90.4704 88.9175ZM97.8437 95.5006H95.9352L95.7517 95.5171C95.3346 95.6007 95.03 95.9594 94.9173 96.5142V99.4261L94.4855 99.4928C90.923 100.127 88.6911 102.586 88.6911 105.629C88.6911 109.805 91.2315 111.451 96.5713 112.085C100.132 112.717 101.275 113.478 101.275 115.504C101.275 117.527 99.4957 118.92 97.0803 118.92C93.7743 118.92 92.6313 117.529 92.2495 115.629C92.1244 115.124 91.7405 114.87 91.3589 114.87H89.198L89.033 114.884C88.8275 114.917 88.6407 115.024 88.5078 115.184C88.3747 115.345 88.3041 115.548 88.3092 115.756V115.881L88.3782 116.257C88.9831 119.227 91.0187 121.352 95.0467 121.959V124.998L95.0632 125.182C95.1468 125.595 95.5076 125.9 96.0644 126.01H97.971L98.1545 125.993C98.5716 125.91 98.8763 125.551 98.9888 124.998V121.957L99.4205 121.874C102.994 121.119 105.344 118.535 105.344 115.247C105.344 110.817 102.674 109.298 97.3347 108.664C93.5198 108.158 92.7584 107.146 92.7584 105.373C92.7584 103.6 94.0308 102.461 96.5713 102.461C98.8596 102.461 100.132 103.22 100.766 105.12C100.832 105.304 100.953 105.463 101.112 105.576C101.271 105.689 101.461 105.751 101.657 105.752H103.69L103.855 105.74C104.062 105.707 104.249 105.6 104.383 105.44C104.516 105.279 104.587 105.075 104.581 104.866V104.741L104.504 104.38C104.191 103.083 103.477 101.919 102.463 101.051C101.45 100.184 100.189 99.6583 98.8596 99.5492V96.5142L98.8428 96.3307C98.7595 95.9156 98.4005 95.611 97.8437 95.5006Z" fill="white"/>
</svg>
