<svg width="359" height="451" viewBox="0 0 359 451" fill="none" xmlns="http://www.w3.org/2000/svg">
<path d="M37.1173 450.09H321.883C331.67 450.079 341.052 446.186 347.973 439.266C354.893 432.346 358.786 422.963 358.797 413.176V37.0043C358.786 27.2175 354.893 17.8348 347.973 10.9145C341.052 3.99417 331.67 0.101439 321.883 0.0902729H109.996C105.142 0.0748486 100.333 1.02413 95.849 2.88298C91.3649 4.74184 87.2947 7.47319 83.8751 10.9184L11.0314 83.7621C7.58622 87.1817 4.85486 91.2518 2.99601 95.736C1.13716 100.22 0.18787 105.029 0.203295 109.883V413.176C0.21446 422.963 4.10719 432.346 11.0275 439.266C17.9478 446.186 27.3306 450.079 37.1173 450.09ZM32.0197 271.521L51.9076 251.633C53.8857 249.655 56.5685 248.544 59.366 248.544C62.1634 248.544 64.8463 249.655 66.8244 251.633C68.8025 253.611 69.9137 256.294 69.9137 259.092C69.9137 261.889 68.8025 264.572 66.8244 266.55L46.9365 286.438C44.9584 288.416 42.2755 289.527 39.4781 289.527C36.6806 289.527 33.9978 288.416 32.0197 286.438C30.0416 284.46 28.9303 281.777 28.9303 278.979C28.9303 276.182 30.0416 273.499 32.0197 271.521ZM32.0197 170.774C32.9991 169.794 34.1618 169.017 35.4416 168.487C36.7213 167.957 38.0929 167.684 39.4781 167.684C40.8633 167.684 42.2349 167.957 43.5146 168.487C44.7943 169.017 45.9571 169.794 46.9365 170.774L66.8244 190.662C67.8038 191.641 68.5808 192.804 69.1108 194.084C69.6409 195.363 69.9137 196.735 69.9137 198.12C69.9137 199.505 69.6409 200.877 69.1108 202.157C68.5808 203.436 67.8038 204.599 66.8244 205.578C65.8449 206.558 64.6821 207.335 63.4024 207.865C62.1227 208.395 60.7511 208.668 59.366 208.668C57.9808 208.668 56.6092 208.395 55.3295 207.865C54.0498 207.335 52.887 206.558 51.9076 205.578L32.0197 185.691C31.0401 184.711 30.2631 183.548 29.733 182.269C29.2028 180.989 28.9299 179.617 28.9299 178.232C28.9299 176.847 29.2028 175.475 29.733 174.196C30.2631 172.916 31.0401 171.753 32.0197 170.774ZM82.8204 379.778C84.2191 379.778 85.5604 380.333 86.5493 381.322C87.5383 382.311 88.0939 383.652 88.0939 385.051C88.0939 386.45 87.5383 387.791 86.5493 388.78C85.5604 389.769 84.2191 390.325 82.8204 390.325H37.1173C35.7187 390.325 34.3774 389.769 33.3885 388.78C32.3995 387.791 31.8439 386.45 31.8439 385.051C31.8439 383.652 32.3995 382.311 33.3885 381.322C34.3774 380.333 35.7187 379.778 37.1173 379.778H82.8204ZM110.945 418.45H37.1173C35.7187 418.45 34.3774 417.894 33.3885 416.905C32.3995 415.916 31.8439 414.575 31.8439 413.176C31.8439 411.777 32.3995 410.436 33.3885 409.447C34.3774 408.458 35.7187 407.903 37.1173 407.903H110.945C112.344 407.903 113.685 408.458 114.674 409.447C115.663 410.436 116.219 411.777 116.219 413.176C116.219 414.575 115.663 415.916 114.674 416.905C113.685 417.894 112.344 418.45 110.945 418.45ZM179.5 347.258C172.544 347.484 165.684 345.587 159.833 341.819C153.982 338.051 149.417 332.591 146.745 326.164H212.255C209.583 332.591 205.018 338.051 199.167 341.819C193.316 345.587 186.456 347.484 179.5 347.258ZM226.961 308.207C226.956 310.872 226.105 313.466 224.532 315.618H134.468C132.895 313.466 132.044 310.872 132.039 308.207V301.924H226.961V308.207ZM270.906 61.6137C270.906 60.2151 271.462 58.8738 272.451 57.8848C273.44 56.8959 274.781 56.3403 276.18 56.3403H321.883C323.281 56.3403 324.623 56.8959 325.612 57.8848C326.601 58.8738 327.156 60.2151 327.156 61.6137C327.156 63.0123 326.601 64.3536 325.612 65.3426C324.623 66.3315 323.281 66.8871 321.883 66.8871H276.18C274.781 66.8871 273.44 66.3315 272.451 65.3426C271.462 64.3536 270.906 63.0123 270.906 61.6137ZM326.98 286.438C326.001 287.417 324.838 288.194 323.559 288.725C322.279 289.255 320.907 289.528 319.522 289.528C318.137 289.528 316.765 289.255 315.486 288.725C314.206 288.194 313.043 287.417 312.064 286.438L292.176 266.55C290.198 264.572 289.086 261.889 289.086 259.092C289.086 256.294 290.198 253.611 292.176 251.633C294.154 249.655 296.837 248.544 299.634 248.544C302.432 248.544 305.115 249.655 307.093 251.633L326.98 271.521C327.96 272.5 328.737 273.663 329.267 274.943C329.797 276.223 330.07 277.594 330.07 278.979C330.07 280.365 329.797 281.736 329.267 283.016C328.737 284.296 327.96 285.458 326.98 286.438ZM326.98 185.691L307.093 205.578C305.115 207.557 302.432 208.668 299.634 208.668C296.837 208.668 294.154 207.557 292.176 205.578C290.198 203.6 289.086 200.918 289.086 198.12C289.086 195.323 290.198 192.64 292.176 190.662L312.064 170.774C314.042 168.796 316.725 167.684 319.522 167.684C322.32 167.684 325.002 168.796 326.98 170.774C328.959 172.752 330.07 175.435 330.07 178.232C330.07 181.03 328.959 183.713 326.98 185.691ZM248.055 28.2153H321.883C323.281 28.2153 324.623 28.7709 325.612 29.7598C326.601 30.7488 327.156 32.0901 327.156 33.4887C327.156 34.8873 326.601 36.2286 325.612 37.2176C324.623 38.2065 323.281 38.7621 321.883 38.7621H248.055C246.656 38.7621 245.315 38.2065 244.326 37.2176C243.337 36.2286 242.781 34.8873 242.781 33.4887C242.781 32.0901 243.337 30.7488 244.326 29.7598C245.315 28.7709 246.656 28.2153 248.055 28.2153ZM179.5 131.047C197.236 131.086 214.532 136.565 229.056 146.744C243.58 156.922 254.632 171.312 260.72 187.969C266.808 204.627 267.64 222.752 263.104 239.897C258.567 257.043 248.88 272.384 235.349 283.85C233.012 285.847 231.084 288.278 229.672 291.008H129.329C127.917 288.278 125.988 285.847 123.651 283.85C110.121 272.384 100.433 257.043 95.8966 239.897C91.3598 222.752 92.1917 204.627 98.2801 187.969C104.368 171.312 115.42 156.922 129.944 146.744C144.468 136.565 161.765 131.086 179.5 131.047ZM91.6095 18.1254V75.6762C91.603 79.87 89.9341 83.8902 86.9687 86.8556C84.0032 89.8211 79.983 91.49 75.7892 91.4965H18.2384L91.6095 18.1254Z" fill="white"/>
<path fill-rule="evenodd" clip-rule="evenodd" d="M178.347 151.738V144.231C169.131 144.381 160.338 146.295 152.302 149.676L155.32 156.553C162.43 153.577 170.203 151.885 178.347 151.738ZM150.197 150.62L153.212 157.493C146.792 160.464 140.958 164.485 135.924 169.337L130.619 164.031C136.307 158.524 142.917 153.97 150.197 150.62ZM109.188 215.697H116.694C116.837 223.607 118.446 231.161 121.266 238.105L114.359 241.048C111.154 233.2 109.333 224.65 109.188 215.697ZM121.266 190.983L114.359 188.04C111.154 195.888 109.333 204.437 109.188 213.391H116.694C116.837 205.48 118.446 197.926 121.266 190.983ZM115.269 243.166L122.174 240.223C125.17 246.884 129.288 252.929 134.293 258.119L128.988 263.425C123.31 257.56 118.645 250.714 115.269 243.166ZM135.924 259.75L130.619 265.055C136.307 270.563 142.918 275.116 150.197 278.466L153.212 271.594C146.792 268.623 140.958 264.603 135.924 259.75ZM228.381 164.031L223.075 169.337C218.043 164.485 212.208 160.464 205.787 157.493L208.803 150.62C216.081 153.97 222.692 158.524 228.381 164.031ZM243.73 185.92L236.825 188.863C233.83 182.204 229.712 176.159 224.706 170.968L230.012 165.662C235.69 171.527 240.354 178.373 243.73 185.92ZM242.305 213.391H249.812C249.667 204.438 247.846 195.888 244.641 188.04L237.734 190.983C240.554 197.926 242.162 205.48 242.305 213.391ZM180.654 144.231C189.868 144.381 198.662 146.295 206.699 149.676L203.681 156.553C196.569 153.577 188.797 151.885 180.654 151.738V144.231ZM152.302 279.411C160.338 282.793 169.131 284.707 178.347 284.856V277.349C170.204 277.201 162.432 275.509 155.32 272.533L152.302 279.411ZM128.988 165.662L134.293 170.968C129.288 176.159 125.17 182.204 122.174 188.863L115.269 185.92C118.645 178.373 123.31 171.528 128.988 165.662ZM180.654 277.349V284.856C189.87 284.706 198.663 282.792 206.699 279.411L203.681 272.533C196.569 275.509 188.797 277.201 180.654 277.349ZM244.641 241.047L237.734 238.104C240.554 231.161 242.162 223.606 242.305 215.696H249.812C249.667 224.649 247.845 233.198 244.641 241.047ZM224.706 258.119L230.012 263.425C235.69 257.559 240.354 250.714 243.73 243.166L236.825 240.223C233.83 246.884 229.712 252.929 224.706 258.119ZM208.803 278.466L205.787 271.594C212.208 268.623 218.043 264.603 223.075 259.75L228.381 265.055C222.692 270.563 216.083 275.116 208.803 278.466ZM179.513 165.242C152.321 165.242 130.198 187.364 130.198 214.556C130.198 241.749 152.321 263.871 179.513 263.871C206.704 263.871 228.827 241.749 228.827 214.556C228.827 187.364 206.704 165.242 179.513 165.242ZM179.513 260.238C154.322 260.238 133.83 239.746 133.83 214.555C133.83 189.365 154.322 168.873 179.513 168.873C204.703 168.873 225.196 189.366 225.196 214.556C225.196 239.747 204.702 260.238 179.513 260.238ZM179.513 154.028C212.888 154.028 240.041 181.181 240.041 214.556C240.041 247.932 212.888 275.085 179.513 275.085C146.137 275.085 118.984 247.932 118.984 214.556C118.984 181.181 146.137 154.028 179.513 154.028ZM127.892 214.555C127.892 243.018 151.049 266.176 179.513 266.176C207.976 266.176 231.133 243.019 231.133 214.556C231.133 186.093 207.977 162.936 179.513 162.936C151.049 162.936 127.892 186.092 127.892 214.555ZM223.105 213.925C223.105 237.808 203.744 257.168 179.862 257.168C155.979 257.168 136.619 237.808 136.619 213.925C136.619 190.043 155.979 170.682 179.862 170.682C203.744 170.682 223.105 190.043 223.105 213.925ZM205.991 229.545L202.185 236.137C201.445 237.418 200.064 238.218 198.584 238.218L160.565 238.203L166.352 228.184L180.022 228.199H180.027L194.502 228.214C194.952 228.214 195.362 227.974 195.588 227.589L201.71 216.94L205.991 224.353C206.912 225.953 206.912 227.944 205.991 229.545ZM200.624 213.814L205.986 204.501C206.912 202.895 206.907 200.905 205.981 199.299L201.7 191.906L182.192 225.699L193.782 225.714L200.624 213.814ZM177.901 203.175L158.398 236.953L154.122 229.56C153.192 227.96 153.192 225.969 154.117 224.363L159.464 215.065C159.464 215.065 159.466 215.065 159.467 215.064C159.468 215.063 159.469 215.062 159.469 215.06L166.301 203.175H177.901ZM193.753 200.674L199.535 190.655L161.521 190.645C160.04 190.645 158.66 191.441 157.919 192.726L154.113 199.314C153.188 200.914 153.188 202.905 154.113 204.511L158.384 211.928L164.497 201.304C164.722 200.914 165.132 200.674 165.582 200.674H193.753Z" fill="white"/>
</svg>
