<svg width="359" height="451" viewBox="0 0 359 451" fill="none" xmlns="http://www.w3.org/2000/svg">
<path d="M37.1174 450.706H321.883C331.67 450.695 341.052 446.802 347.973 439.882C354.893 432.961 358.786 423.579 358.797 413.792V37.62C358.786 27.8333 354.893 18.4505 347.973 11.5302C341.052 4.6099 331.67 0.717161 321.883 0.705996H109.996C105.142 0.690571 100.333 1.63986 95.8491 3.49871C91.3649 5.35756 87.2948 8.08892 83.8752 11.5341L11.0314 84.3778C7.58623 87.7975 4.85487 91.8676 2.99602 96.3517C1.13717 100.836 0.187886 105.645 0.20331 110.499V413.792C0.214476 423.579 4.10721 432.961 11.0275 439.882C17.9478 446.802 27.3306 450.695 37.1174 450.706ZM32.0197 272.137L51.9076 252.249C53.8857 250.271 56.5685 249.16 59.366 249.16C62.1634 249.16 64.8463 250.271 66.8244 252.249C68.8025 254.227 69.9137 256.91 69.9137 259.707C69.9137 262.505 68.8025 265.188 66.8244 267.166L46.9365 287.054C44.9584 289.032 42.2755 290.143 39.4781 290.143C36.6807 290.143 33.9978 289.032 32.0197 287.054C30.0416 285.075 28.9303 282.393 28.9303 279.595C28.9303 276.798 30.0416 274.115 32.0197 272.137ZM32.0197 171.39C32.9991 170.41 34.1619 169.633 35.4416 169.103C36.7213 168.573 38.0929 168.3 39.4781 168.3C40.8633 168.3 42.2349 168.573 43.5146 169.103C44.7943 169.633 45.9571 170.41 46.9365 171.39L66.8244 191.277C67.8038 192.257 68.5808 193.42 69.1108 194.699C69.6409 195.979 69.9137 197.351 69.9137 198.736C69.9137 200.121 69.6409 201.493 69.1108 202.772C68.5808 204.052 67.8038 205.215 66.8244 206.194C65.8449 207.174 64.6822 207.951 63.4024 208.481C62.1227 209.011 60.7511 209.284 59.366 209.284C57.9808 209.284 56.6092 209.011 55.3295 208.481C54.0498 207.951 52.887 207.174 51.9076 206.194L32.0197 186.306C31.0401 185.327 30.2631 184.164 29.733 182.884C29.2028 181.605 28.93 180.233 28.93 178.848C28.93 177.463 29.2028 176.091 29.733 174.811C30.2631 173.532 31.0401 172.369 32.0197 171.39ZM82.8205 380.393C84.2191 380.393 85.5604 380.949 86.5494 381.938C87.5383 382.927 88.0939 384.268 88.0939 385.667C88.0939 387.065 87.5383 388.407 86.5494 389.396C85.5604 390.385 84.2191 390.94 82.8205 390.94H37.1174C35.7188 390.94 34.3774 390.385 33.3885 389.396C32.3995 388.407 31.8439 387.065 31.8439 385.667C31.8439 384.268 32.3995 382.927 33.3885 381.938C34.3774 380.949 35.7188 380.393 37.1174 380.393H82.8205ZM110.945 419.065H37.1174C35.7188 419.065 34.3774 418.51 33.3885 417.521C32.3995 416.532 31.8439 415.19 31.8439 413.792C31.8439 412.393 32.3995 411.052 33.3885 410.063C34.3774 409.074 35.7188 408.518 37.1174 408.518H110.945C112.344 408.518 113.685 409.074 114.674 410.063C115.663 411.052 116.219 412.393 116.219 413.792C116.219 415.19 115.663 416.532 114.674 417.521C113.685 418.51 112.344 419.065 110.945 419.065ZM179.5 347.874C172.544 348.1 165.684 346.203 159.833 342.435C153.982 338.667 149.417 333.206 146.745 326.78H212.255C209.583 333.206 205.018 338.667 199.167 342.435C193.316 346.203 186.456 348.1 179.5 347.874ZM226.961 308.822C226.956 311.487 226.105 314.082 224.532 316.233H134.469C132.895 314.082 132.044 311.487 132.039 308.822V302.54H226.961V308.822ZM270.906 62.2294C270.906 60.8308 271.462 59.4895 272.451 58.5005C273.44 57.5116 274.781 56.956 276.18 56.956H321.883C323.281 56.956 324.623 57.5116 325.612 58.5005C326.601 59.4895 327.156 60.8308 327.156 62.2294C327.156 63.628 326.601 64.9693 325.612 65.9583C324.623 66.9473 323.281 67.5029 321.883 67.5029H276.18C274.781 67.5029 273.44 66.9473 272.451 65.9583C271.462 64.9693 270.906 63.628 270.906 62.2294ZM326.98 287.054C326.001 288.033 324.838 288.81 323.559 289.34C322.279 289.87 320.907 290.143 319.522 290.143C318.137 290.143 316.765 289.87 315.486 289.34C314.206 288.81 313.043 288.033 312.064 287.054L292.176 267.166C290.198 265.188 289.086 262.505 289.086 259.707C289.086 256.91 290.198 254.227 292.176 252.249C294.154 250.271 296.837 249.16 299.634 249.16C302.432 249.16 305.115 250.271 307.093 252.249L326.98 272.137C327.96 273.116 328.737 274.279 329.267 275.559C329.797 276.838 330.07 278.21 330.07 279.595C330.07 280.98 329.797 282.352 329.267 283.632C328.737 284.911 327.96 286.074 326.98 287.054ZM326.98 186.306L307.093 206.194C305.115 208.172 302.432 209.284 299.634 209.284C296.837 209.284 294.154 208.172 292.176 206.194C290.198 204.216 289.086 201.533 289.086 198.736C289.086 195.938 290.198 193.256 292.176 191.277L312.064 171.39C314.042 169.411 316.725 168.3 319.522 168.3C322.32 168.3 325.002 169.411 326.98 171.39C328.959 173.368 330.07 176.05 330.07 178.848C330.07 181.645 328.959 184.328 326.98 186.306ZM248.055 28.831H321.883C323.281 28.831 324.623 29.3866 325.612 30.3755C326.601 31.3645 327.156 32.7058 327.156 34.1044C327.156 35.503 326.601 36.8443 325.612 37.8333C324.623 38.8223 323.281 39.3779 321.883 39.3779H248.055C246.656 39.3779 245.315 38.8223 244.326 37.8333C243.337 36.8443 242.781 35.503 242.781 34.1044C242.781 32.7058 243.337 31.3645 244.326 30.3755C245.315 29.3866 246.656 28.831 248.055 28.831ZM179.5 131.663C197.236 131.702 214.532 137.18 229.056 147.359C243.58 157.538 254.632 171.927 260.72 188.585C266.809 205.243 267.64 223.367 263.104 240.513C258.567 257.658 248.88 273 235.349 284.466C233.012 286.462 231.084 288.893 229.672 291.624H129.329C127.917 288.893 125.988 286.462 123.651 284.466C110.121 273 100.433 257.658 95.8966 240.513C91.3598 223.367 92.1917 205.243 98.2801 188.585C104.369 171.927 115.42 157.538 129.944 147.359C144.468 137.18 161.765 131.702 179.5 131.663ZM91.6095 18.7411V76.2919C91.603 80.4857 89.9342 84.5059 86.9687 87.4714C84.0032 90.4368 79.983 92.1057 75.7892 92.1122H18.2385L91.6095 18.7411Z" fill="black"/>
<path fill-rule="evenodd" clip-rule="evenodd" d="M178.347 152.353V144.846C169.131 144.996 160.338 146.911 152.302 150.292L155.32 157.169C162.43 154.193 170.203 152.501 178.347 152.353ZM150.197 151.236L153.212 158.109C146.792 161.079 140.958 165.1 135.924 169.953L130.619 164.647C136.307 159.14 142.917 154.586 150.197 151.236ZM109.188 216.313H116.694C116.837 224.222 118.446 231.777 121.266 238.721L114.359 241.664C111.154 233.815 109.333 225.266 109.188 216.313ZM121.266 191.598L114.359 188.656C111.154 196.504 109.333 205.052 109.188 214.006H116.694C116.837 206.096 118.446 198.542 121.266 191.598ZM115.269 243.782L122.174 240.839C125.17 247.5 129.288 253.544 134.293 258.735L128.988 264.04C123.31 258.176 118.645 251.329 115.269 243.782ZM135.924 260.365L130.619 265.671C136.307 271.178 142.918 275.732 150.197 279.082L153.212 272.209C146.792 269.239 140.958 265.219 135.924 260.365ZM228.381 164.647L223.075 169.953C218.043 165.1 212.208 161.079 205.787 158.109L208.803 151.236C216.081 154.586 222.692 159.14 228.381 164.647ZM243.73 186.536L236.825 189.479C233.83 182.82 229.712 176.775 224.706 171.583L230.012 166.278C235.69 172.143 240.354 178.989 243.73 186.536ZM242.305 214.006H249.812C249.667 205.053 247.846 196.504 244.641 188.656L237.734 191.598C240.554 198.542 242.162 206.096 242.305 214.006ZM180.654 144.846C189.868 144.996 198.662 146.911 206.699 150.292L203.681 157.169C196.569 154.193 188.797 152.501 180.654 152.353V144.846ZM152.302 280.026C160.338 283.408 169.131 285.323 178.347 285.471V277.964C170.204 277.817 162.432 276.125 155.32 273.149L152.302 280.026ZM128.988 166.278L134.293 171.583C129.288 176.775 125.17 182.82 122.174 189.479L115.269 186.536C118.645 178.989 123.31 172.144 128.988 166.278ZM180.654 277.964V285.471C189.87 285.321 198.663 283.407 206.699 280.026L203.681 273.149C196.569 276.125 188.797 277.817 180.654 277.964ZM244.641 241.662L237.734 238.72C240.554 231.776 242.162 224.222 242.305 216.312H249.812C249.667 225.265 247.845 233.814 244.641 241.662ZM224.706 258.735L230.012 264.04C235.69 258.174 240.354 251.329 243.73 243.782L236.825 240.839C233.83 247.5 229.712 253.544 224.706 258.735ZM208.803 279.082L205.787 272.209C212.208 269.239 218.043 265.219 223.075 260.365L228.381 265.671C222.692 271.178 216.083 275.732 208.803 279.082ZM179.513 165.858C152.321 165.858 130.198 187.98 130.198 215.172C130.198 242.364 152.321 264.486 179.513 264.486C206.704 264.486 228.827 242.364 228.827 215.172C228.827 187.98 206.704 165.858 179.513 165.858ZM179.513 260.854C154.322 260.854 133.83 240.361 133.83 215.171C133.83 189.98 154.322 169.489 179.513 169.489C204.703 169.489 225.196 189.982 225.196 215.172C225.196 240.362 204.702 260.854 179.513 260.854ZM179.513 154.643C212.888 154.643 240.041 181.797 240.041 215.172C240.041 248.548 212.888 275.701 179.513 275.701C146.137 275.701 118.984 248.548 118.984 215.172C118.984 181.797 146.137 154.643 179.513 154.643ZM127.892 215.171C127.892 243.634 151.049 266.791 179.513 266.791C207.976 266.791 231.133 243.635 231.133 215.172C231.133 186.709 207.977 163.551 179.513 163.551C151.049 163.551 127.892 186.708 127.892 215.171ZM223.105 214.541C223.105 238.424 203.744 257.784 179.862 257.784C155.979 257.784 136.619 238.424 136.619 214.541C136.619 190.659 155.979 171.298 179.862 171.298C203.744 171.298 223.105 190.659 223.105 214.541ZM205.991 230.16L202.185 236.753C201.445 238.033 200.064 238.834 198.584 238.834L160.565 238.819L166.352 228.8L180.022 228.815H180.027L194.502 228.83C194.952 228.83 195.362 228.59 195.588 228.205L201.71 217.556L205.991 224.969C206.912 226.569 206.912 228.56 205.991 230.16ZM200.624 214.431L205.986 205.117C206.912 203.511 206.907 201.521 205.981 199.915L201.7 192.522L182.192 226.315L193.782 226.33L200.624 214.431ZM177.901 203.791L158.398 237.568L154.122 230.175C153.192 228.575 153.192 226.584 154.117 224.978L159.464 215.68C159.464 215.68 159.466 215.68 159.467 215.679C159.468 215.678 159.469 215.677 159.469 215.675L166.301 203.791H177.901ZM193.753 201.29L199.535 191.272L161.521 191.262C160.04 191.262 158.66 192.057 157.919 193.342L154.113 199.93C153.188 201.53 153.188 203.521 154.113 205.127L158.385 212.545L164.497 201.921C164.722 201.53 165.132 201.29 165.582 201.29H193.753Z" fill="black"/>
</svg>
