<svg width="329" height="451" viewBox="0 0 329 451" fill="none" xmlns="http://www.w3.org/2000/svg">
<path fill-rule="evenodd" clip-rule="evenodd" d="M163.238 228.775V220.234C152.752 220.404 142.746 222.582 133.604 226.429L137.037 234.255C145.128 230.868 153.971 228.943 163.238 228.775ZM131.208 227.504L134.639 235.324C127.333 238.704 120.695 243.279 114.968 248.8L108.931 242.763C115.404 236.497 122.925 231.315 131.208 227.504ZM84.5464 301.55H93.088C93.2507 310.549 95.0811 319.145 98.2891 327.046L90.4311 330.395C86.7835 321.465 84.7117 311.737 84.5464 301.55ZM98.2891 273.429L90.4311 270.081C86.7835 279.011 84.7117 288.737 84.5464 298.926H93.088C93.2507 289.925 95.0811 281.329 98.2891 273.429ZM91.466 332.805L99.3227 329.456C102.732 337.035 107.417 343.913 113.113 349.819L107.076 355.855C100.615 349.182 95.3078 341.392 91.466 332.805ZM114.968 351.674L108.931 357.711C115.404 363.977 122.926 369.159 131.208 372.97L134.639 365.15C127.333 361.77 120.695 357.196 114.968 351.674ZM220.168 242.763L214.131 248.8C208.405 243.279 201.766 238.704 194.46 235.324L197.892 227.504C206.173 231.315 213.695 236.497 220.168 242.763ZM237.633 267.669L229.776 271.018C226.368 263.44 221.682 256.563 215.987 250.656L222.023 244.619C228.484 251.292 233.791 259.082 237.633 267.669ZM236.012 298.926H244.553C244.388 288.739 242.316 279.011 238.669 270.081L230.811 273.429C234.019 281.329 235.849 289.925 236.012 298.926ZM165.863 220.234C176.347 220.404 186.353 222.582 195.497 226.429L192.063 234.255C183.972 230.868 175.128 228.943 165.863 228.775V220.234ZM133.604 374.045C142.746 377.893 152.752 380.071 163.238 380.24V371.699C153.972 371.531 145.129 369.606 137.037 366.219L133.604 374.045ZM107.076 244.619L113.113 250.656C107.417 256.563 102.732 263.44 99.3227 271.018L91.466 267.669C95.3078 259.082 100.615 251.293 107.076 244.619ZM165.863 371.699V380.24C176.349 380.07 186.355 377.892 195.497 374.045L192.063 366.219C183.972 369.606 175.128 371.531 165.863 371.699ZM238.669 330.393L230.811 327.045C234.019 319.145 235.849 310.549 236.012 301.548H244.553C244.388 311.735 242.315 321.463 238.669 330.393ZM215.987 349.819L222.023 355.855C228.484 349.181 233.791 341.392 237.633 332.805L229.776 329.456C226.368 337.035 221.682 343.913 215.987 349.819ZM197.892 372.97L194.46 365.15C201.766 361.77 208.405 357.196 214.131 351.674L220.168 357.711C213.695 363.977 206.175 369.159 197.892 372.97ZM164.564 244.141C133.625 244.141 108.453 269.312 108.453 300.252C108.453 331.192 133.625 356.363 164.564 356.363C195.503 356.363 220.675 331.192 220.675 300.252C220.675 269.312 195.503 244.141 164.564 244.141ZM164.564 352.23C135.902 352.23 112.585 328.913 112.585 300.25C112.585 271.588 135.902 248.272 164.564 248.272C193.227 248.272 216.544 271.589 216.544 300.252C216.544 328.914 193.225 352.23 164.564 352.23ZM164.565 231.381C202.54 231.381 233.436 262.276 233.436 300.252C233.436 338.227 202.54 369.123 164.565 369.123C126.589 369.123 95.6936 338.227 95.6936 300.252C95.6936 262.276 126.589 231.381 164.565 231.381ZM105.829 300.251C105.829 332.637 132.177 358.986 164.565 358.986C196.951 358.986 223.3 332.638 223.3 300.252C223.3 267.866 196.952 241.517 164.565 241.517C132.177 241.517 105.829 267.864 105.829 300.251ZM214.164 299.534C214.164 326.708 192.135 348.737 164.961 348.737C137.787 348.737 115.758 326.708 115.758 299.534C115.758 272.36 137.787 250.331 164.961 250.331C192.135 250.331 214.164 272.36 214.164 299.534ZM194.693 317.306L190.362 324.807C189.519 326.264 187.948 327.175 186.264 327.175L143.005 327.158L149.589 315.758L165.144 315.775H165.149L181.62 315.792C182.132 315.792 182.599 315.519 182.855 315.081L189.821 302.964L194.693 311.399C195.74 313.22 195.74 315.485 194.693 317.306ZM188.586 299.408L194.687 288.811C195.74 286.984 195.734 284.719 194.681 282.892L189.809 274.48L167.613 312.93L180.8 312.947L188.586 299.408ZM162.73 287.302L140.54 325.735L135.674 317.323C134.615 315.502 134.615 313.237 135.668 311.41L141.752 300.83C141.752 300.83 141.758 300.83 141.758 300.825L149.532 287.302H162.73ZM180.767 284.456L187.346 273.057L144.093 273.045C142.408 273.045 140.837 273.95 139.995 275.413L135.664 282.908C134.611 284.73 134.611 286.995 135.664 288.822L140.524 297.262L147.479 285.173C147.735 284.73 148.202 284.456 148.714 284.456H180.767Z" fill="white"/>
<path d="M164.493 207.239C146.128 207.239 128.176 212.685 112.906 222.888C97.6362 233.091 85.7348 247.593 78.7069 264.56C71.6789 281.527 69.8401 300.197 73.4229 318.209C77.0057 336.221 85.8492 352.766 98.8352 365.752C111.821 378.738 128.366 387.582 146.378 391.164C164.39 394.747 183.06 392.908 200.027 385.88C216.994 378.852 231.496 366.951 241.699 351.681C251.902 336.411 257.348 318.459 257.348 300.094C257.32 275.476 247.528 251.875 230.12 234.467C212.713 217.06 189.111 207.268 164.493 207.239ZM164.493 378.663C148.954 378.663 133.763 374.055 120.843 365.422C107.922 356.789 97.8515 344.518 91.9048 330.161C85.958 315.804 84.4021 300.007 87.4337 284.766C90.4653 269.525 97.9483 255.525 108.936 244.537C119.925 233.549 133.924 226.066 149.165 223.034C164.406 220.003 180.204 221.559 194.561 227.505C208.917 233.452 221.188 243.522 229.821 256.443C238.455 269.364 243.063 284.554 243.063 300.094C243.038 320.924 234.752 340.894 220.023 355.624C205.294 370.353 185.324 378.639 164.493 378.663Z" fill="white"/>
<path d="M262.093 123.328C261.274 122.602 260.299 122.074 259.243 121.785C258.187 121.495 257.079 121.453 256.005 121.66C254.93 121.867 253.917 122.318 253.044 122.979C252.172 123.64 251.463 124.492 250.972 125.47C244.893 136.746 234.688 145.233 222.494 149.155C224.736 118.426 216.938 87.7986 200.272 61.8835C183.605 35.9684 158.973 16.1671 130.082 5.45929L117.004 0.55228C115.711 0.0631987 114.305 -0.040364 112.954 0.254149C111.604 0.548661 110.368 1.2286 109.397 2.21152C108.425 3.19444 107.759 4.43812 107.481 5.79177C107.202 7.14541 107.322 8.55087 107.826 9.83774L108.669 12.0234C118.825 38.2928 122.332 66.6651 118.878 94.617C115.424 122.569 105.115 149.234 88.8691 172.24C82.3113 173.374 75.5649 172.544 69.4768 169.857C63.3886 167.169 58.2301 162.743 54.6486 157.134L53.7558 155.705C53.1438 154.746 52.3115 153.947 51.3283 153.375C50.3451 152.803 49.2394 152.473 48.1033 152.415C46.9672 152.356 45.8334 152.569 44.7965 153.037C43.7596 153.505 42.8494 154.214 42.1418 155.105C14.8496 193.221 0.186884 238.93 0.214394 285.809C0.214394 329.379 17.5225 371.164 48.3312 401.973C79.14 432.782 120.926 450.09 164.496 450.09C208.066 450.09 249.851 432.782 280.66 401.973C311.469 371.164 328.777 329.379 328.777 285.809C329.044 255.65 323.282 225.741 311.831 197.839C300.38 169.937 283.469 144.604 262.093 123.328ZM164.496 407.234C143.305 407.234 122.591 400.95 104.972 389.178C87.3528 377.405 73.6204 360.672 65.5112 341.095C57.4021 321.518 55.2803 299.975 59.4144 279.192C63.5484 258.409 73.7525 239.319 88.7363 224.335C103.72 209.351 122.811 199.147 143.594 195.013C164.377 190.879 185.919 193.001 205.496 201.11C225.074 209.219 241.807 222.951 253.579 240.57C265.352 258.189 271.636 278.904 271.636 300.094C271.603 328.5 260.305 355.732 240.219 375.818C220.134 395.904 192.901 407.202 164.496 407.234Z" fill="white"/>
<path d="M21.6441 135.813C34.8999 135.798 47.6085 130.525 56.9817 121.152C66.355 111.779 71.6276 99.0702 71.6427 85.8144V48.8797C71.6273 43.4098 72.697 37.9911 74.7899 32.9374C76.8827 27.8836 79.9572 23.2952 83.8353 19.4376C84.8339 18.4387 85.5139 17.1662 85.7894 15.7808C86.0648 14.3955 85.9234 12.9596 85.3829 11.6546C84.8424 10.3496 83.9272 9.23423 82.7528 8.44936C81.5785 7.66449 80.1978 7.24542 78.7854 7.24512C65.5296 7.26024 52.821 12.5328 43.4477 21.9061C34.0744 31.2794 28.8019 43.9879 28.7867 57.2438V94.1785C28.8021 99.6484 27.7324 105.067 25.6396 110.121C23.5467 115.175 20.4723 119.763 16.5942 123.621C15.5956 124.619 14.9156 125.892 14.6401 127.277C14.3646 128.663 14.5061 130.099 15.0465 131.404C15.587 132.709 16.5023 133.824 17.6766 134.609C18.8509 135.394 20.2316 135.813 21.6441 135.813Z" fill="white"/>
<path d="M264.495 63.1658V71.5299C264.51 84.7857 269.783 97.4943 279.156 106.868C288.529 116.241 301.238 121.513 314.494 121.529C315.906 121.528 317.287 121.109 318.461 120.324C319.636 119.539 320.551 118.424 321.091 117.119C321.632 115.814 321.773 114.378 321.498 112.993C321.222 111.607 320.542 110.335 319.544 109.336C315.666 105.478 312.591 100.89 310.498 95.8363C308.406 90.7825 307.336 85.3639 307.351 79.8939V71.5299C307.336 58.2741 302.064 45.5655 292.69 36.1922C283.317 26.8189 270.608 21.5464 257.353 21.5312C255.94 21.5316 254.559 21.9506 253.385 22.7355C252.211 23.5204 251.296 24.6358 250.755 25.9407C250.215 27.2457 250.073 28.6816 250.349 30.067C250.624 31.4523 251.304 32.7249 252.303 33.7238C256.181 37.5813 259.255 42.1698 261.348 47.2235C263.441 52.2773 264.511 57.6959 264.495 63.1658Z" fill="white"/>
</svg>
