<svg width="451" height="462" viewBox="0 0 451 462" fill="none" xmlns="http://www.w3.org/2000/svg">
<path d="M168.311 232.693V283.49C168.311 287.216 173.145 289.102 175.767 286.61C186.776 276.152 203.988 274.296 216.973 282.162C228.534 260.405 245.894 242.548 267.108 230.43C259.347 225.534 258.006 214.474 264.328 207.843C268.568 203.397 270.903 197.566 270.903 191.426C270.903 177.391 258.234 166.226 244.32 167.76C233.08 169 224.029 178.46 223.265 189.765C222.808 196.53 225.12 202.947 229.774 207.833C238.436 216.93 231.829 232.692 219.168 232.692H168.311V232.693Z" fill="black"/>
<path d="M168.312 389.982H210.812C205.197 375.753 202.207 360.789 201.904 345.362C201.043 345.427 200.178 345.46 199.311 345.46C190.499 345.46 182.134 342.118 175.754 336.051C174.908 335.247 173.824 334.804 172.699 334.804C170.279 334.804 168.311 336.769 168.311 339.184V389.982H168.312Z" fill="black"/>
<path d="M390.822 141.076C389.58 129.847 380.106 120.807 368.783 120.047C362.008 119.589 355.591 121.902 350.699 126.547C341.591 135.199 325.805 128.603 325.805 115.961V65.163H274.946C262.294 65.163 255.674 49.4052 264.34 40.3039C268.995 35.4174 271.307 29.0006 270.85 22.2356C270.087 10.9303 261.035 1.47085 249.795 0.231698C235.884 -1.30442 223.212 9.85882 223.212 23.897C223.212 30.0375 225.547 35.8682 229.787 40.3148C238.457 49.4052 231.81 65.163 219.171 65.163H168.312V222.386H219.171C222.906 222.386 224.793 217.555 222.297 214.936C215.726 208.037 212.326 198.61 212.968 189.072C214.161 171.405 229.23 157.308 246.98 157.308C265.601 157.308 281.226 172.81 281.226 191.426C281.226 200.225 277.88 208.579 271.804 214.951C269.307 217.569 271.238 222.386 274.944 222.386H283.869C297.287 217.085 311.364 214.103 325.803 213.5V171.654C325.803 159.042 341.579 152.396 350.686 161.057C355.139 165.292 360.976 167.624 367.124 167.624C381.183 167.624 392.357 154.967 390.822 141.076ZM198.58 185.466C198.58 188.312 196.269 190.618 193.419 190.618C190.569 190.618 188.258 188.311 188.258 185.466V128.696C188.258 125.85 190.569 123.543 193.419 123.543C196.269 123.543 198.58 125.851 198.58 128.696V185.466ZM198.58 104.398C198.58 107.244 196.269 109.551 193.419 109.551C190.569 109.551 188.258 107.243 188.258 104.398V90.7274C188.258 87.8811 190.569 85.5745 193.419 85.5745C196.269 85.5745 198.58 87.8821 198.58 90.7274V104.398Z" fill="black"/>
<path d="M182.887 294.076C173.781 302.731 157.993 296.128 157.993 283.49V232.693H107.134C94.4819 232.693 87.8619 216.936 96.5281 207.834C101.183 202.948 103.494 196.531 103.037 189.766C102.274 178.461 93.2221 169.001 81.9818 167.761C68.0707 166.225 55.3989 177.388 55.3989 191.427C55.3989 197.567 57.7342 203.398 61.9736 207.844C70.6418 216.936 63.9991 232.693 51.3578 232.693H0.499756V389.981H157.993V339.184C157.993 326.571 173.77 319.926 182.877 328.588C187.923 333.388 195.195 335.802 202.115 334.99C203.007 319.918 206.483 305.328 212.475 291.512C203.306 285.418 190.862 286.502 182.887 294.076ZM31.3309 359.241C31.3309 362.087 29.0203 364.394 26.17 364.394C23.3197 364.394 21.0091 362.086 21.0091 359.241V302.473C21.0091 299.627 23.3197 297.32 26.17 297.32C29.0203 297.32 31.3309 299.628 31.3309 302.473V359.241ZM31.3309 278.173C31.3309 281.02 29.0203 283.326 26.17 283.326C23.3197 283.326 21.0091 281.019 21.0091 278.173V264.503C21.0091 261.657 23.3197 259.35 26.17 259.35C29.0203 259.35 31.3309 261.658 31.3309 264.503V278.173ZM81.0563 366.212C77.3507 366.212 74.3475 363.213 74.3475 359.513C74.3475 355.814 77.3517 352.815 81.0563 352.815C84.762 352.815 87.7652 355.814 87.7652 359.513C87.7652 363.213 84.762 366.212 81.0563 366.212ZM97.1783 305.962C90.3412 312.219 86.384 317.027 86.384 323.085V333.491C86.384 336.338 84.0733 338.644 81.2231 338.644C78.3728 338.644 76.0622 336.337 76.0622 333.491V323.085C76.0622 312.218 83.362 304.627 90.2041 298.365C97.4743 291.71 100.312 283.112 97.6095 275.927C95.2643 269.691 89.0616 265.855 81.0169 265.666C72.688 265.483 63.5107 270.421 63.5107 279.704C63.5107 282.551 61.2001 284.857 58.3498 284.857C55.4995 284.857 53.1889 282.55 53.1889 279.704C53.1889 264.666 67.1286 255.016 81.2586 255.362C93.667 255.652 103.393 261.985 107.272 272.303C111.486 283.508 107.618 296.405 97.1783 305.962Z" fill="black"/>
<path d="M79.3239 157.309C97.0619 157.309 112.142 171.392 113.336 189.072C113.979 198.608 110.58 208.036 104.008 214.936C101.511 217.557 103.4 222.386 107.134 222.386H157.993V65.1632H107.134C94.4819 65.1632 87.8619 49.4054 96.5281 40.3042C101.183 35.4176 103.494 29.0008 103.037 22.2358C102.274 10.9315 93.222 1.47207 81.9818 0.232919C68.0707 -1.3032 55.3989 9.86004 55.3989 23.8982C55.3989 30.0387 57.7342 35.8685 61.9736 40.315C70.5866 49.3502 63.8807 65.1642 51.3578 65.1642H0.499756V222.387H51.3588C55.0654 222.387 56.9962 217.57 54.4991 214.952C48.4237 208.581 45.0771 200.226 45.0771 191.428C45.0781 172.808 60.7028 157.309 79.3239 157.309Z" fill="black"/>
<path d="M317.481 260.218V237.123C290.168 238.863 264.729 250.324 245.203 269.851C225.486 289.568 213.992 315.312 212.426 342.927H234.892C238.228 298.888 273.459 263.617 317.481 260.218Z" fill="black"/>
<path d="M371.81 273.474L388.6 256.684C371.768 245.054 352.135 238.28 331.443 237.083V260.218C346.173 261.355 359.915 266.065 371.81 273.474Z" fill="black"/>
<path d="M234.916 356.888H212.485C214.253 384.152 225.709 409.541 245.205 429.037C264.732 448.564 290.17 460.024 317.483 461.765V439.334C273.549 435.941 238.373 400.804 234.916 356.888Z" fill="black"/>
<path d="M268.516 356.888H248.933C252.316 393.1 281.254 421.998 317.484 425.319V405.739C292.001 402.579 271.735 382.353 268.516 356.888Z" fill="black"/>
<path d="M347.137 298.146L361.627 283.657C352.553 278.536 342.328 275.231 331.443 274.233V293.814C336.96 294.497 342.23 295.983 347.137 298.146Z" fill="black"/>
<path d="M331.443 405.739V425.319C367.672 421.998 396.61 393.1 399.994 356.888H380.41C377.192 382.354 356.926 402.579 331.443 405.739Z" fill="black"/>
<path d="M317.484 293.814V274.233C281.166 277.562 252.176 306.593 248.909 342.927H268.486C271.597 317.339 291.913 296.984 317.484 293.814Z" fill="black"/>
<path d="M366.896 349.776C366.896 326.379 347.86 307.343 324.462 307.343C301.064 307.343 282.028 326.379 282.028 349.776C282.028 373.174 301.064 392.21 324.462 392.21C347.86 392.21 366.896 373.174 366.896 349.776ZM331.442 356.856L314.125 371.798L305.005 361.228L317.481 350.462V324.292H331.442V356.856Z" fill="black"/>
<path d="M400.763 302.432C408.193 314.362 412.908 328.15 414.028 342.927H437.163C435.987 322.189 429.208 302.509 417.553 285.641L400.763 302.432Z" fill="black"/>
<path d="M400.016 342.927C399.033 331.995 395.722 321.724 390.582 312.615L376.093 327.104C378.273 332.05 379.763 337.364 380.44 342.927L400.016 342.927Z" fill="black"/>
<path d="M331.443 439.334V461.806C359.009 460.211 384.704 448.723 404.39 429.037C423.886 409.541 435.342 384.152 437.11 356.888H414.009C410.553 400.805 375.377 435.942 331.443 439.334Z" fill="black"/>
<path d="M359.077 305.288C362.759 308.16 366.077 311.478 368.949 315.16L420.458 263.651H450.501V249.69H434.419L449.908 234.202L440.036 224.33L424.635 239.731V223.737H410.674V253.692L359.077 305.288Z" fill="black"/>
</svg>
