<svg width="451" height="451" viewBox="0 0 451 451" fill="none" xmlns="http://www.w3.org/2000/svg">
<path fill-rule="evenodd" clip-rule="evenodd" d="M221.812 24.1124V0.0900879C192.321 0.569797 164.18 6.69532 138.468 17.5146L148.125 39.5222C170.878 29.9981 195.749 24.5848 221.812 24.1124ZM131.73 20.5366L141.379 42.5294C120.833 52.035 102.165 64.9023 86.0578 80.4301L69.0798 63.4521C87.2829 45.8283 108.434 31.2562 131.73 20.5366ZM0.5 228.783H24.5223C24.9799 254.093 30.1275 278.266 39.1497 300.488L17.0499 309.905C6.79155 284.79 0.964947 257.432 0.5 228.783ZM39.1497 149.697L17.0499 140.28C6.79155 165.394 0.964947 192.749 0.5 221.402H24.5223C24.9799 196.088 30.1275 171.915 39.1497 149.697ZM19.9606 316.684L42.0567 307.267C51.6435 328.581 64.8207 347.924 80.8392 364.533L63.8612 381.511C45.6914 362.743 30.7651 340.835 19.9606 316.684ZM86.0578 369.75L69.0798 386.728C87.2829 404.352 108.438 418.924 131.73 429.644L141.379 407.651C120.833 398.146 102.165 385.282 86.0578 369.75ZM381.919 63.4521L364.941 80.4301C348.838 64.9023 330.166 52.035 309.62 42.5294L319.269 20.5366C342.561 31.2562 363.716 45.8283 381.919 63.4521ZM431.038 133.497L408.942 142.914C399.355 121.604 386.178 102.261 370.159 85.6482L387.137 68.6701C405.307 87.4378 420.233 109.346 431.038 133.497ZM426.478 221.402H450.5C450.035 192.752 444.208 165.394 433.95 140.28L411.85 149.697C420.873 171.915 426.02 196.088 426.478 221.402ZM229.192 0.0900879C258.679 0.569797 286.819 6.69532 312.535 17.5146L302.879 39.5222C280.122 29.9981 255.251 24.5848 229.192 24.1124V0.0900879ZM138.468 432.666C164.18 443.489 192.321 449.614 221.812 450.09V426.068C195.752 425.595 170.881 420.182 148.125 410.658L138.468 432.666ZM63.8612 68.6701L80.8392 85.6482C64.8207 102.261 51.6435 121.604 42.0567 142.914L19.9606 133.497C30.7651 109.346 45.6914 87.4415 63.8612 68.6701ZM229.192 426.068V450.09C258.683 449.61 286.823 443.485 312.535 432.666L302.879 410.658C280.122 420.182 255.251 425.595 229.192 426.068ZM433.95 309.901L411.85 300.484C420.873 278.266 426.02 254.093 426.478 228.779H450.5C450.035 257.428 444.205 284.787 433.95 309.901ZM370.159 364.533L387.137 381.511C405.307 362.74 420.233 340.835 431.038 316.684L408.942 307.267C399.355 328.581 386.178 347.924 370.159 364.533ZM319.269 429.644L309.62 407.651C330.166 398.146 348.838 385.282 364.941 369.75L381.919 386.728C363.716 404.352 342.565 418.924 319.269 429.644ZM225.54 67.3261C138.529 67.3261 67.735 138.116 67.735 225.132C67.735 312.148 138.529 382.938 225.54 382.938C312.552 382.938 383.346 312.148 383.346 225.132C383.346 138.116 312.552 67.3261 225.54 67.3261ZM225.54 371.314C144.931 371.314 79.355 305.738 79.355 225.128C79.355 144.519 144.931 78.9461 225.54 78.9461C306.15 78.9461 371.726 144.522 371.726 225.132C371.726 305.742 306.146 371.314 225.54 371.314ZM225.541 31.4403C332.343 31.4403 419.232 118.33 419.232 225.132C419.232 331.934 332.343 418.824 225.541 418.824C118.74 418.824 31.8501 331.934 31.8501 225.132C31.8501 118.33 118.74 31.4403 225.541 31.4403ZM60.3558 225.128C60.3558 316.21 134.456 390.314 225.541 390.314C316.623 390.314 390.727 316.214 390.727 225.132C390.727 134.05 316.627 59.9461 225.541 59.9461C134.456 59.9461 60.3558 134.046 60.3558 225.128ZM365.035 223.113C365.035 299.537 303.081 361.491 226.657 361.491C150.234 361.491 88.2802 299.537 88.2802 223.113C88.2802 146.689 150.234 84.7356 226.657 84.7356C303.081 84.7356 365.035 146.689 365.035 223.113ZM310.273 273.096L298.092 294.191C295.723 298.289 291.306 300.85 286.568 300.85L164.907 300.802L183.426 268.742L227.17 268.79H227.186L273.507 268.838C274.948 268.838 276.26 268.07 276.98 266.837L296.572 232.761L310.273 256.481C313.218 261.603 313.218 267.974 310.273 273.096ZM293.098 222.758L310.256 192.955C313.217 187.817 313.201 181.446 310.24 176.308L296.539 152.652L234.116 260.788L271.202 260.836L293.098 222.758ZM220.382 188.713L157.975 296.802L144.29 273.145C141.313 268.023 141.313 261.652 144.274 256.514L161.384 226.759C161.384 226.759 161.389 226.759 161.393 226.757C161.397 226.755 161.4 226.751 161.4 226.743L183.265 188.713H220.382ZM271.108 180.71L289.611 148.65L167.966 148.618C163.228 148.618 158.811 151.162 156.442 155.276L144.261 176.356C141.3 181.478 141.3 187.848 144.261 192.986L157.93 216.723L177.49 182.726C178.21 181.478 179.522 180.71 180.963 180.71H271.108Z" fill="white"/>
</svg>
