<svg width="519" height="451" viewBox="0 0 519 451" fill="none" xmlns="http://www.w3.org/2000/svg">
<path d="M203.754 209.648H209.546C208.302 185.721 198.851 162.957 182.79 145.178L178.73 149.238C176.578 151.39 173.092 151.39 170.94 149.238C168.788 147.086 168.788 143.596 170.94 141.444L175 137.388C157.221 121.323 134.456 111.876 110.53 110.631V116.424C110.53 119.465 108.062 121.933 105.02 121.933C101.975 121.933 99.5113 119.465 99.5113 116.424V110.631C75.5848 111.876 52.8167 121.326 35.0413 137.388L39.1014 141.448C41.2498 143.6 41.2498 147.086 39.1014 149.238C36.9494 151.39 33.4596 151.39 31.3076 149.238L27.2475 145.178C11.19 162.957 1.7392 185.721 0.494629 209.648H6.28707C9.32855 209.648 11.7962 212.115 11.7962 215.157C11.7962 218.198 9.32855 220.666 6.28707 220.666H0.494629C1.7392 244.593 11.19 267.357 27.2475 285.136L31.3076 281.076C33.4596 278.928 36.9494 278.928 39.1014 281.08C41.2498 283.228 41.2498 286.718 39.1014 288.87L35.0413 292.926C52.8167 308.987 75.5848 318.438 99.5113 319.683V313.89C99.5113 310.849 101.975 308.381 105.02 308.381C108.062 308.381 110.53 310.849 110.53 313.89V319.683C134.456 318.438 157.221 308.987 175 292.926L170.94 288.87C168.788 286.718 168.788 283.228 170.94 281.076C173.092 278.924 176.578 278.924 178.73 281.076L182.79 285.136C198.851 267.357 208.302 244.593 209.546 220.666H203.754C200.712 220.666 198.245 218.198 198.245 215.157C198.245 212.115 200.712 209.648 203.754 209.648ZM105.02 299.368C58.5123 299.368 20.8094 261.665 20.8094 215.157C20.8094 168.649 58.5123 130.946 105.02 130.946C151.529 130.946 189.231 168.649 189.231 215.157C189.178 261.644 151.507 299.314 105.02 299.368Z" fill="white"/>
<path fill-rule="evenodd" clip-rule="evenodd" d="M103.976 146.552V138.311C93.8602 138.476 84.2072 140.577 75.3871 144.288L78.6997 151.838C86.5046 148.57 95.0361 146.714 103.976 146.552ZM73.0757 145.325L76.3858 152.869C69.3378 156.13 62.9341 160.544 57.4089 165.87L51.585 160.046C57.8291 154.001 65.0847 149.002 73.0757 145.325ZM28.0601 216.759H36.3004C36.4574 225.442 38.2232 233.734 41.318 241.357L33.7372 244.587C30.2182 235.972 28.2195 226.587 28.0601 216.759ZM41.318 189.631L33.7372 186.4C30.2182 195.015 28.2195 204.399 28.0601 214.228H36.3004C36.4574 205.544 38.2232 197.252 41.318 189.631ZM34.7356 246.912L42.3152 243.682C45.6038 250.993 50.1239 257.628 55.6188 263.326L49.7948 269.15C43.562 262.712 38.4419 255.197 34.7356 246.912ZM57.4089 265.116L51.585 270.94C57.8291 276.985 65.086 281.984 73.0757 285.661L76.3858 278.117C69.3378 274.856 62.9341 270.443 57.4089 265.116ZM158.898 160.046L153.074 165.87C147.55 160.544 141.145 156.13 134.097 152.869L137.407 145.325C145.397 149.002 152.654 154.001 158.898 160.046ZM175.747 184.074L168.168 187.304C164.879 179.994 160.359 173.359 154.864 167.66L160.688 161.836C166.921 168.274 172.041 175.789 175.747 184.074ZM174.183 214.228H182.423C182.264 204.4 180.265 195.015 176.746 186.4L169.165 189.631C172.26 197.252 174.026 205.544 174.183 214.228ZM106.508 138.311C116.623 138.476 126.276 140.577 135.097 144.288L131.785 151.838C123.979 148.57 115.447 146.714 106.508 146.552V138.311ZM75.3871 286.697C84.2072 290.41 93.8602 292.511 103.976 292.674V284.434C95.0374 284.272 86.5059 282.415 78.6997 279.148L75.3871 286.697ZM49.7948 161.836L55.6188 167.66C50.1239 173.359 45.6038 179.994 42.3152 187.304L34.7356 184.074C38.4419 175.789 43.562 168.275 49.7948 161.836ZM106.508 284.434V292.674C116.624 292.51 126.277 290.409 135.097 286.697L131.785 279.148C123.979 282.415 115.447 284.272 106.508 284.434ZM176.746 244.586L169.165 241.355C172.26 233.734 174.026 225.442 174.183 216.758H182.423C182.264 226.586 180.264 235.97 176.746 244.586ZM154.864 263.326L160.688 269.15C166.921 262.711 172.041 255.197 175.747 246.912L168.168 243.682C164.879 250.993 160.359 257.628 154.864 263.326ZM137.407 285.661L134.097 278.117C141.145 274.856 147.55 270.443 153.074 265.116L158.898 270.94C152.654 276.985 145.398 281.984 137.407 285.661ZM105.256 161.375C75.408 161.375 51.1237 185.658 51.1237 215.507C51.1237 245.356 75.408 269.639 105.256 269.639C135.103 269.639 159.387 245.356 159.387 215.507C159.387 185.658 135.103 161.375 105.256 161.375ZM105.256 265.652C77.6042 265.652 55.1097 243.157 55.1097 215.506C55.1097 187.854 77.6042 165.361 105.256 165.361C132.907 165.361 155.401 187.856 155.401 215.507C155.401 243.159 132.906 265.652 105.256 265.652ZM105.256 149.065C141.892 149.065 171.698 178.871 171.698 215.507C171.698 252.143 141.892 281.949 105.256 281.949C68.6198 281.949 38.8141 252.143 38.8141 215.507C38.8141 178.871 68.6198 149.065 105.256 149.065ZM48.5924 215.506C48.5924 246.75 74.0109 272.17 105.256 272.17C136.5 272.17 161.919 246.751 161.919 215.507C161.919 184.263 136.501 158.844 105.256 158.844C74.0109 158.844 48.5924 184.262 48.5924 215.506ZM153.106 214.815C153.106 241.03 131.854 262.282 105.639 262.282C79.4232 262.282 58.1713 241.03 58.1713 214.815C58.1713 188.599 79.4232 167.347 105.639 167.347C131.854 167.347 153.106 188.599 153.106 214.815ZM134.322 231.96L130.143 239.197C129.331 240.603 127.815 241.481 126.19 241.481L84.4568 241.465L90.8093 230.467L105.815 230.484H105.82L121.71 230.5C122.204 230.5 122.654 230.236 122.901 229.814L129.622 218.124L134.322 226.261C135.332 228.018 135.332 230.203 134.322 231.96ZM128.43 214.693L134.316 204.469C135.332 202.707 135.326 200.522 134.31 198.759L129.61 190.644L108.197 227.738L120.919 227.755L128.43 214.693ZM103.487 203.014L82.0791 240.092L77.3847 231.977C76.3635 230.22 76.3635 228.035 77.3792 226.272L83.2486 216.065C83.2486 216.065 83.2541 216.065 83.2541 216.06L90.7541 203.014H103.487ZM120.886 200.269L127.233 189.272L85.5055 189.261C83.8804 189.261 82.365 190.134 81.5524 191.545L77.3741 198.776C76.3584 200.533 76.3584 202.718 77.3741 204.48L82.063 212.623L88.7724 200.961C89.0195 200.533 89.4697 200.269 89.9638 200.269H120.886Z" fill="white"/>
<path d="M292.938 33.897C306.233 33.0383 318.148 42.0511 320.943 55.0753H378.662V67.2885H320.724C318.247 77.0249 310.558 84.5746 300.778 86.8765V182.523C314.025 185.071 324.35 195.491 326.779 208.758H378.662V220.971H326.676C324.048 233.987 313.818 244.125 300.778 246.634V362.635C310.761 364.985 318.546 372.801 320.859 382.796H378.662V395.009H320.808C317.746 407.898 305.748 416.637 292.541 415.591C279.334 414.541 268.862 404.026 267.872 390.815C266.882 377.604 275.668 365.641 288.569 362.635V246.642C275.426 244.117 265.145 233.836 262.616 220.689H219.627V208.476H262.612C265.141 195.332 275.418 185.051 288.565 182.523V86.8765C275.593 83.8511 266.795 71.773 267.892 58.4984C268.989 45.2237 279.648 34.7558 292.938 33.897Z" fill="white"/>
<path d="M434.412 339.217L431.787 333.234C425.449 336.15 419.695 340.115 414.743 344.909L419.362 349.528C423.744 345.304 428.822 341.803 434.412 339.217Z" fill="white"/>
<path d="M402.622 389.886H396.087C396.213 397.679 397.798 405.122 400.589 411.954L406.601 409.392C404.147 403.347 402.746 396.771 402.622 389.886Z" fill="white"/>
<path d="M406.601 368.371L400.589 365.809C397.798 372.641 396.213 380.083 396.087 387.878H402.622C402.746 380.991 404.147 374.415 406.601 368.371Z" fill="white"/>
<path d="M407.392 411.236L401.381 413.798C404.32 420.368 408.381 426.328 413.324 431.434L417.942 426.815C413.585 422.297 410 417.035 407.392 411.236Z" fill="white"/>
<path d="M419.362 428.234L414.743 432.853C419.695 437.648 425.45 441.612 431.787 444.528L434.412 438.545C428.822 435.959 423.744 432.46 419.362 428.234Z" fill="white"/>
<path d="M495.23 349.528L499.848 344.909C494.896 340.115 489.141 336.15 482.805 333.234L480.18 339.217C485.769 341.803 490.849 345.304 495.23 349.528Z" fill="white"/>
<path d="M456.293 334.207V327.672C448.27 327.802 440.615 329.469 433.62 332.412L436.247 338.399C442.437 335.808 449.202 334.336 456.293 334.207Z" fill="white"/>
<path d="M507.2 366.526L513.211 363.964C510.271 357.394 506.211 351.434 501.268 346.329L496.649 350.947C501.007 355.467 504.592 360.729 507.2 366.526Z" fill="white"/>
<path d="M511.97 387.878H518.505C518.379 380.084 516.793 372.641 514.003 365.809L507.991 368.371C510.445 374.415 511.846 380.991 511.97 387.878Z" fill="white"/>
<path d="M480.973 332.412C473.977 329.469 466.322 327.802 458.3 327.672V334.207C465.389 334.336 472.155 335.808 478.346 338.399L480.973 332.412Z" fill="white"/>
<path d="M433.62 445.35C440.615 448.294 448.27 449.961 456.293 450.09V443.555C449.203 443.427 442.438 441.954 436.247 439.363L433.62 445.35Z" fill="white"/>
<path d="M417.942 350.947L413.324 346.329C408.381 351.435 404.32 357.394 401.381 363.964L407.392 366.526C410 360.729 413.585 355.467 417.942 350.947Z" fill="white"/>
<path d="M458.3 443.555V450.09C466.323 449.96 473.978 448.293 480.973 445.35L478.346 439.363C472.155 441.954 465.389 443.427 458.3 443.555Z" fill="white"/>
<path d="M507.991 409.391L514.003 411.953C516.792 405.121 518.379 397.678 518.505 389.885H511.97C511.846 396.771 510.445 403.347 507.991 409.391Z" fill="white"/>
<path d="M496.649 426.815L501.268 431.434C506.211 426.327 510.271 420.368 513.211 413.798L507.2 411.236C504.592 417.035 501.007 422.297 496.649 426.815Z" fill="white"/>
<path d="M480.18 438.545L482.805 444.528C489.142 441.612 494.896 437.648 499.848 432.853L495.23 428.234C490.849 432.46 485.769 435.959 480.18 438.545Z" fill="white"/>
<path d="M509.999 388.892C509.999 359.838 486.361 336.2 457.307 336.2C428.253 336.2 404.615 359.838 404.615 388.892C404.615 417.947 428.253 441.584 457.307 441.584C486.361 441.584 509.999 417.947 509.999 388.892ZM457.307 433.829C432.528 433.829 412.37 413.669 412.37 388.891C412.37 364.113 432.528 343.955 457.307 343.955C482.086 343.955 502.244 364.114 502.244 388.892C502.244 413.67 482.085 433.829 457.307 433.829Z" fill="white"/>
<path fill-rule="evenodd" clip-rule="evenodd" d="M457.376 346.435C480.862 346.435 499.902 365.474 499.902 388.961C499.902 412.447 480.862 431.487 457.376 431.487C433.889 431.487 414.85 412.447 414.85 388.961C414.85 365.474 433.889 346.435 457.376 346.435ZM487.13 388.961C487.13 405.388 473.786 418.704 457.326 418.704C441.709 418.704 428.898 406.718 427.626 391.461H467.02V386.461H427.626C428.898 371.204 441.709 359.218 457.326 359.218C473.786 359.218 487.13 372.534 487.13 388.961Z" fill="white"/>
<path fill-rule="evenodd" clip-rule="evenodd" d="M457.376 346.435C480.862 346.435 499.902 365.474 499.902 388.961C499.902 412.447 480.862 431.487 457.376 431.487C433.889 431.487 414.85 412.447 414.85 388.961C414.85 365.474 433.889 346.435 457.376 346.435ZM487.13 388.961C487.13 405.388 473.786 418.704 457.326 418.704C441.709 418.704 428.898 406.718 427.626 391.461H467.02V386.461H427.626C428.898 371.204 441.709 359.218 457.326 359.218C473.786 359.218 487.13 372.534 487.13 388.961Z" fill="white"/>
<path d="M434.412 11.6353L431.787 5.65236C425.449 8.56854 419.695 12.5327 414.743 17.3271L419.362 21.9458C423.744 17.7216 428.822 14.2212 434.412 11.6353Z" fill="white"/>
<path d="M402.622 62.3037H396.087C396.213 70.0975 397.798 77.5401 400.589 84.3723L406.601 81.8104C404.147 75.7653 402.746 69.1891 402.622 62.3037Z" fill="white"/>
<path d="M406.601 40.7891L400.589 38.2273C397.798 45.0595 396.213 52.501 396.087 60.2959H402.622C402.746 53.4095 404.147 46.8333 406.601 40.7891Z" fill="white"/>
<path d="M407.392 83.6545L401.381 86.2163C404.32 92.7865 408.381 98.7464 413.324 103.852L417.942 99.2332C413.585 94.7149 410 89.4527 407.392 83.6545Z" fill="white"/>
<path d="M419.362 100.653L414.743 105.271C419.695 110.066 425.45 114.03 431.787 116.946L434.412 110.963C428.822 108.377 423.744 104.878 419.362 100.653Z" fill="white"/>
<path d="M495.23 21.9458L499.848 17.3271C494.896 12.5327 489.141 8.56854 482.805 5.65236L480.18 11.6353C485.769 14.2212 490.849 17.7216 495.23 21.9458Z" fill="white"/>
<path d="M456.293 6.62514V0.0900879C448.27 0.220588 440.615 1.88698 433.62 4.83026L436.247 10.8172C442.437 8.22628 449.202 6.75363 456.293 6.62514Z" fill="white"/>
<path d="M507.2 38.944L513.211 36.3822C510.271 29.812 506.211 23.8522 501.268 18.7466L496.649 23.3653C501.007 27.8847 504.592 33.1468 507.2 38.944Z" fill="white"/>
<path d="M511.97 60.2959H518.505C518.379 52.502 516.793 45.0595 514.003 38.2273L507.991 40.7891C510.445 46.8333 511.846 53.4095 511.97 60.2959Z" fill="white"/>
<path d="M480.973 4.83026C473.977 1.88698 466.322 0.220588 458.3 0.0900879V6.62514C465.389 6.75363 472.155 8.22628 478.346 10.8172L480.973 4.83026Z" fill="white"/>
<path d="M433.62 117.768C440.615 120.712 448.27 122.379 456.293 122.508V115.973C449.203 115.845 442.438 114.372 436.247 111.781L433.62 117.768Z" fill="white"/>
<path d="M417.942 23.3653L413.324 18.7466C408.381 23.8532 404.32 29.812 401.381 36.3822L407.392 38.944C410 33.1468 413.585 27.8847 417.942 23.3653Z" fill="white"/>
<path d="M458.3 115.973V122.508C466.323 122.378 473.978 120.711 480.973 117.768L478.346 111.781C472.155 114.372 465.389 115.845 458.3 115.973Z" fill="white"/>
<path d="M507.991 81.8094L514.003 84.3712C516.792 77.539 518.379 70.0965 518.505 62.3026H511.97C511.846 69.189 510.445 75.7652 507.991 81.8094Z" fill="white"/>
<path d="M496.649 99.2332L501.268 103.852C506.211 98.7454 510.271 92.7865 513.211 86.2163L507.2 83.6545C504.592 89.4527 501.007 94.7149 496.649 99.2332Z" fill="white"/>
<path d="M480.18 110.963L482.805 116.946C489.142 114.03 494.896 110.066 499.848 105.271L495.23 100.653C490.849 104.878 485.769 108.377 480.18 110.963Z" fill="white"/>
<path d="M509.999 61.3106C509.999 32.2562 486.361 8.6186 457.307 8.6186C428.253 8.6186 404.615 32.2562 404.615 61.3106C404.615 90.365 428.253 114.003 457.307 114.003C486.361 114.003 509.999 90.365 509.999 61.3106ZM457.307 106.247C432.528 106.247 412.37 86.0876 412.37 61.3096C412.37 36.5316 432.528 16.3733 457.307 16.3733C482.086 16.3733 502.244 36.5326 502.244 61.3106C502.244 86.0886 482.085 106.247 457.307 106.247Z" fill="white"/>
<path fill-rule="evenodd" clip-rule="evenodd" d="M457.148 18.8528C480.509 18.8528 499.447 37.7905 499.447 61.1514C499.447 84.5122 480.509 103.45 457.148 103.45C433.787 103.45 414.85 84.5122 414.85 61.1514C414.85 37.7905 433.787 18.8528 457.148 18.8528ZM476.314 49.4406L457.403 30.5732L438.492 49.5021L445.481 56.4924L457.403 44.4973L469.325 56.4309L476.314 49.4406ZM440.48 61.4357L433.556 54.4427L426.57 61.4357L433.558 68.3668L440.48 61.4357ZM464.389 61.3739L457.403 54.4453H457.403L450.416 61.4357L457.403 68.3668L464.389 61.3739ZM488.295 61.4357L481.249 54.4427L474.325 61.4357L481.311 68.4286L488.295 61.4357ZM476.314 73.369L469.325 66.3787L457.403 78.3737L445.481 66.3786L438.491 73.3716L457.403 92.2983L476.314 73.369Z" fill="white"/>
<path fill-rule="evenodd" clip-rule="evenodd" d="M457.148 171.875C480.509 171.875 499.447 190.813 499.447 214.174C499.447 237.535 480.509 256.473 457.148 256.473C433.787 256.473 414.85 237.535 414.85 214.174C414.85 190.813 433.787 171.875 457.148 171.875ZM457.284 229.208L438.289 217.988L457.285 244.767L476.299 217.988L457.284 229.208ZM438.573 214.384L457.576 182.85L476.575 214.394L457.574 225.616L438.573 214.384Z" fill="white"/>
<path d="M434.412 164.658L431.787 158.675C425.449 161.591 419.695 165.555 414.743 170.35L419.362 174.968C423.744 170.744 428.822 167.244 434.412 164.658Z" fill="white"/>
<path d="M402.622 215.326H396.087C396.213 223.12 397.798 230.563 400.589 237.395L406.601 234.833C404.147 228.788 402.746 222.212 402.622 215.326Z" fill="white"/>
<path d="M406.601 193.812L400.589 191.25C397.798 198.082 396.213 205.524 396.087 213.319H402.622C402.746 206.432 404.147 199.856 406.601 193.812Z" fill="white"/>
<path d="M407.392 236.677L401.381 239.239C404.32 245.809 408.381 251.769 413.324 256.875L417.942 252.256C413.585 247.738 410 242.475 407.392 236.677Z" fill="white"/>
<path d="M419.362 253.675L414.743 258.294C419.695 263.088 425.45 267.053 431.787 269.969L434.412 263.986C428.822 261.4 423.744 257.9 419.362 253.675Z" fill="white"/>
<path d="M495.23 174.968L499.848 170.35C494.896 165.555 489.141 161.591 482.805 158.675L480.18 164.658C485.769 167.244 490.849 170.744 495.23 174.968Z" fill="white"/>
<path d="M456.293 159.648V153.113C448.27 153.243 440.615 154.91 433.62 157.853L436.247 163.84C442.437 161.249 449.202 159.776 456.293 159.648Z" fill="white"/>
<path d="M507.2 191.967L513.211 189.405C510.271 182.835 506.211 176.875 501.268 171.769L496.649 176.388C501.007 180.907 504.592 186.169 507.2 191.967Z" fill="white"/>
<path d="M511.97 213.319H518.505C518.379 205.525 516.793 198.082 514.003 191.25L507.991 193.812C510.445 199.856 511.846 206.432 511.97 213.319Z" fill="white"/>
<path d="M480.973 157.853C473.977 154.91 466.322 153.243 458.3 153.113V159.648C465.389 159.776 472.155 161.249 478.346 163.84L480.973 157.853Z" fill="white"/>
<path d="M433.62 270.791C440.615 273.735 448.27 275.401 456.293 275.531V268.996C449.203 268.867 442.438 267.395 436.247 264.804L433.62 270.791Z" fill="white"/>
<path d="M417.942 176.388L413.324 171.769C408.381 176.876 404.32 182.835 401.381 189.405L407.392 191.967C410 186.169 413.585 180.907 417.942 176.388Z" fill="white"/>
<path d="M458.3 268.996V275.531C466.323 275.4 473.978 273.734 480.973 270.791L478.346 264.804C472.155 267.395 465.389 268.867 458.3 268.996Z" fill="white"/>
<path d="M507.991 234.832L514.003 237.394C516.792 230.562 518.379 223.119 518.505 215.325H511.97C511.846 222.212 510.445 228.788 507.991 234.832Z" fill="white"/>
<path d="M496.649 252.256L501.268 256.875C506.211 251.768 510.271 245.809 513.211 239.239L507.2 236.677C504.592 242.475 501.007 247.738 496.649 252.256Z" fill="white"/>
<path d="M480.18 263.986L482.805 269.969C489.142 267.053 494.896 263.088 499.848 258.294L495.23 253.675C490.849 257.9 485.769 261.4 480.18 263.986Z" fill="white"/>
<path d="M509.999 214.333C509.999 185.279 486.361 161.641 457.307 161.641C428.253 161.641 404.615 185.279 404.615 214.333C404.615 243.388 428.253 267.025 457.307 267.025C486.361 267.025 509.999 243.388 509.999 214.333ZM457.307 259.27C432.528 259.27 412.37 239.11 412.37 214.332C412.37 189.554 432.528 169.396 457.307 169.396C482.086 169.396 502.244 189.555 502.244 214.333C502.244 239.111 482.085 259.27 457.307 259.27Z" fill="white"/>
</svg>
