<svg width="519" height="451" viewBox="0 0 519 451" fill="none" xmlns="http://www.w3.org/2000/svg">
<path d="M203.754 210.264H209.546C208.302 186.337 198.851 163.572 182.79 145.793L178.73 149.854C176.578 152.006 173.092 152.006 170.94 149.854C168.788 147.702 168.788 144.212 170.94 142.06L175 138.003C157.221 121.939 134.456 112.491 110.53 111.247V117.039C110.53 120.081 108.062 122.548 105.02 122.548C101.975 122.548 99.5113 120.081 99.5113 117.039V111.247C75.5848 112.491 52.8167 121.942 35.0413 138.003L39.1014 142.063C41.2498 144.215 41.2498 147.702 39.1014 149.854C36.9494 152.006 33.4596 152.006 31.3076 149.854L27.2475 145.793C11.19 163.572 1.7392 186.337 0.494629 210.264H6.28707C9.32855 210.264 11.7962 212.731 11.7962 215.773C11.7962 218.814 9.32855 221.282 6.28707 221.282H0.494629C1.7392 245.208 11.19 267.973 27.2475 285.752L31.3076 281.692C33.4596 279.543 36.9494 279.543 39.1014 281.695C41.2498 283.844 41.2498 287.334 39.1014 289.486L35.0413 293.542C52.8167 309.603 75.5848 319.054 99.5113 320.298V314.506C99.5113 311.465 101.975 308.997 105.02 308.997C108.062 308.997 110.53 311.465 110.53 314.506V320.298C134.456 319.054 157.221 309.603 175 293.542L170.94 289.486C168.788 287.334 168.788 283.844 170.94 281.692C173.092 279.54 176.578 279.54 178.73 281.692L182.79 285.752C198.851 267.973 208.302 245.208 209.546 221.282H203.754C200.712 221.282 198.245 218.814 198.245 215.773C198.245 212.731 200.712 210.264 203.754 210.264ZM105.02 299.984C58.5123 299.984 20.8094 262.281 20.8094 215.773C20.8094 169.264 58.5123 131.562 105.02 131.562C151.529 131.562 189.231 169.264 189.231 215.773C189.178 262.259 151.507 299.93 105.02 299.984Z" fill="black"/>
<path fill-rule="evenodd" clip-rule="evenodd" d="M103.976 147.167V138.927C93.8602 139.091 84.2072 141.193 75.3871 144.904L78.6997 152.453C86.5046 149.186 95.0361 147.329 103.976 147.167ZM73.0757 145.941L76.3858 153.485C69.3378 156.746 62.9341 161.159 57.4089 166.486L51.585 160.662C57.8291 154.616 65.0847 149.618 73.0757 145.941ZM28.0601 217.375H36.3004C36.4574 226.057 38.2232 234.35 41.318 241.972L33.7372 245.203C30.2182 236.588 28.2195 227.203 28.0601 217.375ZM41.318 190.246L33.7372 187.016C30.2182 195.631 28.2195 205.014 28.0601 214.843H36.3004C36.4574 206.16 38.2232 197.868 41.318 190.246ZM34.7356 247.528L42.3152 244.298C45.6038 251.609 50.1239 258.244 55.6188 263.942L49.7948 269.765C43.562 263.328 38.4419 255.813 34.7356 247.528ZM57.4089 265.731L51.585 271.555C57.8291 277.601 65.086 282.599 73.0757 286.277L76.3858 278.732C69.3378 275.472 62.9341 271.059 57.4089 265.731ZM158.898 160.662L153.074 166.486C147.55 161.159 141.145 156.746 134.097 153.485L137.407 145.941C145.397 149.618 152.654 154.616 158.898 160.662ZM175.747 184.689L168.168 187.92C164.879 180.61 160.359 173.974 154.864 168.276L160.688 162.452C166.921 168.89 172.041 176.405 175.747 184.689ZM174.183 214.843H182.423C182.264 205.016 180.265 195.631 176.746 187.016L169.165 190.246C172.26 197.868 174.026 206.16 174.183 214.843ZM106.508 138.927C116.623 139.091 126.276 141.193 135.097 144.904L131.785 152.453C123.979 149.186 115.447 147.329 106.508 147.167V138.927ZM75.3871 287.313C84.2072 291.026 93.8602 293.127 103.976 293.29V285.05C95.0374 284.888 86.5059 283.031 78.6997 279.764L75.3871 287.313ZM49.7948 162.452L55.6188 168.276C50.1239 173.974 45.6038 180.61 42.3152 187.92L34.7356 184.689C38.4419 176.405 43.562 168.891 49.7948 162.452ZM106.508 285.05V293.29C116.624 293.126 126.277 291.024 135.097 287.313L131.785 279.764C123.979 283.031 115.447 284.888 106.508 285.05ZM176.746 245.201L169.165 241.971C172.26 234.35 174.026 226.057 174.183 217.374H182.423C182.264 227.202 180.264 236.586 176.746 245.201ZM154.864 263.942L160.688 269.765C166.921 263.326 172.041 255.813 175.747 247.528L168.168 244.298C164.879 251.609 160.359 258.244 154.864 263.942ZM137.407 286.277L134.097 278.732C141.145 275.472 147.55 271.059 153.074 265.731L158.898 271.555C152.654 277.601 145.398 282.599 137.407 286.277ZM105.256 161.991C75.408 161.991 51.1237 186.274 51.1237 216.123C51.1237 245.972 75.408 270.255 105.256 270.255C135.103 270.255 159.387 245.972 159.387 216.123C159.387 186.274 135.103 161.991 105.256 161.991ZM105.256 266.268C77.6042 266.268 55.1097 243.773 55.1097 216.122C55.1097 188.47 77.6042 165.977 105.256 165.977C132.907 165.977 155.401 188.471 155.401 216.123C155.401 243.774 132.906 266.268 105.256 266.268ZM105.256 149.681C141.892 149.681 171.698 179.487 171.698 216.123C171.698 252.759 141.892 282.565 105.256 282.565C68.6198 282.565 38.8141 252.759 38.8141 216.123C38.8141 179.487 68.6198 149.681 105.256 149.681ZM48.5924 216.122C48.5924 247.365 74.0109 272.785 105.256 272.785C136.5 272.785 161.919 247.367 161.919 216.123C161.919 184.879 136.501 159.459 105.256 159.459C74.0109 159.459 48.5924 184.878 48.5924 216.122ZM153.106 215.43C153.106 241.646 131.854 262.898 105.639 262.898C79.4232 262.898 58.1713 241.646 58.1713 215.43C58.1713 189.215 79.4232 167.963 105.639 167.963C131.854 167.963 153.106 189.215 153.106 215.43ZM134.321 232.576L130.143 239.813C129.331 241.218 127.815 242.097 126.19 242.097L84.4567 242.08L90.8092 231.083L105.815 231.099H105.82L121.71 231.116C122.204 231.116 122.654 230.852 122.901 230.429L129.622 218.74L134.321 226.877C135.332 228.634 135.332 230.819 134.321 232.576ZM128.43 215.308L134.316 205.085C135.332 203.323 135.326 201.137 134.31 199.375L129.61 191.26L108.197 228.354L120.919 228.37L128.43 215.308ZM103.486 203.63L82.079 240.708L77.3846 232.593C76.3634 230.836 76.3634 228.65 77.3791 226.888L83.2485 216.681C83.2485 216.681 83.254 216.681 83.254 216.676L90.754 203.63H103.486ZM120.886 200.885L127.233 189.887L85.5055 189.876C83.8803 189.876 82.3649 190.749 81.5523 192.16L77.374 199.391C76.3583 201.148 76.3583 203.334 77.374 205.096L82.0629 213.238L88.7723 201.577C89.0194 201.148 89.4696 200.885 89.9637 200.885H120.886Z" fill="black"/>
<path d="M292.938 34.5128C306.233 33.654 318.148 42.6668 320.943 55.691H378.661V67.9042H320.724C318.247 77.6406 310.558 85.1903 300.778 87.4923V183.138C314.025 185.687 324.35 196.107 326.779 209.374H378.661V221.587H326.676C324.048 234.603 313.818 244.741 300.778 247.25V363.251C310.761 365.601 318.545 373.417 320.859 383.412H378.661V395.625H320.808C317.746 408.514 305.748 417.252 292.541 416.207C279.334 415.157 268.862 404.642 267.872 391.43C266.882 378.219 275.668 366.257 288.569 363.251V247.258C275.426 244.733 265.145 234.452 262.616 221.305H219.627V209.091H262.612C265.141 195.948 275.418 185.667 288.565 183.138V87.4923C275.593 84.4668 266.794 72.3888 267.892 59.1141C268.989 45.8394 279.648 35.3715 292.938 34.5128Z" fill="black"/>
<path d="M434.412 339.833L431.787 333.85C425.45 336.766 419.696 340.73 414.744 345.525L419.363 350.143C423.744 345.919 428.823 342.419 434.412 339.833Z" fill="white"/>
<path d="M402.622 390.501H396.087C396.214 398.295 397.799 405.738 400.59 412.57L406.602 410.008C404.147 403.963 402.747 397.387 402.622 390.501Z" fill="white"/>
<path d="M406.602 368.987L400.59 366.425C397.799 373.257 396.214 380.699 396.087 388.493H402.622C402.747 381.607 404.147 375.031 406.602 368.987Z" fill="white"/>
<path d="M407.392 411.852L401.381 414.414C404.321 420.984 408.381 426.944 413.324 432.05L417.943 427.431C413.585 422.913 410 417.65 407.392 411.852Z" fill="white"/>
<path d="M419.363 428.85L414.744 433.469C419.696 438.263 425.451 442.227 431.787 445.144L434.412 439.161C428.823 436.575 423.744 433.075 419.363 428.85Z" fill="white"/>
<path d="M495.23 350.143L499.849 345.525C494.897 340.73 489.142 336.766 482.805 333.85L480.18 339.833C485.77 342.419 490.849 345.919 495.23 350.143Z" fill="white"/>
<path d="M456.293 334.823V328.288C448.27 328.418 440.615 330.085 433.62 333.028L436.247 339.015C442.437 336.424 449.203 334.951 456.293 334.823Z" fill="white"/>
<path d="M507.2 367.142L513.211 364.58C510.272 358.01 506.211 352.05 501.268 346.944L496.65 351.563C501.007 356.082 504.592 361.344 507.2 367.142Z" fill="white"/>
<path d="M511.97 388.493H518.505C518.379 380.7 516.794 373.257 514.003 366.425L507.991 368.987C510.446 375.031 511.846 381.607 511.97 388.493Z" fill="white"/>
<path d="M480.974 333.028C473.978 330.085 466.322 328.418 458.301 328.288V334.823C465.39 334.951 472.156 336.424 478.346 339.015L480.974 333.028Z" fill="white"/>
<path d="M433.62 445.966C440.615 448.91 448.27 450.576 456.293 450.706V444.171C449.204 444.042 442.438 442.57 436.247 439.979L433.62 445.966Z" fill="white"/>
<path d="M417.943 351.563L413.324 346.944C408.381 352.051 404.321 358.01 401.381 364.58L407.392 367.142C410 361.344 413.585 356.082 417.943 351.563Z" fill="white"/>
<path d="M458.301 444.171V450.706C466.323 450.575 473.979 448.909 480.974 445.966L478.346 439.979C472.156 442.57 465.39 444.042 458.301 444.171Z" fill="white"/>
<path d="M507.991 410.007L514.003 412.569C516.793 405.737 518.379 398.294 518.505 390.5H511.97C511.846 397.387 510.446 403.963 507.991 410.007Z" fill="white"/>
<path d="M496.65 427.431L501.268 432.05C506.211 426.943 510.272 420.984 513.211 414.414L507.2 411.852C504.592 417.65 501.007 422.913 496.65 427.431Z" fill="white"/>
<path d="M480.18 439.161L482.805 445.144C489.143 442.227 494.897 438.263 499.849 433.469L495.23 428.85C490.849 433.075 485.77 436.575 480.18 439.161Z" fill="white"/>
<path d="M509.999 389.508C509.999 360.454 486.362 336.816 457.308 336.816C428.253 336.816 404.616 360.454 404.616 389.508C404.616 418.563 428.253 442.2 457.308 442.2C486.362 442.2 509.999 418.563 509.999 389.508ZM457.308 434.444C432.529 434.444 412.371 414.285 412.371 389.507C412.371 364.729 432.529 344.571 457.308 344.571C482.087 344.571 502.245 364.73 502.245 389.508C502.245 414.286 482.086 434.444 457.308 434.444Z" fill="white"/>
<path fill-rule="evenodd" clip-rule="evenodd" d="M457.376 347.05C480.863 347.05 499.902 366.09 499.902 389.577C499.902 413.063 480.863 432.103 457.376 432.103C433.89 432.103 414.85 413.063 414.85 389.577C414.85 366.09 433.89 347.05 457.376 347.05ZM487.131 389.577C487.131 406.003 473.787 419.32 457.326 419.32C441.709 419.32 428.898 407.334 427.626 392.077H467.02V387.077H427.626C428.898 371.82 441.709 359.834 457.326 359.834C473.787 359.834 487.131 373.15 487.131 389.577Z" fill="black"/>
<path fill-rule="evenodd" clip-rule="evenodd" d="M457.376 347.05C480.863 347.05 499.902 366.09 499.902 389.577C499.902 413.063 480.863 432.103 457.376 432.103C433.89 432.103 414.85 413.063 414.85 389.577C414.85 366.09 433.89 347.05 457.376 347.05ZM487.131 389.577C487.131 406.003 473.787 419.32 457.326 419.32C441.709 419.32 428.898 407.334 427.626 392.077H467.02V387.077H427.626C428.898 371.82 441.709 359.834 457.326 359.834C473.787 359.834 487.131 373.15 487.131 389.577Z" fill="black"/>
<path d="M434.412 12.251L431.787 6.26808C425.45 9.18426 419.696 13.1485 414.744 17.9428L419.362 22.5615C423.744 18.3373 428.823 14.8369 434.412 12.251Z" fill="white"/>
<path d="M402.622 62.9194H396.087C396.214 70.7133 397.799 78.1558 400.589 84.988L406.601 82.4262C404.147 76.381 402.747 69.8048 402.622 62.9194Z" fill="white"/>
<path d="M406.601 41.4048L400.589 38.843C397.799 45.6752 396.214 53.1167 396.087 60.9116H402.622C402.747 54.0252 404.147 47.449 406.601 41.4048Z" fill="white"/>
<path d="M407.392 84.2702L401.381 86.8321C404.32 93.4022 408.381 99.3621 413.324 104.468L417.943 99.849C413.585 95.3306 410 90.0685 407.392 84.2702Z" fill="white"/>
<path d="M419.362 101.268L414.744 105.887C419.696 110.681 425.451 114.646 431.787 117.562L434.412 111.579C428.823 108.993 423.744 105.494 419.362 101.268Z" fill="white"/>
<path d="M495.23 22.5615L499.848 17.9428C494.897 13.1485 489.141 9.18426 482.805 6.26808L480.18 12.251C485.77 14.8369 490.849 18.3373 495.23 22.5615Z" fill="white"/>
<path d="M456.293 7.24086V0.705811C448.27 0.836311 440.615 2.5027 433.62 5.44598L436.247 11.4329C442.437 8.842 449.203 7.36935 456.293 7.24086Z" fill="white"/>
<path d="M507.2 39.5598L513.211 36.998C510.272 30.4278 506.211 24.4679 501.268 19.3623L496.649 23.9811C501.007 28.5004 504.592 33.7625 507.2 39.5598Z" fill="white"/>
<path d="M511.97 60.9116H518.505C518.379 53.1177 516.794 45.6752 514.003 38.843L507.991 41.4048C510.445 47.449 511.846 54.0252 511.97 60.9116Z" fill="white"/>
<path d="M480.973 5.44598C473.978 2.5027 466.322 0.836311 458.301 0.705811V7.24086C465.39 7.36935 472.156 8.842 478.346 11.4329L480.973 5.44598Z" fill="white"/>
<path d="M433.62 118.384C440.615 121.328 448.27 122.994 456.293 123.124V116.589C449.204 116.46 442.438 114.988 436.247 112.397L433.62 118.384Z" fill="white"/>
<path d="M417.943 23.9811L413.324 19.3623C408.381 24.4689 404.32 30.4278 401.381 36.998L407.392 39.5598C410 33.7625 413.585 28.5004 417.943 23.9811Z" fill="white"/>
<path d="M458.301 116.589V123.124C466.323 122.993 473.979 121.327 480.973 118.384L478.346 112.397C472.156 114.988 465.39 116.46 458.301 116.589Z" fill="white"/>
<path d="M507.991 82.4251L514.003 84.987C516.793 78.1548 518.379 70.7122 518.505 62.9184H511.97C511.846 69.8047 510.445 76.381 507.991 82.4251Z" fill="white"/>
<path d="M496.649 99.849L501.268 104.468C506.211 99.3611 510.272 93.4022 513.211 86.8321L507.2 84.2702C504.592 90.0685 501.007 95.3306 496.649 99.849Z" fill="white"/>
<path d="M480.18 111.579L482.805 117.562C489.142 114.646 494.897 110.681 499.848 105.887L495.23 101.268C490.849 105.494 485.77 108.993 480.18 111.579Z" fill="white"/>
<path d="M509.999 61.9263C509.999 32.8719 486.362 9.23432 457.307 9.23432C428.253 9.23432 404.616 32.8719 404.616 61.9263C404.616 90.9807 428.253 114.618 457.307 114.618C486.362 114.618 509.999 90.9807 509.999 61.9263ZM457.307 106.863C432.529 106.863 412.37 86.7033 412.37 61.9253C412.37 37.1473 432.529 16.989 457.307 16.989C482.086 16.989 502.245 37.1483 502.245 61.9263C502.245 86.7043 482.085 106.863 457.307 106.863Z" fill="white"/>
<path fill-rule="evenodd" clip-rule="evenodd" d="M457.148 19.4685C480.509 19.4685 499.447 38.4062 499.447 61.7671C499.447 85.128 480.509 104.066 457.148 104.066C433.788 104.066 414.85 85.128 414.85 61.7671C414.85 38.4062 433.788 19.4685 457.148 19.4685ZM476.314 50.0563L457.403 31.1889L438.492 50.1178L445.481 57.1081L457.403 45.113L469.325 57.0466L476.314 50.0563ZM440.481 62.0514L433.556 55.0584L426.57 62.0514L433.559 68.9825L440.481 62.0514ZM464.389 61.9896L457.403 55.061H457.403L450.417 62.0514L457.403 68.9825L464.389 61.9896ZM488.295 62.0514L481.25 55.0584L474.325 62.0514L481.312 69.0443L488.295 62.0514ZM476.314 73.9847L469.325 66.9944L457.403 78.9895L445.481 66.9944L438.492 73.9873L457.403 92.914L476.314 73.9847Z" fill="black"/>
<path fill-rule="evenodd" clip-rule="evenodd" d="M457.148 172.491C480.509 172.491 499.447 191.429 499.447 214.79C499.447 238.151 480.509 257.088 457.148 257.088C433.788 257.088 414.85 238.151 414.85 214.79C414.85 191.429 433.788 172.491 457.148 172.491ZM457.284 229.823L438.29 218.603L457.285 245.382L476.299 218.603L457.284 229.823ZM438.573 214.999L457.577 183.465L476.575 215.01L457.574 226.232L438.573 214.999Z" fill="black"/>
<path d="M434.412 165.274L431.787 159.291C425.45 162.207 419.696 166.171 414.744 170.966L419.363 175.584C423.744 171.36 428.823 167.86 434.412 165.274Z" fill="white"/>
<path d="M402.622 215.942H396.087C396.214 223.736 397.799 231.178 400.59 238.011L406.602 235.449C404.147 229.404 402.747 222.827 402.622 215.942Z" fill="white"/>
<path d="M406.602 194.427L400.59 191.866C397.799 198.698 396.214 206.139 396.087 213.934H402.622C402.747 207.048 404.147 200.472 406.602 194.427Z" fill="white"/>
<path d="M407.392 237.293L401.381 239.855C404.321 246.425 408.381 252.385 413.324 257.49L417.943 252.872C413.585 248.353 410 243.091 407.392 237.293Z" fill="white"/>
<path d="M419.363 254.291L414.744 258.91C419.696 263.704 425.451 267.668 431.787 270.584L434.412 264.602C428.823 262.016 423.744 258.516 419.363 254.291Z" fill="white"/>
<path d="M495.23 175.584L499.849 170.966C494.897 166.171 489.142 162.207 482.805 159.291L480.18 165.274C485.77 167.86 490.849 171.36 495.23 175.584Z" fill="white"/>
<path d="M456.293 160.264V153.728C448.27 153.859 440.615 155.525 433.62 158.469L436.247 164.456C442.437 161.865 449.203 160.392 456.293 160.264Z" fill="white"/>
<path d="M507.2 192.582L513.211 190.021C510.272 183.45 506.211 177.491 501.268 172.385L496.65 177.004C501.007 181.523 504.592 186.785 507.2 192.582Z" fill="white"/>
<path d="M511.97 213.934H518.505C518.379 206.14 516.794 198.698 514.003 191.866L507.991 194.427C510.446 200.472 511.846 207.048 511.97 213.934Z" fill="white"/>
<path d="M480.974 158.469C473.978 155.525 466.322 153.859 458.301 153.728V160.264C465.39 160.392 472.156 161.865 478.346 164.456L480.974 158.469Z" fill="white"/>
<path d="M433.62 271.406C440.615 274.351 448.27 276.017 456.293 276.147V269.612C449.204 269.483 442.438 268.01 436.247 265.42L433.62 271.406Z" fill="white"/>
<path d="M417.943 177.004L413.324 172.385C408.381 177.492 404.321 183.45 401.381 190.021L407.392 192.582C410 186.785 413.585 181.523 417.943 177.004Z" fill="white"/>
<path d="M458.301 269.612V276.147C466.323 276.016 473.979 274.35 480.974 271.406L478.346 265.42C472.156 268.01 465.39 269.483 458.301 269.612Z" fill="white"/>
<path d="M507.991 235.448L514.003 238.01C516.793 231.177 518.379 223.735 518.505 215.941H511.97C511.846 222.827 510.446 229.404 507.991 235.448Z" fill="white"/>
<path d="M496.65 252.872L501.268 257.49C506.211 252.384 510.272 246.425 513.211 239.855L507.2 237.293C504.592 243.091 501.007 248.353 496.65 252.872Z" fill="white"/>
<path d="M480.18 264.602L482.805 270.584C489.143 267.668 494.897 263.704 499.849 258.91L495.23 254.291C490.849 258.516 485.77 262.016 480.18 264.602Z" fill="white"/>
<path d="M509.999 214.949C509.999 185.895 486.362 162.257 457.308 162.257C428.253 162.257 404.616 185.895 404.616 214.949C404.616 244.003 428.253 267.641 457.308 267.641C486.362 267.641 509.999 244.003 509.999 214.949ZM457.308 259.885C432.529 259.885 412.371 239.726 412.371 214.948C412.371 190.17 432.529 170.012 457.308 170.012C482.087 170.012 502.245 190.171 502.245 214.949C502.245 239.727 482.086 259.885 457.308 259.885Z" fill="white"/>
</svg>
