<svg width="459" height="461" viewBox="0 0 459 461" fill="none" xmlns="http://www.w3.org/2000/svg">
<g filter="url(#filter0_d_135_1608)">
<path fill-rule="evenodd" clip-rule="evenodd" d="M135.216 109.574H28.292C30.7576 82.2629 53.7499 60.8591 81.7542 60.8591C109.759 60.8591 132.751 82.2629 135.216 109.574ZM81.7542 60.686C95.8359 60.686 107.322 49.2218 107.322 35.1666C107.322 21.1114 95.8368 9.64723 81.7542 9.64723C67.6717 9.64723 56.1867 21.1114 56.1867 35.1666C56.1867 49.2218 67.6717 60.686 81.7542 60.686ZM430.705 109.574C428.241 82.2629 405.247 60.8591 377.243 60.8591C349.239 60.8591 326.246 82.2629 323.781 109.574H430.705ZM377.243 60.686C391.325 60.686 402.811 49.2218 402.811 35.1666C402.811 21.1114 391.326 9.64723 377.243 9.64723C363.16 9.64723 351.675 21.1114 351.675 35.1666C351.675 49.2218 363.16 60.686 377.243 60.686ZM81.7542 359.624C53.7499 359.624 30.7567 381.028 28.292 408.34H135.216C132.751 381.028 109.759 359.624 81.7542 359.624ZM56.1867 333.932C56.1867 347.987 67.6717 359.451 81.7542 359.451C95.8368 359.451 107.322 347.987 107.322 333.932C107.322 319.877 95.8368 308.413 81.7542 308.413C67.6717 308.413 56.1867 319.877 56.1867 333.932ZM377.243 359.624C349.239 359.624 326.246 381.028 323.781 408.34H430.705C428.241 381.028 405.247 359.624 377.243 359.624ZM351.676 333.932C351.676 347.987 363.161 359.451 377.244 359.451C391.327 359.451 402.811 347.987 402.811 333.932C402.811 319.877 391.327 308.413 377.244 308.413C363.161 308.413 351.676 319.877 351.676 333.932ZM132.753 36.4805C162.871 21.0693 195.421 13.2588 229.498 13.2588C254.172 13.2588 278.211 17.4129 301.127 25.6261L298.791 26.166C295.407 26.9444 293.297 30.3156 294.081 33.6958C294.754 36.5962 297.343 38.5593 300.204 38.5593C300.672 38.5593 301.151 38.5073 301.628 38.3997L323.153 33.4196C325.166 32.9568 326.822 31.5344 327.582 29.6197C328.343 27.7005 328.111 25.5301 326.961 23.819L314.364 5.02765C312.432 2.14881 308.524 1.37933 305.638 3.30752C302.752 5.23571 301.978 9.12617 303.911 12.014L305.03 13.683C280.855 5.06352 255.509 0.705811 229.498 0.705811C193.406 0.705811 158.926 8.98357 127.016 25.3068C123.925 26.8844 122.702 30.6672 124.287 33.7532C125.872 36.8392 129.662 38.0589 132.753 36.4814V36.4805ZM29.1456 327.571C30.2607 329.746 32.463 330.99 34.7488 330.99C35.7129 330.99 36.6941 330.765 37.6115 330.289C40.7043 328.711 41.9262 324.929 40.3403 321.843C24.9064 291.782 17.0802 259.297 17.0802 225.281C17.0802 200.654 21.2404 176.663 29.4655 153.787L30.0073 156.117C30.7908 159.497 34.1702 161.607 37.5522 160.816C40.9379 160.038 43.0458 156.667 42.2623 153.282L37.2764 131.802C36.8109 129.796 35.385 128.136 33.463 127.384C31.5411 126.619 29.3694 126.852 27.6514 128.002L8.82999 140.573C5.94213 142.501 5.1694 146.404 7.10123 149.283C9.03306 152.162 12.9398 152.931 15.8259 151.017L17.5026 149.893C8.86773 174.019 4.5 199.319 4.5 225.282C4.5 261.307 12.7934 295.717 29.1456 327.572V327.571ZM309.705 421.669C284.235 432.036 257.25 437.3 229.498 437.3C209.223 437.3 189.279 434.47 170.038 428.874L172.333 428.196C175.663 427.211 177.564 423.722 176.579 420.394C175.593 417.066 172.093 415.176 168.762 416.162L147.577 422.413C145.594 423.005 144.027 424.522 143.385 426.484C142.741 428.438 143.105 430.591 144.354 432.234L158.061 450.233C159.299 451.855 161.176 452.706 163.073 452.706C164.4 452.706 165.738 452.295 166.875 451.422C169.639 449.326 170.177 445.388 168.076 442.625L166.855 441.025C187.134 446.889 208.144 449.857 229.497 449.857C258.887 449.857 287.472 444.276 314.458 433.293C317.674 431.983 319.217 428.313 317.904 425.101C316.591 421.894 312.92 420.351 309.704 421.669H309.705ZM443.17 299.547L441.494 300.666C450.13 276.545 454.5 251.244 454.5 225.281C454.5 192.095 447.41 160.141 433.438 130.296C431.966 127.158 428.223 125.801 425.077 127.266C421.93 128.736 420.57 132.475 422.042 135.614C435.23 163.772 441.918 193.945 441.918 225.281C441.918 249.908 437.756 273.894 429.531 296.775L428.991 294.445C428.206 291.065 424.831 288.956 421.444 289.742C418.06 290.524 415.952 293.897 416.736 297.277L421.719 318.757C422.186 320.767 423.611 322.427 425.532 323.179C426.28 323.473 427.065 323.616 427.846 323.616C429.074 323.616 430.294 323.262 431.344 322.561L450.167 309.987C453.052 308.058 453.827 304.155 451.895 301.277C449.963 298.398 446.053 297.628 443.169 299.547L443.17 299.547Z" fill="black"/>
<path fill-rule="evenodd" clip-rule="evenodd" d="M354.025 226.709C354.025 295.556 298.108 351.368 229.13 351.368C160.153 351.368 104.235 295.556 104.235 226.709C104.235 157.861 160.153 102.049 229.13 102.049C298.108 102.049 354.025 157.861 354.025 226.709ZM190.925 261.84L163.908 277.646L163.904 277.65C161.351 275.775 158.228 274.837 155.061 274.994C151.895 275.151 148.88 276.394 146.526 278.512C144.171 280.63 142.62 283.494 142.136 286.621C141.651 289.748 142.262 292.946 143.866 295.675C145.47 298.405 147.968 300.498 150.938 301.602C153.909 302.707 157.171 302.754 160.172 301.737C163.174 300.719 165.732 298.7 167.415 296.018C169.098 293.337 169.802 290.158 169.409 287.018L196.426 271.205C199.085 273.158 202.359 274.092 205.651 273.838C208.943 273.583 212.033 272.157 214.359 269.818L239.673 279.762C239.731 281.616 240.165 283.439 240.948 285.121C241.732 286.804 242.848 288.31 244.23 289.55C245.612 290.791 247.232 291.739 248.991 292.337C250.75 292.936 252.612 293.173 254.466 293.035C256.319 292.896 258.125 292.384 259.775 291.53C261.425 290.676 262.884 289.497 264.066 288.065C265.247 286.633 266.126 284.977 266.649 283.197C267.172 281.417 267.329 279.55 267.109 277.708L293.905 262.242C296.448 264.131 299.565 265.086 302.731 264.946C305.898 264.807 308.919 263.582 311.285 261.478C313.652 259.373 315.218 256.519 315.721 253.396C316.224 250.272 315.632 247.071 314.045 244.333C312.458 241.595 309.974 239.487 307.011 238.364C304.048 237.242 300.787 237.174 297.78 238.172C294.772 239.171 292.202 241.174 290.502 243.844C288.803 246.514 288.078 249.687 288.45 252.828L261.655 268.297C258.996 266.323 255.713 265.372 252.409 265.619C249.104 265.865 246 267.293 243.665 269.639L218.352 259.696C218.293 257.838 217.858 256.011 217.071 254.326C216.285 252.641 215.164 251.133 213.777 249.892C212.39 248.652 210.765 247.705 209.001 247.109C207.237 246.514 205.37 246.281 203.513 246.426C201.656 246.571 199.849 247.091 198.199 247.954C196.549 248.816 195.092 250.004 193.915 251.445C192.738 252.885 191.866 254.55 191.352 256.336C190.838 258.123 190.693 259.995 190.925 261.84ZM228.131 121.086V126.782C221.95 126.894 216.052 128.178 210.657 130.437L208.367 125.218C214.464 122.652 221.137 121.2 228.131 121.086ZM209.057 131.15L206.769 125.934C201.245 128.476 196.229 131.932 191.912 136.111L195.938 140.137C199.758 136.455 204.185 133.404 209.057 131.15ZM181.346 175.317H175.649C175.759 182.111 177.141 188.599 179.574 194.555L184.815 192.321C182.675 187.052 181.454 181.319 181.346 175.317ZM179.574 154.33L184.815 156.563C182.675 161.832 181.454 167.564 181.346 173.567H175.649C175.759 166.772 177.141 160.286 179.574 154.33ZM185.504 193.929L180.264 196.162C182.826 201.889 186.366 207.084 190.675 211.535L194.701 207.509C190.902 203.57 187.777 198.983 185.504 193.929ZM191.912 212.772L195.938 208.746C199.758 212.429 204.185 215.48 209.057 217.734L206.769 222.949C201.245 220.407 196.229 216.952 191.912 212.772ZM262.072 140.137L266.098 136.111C261.782 131.932 256.765 128.476 251.242 125.934L248.953 131.15C253.826 133.404 258.253 136.455 262.072 140.137ZM272.506 154.955L277.746 152.722C275.184 146.994 271.644 141.799 267.336 137.349L263.31 141.375C267.108 145.314 270.233 149.901 272.506 154.955ZM282.361 173.567H276.665C276.556 167.564 275.336 161.832 273.196 156.563L278.437 154.33C280.87 160.286 282.251 166.773 282.361 173.567ZM249.645 125.218C243.547 122.652 236.873 121.2 229.881 121.086V126.782C236.06 126.894 241.958 128.178 247.355 130.437L249.645 125.218ZM228.131 227.798C221.137 227.685 214.464 226.232 208.367 223.666L210.657 218.447C216.053 220.705 221.951 221.989 228.131 222.101V227.798ZM194.701 141.375L190.675 137.349C186.366 141.8 182.826 146.994 180.264 152.722L185.504 154.955C187.777 149.901 190.902 145.314 194.701 141.375ZM229.881 227.798V222.101C236.06 221.989 241.958 220.705 247.355 218.447L249.645 223.666C243.547 226.231 236.874 227.684 229.881 227.798ZM273.196 192.321L278.437 194.554C280.869 188.598 282.251 182.11 282.361 175.316H276.665C276.556 181.319 275.336 187.052 273.196 192.321ZM267.336 211.535L263.31 207.509C267.108 203.57 270.233 198.983 272.506 193.929L277.746 196.162C275.184 201.889 271.644 207.084 267.336 211.535ZM248.953 217.734L251.242 222.949C256.766 220.407 261.782 216.952 266.098 212.772L262.072 208.746C258.253 212.429 253.826 215.48 248.953 217.734ZM191.593 174.452C191.593 153.817 208.381 137.03 229.015 137.03C249.649 137.03 266.437 153.817 266.437 174.452C266.437 195.086 249.649 211.873 229.015 211.873C208.381 211.873 191.593 195.086 191.593 174.452ZM194.349 174.451C194.349 193.566 209.899 209.117 229.015 209.117C248.13 209.117 263.681 193.567 263.681 174.452C263.681 155.336 248.13 139.786 229.015 139.786C209.899 139.786 194.349 155.335 194.349 174.451ZM274.947 174.452C274.947 149.125 254.342 128.52 229.015 128.52C203.688 128.52 183.083 149.125 183.083 174.452C183.083 199.778 203.688 220.383 229.015 220.383C254.342 220.383 274.947 199.778 274.947 174.452ZM229.015 213.623C207.415 213.623 189.843 196.05 189.843 174.451C189.843 152.852 207.415 135.28 229.015 135.28C250.615 135.28 268.187 152.853 268.187 174.452C268.187 196.051 250.614 213.623 229.015 213.623ZM229.28 206.788C247.403 206.788 262.094 192.096 262.094 173.973C262.094 155.85 247.403 141.158 229.28 141.158C211.157 141.158 196.465 155.85 196.465 173.973C196.465 192.096 211.157 206.788 229.28 206.788ZM246.22 190.828L249.108 185.825C249.807 184.611 249.807 183.1 249.108 181.886L245.859 176.261L241.213 184.341C241.043 184.634 240.731 184.816 240.39 184.816L229.405 184.804H229.401L219.028 184.793L214.636 192.396L243.487 192.407C244.61 192.407 245.658 191.8 246.22 190.828ZM249.104 166.821L245.035 173.889L239.843 182.918L231.048 182.907L245.851 157.264L249.1 162.874C249.803 164.092 249.806 165.603 249.104 166.821ZM212.993 191.447L227.792 165.815H218.99L213.805 174.834C213.805 174.837 213.801 174.837 213.801 174.837L209.744 181.894C209.041 183.112 209.041 184.623 209.747 185.837L212.993 191.447ZM244.209 156.315L239.821 163.918H218.444C218.102 163.918 217.791 164.1 217.62 164.396L212.982 172.458L209.74 166.829C209.038 165.61 209.038 164.1 209.74 162.885L212.629 157.886C213.191 156.911 214.238 156.307 215.362 156.307L244.209 156.315Z" fill="black"/>
</g>
<defs>
<filter id="filter0_d_135_1608" x="0.5" y="0.705811" width="458" height="460" filterUnits="userSpaceOnUse" color-interpolation-filters="sRGB">
<feFlood flood-opacity="0" result="BackgroundImageFix"/>
<feColorMatrix in="SourceAlpha" type="matrix" values="0 0 0 0 0 0 0 0 0 0 0 0 0 0 0 0 0 0 127 0" result="hardAlpha"/>
<feOffset dy="4"/>
<feGaussianBlur stdDeviation="2"/>
<feComposite in2="hardAlpha" operator="out"/>
<feColorMatrix type="matrix" values="0 0 0 0 0 0 0 0 0 0 0 0 0 0 0 0 0 0 0.25 0"/>
<feBlend mode="normal" in2="BackgroundImageFix" result="effect1_dropShadow_135_1608"/>
<feBlend mode="normal" in="SourceGraphic" in2="effect1_dropShadow_135_1608" result="shape"/>
</filter>
</defs>
</svg>
