<svg width="451" height="453" viewBox="0 0 451 453" fill="none" xmlns="http://www.w3.org/2000/svg">
<path fill-rule="evenodd" clip-rule="evenodd" d="M131.216 108.958H24.292C26.7576 81.6471 49.7499 60.2433 77.7542 60.2433C105.759 60.2433 128.751 81.6471 131.216 108.958ZM77.7542 60.0703C91.8359 60.0703 103.322 48.606 103.322 34.5509C103.322 20.4957 91.8368 9.03151 77.7542 9.03151C63.6717 9.03151 52.1867 20.4957 52.1867 34.5509C52.1867 48.606 63.6717 60.0703 77.7542 60.0703ZM426.705 108.958C424.241 81.6471 401.247 60.2433 373.243 60.2433C345.239 60.2433 322.246 81.6471 319.781 108.958H426.705ZM373.243 60.0703C387.325 60.0703 398.811 48.606 398.811 34.5509C398.811 20.4957 387.326 9.03151 373.243 9.03151C359.16 9.03151 347.675 20.4957 347.675 34.5509C347.675 48.606 359.16 60.0703 373.243 60.0703ZM77.7542 359.009C49.7499 359.009 26.7567 380.413 24.292 407.724H131.216C128.751 380.413 105.759 359.009 77.7542 359.009ZM52.1867 333.316C52.1867 347.371 63.6717 358.836 77.7542 358.836C91.8368 358.836 103.322 347.371 103.322 333.316C103.322 319.261 91.8368 307.797 77.7542 307.797C63.6717 307.797 52.1867 319.261 52.1867 333.316ZM373.243 359.009C345.239 359.009 322.246 380.413 319.781 407.724H426.705C424.241 380.413 401.247 359.009 373.243 359.009ZM347.676 333.316C347.676 347.371 359.161 358.836 373.244 358.836C387.327 358.836 398.811 347.371 398.811 333.316C398.811 319.261 387.327 307.797 373.244 307.797C359.161 307.797 347.676 319.261 347.676 333.316ZM128.753 35.8647C158.871 20.4536 191.421 12.6431 225.498 12.6431C250.172 12.6431 274.211 16.7972 297.127 25.0104L294.791 25.5503C291.407 26.3287 289.297 29.6999 290.081 33.0801C290.754 35.9804 293.343 37.9436 296.204 37.9436C296.672 37.9436 297.151 37.8916 297.628 37.784L319.153 32.8039C321.166 32.3411 322.822 30.9187 323.582 29.004C324.343 27.0847 324.111 24.9144 322.961 23.2033L310.364 4.41192C308.432 1.53309 304.524 0.763609 301.638 2.6918C298.752 4.61999 297.978 8.51045 299.911 11.3983L301.03 13.0673C276.855 4.4478 251.509 0.0900879 225.498 0.0900879C189.406 0.0900879 154.926 8.36785 123.016 24.6911C119.925 26.2686 118.702 30.0515 120.287 33.1375C121.872 36.2235 125.662 37.4432 128.753 35.8656V35.8647ZM25.1456 326.955C26.2607 329.13 28.463 330.374 30.7488 330.374C31.7129 330.374 32.6941 330.15 33.6115 329.673C36.7043 328.095 37.9262 324.313 36.3403 321.227C20.9064 291.166 13.0802 258.681 13.0802 224.665C13.0802 200.038 17.2404 176.047 25.4655 153.171L26.0073 155.501C26.7908 158.881 30.1702 160.991 33.5522 160.201C36.9379 159.422 39.0458 156.051 38.2623 152.666L33.2764 131.186C32.8109 129.18 31.385 127.52 29.463 126.769C27.5411 126.004 25.3694 126.237 23.6514 127.387L4.82999 139.957C1.94213 141.886 1.1694 145.789 3.10123 148.667C5.03306 151.546 8.93984 152.316 11.8259 150.401L13.5026 149.277C4.86773 173.403 0.5 198.704 0.5 224.666C0.5 260.692 8.79338 295.101 25.1456 326.956V326.955ZM305.705 421.053C280.235 431.42 253.25 436.684 225.498 436.684C205.223 436.684 185.279 433.854 166.038 428.259L168.333 427.581C171.663 426.595 173.564 423.106 172.579 419.778C171.593 416.45 168.093 414.56 164.762 415.546L143.577 421.797C141.594 422.389 140.027 423.906 139.385 425.869C138.741 427.823 139.105 429.975 140.354 431.618L154.061 449.618C155.299 451.239 157.176 452.09 159.073 452.09C160.4 452.09 161.738 451.679 162.875 450.807C165.639 448.71 166.177 444.772 164.076 442.01L162.855 440.41C183.134 446.273 204.144 449.242 225.497 449.242C254.887 449.242 283.472 443.661 310.458 432.677C313.674 431.367 315.217 427.697 313.904 424.486C312.591 421.279 308.92 419.735 305.704 421.053H305.705ZM439.17 298.931L437.494 300.05C446.13 275.929 450.5 250.628 450.5 224.665C450.5 191.48 443.41 159.525 429.438 129.681C427.966 126.543 424.223 125.185 421.077 126.65C417.93 128.12 416.57 131.859 418.042 134.998C431.23 163.157 437.918 193.33 437.918 224.665C437.918 249.292 433.756 273.279 425.531 296.16L424.991 293.83C424.206 290.449 420.831 288.34 417.444 289.127C414.06 289.909 411.952 293.281 412.736 296.661L417.719 318.141C418.186 320.151 419.611 321.811 421.532 322.563C422.28 322.857 423.065 323 423.846 323C425.074 323 426.294 322.646 427.344 321.945L446.167 309.371C449.052 307.443 449.827 303.54 447.895 300.661C445.963 297.782 442.053 297.013 439.169 298.932L439.17 298.931Z" fill="white"/>
<path fill-rule="evenodd" clip-rule="evenodd" d="M350.025 226.093C350.025 294.94 294.108 350.753 225.13 350.753C156.153 350.753 100.235 294.94 100.235 226.093C100.235 157.245 156.153 101.433 225.13 101.433C294.108 101.433 350.025 157.245 350.025 226.093ZM186.925 261.224L159.908 277.031L159.904 277.034C157.351 275.16 154.228 274.221 151.061 274.378C147.895 274.535 144.88 275.778 142.526 277.896C140.171 280.014 138.62 282.879 138.136 286.006C137.651 289.132 138.262 292.33 139.866 295.06C141.47 297.789 143.968 299.882 146.938 300.987C149.909 302.091 153.171 302.138 156.172 301.121C159.174 300.104 161.732 298.084 163.415 295.402C165.098 292.721 165.802 289.542 165.409 286.402L192.426 270.589C195.085 272.542 198.359 273.477 201.651 273.222C204.943 272.968 208.033 271.541 210.359 269.202L235.673 279.146C235.731 281 236.165 282.823 236.948 284.506C237.732 286.188 238.848 287.695 240.23 288.935C241.612 290.175 243.232 291.123 244.991 291.722C246.75 292.32 248.612 292.558 250.466 292.419C252.319 292.28 254.125 291.768 255.775 290.914C257.425 290.06 258.884 288.882 260.066 287.45C261.247 286.018 262.126 284.362 262.649 282.582C263.172 280.802 263.329 278.934 263.109 277.092L289.905 261.627C292.448 263.515 295.565 264.47 298.731 264.331C301.898 264.191 304.919 262.966 307.285 260.862C309.652 258.758 311.218 255.903 311.721 252.78C312.224 249.657 311.632 246.456 310.045 243.717C308.458 240.979 305.974 238.871 303.011 237.749C300.048 236.626 296.787 236.559 293.78 237.557C290.772 238.555 288.202 240.558 286.502 243.228C284.803 245.898 284.078 249.071 284.45 252.213L257.655 267.681C254.996 265.707 251.713 264.756 248.409 265.003C245.104 265.249 242 266.677 239.665 269.024L214.352 259.08C214.293 257.222 213.858 255.396 213.071 253.71C212.285 252.025 211.164 250.517 209.777 249.276C208.39 248.036 206.765 247.089 205.001 246.494C203.237 245.898 201.37 245.666 199.513 245.811C197.656 245.956 195.849 246.475 194.199 247.338C192.549 248.2 191.092 249.388 189.915 250.829C188.738 252.27 187.866 253.934 187.352 255.721C186.838 257.507 186.693 259.38 186.925 261.224ZM224.131 120.47V126.167C217.95 126.279 212.052 127.562 206.657 129.821L204.367 124.602C210.464 122.036 217.137 120.584 224.131 120.47ZM205.057 130.534L202.769 125.319C197.245 127.861 192.229 131.316 187.912 135.496L191.938 139.522C195.758 135.839 200.185 132.788 205.057 130.534ZM177.346 174.702H171.649C171.759 181.496 173.141 187.983 175.574 193.939L180.815 191.706C178.675 186.436 177.454 180.704 177.346 174.702ZM175.574 153.714L180.815 155.947C178.675 161.216 177.454 166.949 177.346 172.951H171.649C171.759 166.157 173.141 159.67 175.574 153.714ZM181.504 193.313L176.264 195.546C178.826 201.274 182.366 206.469 186.675 210.919L190.701 206.893C186.902 202.955 183.777 198.368 181.504 193.313ZM187.912 212.157L191.938 208.13C195.758 211.814 200.185 214.864 205.057 217.118L202.769 222.333C197.245 219.791 192.229 216.336 187.912 212.157ZM258.072 139.522L262.098 135.496C257.782 131.316 252.765 127.861 247.242 125.319L244.953 130.534C249.826 132.788 254.253 135.839 258.072 139.522ZM268.506 154.339L273.746 152.106C271.184 146.379 267.644 141.183 263.336 136.733L259.31 140.759C263.108 144.699 266.233 149.286 268.506 154.339ZM278.361 172.951H272.665C272.556 166.949 271.336 161.216 269.196 155.947L274.437 153.714C276.87 159.67 278.251 166.158 278.361 172.951ZM245.645 124.602C239.547 122.036 232.873 120.584 225.881 120.47V126.167C232.06 126.279 237.958 127.562 243.355 129.821L245.645 124.602ZM224.131 227.182C217.137 227.069 210.464 225.617 204.367 223.05L206.657 217.831C212.053 220.09 217.951 221.373 224.131 221.485V227.182ZM190.701 140.759L186.675 136.733C182.366 141.184 178.826 146.379 176.264 152.106L181.504 154.339C183.777 149.286 186.902 144.699 190.701 140.759ZM225.881 227.182V221.485C232.06 221.373 237.958 220.09 243.355 217.831L245.645 223.05C239.547 225.616 232.874 227.068 225.881 227.182ZM269.196 191.705L274.437 193.938C276.869 187.982 278.251 181.495 278.361 174.701H272.665C272.556 180.704 271.336 186.436 269.196 191.705ZM263.336 210.919L259.31 206.893C263.108 202.955 266.233 198.368 268.506 193.313L273.746 195.546C271.184 201.274 267.644 206.468 263.336 210.919ZM244.953 217.118L247.242 222.333C252.766 219.791 257.782 216.336 262.098 212.157L258.072 208.13C254.253 211.814 249.826 214.864 244.953 217.118ZM187.593 173.836C187.593 153.201 204.381 136.414 225.015 136.414C245.649 136.414 262.437 153.201 262.437 173.836C262.437 194.471 245.649 211.258 225.015 211.258C204.381 211.258 187.593 194.471 187.593 173.836ZM190.349 173.835C190.349 192.951 205.899 208.501 225.015 208.501C244.13 208.501 259.681 192.952 259.681 173.836C259.681 154.72 244.13 139.17 225.015 139.17C205.899 139.17 190.349 154.72 190.349 173.835ZM270.947 173.836C270.947 148.509 250.342 127.904 225.015 127.904C199.688 127.904 179.083 148.509 179.083 173.836C179.083 199.163 199.688 219.768 225.015 219.768C250.342 219.768 270.947 199.163 270.947 173.836ZM225.015 213.007C203.415 213.007 185.843 195.434 185.843 173.835C185.843 152.236 203.415 134.664 225.015 134.664C246.615 134.664 264.187 152.237 264.187 173.836C264.187 195.435 246.614 213.007 225.015 213.007ZM225.28 206.172C243.403 206.172 258.094 191.48 258.094 173.357C258.094 155.234 243.403 140.543 225.28 140.543C207.157 140.543 192.465 155.234 192.465 173.357C192.465 191.48 207.157 206.172 225.28 206.172ZM242.22 190.213L245.108 185.21C245.807 183.995 245.807 182.485 245.108 181.27L241.859 175.645L237.213 183.726C237.043 184.018 236.731 184.2 236.39 184.2L225.405 184.189H225.401L215.028 184.178L210.636 191.78L239.487 191.792C240.61 191.792 241.658 191.184 242.22 190.213ZM245.104 166.206L241.035 173.273L235.843 182.303L227.048 182.291L241.851 156.648L245.1 162.258C245.803 163.477 245.806 164.987 245.104 166.206ZM208.993 190.831L223.792 165.2H214.99L209.805 174.218C209.805 174.222 209.801 174.222 209.801 174.222L205.744 181.278C205.041 182.496 205.041 184.007 205.747 185.222L208.993 190.831ZM240.209 155.699L235.821 163.302H214.444C214.102 163.302 213.791 163.484 213.62 163.78L208.982 171.842L205.74 166.213C205.038 164.995 205.038 163.484 205.74 162.269L208.629 157.27C209.191 156.295 210.238 155.691 211.362 155.691L240.209 155.699Z" fill="white"/>
</svg>
