<svg width="451" height="442" viewBox="0 0 451 442" fill="none" xmlns="http://www.w3.org/2000/svg">
<path fill-rule="evenodd" clip-rule="evenodd" d="M368.387 266.814V261.278C361.59 261.388 355.105 262.8 349.179 265.293L351.405 270.365C356.649 268.17 362.381 266.923 368.387 266.814ZM347.626 265.99L349.85 271.058C345.115 273.249 340.812 276.215 337.1 279.793L333.187 275.881C337.383 271.819 342.257 268.46 347.626 265.99ZM317.382 313.984H322.918C323.024 319.817 324.21 325.389 326.289 330.51L321.196 332.68C318.832 326.892 317.489 320.587 317.382 313.984ZM326.289 295.757L321.196 293.587C318.832 299.375 317.489 305.679 317.382 312.283H322.918C323.024 306.449 324.21 300.878 326.289 295.757ZM321.867 334.243L326.959 332.072C329.169 336.984 332.206 341.442 335.898 345.27L331.985 349.183C327.797 344.858 324.357 339.809 321.867 334.243ZM337.1 346.473L333.187 350.386C337.383 354.447 342.258 357.806 347.626 360.276L349.85 355.208C345.115 353.017 340.812 350.052 337.1 346.473ZM405.287 275.881L401.374 279.793C397.663 276.215 393.36 273.249 388.624 271.058L390.848 265.99C396.216 268.46 401.092 271.819 405.287 275.881ZM416.607 292.024L411.515 294.194C409.305 289.283 406.268 284.825 402.577 280.996L406.49 277.083C410.677 281.408 414.117 286.458 416.607 292.024ZM415.556 312.283H421.093C420.986 305.68 419.643 299.375 417.279 293.587L412.185 295.757C414.265 300.878 415.451 306.449 415.556 312.283ZM370.088 261.278C376.884 261.388 383.37 262.8 389.296 265.293L387.071 270.365C381.826 268.17 376.094 266.923 370.088 266.814V261.278ZM349.179 360.973C355.105 363.467 361.59 364.879 368.387 364.988V359.452C362.381 359.343 356.649 358.096 351.405 355.901L349.179 360.973ZM331.985 277.083L335.898 280.996C332.206 284.825 329.169 289.283 326.959 294.194L321.867 292.024C324.357 286.458 327.797 281.409 331.985 277.083ZM370.088 359.452V364.988C376.885 364.878 383.37 363.466 389.296 360.973L387.071 355.901C381.826 358.096 376.094 359.343 370.088 359.452ZM417.279 332.679L412.185 330.509C414.265 325.388 415.451 319.817 415.556 313.983H421.093C420.986 320.586 419.642 326.891 417.279 332.679ZM402.577 345.27L406.49 349.183C410.677 344.857 414.117 339.809 416.607 334.243L411.515 332.072C409.305 336.984 406.268 341.442 402.577 345.27ZM390.848 360.276L388.624 355.208C393.36 353.017 397.663 350.052 401.374 346.473L405.287 350.386C401.092 354.447 396.217 357.806 390.848 360.276ZM369.247 276.773C349.193 276.773 332.877 293.088 332.877 313.143C332.877 333.197 349.193 349.512 369.247 349.512C389.3 349.512 405.616 333.197 405.616 313.143C405.616 293.088 389.3 276.773 369.247 276.773ZM369.247 346.833C350.669 346.833 335.555 331.72 335.555 313.142C335.555 294.564 350.669 279.451 369.247 279.451C387.825 279.451 402.938 294.565 402.938 313.143C402.938 331.721 387.824 346.833 369.247 346.833ZM369.247 268.503C393.861 268.503 413.887 288.528 413.887 313.143C413.887 337.757 393.861 357.783 369.247 357.783C344.632 357.783 324.607 337.757 324.607 313.143C324.607 288.528 344.632 268.503 369.247 268.503ZM331.177 313.142C331.177 334.133 348.254 351.212 369.247 351.212C390.238 351.212 407.317 334.134 407.317 313.143C407.317 292.151 390.239 275.072 369.247 275.072C348.254 275.072 331.177 292.15 331.177 313.142ZM401.396 312.677C401.396 330.291 387.117 344.569 369.504 344.569C351.891 344.569 337.612 330.291 337.612 312.677C337.612 295.064 351.891 280.786 369.504 280.786C387.117 280.786 401.396 295.064 401.396 312.677ZM388.775 324.197L385.968 329.059C385.422 330.003 384.404 330.593 383.312 330.593L355.273 330.582L359.541 323.193L369.622 323.204H369.626L380.302 323.215C380.634 323.215 380.936 323.038 381.102 322.754L385.617 314.901L388.775 320.368C389.454 321.548 389.454 323.016 388.775 324.197ZM384.817 312.596L388.771 305.727C389.454 304.543 389.45 303.075 388.767 301.891L385.61 296.438L371.223 321.361L379.77 321.372L384.817 312.596ZM368.058 304.749L353.675 329.66L350.521 324.208C349.835 323.028 349.835 321.56 350.517 320.375L354.461 313.518C354.461 313.518 354.465 313.518 354.465 313.514L359.504 304.749H368.058ZM379.748 302.905L384.013 295.516L355.977 295.509C354.885 295.509 353.867 296.095 353.321 297.043L350.514 301.902C349.832 303.082 349.832 304.55 350.514 305.734L353.664 311.205L358.172 303.37C358.338 303.082 358.641 302.905 358.973 302.905H379.748Z" fill="white"/>
<path fill-rule="evenodd" clip-rule="evenodd" d="M324.157 138.081C322.593 139.645 322.145 141.869 322.988 143.908C323.832 145.956 325.73 147.221 327.937 147.221H346.648C349.593 147.221 351.983 149.612 351.983 152.574V219.019C357.468 218.079 363.093 217.551 368.85 217.551C374.606 217.551 380.231 218.043 385.716 219.019V152.574C385.716 149.612 388.133 147.221 391.068 147.221H409.78C411.969 147.221 413.867 145.947 414.711 143.908C415.563 141.869 415.115 139.654 413.568 138.081L372.638 97.1763C370.546 95.0845 367.153 95.0845 365.062 97.1763L324.157 138.081ZM150.362 33.9829C148.016 34.6069 145.748 35.3276 143.56 36.1538L140.967 22.4165C139.596 15.2358 139.798 8.13428 145.054 3.37939C149.264 -0.408692 155.293 -0.909668 160.074 2.13135L164.636 5.06689C168.819 7.72998 173.855 7.72998 178.039 5.06689L182.68 2.0874C186.837 -0.575684 191.873 -0.575684 196.057 2.0874L200.688 5.04932C204.846 7.7124 209.882 7.7124 214.065 5.04932L218.627 2.11377C223.408 -0.927246 229.437 -0.426269 233.647 3.36182C238.903 8.12549 239.105 15.2271 237.761 22.3989L236.39 29.5972H234.096C224.806 21.2563 211.604 17.5649 198.746 21.0278L150.362 33.9829ZM300.365 381.186C283.253 363.819 272.715 340.009 272.715 313.721C272.715 289.657 281.53 267.684 296.129 250.8C293.018 245.799 289.572 240.939 285.863 236.254C282.119 231.517 278.19 227.061 274.2 222.772C268.522 226.56 261.693 228.801 254.372 228.801H213.239C193.525 228.801 177.459 212.708 177.459 193.003C177.459 182.298 182.196 172.657 189.693 166.1C187.399 161.372 186.107 156.063 186.107 150.482C186.107 149.735 186.134 148.961 186.187 148.241H157.385C151.872 176.566 133.553 194.468 113.638 213.929C111.517 216.002 109.378 218.092 107.234 220.214C79.2588 247.874 61.2676 283.575 61.2676 320.744C61.2676 387.593 118.616 441.804 189.351 441.804C236.812 441.804 278.217 417.415 300.365 381.186ZM177.74 100.736L184.912 98.8198L190.071 118.156C191.021 121.619 192.436 124.853 194.281 127.771C192.761 129.608 191.416 131.603 190.291 133.721H161.894C170.568 125.073 176.369 113.568 177.74 100.736ZM259.206 99.6108L255.743 86.6821L245.346 47.9399C244.994 46.6392 244.599 45.3735 244.098 44.1255H263.012C274.719 44.1255 284.29 53.6968 284.29 65.4038C284.29 77.0933 274.719 86.6821 263.012 86.6821H274.596C286.276 86.6821 295.848 96.2534 295.848 107.934C295.848 119.641 286.276 129.212 274.596 129.212H263.012C274.719 129.212 284.29 138.784 284.29 150.491C284.29 162.171 274.719 171.743 263.012 171.743H254.363C266.07 171.743 275.642 181.34 275.642 193.021C275.642 204.728 266.07 214.299 254.363 214.299H213.23C201.523 214.299 191.952 204.728 191.952 193.021C191.952 181.332 201.523 171.743 213.23 171.743H221.879C210.189 171.743 200.601 162.171 200.601 150.491C200.601 145.982 202.024 141.798 204.441 138.335C212.791 144.04 223.479 146.228 233.894 143.442C242.366 141.174 249.345 135.962 254.003 129.212C259.777 120.836 262.019 110.096 259.206 99.6108ZM135.184 166.733C129.611 176.524 121.71 185.445 113.413 193.838C110.17 193.267 106.856 192.968 103.358 192.977H91.3789V69.8511H99.7988C111.857 69.8511 122.193 66.52 131.984 59.5151L136.273 56.4478C141.925 52.4136 147.409 49.8208 154.133 48.0278L202.49 35.0464C215.041 31.7065 227.996 39.1772 231.362 51.7104L236.267 70.0444L245.179 103.364C248.22 114.649 241.443 126.382 230.158 129.397C218.847 132.438 207.14 125.662 204.099 114.376L195.178 81.0396L163.537 89.5122V94.8472C163.537 117.294 145.177 135.233 123.151 135.233H120.638C117.148 135.233 114.283 138.098 114.283 141.587V143.407C114.283 146.922 117.148 149.761 120.638 149.761H123.151C130.147 149.761 136.854 148.443 143.006 146.052C141.564 153.083 139.042 159.983 135.184 166.733ZM76.8418 58.1353V199.147C76.8418 204.746 72.2539 209.307 66.6729 209.316H10.6689C5.08789 209.316 0.5 204.754 0.5 199.147V58.1353C0.5 52.5278 5.08789 47.9399 10.6689 47.9487H66.6729C72.2539 47.9487 76.8418 52.5278 76.8418 58.1353ZM368.858 395.336C413.955 395.336 450.5 358.792 450.5 313.721C450.5 268.625 413.946 232.08 368.858 232.08C323.788 232.08 287.217 268.625 287.217 313.721C287.217 358.792 323.788 395.336 368.858 395.336ZM368.858 257.963C399.655 257.963 424.59 282.924 424.59 313.721C424.59 344.492 399.646 369.453 368.858 369.453C338.088 369.453 313.127 344.492 313.127 313.721C313.127 282.924 338.088 257.963 368.858 257.963ZM192.79 303.288H214.395C217.26 303.288 220.008 304.427 222.034 306.453C224.06 308.478 225.198 311.226 225.198 314.091C225.198 316.956 224.06 319.704 222.034 321.73C220.008 323.756 217.26 324.894 214.395 324.894L192.79 324.511V346.5C192.79 349.365 191.652 352.112 189.626 354.138C187.6 356.164 184.852 357.302 181.987 357.302C179.122 357.302 176.374 356.164 174.348 354.138C172.322 352.112 171.184 349.365 171.184 346.5L171.568 324.511L149.579 324.894C146.713 324.894 143.966 323.756 141.94 321.73C139.914 319.704 138.776 316.956 138.776 314.091C138.776 311.226 139.914 308.478 141.94 306.453C143.966 304.427 146.713 303.288 149.579 303.288H171.568L171.184 281.683C171.184 278.818 172.322 276.07 174.348 274.044C176.374 272.018 179.122 270.88 181.987 270.88C184.852 270.88 187.6 272.018 189.626 274.044C191.652 276.07 192.79 278.818 192.79 281.683V303.288Z" fill="white"/>
</svg>
