<svg width="493" height="451" viewBox="0 0 493 451" fill="none" xmlns="http://www.w3.org/2000/svg">
<path fill-rule="evenodd" clip-rule="evenodd" d="M46.8889 17.7883V12.8007C40.7659 12.9003 34.9233 14.1721 29.5848 16.4184L31.5898 20.9877C36.3138 19.0103 41.4776 17.8864 46.8889 17.7883ZM28.1858 17.0459L30.1892 21.6121C25.9234 23.5857 22.0474 26.2572 18.7032 29.4811L15.1782 25.9561C18.9576 22.297 23.3491 19.2715 28.1858 17.0459ZM0.939453 60.2826H5.92704C6.02204 65.5375 7.09081 70.5566 8.96402 75.1703L4.3756 77.1255C2.24573 71.9111 1.03599 66.2309 0.939453 60.2826ZM8.96402 43.8625L4.3756 41.9073C2.24573 47.1217 1.03599 52.8011 0.939453 58.7502H5.92704C6.02204 53.4944 7.09081 48.4754 8.96402 43.8625ZM4.97993 78.5329L9.56759 76.5777C11.558 81.0029 14.2939 85.0191 17.6197 88.4675L14.0947 91.9925C10.3222 88.0959 7.22319 83.5473 4.97993 78.5329ZM18.7032 89.5508L15.1782 93.0758C18.9576 96.7349 23.3499 99.7604 28.1858 101.986L30.1892 97.4198C25.9234 95.4462 22.0474 92.7755 18.7032 89.5508ZM80.1309 25.9561L76.6059 29.4811C73.2624 26.2572 69.3858 23.5857 65.1199 21.6121L67.1233 17.0459C71.9592 19.2715 76.3515 22.297 80.1309 25.9561ZM90.3291 40.4991L85.7414 42.4543C83.751 38.0298 81.0151 34.0137 77.6893 30.5645L81.2143 27.0395C84.9868 30.9361 88.0858 35.4847 90.3291 40.4991ZM89.3823 58.7502H94.3699C94.2734 52.8018 93.0636 47.1217 90.9338 41.9073L86.3453 43.8625C88.2186 48.4754 89.2873 53.4944 89.3823 58.7502ZM48.4212 12.8007C54.5434 12.9003 60.386 14.1721 65.7253 16.4184L63.7203 20.9877C58.9955 19.0103 53.8317 17.8864 48.4212 17.7883V12.8007ZM29.5848 102.613C34.9233 104.861 40.7659 106.132 46.8889 106.231V101.244C41.4784 101.145 36.3146 100.022 31.5898 98.0441L29.5848 102.613ZM14.0947 27.0395L17.6197 30.5645C14.2939 34.0137 11.558 38.0298 9.56759 42.4543L4.97993 40.4991C7.22319 35.4847 10.3222 30.9369 14.0947 27.0395ZM48.4212 101.244V106.231C54.5442 106.132 60.3868 104.86 65.7253 102.613L63.7203 98.0441C58.9955 100.022 53.8317 101.145 48.4212 101.244ZM90.9338 77.1247L86.3453 75.1695C88.2186 70.5565 89.2873 65.5375 89.3823 60.2818H94.3699C94.2734 66.2301 93.0629 71.9103 90.9338 77.1247ZM77.6893 88.4675L81.2143 91.9925C84.9868 88.0951 88.0858 83.5473 90.3291 78.5329L85.7414 76.5777C83.751 81.0029 81.0151 85.0191 77.6893 88.4675ZM67.1233 101.986L65.1199 97.4198C69.3858 95.4462 73.2624 92.7755 76.6059 89.5508L80.1309 93.0758C76.3515 96.7349 71.96 99.7604 67.1233 101.986ZM47.6631 26.7605C29.5974 26.7605 14.899 41.4582 14.899 59.5246C14.899 77.5911 29.5974 92.2888 47.6631 92.2888C65.7287 92.2888 80.4271 77.5911 80.4271 59.5246C80.4271 41.4582 65.7287 26.7605 47.6631 26.7605ZM47.6631 89.8754C30.9267 89.8754 17.3116 76.2603 17.3116 59.5238C17.3116 42.7874 30.9267 29.173 47.6631 29.173C64.3994 29.173 78.0145 42.7882 78.0145 59.5246C78.0145 76.261 64.3987 89.8754 47.6631 89.8754ZM47.6632 19.3097C69.8377 19.3097 87.878 37.3501 87.878 59.5246C87.878 81.6992 69.8377 99.7396 47.6632 99.7396C25.4888 99.7396 7.44846 81.6992 7.44846 59.5246C7.44846 37.3501 25.4888 19.3097 47.6632 19.3097ZM13.3669 59.5239C13.3669 78.4346 28.7518 93.8203 47.6632 93.8203C66.5739 93.8203 81.9596 78.4354 81.9596 59.5246C81.9596 40.6139 66.5747 25.2282 47.6632 25.2282C28.7518 25.2282 13.3669 40.6131 13.3669 59.5239ZM76.6253 59.1055C76.6253 74.9728 63.7623 87.8359 47.895 87.8359C32.0277 87.8359 19.1647 74.9728 19.1647 59.1055C19.1647 43.2381 32.0277 30.3751 47.895 30.3751C63.7623 30.3751 76.6253 43.2381 76.6253 59.1055ZM65.2553 69.483L62.7263 73.863C62.2345 74.7138 61.3173 75.2455 60.3336 75.2455L35.074 75.2355L38.9189 68.5791L48.0012 68.5891H48.0046L57.6219 68.5991C57.921 68.5991 58.1935 68.4395 58.343 68.1837L62.4106 61.1085L65.2553 66.0335C65.8668 67.097 65.8668 68.4196 65.2553 69.483ZM61.6895 59.0317L65.2519 52.8439C65.8667 51.7772 65.8634 50.4545 65.2486 49.3878L62.404 44.4761L49.4435 66.9277L57.1433 66.9377L61.6895 59.0317ZM46.5921 51.9632L33.6349 74.4048L30.7936 69.4931C30.1755 68.4297 30.1755 67.107 30.7903 66.0403L34.3428 59.8624C34.3428 59.8624 34.344 59.8624 34.345 59.8617C34.3456 59.8612 34.3461 59.8604 34.3461 59.8591L38.8856 51.9632H46.5921ZM57.1241 50.3015L60.9657 43.6451L35.7094 43.6384C34.7257 43.6384 33.8085 44.1668 33.3167 45.0209L30.7877 49.3976C30.1729 50.461 30.1729 51.7836 30.7877 52.8504L33.6257 57.7787L37.6867 50.7202C37.8362 50.461 38.1087 50.3015 38.4078 50.3015H57.1241Z" fill="black"/>
<path d="M91.6013 155.439V173.156H65.0255C57.9836 173.135 51.2362 170.328 46.2568 165.349C41.2774 160.369 38.4707 153.622 38.4497 146.58V119.118C41.3625 119.729 44.3323 120.026 47.3083 120.004C50.2843 120.026 53.2541 119.729 56.1669 119.118V146.58C56.1669 148.929 57.1002 151.183 58.7615 152.844C60.4228 154.505 62.676 155.439 65.0255 155.439H91.6013Z" fill="black"/>
<path d="M30.1892 355.108L28.1858 350.541C23.3491 352.767 18.9576 355.793 15.1782 359.452L18.7032 362.977C22.0474 359.753 25.9234 357.081 30.1892 355.108Z" fill="black"/>
<path d="M5.92704 393.778H0.939453C1.03599 399.727 2.24573 405.407 4.3756 410.621L8.96402 408.666C7.09081 404.052 6.02204 399.033 5.92704 393.778Z" fill="black"/>
<path d="M8.96402 377.358L4.3756 375.403C2.24573 380.617 1.03599 386.297 0.939453 392.246H5.92704C6.02204 386.99 7.09081 381.971 8.96402 377.358Z" fill="black"/>
<path d="M9.56759 410.073L4.97993 412.029C7.22319 417.043 10.3222 421.592 14.0947 425.488L17.6197 421.963C14.2939 418.515 11.558 414.499 9.56759 410.073Z" fill="black"/>
<path d="M18.7032 423.046L15.1782 426.571C18.9576 430.231 23.3499 433.256 28.1858 435.482L30.1892 430.915C25.9234 428.942 22.0474 426.271 18.7032 423.046Z" fill="black"/>
<path d="M76.6059 362.977L80.1309 359.452C76.3515 355.793 71.9592 352.767 67.1233 350.541L65.1199 355.108C69.3858 357.081 73.2624 359.753 76.6059 362.977Z" fill="black"/>
<path d="M46.8889 351.284V346.296C40.7659 346.396 34.9233 347.668 29.5848 349.914L31.5898 354.483C36.3138 352.506 41.4776 351.382 46.8889 351.284Z" fill="black"/>
<path d="M85.7414 375.95L90.3291 373.995C88.0858 368.98 84.9868 364.432 81.2143 360.535L77.6893 364.06C81.0151 367.509 83.751 371.525 85.7414 375.95Z" fill="black"/>
<path d="M89.3823 392.246H94.3699C94.2734 386.297 93.0636 380.617 90.9338 375.403L86.3453 377.358C88.2186 381.971 89.2873 386.99 89.3823 392.246Z" fill="black"/>
<path d="M65.7253 349.914C60.386 347.668 54.5434 346.396 48.4212 346.296V351.284C53.8317 351.382 58.9955 352.506 63.7203 354.483L65.7253 349.914Z" fill="black"/>
<path d="M29.5848 436.109C34.9233 438.356 40.7659 439.628 46.8889 439.727V434.739C41.4784 434.641 36.3146 433.517 31.5898 431.54L29.5848 436.109Z" fill="black"/>
<path d="M17.6197 364.06L14.0947 360.535C10.3222 364.433 7.22319 368.98 4.97993 373.995L9.56759 375.95C11.558 371.525 14.2939 367.509 17.6197 364.06Z" fill="black"/>
<path d="M48.4212 434.739V439.727C54.5442 439.627 60.3868 438.355 65.7253 436.109L63.7203 431.54C58.9955 433.517 53.8317 434.641 48.4212 434.739Z" fill="black"/>
<path d="M86.3453 408.665L90.9338 410.62C93.0629 405.406 94.2734 399.726 94.3699 393.777H89.3823C89.2873 399.033 88.2186 404.052 86.3453 408.665Z" fill="black"/>
<path d="M77.6893 421.963L81.2143 425.488C84.9868 421.591 88.0858 417.043 90.3291 412.029L85.7414 410.073C83.751 414.499 81.0151 418.515 77.6893 421.963Z" fill="black"/>
<path d="M65.1199 430.915L67.1233 435.482C71.96 433.256 76.3515 430.231 80.1309 426.571L76.6059 423.046C73.2624 426.271 69.3858 428.942 65.1199 430.915Z" fill="black"/>
<path d="M87.878 393.02C87.878 370.846 69.8377 352.805 47.6632 352.805C25.4888 352.805 7.44846 370.846 7.44846 393.02C7.44846 415.195 25.4888 433.235 47.6632 433.235C69.8377 433.235 87.878 415.195 87.878 393.02ZM47.6632 427.316C28.7518 427.316 13.3669 411.93 13.3669 393.02C13.3669 374.109 28.7518 358.724 47.6632 358.724C66.5747 358.724 81.9596 374.11 81.9596 393.02C81.9596 411.931 66.5739 427.316 47.6632 427.316Z" fill="black"/>
<path fill-rule="evenodd" clip-rule="evenodd" d="M47.1382 360.616C64.9673 360.616 79.4207 375.069 79.4207 392.899C79.4207 410.728 64.9673 425.181 47.1382 425.181C29.3091 425.181 14.8557 410.728 14.8557 392.899C14.8557 375.069 29.3091 360.616 47.1382 360.616ZM61.7656 383.961L47.3325 369.561L32.8996 384.008L38.2335 389.343L47.3325 380.188L56.4316 389.296L61.7656 383.961ZM34.4173 393.116L29.1324 387.779L23.8004 393.116L29.1342 398.405L34.4173 393.116ZM52.6644 393.068L47.3326 387.78H47.3325L42.0004 393.116L47.3325 398.405L52.6644 393.068ZM70.9096 393.116L65.5325 387.779L60.2475 393.116L65.5796 398.453L70.9096 393.116ZM61.7658 402.223L56.4316 396.888L47.3326 406.043L38.2336 396.888L32.8993 402.225L47.3325 416.67L61.7658 402.223Z" fill="black"/>
<path d="M91.6013 279.788V297.505H65.0255C62.676 297.505 60.4228 298.439 58.7615 300.1C57.1002 301.761 56.1669 304.014 56.1669 306.364V333.826C53.2541 333.215 50.2843 332.918 47.3083 332.94C44.3323 332.918 41.3625 333.215 38.4497 333.826V306.364C38.4707 299.322 41.2774 292.575 46.2568 287.595C51.2362 282.616 57.9836 279.809 65.0255 279.788H91.6013Z" fill="black"/>
<path d="M427.88 21.6121L425.876 17.0459C421.04 19.2715 416.648 22.297 412.869 25.9561L416.394 29.4811C419.738 26.2572 423.614 23.5857 427.88 21.6121Z" fill="black"/>
<path d="M403.617 60.2826H398.63C398.726 66.2309 399.936 71.9111 402.066 77.1255L406.654 75.1703C404.781 70.5566 403.712 65.5376 403.617 60.2826Z" fill="black"/>
<path d="M406.654 43.8625L402.066 41.9073C399.936 47.1217 398.726 52.8011 398.63 58.7502H403.617C403.712 53.4944 404.781 48.4754 406.654 43.8625Z" fill="black"/>
<path d="M407.258 76.5777L402.67 78.5329C404.914 83.5473 408.013 88.0959 411.785 91.9925L415.31 88.4675C411.984 85.0191 409.248 81.0029 407.258 76.5777Z" fill="black"/>
<path d="M416.394 89.5508L412.869 93.0758C416.648 96.7349 421.04 99.7604 425.876 101.986L427.88 97.4198C423.614 95.4462 419.738 92.7755 416.394 89.5508Z" fill="black"/>
<path d="M474.296 29.4811L477.821 25.9561C474.042 22.297 469.65 19.2715 464.814 17.0459L462.81 21.6121C467.076 23.5857 470.953 26.2572 474.296 29.4811Z" fill="black"/>
<path d="M444.579 17.7883V12.8007C438.456 12.9003 432.614 14.1721 427.275 16.4184L429.28 20.9877C434.004 19.0103 439.168 17.8864 444.579 17.7883Z" fill="black"/>
<path d="M483.432 42.4543L488.02 40.4991C485.776 35.4847 482.677 30.9361 478.905 27.0395L475.38 30.5645C478.706 34.0137 481.441 38.0298 483.432 42.4543Z" fill="black"/>
<path d="M487.073 58.7502H492.06C491.964 52.8018 490.754 47.1217 488.624 41.9073L484.036 43.8625C485.909 48.4754 486.978 53.4944 487.073 58.7502Z" fill="black"/>
<path d="M463.416 16.4184C458.076 14.1721 452.234 12.9003 446.112 12.8007V17.7883C451.522 17.8864 456.686 19.0103 461.411 20.9877L463.416 16.4184Z" fill="black"/>
<path d="M427.275 102.613C432.614 104.861 438.456 106.132 444.579 106.231V101.244C439.169 101.145 434.005 100.022 429.28 98.0441L427.275 102.613Z" fill="black"/>
<path d="M415.31 30.5645L411.785 27.0395C408.013 30.9369 404.914 35.4847 402.67 40.4991L407.258 42.4543C409.248 38.0298 411.984 34.0137 415.31 30.5645Z" fill="black"/>
<path d="M446.112 101.244V106.231C452.235 106.132 458.077 104.86 463.416 102.613L461.411 98.0441C456.686 100.022 451.522 101.145 446.112 101.244Z" fill="black"/>
<path d="M484.036 75.1695L488.624 77.1247C490.753 71.9103 491.964 66.2301 492.06 60.2818H487.073C486.978 65.5375 485.909 70.5565 484.036 75.1695Z" fill="black"/>
<path d="M475.38 88.4675L478.905 91.9925C482.677 88.0951 485.776 83.5473 488.02 78.5329L483.432 76.5777C481.441 81.0029 478.706 85.0191 475.38 88.4675Z" fill="black"/>
<path d="M462.81 97.4198L464.814 101.986C469.65 99.7604 474.042 96.7349 477.821 93.0758L474.296 89.5508C470.953 92.7755 467.076 95.4462 462.81 97.4198Z" fill="black"/>
<path d="M485.568 59.5246C485.568 37.3501 467.528 19.3097 445.354 19.3097C423.179 19.3097 405.139 37.3501 405.139 59.5246C405.139 81.6992 423.179 99.7396 445.354 99.7396C467.528 99.7396 485.568 81.6992 485.568 59.5246ZM445.354 93.8203C426.442 93.8203 411.057 78.4346 411.057 59.5239C411.057 40.6131 426.442 25.2282 445.354 25.2282C464.265 25.2282 479.65 40.6139 479.65 59.5246C479.65 78.4354 464.264 93.8203 445.354 93.8203Z" fill="black"/>
<path fill-rule="evenodd" clip-rule="evenodd" d="M444.829 27.1204C462.658 27.1204 477.111 41.5738 477.111 59.403C477.111 77.2322 462.658 91.6856 444.829 91.6856C427 91.6856 412.546 77.2322 412.546 59.403C412.546 41.5738 427 27.1204 444.829 27.1204ZM459.456 50.4652L445.023 36.0655L430.59 50.5122L435.924 55.8472L445.023 46.6925L454.122 55.8002L459.456 50.4652ZM432.108 59.6199L426.823 54.2829L421.491 59.6199L426.825 64.9098L432.108 59.6199ZM450.355 59.5728L445.023 54.2848H445.023L439.691 59.6199L445.023 64.9098L450.355 59.5728ZM468.6 59.6199L463.223 54.2829L457.938 59.6199L463.27 64.957L468.6 59.6199ZM459.456 68.7276L454.122 63.3925L445.023 72.5472L435.924 63.3925L430.59 68.7295L445.023 83.1745L459.456 68.7276Z" fill="black"/>
<path d="M454.481 119.118V146.58C454.46 153.622 451.653 160.369 446.674 165.349C441.694 170.328 434.947 173.135 427.905 173.156H401.329V155.439H427.905C430.254 155.439 432.508 154.505 434.169 152.844C435.83 151.183 436.763 148.929 436.763 146.58V119.118C442.61 120.299 448.634 120.299 454.481 119.118Z" fill="black"/>
<path fill-rule="evenodd" clip-rule="evenodd" d="M444.579 350.798V345.81C438.456 345.91 432.614 347.182 427.275 349.428L429.28 353.998C434.004 352.02 439.168 350.896 444.579 350.798ZM425.876 350.056L427.88 354.622C423.614 356.596 419.738 359.267 416.394 362.491L412.869 358.966C416.648 355.307 421.04 352.281 425.876 350.056ZM398.63 393.294H403.617C403.712 398.549 404.781 403.568 406.654 408.182L402.066 410.137C399.936 404.923 398.726 399.242 398.63 393.294ZM406.654 376.873L402.066 374.918C399.936 380.132 398.726 385.812 398.63 391.761H403.617C403.712 386.506 404.781 381.486 406.654 376.873ZM402.67 411.545L407.258 409.59C409.248 414.015 411.984 418.031 415.31 421.48L411.785 425.005C408.013 421.108 404.914 416.56 402.67 411.545ZM416.394 422.563L412.869 426.088C416.648 429.748 421.04 432.773 425.876 434.999L427.88 430.433C423.614 428.459 419.738 425.788 416.394 422.563ZM477.821 358.966L474.296 362.491C470.953 359.267 467.076 356.596 462.81 354.622L464.814 350.056C469.65 352.281 474.042 355.307 477.821 358.966ZM488.02 373.51L483.432 375.465C481.441 371.04 478.706 367.024 475.38 363.575L478.905 360.05C482.677 363.946 485.776 368.495 488.02 373.51ZM487.073 391.761H492.06C491.964 385.813 490.754 380.132 488.624 374.918L484.036 376.873C485.909 381.486 486.978 386.506 487.073 391.761ZM446.112 345.81C452.234 345.91 458.076 347.182 463.416 349.428L461.411 353.998C456.686 352.02 451.522 350.896 446.112 350.798V345.81ZM427.275 435.626C432.614 437.874 438.456 439.145 444.579 439.244V434.256C439.169 434.158 434.005 433.034 429.28 431.057L427.275 435.626ZM411.785 360.05L415.31 363.575C411.984 367.024 409.248 371.04 407.258 375.465L402.67 373.51C404.914 368.495 408.013 363.947 411.785 360.05ZM446.112 434.256V439.244C452.235 439.145 458.077 437.873 463.416 435.626L461.411 431.057C456.686 433.034 451.522 434.158 446.112 434.256ZM488.624 410.137L484.036 408.181C485.909 403.568 486.978 398.549 487.073 393.293H492.06C491.964 399.242 490.753 404.922 488.624 410.137ZM475.38 421.48L478.905 425.005C482.677 421.108 485.776 416.56 488.02 411.545L483.432 409.59C481.441 414.015 478.706 418.031 475.38 421.48ZM464.814 434.999L462.81 430.433C467.076 428.459 470.953 425.788 474.296 422.563L477.821 426.088C474.042 429.748 469.65 432.773 464.814 434.999ZM445.354 359.771C427.288 359.771 412.589 374.469 412.589 392.536C412.589 410.603 427.288 425.301 445.354 425.301C463.419 425.301 478.118 410.603 478.118 392.536C478.118 374.469 463.419 359.771 445.354 359.771ZM445.354 422.888C428.617 422.888 415.002 409.272 415.002 392.535C415.002 375.798 428.617 362.183 445.354 362.183C462.09 362.183 475.705 375.799 475.705 392.536C475.705 409.273 462.089 422.888 445.354 422.888ZM445.354 352.32C467.528 352.32 485.568 370.361 485.568 392.536C485.568 414.711 467.528 432.752 445.354 432.752C423.179 432.752 405.139 414.711 405.139 392.536C405.139 370.361 423.179 352.32 445.354 352.32ZM411.057 392.535C411.057 411.447 426.442 426.833 445.354 426.833C464.264 426.833 479.65 411.447 479.65 392.536C479.65 373.624 464.265 358.238 445.354 358.238C426.442 358.238 411.057 373.624 411.057 392.535ZM474.316 392.117C474.316 407.985 461.453 420.848 445.585 420.848C429.718 420.848 416.855 407.985 416.855 392.117C416.855 376.249 429.718 363.385 445.585 363.385C461.453 363.385 474.316 376.249 474.316 392.117ZM462.946 402.495L460.417 406.875C459.925 407.726 459.008 408.257 458.024 408.257L432.764 408.247L436.609 401.591L445.692 401.601H445.695L455.312 401.611C455.611 401.611 455.884 401.451 456.033 401.195L460.101 394.12L462.946 399.045C463.557 400.109 463.557 401.431 462.946 402.495ZM459.38 392.043L462.942 385.855C463.557 384.788 463.554 383.465 462.939 382.399L460.094 377.487L447.134 399.939L454.834 399.949L459.38 392.043ZM444.283 384.974L431.325 407.417L428.484 402.505C427.866 401.441 427.866 400.119 428.481 399.052L432.033 392.874C432.033 392.874 432.034 392.874 432.035 392.873C432.036 392.872 432.037 392.872 432.037 392.87L436.576 384.974H444.283ZM454.815 383.312L458.656 376.656L433.4 376.649C432.416 376.649 431.499 377.178 431.007 378.032L428.478 382.408C427.863 383.472 427.863 384.795 428.478 385.861L431.316 390.79L435.377 383.731C435.527 383.472 435.799 383.312 436.098 383.312H454.815Z" fill="black"/>
<path d="M454.481 305.878V333.34C448.634 332.158 442.61 332.158 436.763 333.34V305.878C436.763 303.529 435.83 301.275 434.169 299.614C432.508 297.953 430.254 297.019 427.905 297.019H401.329V279.302H427.905C434.947 279.323 441.694 282.13 446.674 287.109C451.653 292.089 454.46 298.836 454.481 305.878Z" fill="black"/>
<path fill-rule="evenodd" clip-rule="evenodd" d="M134.241 0.705811C123.549 0.705811 114.882 9.3728 114.882 20.064V431.348C114.882 442.039 123.549 450.706 134.241 450.706H359.161C369.852 450.706 378.519 442.039 378.519 431.348V20.064C378.519 9.37277 369.852 0.705811 359.161 0.705811H134.241ZM144.678 18.8876C138.264 18.8876 133.063 24.0877 133.063 30.5025V420.909C133.063 427.324 138.264 432.524 144.678 432.524H348.721C355.136 432.524 360.336 427.324 360.336 420.909V30.5025C360.336 24.0877 355.136 18.8876 348.721 18.8876H144.678Z" fill="black"/>
<path d="M132.758 350.384C132.758 358.72 147.13 363.082 161.329 363.082C175.527 363.082 189.9 358.72 189.9 350.384C189.9 333.712 132.758 333.712 132.758 350.384Z" fill="black"/>
<path d="M161.329 369.43C151.054 369.43 132.758 366.42 132.758 356.732V363.081C132.758 371.399 147.107 375.78 161.329 375.78C175.551 375.78 189.9 371.399 189.9 363.081V356.732C189.9 366.411 171.69 369.43 161.329 369.43Z" fill="black"/>
<path d="M161.329 394.827C147.107 394.827 132.758 390.446 132.758 382.129V388.478C132.758 396.795 147.107 401.176 161.329 401.176C175.551 401.176 189.9 396.795 189.9 388.478V382.129C189.9 390.446 175.551 394.827 161.329 394.827Z" fill="black"/>
<path d="M161.329 407.525C147.107 407.525 132.758 403.144 132.758 394.826V401.176C132.758 409.493 147.107 413.874 161.329 413.874C175.551 413.874 189.9 409.493 189.9 401.176V394.826C189.9 403.144 175.551 407.525 161.329 407.525Z" fill="black"/>
<path d="M161.329 420.221C147.107 420.221 132.758 415.84 132.758 407.523V413.872C132.758 422.189 147.107 426.57 161.329 426.57C175.551 426.57 189.9 422.189 189.9 413.872V407.523C189.9 415.84 175.551 420.221 161.329 420.221Z" fill="black"/>
<path d="M161.329 432.92C147.107 432.92 132.758 428.539 132.758 420.222V426.571C132.758 434.888 147.107 439.269 161.329 439.269C175.551 439.269 189.9 434.888 189.9 426.571V420.222C189.9 428.539 175.551 432.92 161.329 432.92Z" fill="black"/>
<path d="M161.329 382.128C147.107 382.128 132.758 377.747 132.758 369.429V375.778C132.758 385.467 151.054 388.477 161.329 388.477C173.646 388.477 186.027 385.175 189.138 378.953C189.645 378.001 189.9 376.921 189.9 375.778V369.429C189.9 377.747 175.551 382.128 161.329 382.128Z" fill="black"/>
<path d="M212.123 432.92C206.279 432.92 200.471 432.14 195.589 430.692C194.957 432.667 193.865 434.428 192.413 435.994C197.788 438.156 204.967 439.269 212.123 439.269C226.345 439.269 241.117 434.888 241.117 426.571V420.222C241.117 428.539 226.345 432.92 212.123 432.92Z" fill="black"/>
<path d="M212.12 407.525C206.538 407.525 200.987 406.813 196.247 405.492C196.247 409.06 196.247 408.293 196.247 411.861C200.988 413.179 206.547 413.875 212.12 413.875C226.342 413.875 241.114 409.494 241.114 401.176V394.827C241.114 404.515 222.395 407.525 212.12 407.525Z" fill="black"/>
<path d="M212.12 420.224C206.521 420.224 200.998 419.469 196.247 418.134C196.247 420.487 196.247 419.062 196.247 424.515C200.98 425.851 206.524 426.573 212.12 426.573C222.481 426.573 241.114 423.553 241.114 413.875V407.526C241.114 415.843 226.342 420.224 212.12 420.224Z" fill="black"/>
<path d="M196.247 377.94V399.07C200.989 400.418 206.513 401.175 212.12 401.175C226.318 401.175 241.114 396.813 241.114 388.477C241.114 376.87 213.061 373.378 196.247 377.94Z" fill="black"/>
<path d="M127.173 276.389C127.173 275.975 128.656 274.083 135.917 272.399C142.273 270.921 150.753 270.11 159.79 270.11C164.434 270.1 169.074 270.331 173.693 270.802C173.019 274.5 172.937 278.281 173.45 282.004C168.911 282.461 164.352 282.684 159.79 282.673C150.753 282.673 142.273 281.86 135.917 280.383C128.656 278.698 127.173 276.802 127.173 276.389ZM128.123 285.838C133.553 290.547 157.121 292.759 175.699 290.43C175.027 288.772 174.482 287.065 174.068 285.325C169.325 285.813 164.559 286.053 159.791 286.041C150.503 286.041 141.754 285.197 135.155 283.663C131.694 282.86 129.042 281.931 127.173 280.867V284.255C127.173 284.443 127.173 285.01 128.123 285.838ZM128.286 294.529C135.119 300.027 163.411 301.291 180.15 298.314C179.043 296.833 178.053 295.268 177.19 293.632C171.386 294.377 165.54 294.74 159.689 294.719C155.755 294.719 151.808 294.565 148.049 294.257C142.236 293.78 132.254 292.514 127.172 289.298V292.81C127.173 293.357 127.545 293.933 128.285 294.529H128.286ZM149.82 308.124C153.583 306.082 157.736 304.861 162.006 304.545C166.276 304.228 170.565 304.822 174.588 306.287C176.769 304.596 180.463 303.409 183.933 302.605C183.484 302.17 183.046 301.724 182.62 301.266C176.368 302.564 168.068 303.271 159.62 303.271C156.904 303.271 154.177 303.199 151.496 303.05C144.7 302.67 132.882 301.494 127.173 297.86V301.366C127.173 303.932 134.95 307.078 149.82 308.124V308.124ZM140.758 315.668C142.12 313.991 143.656 312.463 145.342 311.111C140.094 310.558 135.583 309.703 132.139 308.605C130.397 308.085 128.728 307.346 127.173 306.405V309.92C127.173 311.712 131.381 314.165 140.758 315.668ZM127.173 314.959V318.47C127.173 319.822 129.57 321.781 136.218 323.34C136.871 321.733 137.663 320.184 138.582 318.713C133.446 317.782 129.642 316.531 127.173 314.959ZM127.173 327.024C127.173 328.191 129.048 329.893 134.185 331.365C134.366 329.733 134.678 328.119 135.121 326.538C131.699 325.713 129.049 324.703 127.173 323.506V327.024ZM176.485 277.173C176.485 259.521 190.847 245.159 208.499 245.159C226.146 245.159 240.504 259.521 240.504 277.173C240.504 294.82 226.147 309.177 208.5 309.177C190.847 309.177 176.485 294.82 176.485 277.173H176.485ZM181.263 277.173C181.263 282.559 182.861 287.824 185.854 292.303C188.846 296.781 193.1 300.272 198.076 302.333C203.053 304.394 208.528 304.933 213.811 303.882C219.094 302.831 223.946 300.237 227.755 296.429C231.564 292.62 234.158 287.767 235.209 282.485C236.259 277.202 235.72 271.726 233.659 266.75C231.598 261.773 228.108 257.52 223.629 254.527C219.151 251.534 213.886 249.937 208.499 249.937C201.278 249.944 194.355 252.816 189.249 257.922C184.143 263.029 181.271 269.952 181.264 277.173H181.263ZM208.455 336.769C203.638 336.769 198.833 336.542 194.435 336.096C194.357 337.81 194.132 339.515 193.764 341.192C212.33 343.274 235.02 340.975 240.212 336.391C241.116 335.593 241.116 335.044 241.116 334.864V331.343C236.605 334.203 228.274 335.542 221.747 336.168C217.537 336.569 212.995 336.769 208.456 336.769H208.455ZM193.591 327.452C194.016 329.176 194.287 330.935 194.401 332.707C213.073 334.691 235.128 332.37 240.229 327.823C241.116 327.031 241.116 326.488 241.116 326.31V322.792C235.087 326.608 221.492 328.207 208.544 328.207C203.55 328.219 198.559 327.967 193.591 327.452H193.591ZM208.499 319.547C201.772 319.547 195.209 319.088 189.589 318.241C190.754 320.032 191.726 321.94 192.49 323.935C211.325 326.289 234.809 324.029 240.201 319.298C240.809 318.765 241.117 318.247 241.117 317.762V314.369C239.248 315.435 236.596 316.363 233.135 317.166C226.534 318.703 217.785 319.547 208.499 319.547L208.499 319.547ZM208.499 312.547C200.792 312.554 193.296 310.033 187.16 305.37C182.648 306.222 179.933 307.172 178.322 307.951C181.401 309.579 184.176 311.724 186.527 314.293C192.646 315.509 200.44 316.18 208.499 316.18C217.534 316.18 226.014 315.364 232.372 313.885C239.633 312.199 241.116 310.307 241.116 309.893C241.116 309.378 239.18 307.132 229.835 305.365C223.702 310.031 216.206 312.554 208.499 312.547H208.499ZM191.102 334.693C191.102 340.007 189.526 345.202 186.575 349.62C183.623 354.038 179.427 357.482 174.518 359.516C169.608 361.549 164.207 362.081 158.995 361.045C153.783 360.008 148.996 357.45 145.239 353.693C141.481 349.935 138.922 345.148 137.885 339.937C136.849 334.725 137.38 329.323 139.414 324.414C141.447 319.505 144.89 315.309 149.309 312.356C153.727 309.404 158.921 307.828 164.235 307.828C171.357 307.837 178.186 310.67 183.223 315.706C188.259 320.742 191.093 327.571 191.102 334.693ZM187.569 334.693C187.569 330.078 186.2 325.567 183.636 321.729C181.072 317.892 177.428 314.901 173.164 313.135C168.9 311.369 164.208 310.907 159.682 311.807C155.155 312.708 150.997 314.93 147.734 318.193C144.47 321.457 142.248 325.615 141.348 330.141C140.447 334.668 140.91 339.36 142.676 343.624C144.442 347.887 147.433 351.532 151.27 354.096C155.108 356.66 159.619 358.028 164.235 358.028C170.421 358.021 176.352 355.56 180.727 351.185C185.101 346.811 187.562 340.88 187.569 334.693H187.569Z" fill="black"/>
<path fill-rule="evenodd" clip-rule="evenodd" d="M207.694 254.446V251.752C204.386 251.806 201.23 252.493 198.346 253.706L199.429 256.175C201.981 255.106 204.771 254.499 207.694 254.446ZM197.59 254.045L198.673 256.512C196.368 257.578 194.274 259.021 192.468 260.763L190.564 258.859C192.605 256.882 194.978 255.247 197.59 254.045ZM182.872 277.403H185.566C185.617 280.242 186.195 282.953 187.207 285.446L184.728 286.502C183.577 283.685 182.924 280.616 182.872 277.403ZM187.207 268.532L184.728 267.476C183.577 270.293 182.924 273.361 182.872 276.575H185.566C185.617 273.736 186.195 271.024 187.207 268.532ZM185.054 287.262L187.533 286.206C188.608 288.597 190.086 290.766 191.883 292.629L189.978 294.533C187.94 292.428 186.266 289.971 185.054 287.262ZM192.468 293.214L190.564 295.119C192.605 297.095 194.978 298.73 197.59 299.932L198.673 297.465C196.368 296.399 194.274 294.956 192.468 293.214ZM225.651 258.859L223.747 260.763C221.941 259.021 219.847 257.578 217.542 256.512L218.624 254.045C221.237 255.247 223.61 256.882 225.651 258.859ZM231.16 266.715L228.682 267.771C227.607 265.381 226.129 263.212 224.332 261.348L226.236 259.444C228.274 261.549 229.948 264.006 231.16 266.715ZM230.649 276.575H233.343C233.291 273.362 232.637 270.293 231.487 267.476L229.008 268.532C230.02 271.024 230.597 273.736 230.649 276.575ZM208.522 251.752C211.829 251.806 214.985 252.493 217.869 253.706L216.786 256.175C214.234 255.106 211.444 254.499 208.522 254.446V251.752ZM198.346 300.271C201.23 301.485 204.386 302.172 207.694 302.226V299.531C204.771 299.478 201.982 298.871 199.429 297.803L198.346 300.271ZM189.978 259.444L191.883 261.348C190.086 263.212 188.608 265.381 187.533 267.771L185.054 266.715C186.266 264.006 187.94 261.549 189.978 259.444ZM208.522 299.531V302.226C211.829 302.172 214.985 301.485 217.869 300.271L216.786 297.803C214.234 298.871 211.444 299.478 208.522 299.531ZM231.487 286.501L229.008 285.445C230.02 282.953 230.597 280.242 230.649 277.402H233.343C233.291 280.616 232.637 283.684 231.487 286.501ZM224.332 292.629L226.236 294.533C228.274 292.428 229.948 289.971 231.16 287.262L228.682 286.206C227.607 288.597 226.129 290.766 224.332 292.629ZM218.624 299.932L217.542 297.465C219.847 296.399 221.941 294.956 223.747 293.214L225.651 295.119C223.61 297.095 221.237 298.73 218.624 299.932ZM208.112 259.293C198.353 259.293 190.413 267.233 190.413 276.993C190.413 286.753 198.353 294.693 208.112 294.693C217.871 294.693 225.811 286.753 225.811 276.993C225.811 267.233 217.871 259.293 208.112 259.293ZM208.112 293.39C199.071 293.39 191.716 286.034 191.716 276.993C191.716 267.951 199.071 260.597 208.112 260.597C217.153 260.597 224.508 267.952 224.508 276.993C224.508 286.035 217.153 293.39 208.112 293.39ZM208.112 255.268C220.091 255.268 229.836 265.014 229.836 276.993C229.836 288.973 220.091 298.719 208.112 298.719C196.133 298.719 186.388 288.973 186.388 276.993C186.388 265.014 196.133 255.268 208.112 255.268ZM189.585 276.993C189.585 287.209 197.896 295.521 208.112 295.521C218.328 295.521 226.639 287.209 226.639 276.993C226.639 266.777 218.328 258.465 208.112 258.465C197.896 258.465 189.585 266.777 189.585 276.993ZM223.757 276.767C223.757 285.339 216.809 292.288 208.237 292.288C199.666 292.288 192.717 285.339 192.717 276.767C192.717 268.195 199.666 261.246 208.237 261.246C216.809 261.246 223.757 268.195 223.757 276.767ZM217.615 282.373L216.249 284.739C215.984 285.199 215.488 285.486 214.957 285.486L201.311 285.481L203.388 281.885L208.295 281.89H208.297L213.492 281.896C213.653 281.896 213.801 281.809 213.881 281.671L216.079 277.849L217.615 280.51C217.946 281.084 217.946 281.799 217.615 282.373ZM215.689 276.727L217.614 273.384C217.946 272.808 217.944 272.093 217.612 271.517L216.075 268.864L209.074 280.993L213.233 280.998L215.689 276.727ZM207.533 272.908L200.534 285.032L198.999 282.379C198.665 281.804 198.665 281.09 198.997 280.513L200.916 277.176C200.916 277.176 200.918 277.176 200.918 277.174L203.37 272.908H207.533ZM213.223 272.011L215.298 268.415L201.655 268.411C201.123 268.411 200.628 268.697 200.362 269.158L198.996 271.522C198.664 272.097 198.664 272.811 198.996 273.388L200.529 276.05L202.723 272.237C202.803 272.097 202.951 272.011 203.112 272.011H213.223Z" fill="black"/>
<path d="M156.071 316.797L155.135 314.664C152.876 315.704 150.824 317.117 149.058 318.827L150.705 320.474C152.267 318.967 154.078 317.719 156.071 316.797Z" fill="black"/>
<path d="M144.736 334.864H142.406C142.451 337.643 143.016 340.297 144.011 342.733L146.155 341.82C145.28 339.664 144.78 337.319 144.736 334.864Z" fill="black"/>
<path d="M146.155 327.193L144.011 326.279C143.016 328.715 142.451 331.369 142.406 334.148H144.736C144.78 331.693 145.28 329.348 146.155 327.193Z" fill="black"/>
<path d="M146.437 342.477L144.293 343.391C145.342 345.733 146.789 347.858 148.552 349.679L150.199 348.032C148.645 346.421 147.367 344.545 146.437 342.477Z" fill="black"/>
<path d="M150.705 348.538L149.058 350.185C150.824 351.895 152.876 353.308 155.135 354.348L156.071 352.215C154.078 351.293 152.267 350.045 150.705 348.538Z" fill="black"/>
<path d="M177.757 320.474L179.404 318.827C177.638 317.117 175.586 315.704 173.327 314.664L172.391 316.797C174.384 317.719 176.195 318.967 177.757 320.474Z" fill="black"/>
<path d="M163.873 315.011V312.68C161.013 312.727 158.283 313.321 155.789 314.371L156.726 316.505C158.933 315.582 161.345 315.056 163.873 315.011Z" fill="black"/>
<path d="M182.025 326.535L184.169 325.621C183.121 323.278 181.673 321.153 179.91 319.333L178.263 320.98C179.817 322.591 181.095 324.468 182.025 326.535Z" fill="black"/>
<path d="M183.726 334.148H186.057C186.011 331.369 185.446 328.715 184.451 326.279L182.307 327.193C183.183 329.348 183.682 331.693 183.726 334.148Z" fill="black"/>
<path d="M172.674 314.371C170.179 313.321 167.45 312.727 164.589 312.68V315.011C167.117 315.056 169.53 315.582 171.737 316.505L172.674 314.371Z" fill="black"/>
<path d="M155.789 354.641C158.283 355.691 161.013 356.285 163.873 356.331V354.001C161.346 353.955 158.933 353.43 156.726 352.506L155.789 354.641Z" fill="black"/>
<path d="M150.199 320.98L148.552 319.333C146.789 321.154 145.342 323.278 144.293 325.621L146.437 326.535C147.367 324.468 148.645 322.591 150.199 320.98Z" fill="black"/>
<path d="M164.589 354.001V356.331C167.45 356.285 170.18 355.691 172.674 354.641L171.737 352.506C169.53 353.43 167.117 353.955 164.589 354.001Z" fill="black"/>
<path d="M182.307 341.819L184.451 342.733C185.446 340.297 186.011 337.643 186.057 334.864H183.726C183.682 337.319 183.183 339.664 182.307 341.819Z" fill="black"/>
<path d="M178.263 348.032L179.91 349.679C181.673 347.858 183.121 345.733 184.169 343.391L182.025 342.477C181.095 344.545 179.817 346.421 178.263 348.032Z" fill="black"/>
<path d="M172.391 352.215L173.327 354.348C175.587 353.308 177.638 351.895 179.404 350.185L177.757 348.538C176.195 350.045 174.384 351.293 172.391 352.215Z" fill="black"/>
<path d="M183.024 334.51C183.024 324.15 174.595 315.721 164.235 315.721C153.875 315.721 145.447 324.15 145.447 334.51C145.447 344.87 153.875 353.298 164.235 353.298C174.595 353.298 183.024 344.87 183.024 334.51ZM164.235 350.533C155.4 350.533 148.212 343.345 148.212 334.51C148.212 325.674 155.4 318.487 164.235 318.487C173.071 318.487 180.258 325.675 180.258 334.51C180.258 343.345 173.07 350.533 164.235 350.533Z" fill="black"/>
<path fill-rule="evenodd" clip-rule="evenodd" d="M163.99 319.371C172.32 319.371 179.072 326.123 179.072 334.453C179.072 342.783 172.32 349.536 163.99 349.536C155.66 349.536 148.907 342.783 148.907 334.453C148.907 326.123 155.66 319.371 163.99 319.371ZM170.824 330.277L164.081 323.55L164.081 323.55L157.338 330.299L159.83 332.792L164.081 328.515L168.332 332.77L170.824 330.277ZM158.047 334.554L155.578 332.061L153.087 334.554L155.579 337.026L158.047 334.554ZM166.572 334.532L164.081 332.062H164.081L161.59 334.554L164.081 337.026L166.572 334.532ZM175.096 334.554L172.584 332.061L170.115 334.554L172.606 337.048L175.096 334.554ZM170.824 338.81L168.332 336.317L164.081 340.594L159.83 336.317L157.338 338.81L164.081 345.559L170.824 338.81Z" fill="black"/>
<path fill-rule="evenodd" clip-rule="evenodd" d="M328.48 295.405V293.364C325.975 293.404 323.584 293.925 321.399 294.844L322.22 296.714C324.153 295.905 326.266 295.445 328.48 295.405ZM320.827 295.101L321.647 296.97C319.901 297.777 318.315 298.871 316.947 300.19L315.504 298.747C317.051 297.25 318.848 296.012 320.827 295.101ZM309.678 312.795H311.719C311.758 314.945 312.195 316.999 312.961 318.887L311.084 319.687C310.212 317.554 309.717 315.229 309.678 312.795ZM312.961 306.075L311.084 305.275C310.212 307.409 309.717 309.733 309.678 312.168H311.719C311.758 310.017 312.195 307.963 312.961 306.075ZM311.331 320.263L313.208 319.463C314.023 321.274 315.142 322.918 316.503 324.329L315.061 325.771C313.517 324.177 312.249 322.315 311.331 320.263ZM316.947 324.772L315.504 326.215C317.051 327.712 318.848 328.95 320.827 329.861L321.647 327.993C319.901 327.185 318.315 326.092 316.947 324.772ZM342.083 298.747L340.641 300.19C339.272 298.871 337.686 297.777 335.94 296.97L336.76 295.101C338.739 296.012 340.536 297.25 342.083 298.747ZM346.256 304.699L344.379 305.499C343.564 303.688 342.445 302.045 341.084 300.633L342.526 299.191C344.07 300.785 345.338 302.647 346.256 304.699ZM345.869 312.168H347.91C347.87 309.733 347.375 307.409 346.504 305.275L344.626 306.075C345.392 307.963 345.83 310.017 345.869 312.168ZM329.107 293.364C331.613 293.404 334.003 293.925 336.188 294.844L335.368 296.714C333.434 295.905 331.321 295.445 329.107 295.405V293.364ZM321.399 330.118C323.584 331.037 325.975 331.558 328.48 331.598V329.557C326.266 329.517 324.153 329.057 322.22 328.248L321.399 330.118ZM315.061 299.191L316.503 300.633C315.142 302.045 314.023 303.688 313.208 305.499L311.331 304.699C312.249 302.647 313.517 300.786 315.061 299.191ZM329.107 329.557V331.598C331.613 331.558 334.004 331.037 336.188 330.118L335.368 328.248C333.434 329.057 331.321 329.517 329.107 329.557ZM346.504 319.687L344.626 318.887C345.392 316.999 345.83 314.945 345.869 312.794H347.91C347.87 315.229 347.375 317.553 346.504 319.687ZM341.084 324.329L342.526 325.771C344.07 324.177 345.338 322.315 346.256 320.263L344.379 319.463C343.564 321.274 342.445 322.918 341.084 324.329ZM336.76 329.861L335.94 327.993C337.686 327.185 339.272 326.092 340.641 324.772L342.083 326.215C340.536 327.712 338.739 328.95 336.76 329.861ZM328.797 299.077C321.405 299.077 315.39 305.091 315.39 312.485C315.39 319.878 321.405 325.893 328.797 325.893C336.19 325.893 342.204 319.878 342.204 312.485C342.204 305.091 336.19 299.077 328.797 299.077ZM328.797 324.905C321.949 324.905 316.377 319.333 316.377 312.484C316.377 305.635 321.949 300.064 328.797 300.064C335.646 300.064 341.217 305.636 341.217 312.485C341.217 319.334 335.645 324.905 328.797 324.905ZM328.797 296.027C337.871 296.027 345.253 303.41 345.253 312.485C345.253 321.559 337.871 328.942 328.797 328.942C319.723 328.942 312.341 321.559 312.341 312.485C312.341 303.41 319.723 296.027 328.797 296.027ZM314.763 312.484C314.763 320.223 321.059 326.519 328.797 326.519C336.535 326.519 342.831 320.223 342.831 312.485C342.831 304.746 336.536 298.449 328.797 298.449C321.059 298.449 314.763 304.745 314.763 312.484ZM340.649 312.313C340.649 318.806 335.385 324.07 328.892 324.07C322.399 324.07 317.136 318.806 317.136 312.313C317.136 305.82 322.399 300.556 328.892 300.556C335.385 300.556 340.649 305.82 340.649 312.313ZM335.996 316.56L334.961 318.352C334.76 318.7 334.384 318.918 333.982 318.918L323.646 318.914L325.219 316.19L328.936 316.194H328.937L332.872 316.198C332.995 316.198 333.106 316.133 333.167 316.028L334.832 313.133L335.996 315.148C336.246 315.583 336.246 316.125 335.996 316.56ZM334.537 312.283L335.995 309.751C336.246 309.314 336.245 308.773 335.993 308.336L334.829 306.326L329.526 315.514L332.676 315.518L334.537 312.283ZM328.359 309.39L323.057 318.574L321.894 316.564C321.641 316.129 321.641 315.588 321.893 315.151L323.346 312.623C323.346 312.623 323.347 312.623 323.347 312.623C323.348 312.622 323.348 312.622 323.348 312.621L325.205 309.39H328.359ZM332.669 308.71L334.241 305.986L323.906 305.983C323.503 305.983 323.128 306.2 322.927 306.549L321.892 308.34C321.64 308.775 321.64 309.317 321.892 309.753L323.053 311.77L324.715 308.882C324.776 308.775 324.887 308.71 325.01 308.71H332.669Z" fill="black"/>
<path d="M354.081 299.943C352.764 297.265 351.042 294.807 348.974 292.655C354.832 291.321 359.276 289.23 361.813 286.707V292.969C361.813 295.462 358.944 298.031 354.081 299.943Z" fill="black"/>
<path d="M346.841 290.65C343.233 287.58 338.923 285.448 334.294 284.442C329.664 283.437 324.858 283.589 320.301 284.885C317.503 282.541 312.992 280.679 307.544 279.511V275.386C309.076 276.907 311.316 278.279 314.196 279.431C319.686 281.627 326.96 282.837 334.677 282.837C342.394 282.837 349.669 281.627 355.159 279.431C358.038 278.279 360.278 276.907 361.81 275.386V281.636C361.812 285.308 355.821 288.899 346.841 290.65Z" fill="black"/>
<path d="M293.943 303.211C294.05 303.211 294.159 303.211 294.266 303.211C296.541 303.21 298.814 303.091 301.077 302.854C300.027 305.766 299.456 308.829 299.386 311.924C297.578 312.071 295.753 312.149 293.946 312.141C286.523 312.141 279.567 310.992 274.353 308.907C269.559 306.989 266.809 304.475 266.809 302.008V295.76C268.342 297.281 270.581 298.653 273.461 299.805C278.951 302.001 286.225 303.211 293.943 303.211Z" fill="black"/>
<path d="M354.269 277.201C349.055 279.286 342.099 280.434 334.68 280.434C327.26 280.434 320.303 279.286 315.09 277.201C310.296 275.283 307.547 272.769 307.547 270.302V264.052C309.079 265.573 311.319 266.946 314.198 268.098C319.688 270.294 326.962 271.503 334.68 271.503C342.397 271.503 349.671 270.294 355.161 268.098C358.041 266.947 360.28 265.574 361.813 264.053V270.302C361.813 272.769 359.063 275.283 354.269 277.201Z" fill="black"/>
<path d="M354.269 254.533C349.055 256.618 342.099 257.767 334.68 257.767C327.26 257.767 320.303 256.618 315.09 254.533C310.296 252.615 307.547 250.101 307.547 247.634V241.385C309.079 242.906 311.319 244.278 314.198 245.43C319.688 247.626 326.962 248.836 334.68 248.836C342.397 248.836 349.671 247.626 355.161 245.43C358.041 244.278 360.28 242.906 361.813 241.385V247.634C361.813 250.101 359.063 252.615 354.269 254.533Z" fill="black"/>
<path d="M274.354 283.776C279.567 281.691 286.524 280.542 293.943 280.542C303.636 280.542 312.697 282.616 317.547 285.825C310.769 288.541 305.264 293.715 302.135 300.312C299.42 300.653 296.685 300.819 293.949 300.808C286.524 300.808 279.567 299.66 274.354 297.575C269.559 295.657 266.81 293.142 266.81 290.676C266.81 288.209 269.559 285.693 274.354 283.776Z" fill="black"/>
<path d="M354.269 243.2C349.055 245.285 342.099 246.433 334.679 246.433C327.26 246.433 320.303 245.285 315.09 243.2C310.296 241.282 307.546 238.767 307.546 236.301C307.546 233.834 310.296 231.32 315.09 229.402C320.304 227.317 327.26 226.168 334.679 226.168C342.098 226.168 349.056 227.317 354.269 229.402C359.063 231.32 361.812 233.834 361.812 236.301C361.812 238.767 359.063 241.282 354.269 243.2ZM349.772 231.681C345.448 230.45 340.087 229.772 334.68 229.772C334.361 229.772 334.056 229.899 333.83 230.124C333.605 230.349 333.479 230.655 333.479 230.973C333.479 231.292 333.605 231.597 333.83 231.823C334.056 232.048 334.361 232.174 334.68 232.174C339.871 232.174 344.998 232.82 349.115 233.992C349.266 234.035 349.425 234.048 349.582 234.03C349.738 234.011 349.89 233.963 350.028 233.886C350.166 233.809 350.287 233.706 350.385 233.582C350.483 233.459 350.556 233.317 350.599 233.165C350.642 233.014 350.655 232.855 350.637 232.698C350.619 232.541 350.57 232.39 350.493 232.252C350.416 232.114 350.313 231.993 350.189 231.895C350.066 231.797 349.924 231.724 349.772 231.681ZM357.888 235.799C357.593 235.439 356.855 234.701 355.224 233.815C354.946 233.673 354.623 233.646 354.324 233.739C354.026 233.832 353.775 234.037 353.626 234.312C353.476 234.586 353.44 234.908 353.524 235.209C353.608 235.51 353.806 235.767 354.076 235.924C355.496 236.696 355.978 237.258 356.029 237.32C356.233 237.559 356.523 237.709 356.836 237.737C357.149 237.765 357.46 237.669 357.704 237.47C357.947 237.271 358.102 236.985 358.137 236.672C358.171 236.36 358.082 236.046 357.888 235.799Z" fill="black"/>
<path d="M354.269 265.867C349.055 267.952 342.099 269.1 334.68 269.1C327.26 269.1 320.303 267.952 315.09 265.867C310.296 263.949 307.547 261.435 307.547 258.968V252.718C309.079 254.239 311.319 255.611 314.198 256.763C319.688 258.959 326.962 260.168 334.68 260.168C342.397 260.168 349.671 258.959 355.161 256.763C358.041 255.611 360.28 254.239 361.813 252.718V258.967C361.813 261.435 359.063 263.95 354.269 265.867Z" fill="black"/>
<path d="M310.397 293.105C314.951 288.932 320.828 286.493 326.998 286.217V288.097C326.998 288.416 327.125 288.721 327.35 288.946C327.575 289.172 327.881 289.298 328.199 289.298C328.518 289.298 328.824 289.172 329.049 288.946C329.274 288.721 329.401 288.416 329.401 288.097V286.217C335.571 286.493 341.448 288.932 346.002 293.105L344.681 294.426C344.46 294.652 344.338 294.956 344.339 295.272C344.341 295.588 344.468 295.891 344.691 296.114C344.915 296.338 345.217 296.464 345.533 296.466C345.849 296.468 346.153 296.346 346.379 296.125L347.701 294.804C351.874 299.357 354.312 305.234 354.588 311.405H352.708C352.39 311.405 352.084 311.532 351.859 311.757C351.634 311.982 351.507 312.288 351.507 312.606C351.507 312.925 351.634 313.23 351.859 313.456C352.084 313.681 352.39 313.807 352.708 313.807H354.586C354.31 319.978 351.872 325.855 347.699 330.409L346.377 329.087C346.151 328.867 345.847 328.744 345.531 328.746C345.215 328.748 344.913 328.875 344.689 329.098C344.466 329.321 344.339 329.624 344.337 329.94C344.335 330.256 344.458 330.56 344.679 330.786L346 332.107C341.446 336.281 335.569 338.719 329.399 338.995V337.115C329.399 336.797 329.272 336.491 329.047 336.266C328.821 336.041 328.516 335.914 328.197 335.914C327.879 335.914 327.573 336.041 327.348 336.266C327.123 336.491 326.996 336.797 326.996 337.115V338.995C320.825 338.719 314.949 336.281 310.395 332.107L311.716 330.786C311.937 330.56 312.059 330.256 312.057 329.94C312.055 329.624 311.929 329.321 311.705 329.098C311.482 328.875 311.179 328.748 310.863 328.746C310.548 328.744 310.243 328.867 310.017 329.087L308.696 330.409C304.523 325.855 302.084 319.978 301.808 313.807H303.688C304.006 313.807 304.312 313.681 304.537 313.456C304.763 313.23 304.889 312.925 304.889 312.606C304.889 312.288 304.763 311.982 304.537 311.757C304.312 311.532 304.006 311.405 303.688 311.405H301.808C302.084 305.234 304.523 299.358 308.696 294.804L310.017 296.125C310.242 296.351 310.548 296.477 310.867 296.478C311.186 296.478 311.492 296.351 311.718 296.126C311.943 295.9 312.07 295.594 312.07 295.275C312.07 294.957 311.944 294.651 311.718 294.425L310.397 293.105ZM307.27 312.605C307.27 316.744 308.498 320.791 310.797 324.232C313.097 327.674 316.365 330.356 320.19 331.94C324.014 333.524 328.222 333.939 332.281 333.131C336.341 332.324 340.07 330.33 342.997 327.404C345.924 324.477 347.917 320.748 348.725 316.688C349.532 312.628 349.118 308.42 347.534 304.596C345.95 300.772 343.267 297.503 339.826 295.204C336.384 292.904 332.338 291.677 328.199 291.677C322.65 291.683 317.33 293.89 313.407 297.813C309.484 301.737 307.277 307.056 307.27 312.605Z" fill="black"/>
<path d="M293.944 325.878C294.059 325.878 294.174 325.878 294.288 325.878C296.989 325.877 299.687 325.708 302.367 325.372C303.825 328.307 305.77 330.972 308.12 333.256C303.47 334.317 298.714 334.838 293.945 334.808C286.526 334.808 279.569 333.66 274.356 331.574C269.561 329.657 266.812 327.142 266.812 324.676V318.426C268.344 319.948 270.584 321.32 273.463 322.472C278.953 324.668 286.227 325.878 293.944 325.878Z" fill="black"/>
<path d="M294.119 314.544C295.884 314.544 297.665 314.472 299.432 314.333C299.608 317.329 300.254 320.279 301.347 323.074C298.891 323.353 296.422 323.487 293.95 323.476C286.524 323.476 279.568 322.327 274.355 320.242C269.56 318.324 266.811 315.81 266.811 313.343V307.094C268.343 308.615 270.583 309.987 273.462 311.139C278.994 313.352 286.338 314.553 294.119 314.544Z" fill="black"/>
<path d="M356.895 309.981C356.653 307.295 356.032 304.656 355.05 302.143C357.986 300.983 360.263 299.604 361.813 298.069V304.303C361.813 306.253 360.042 308.276 356.895 309.981Z" fill="black"/>
<path d="M287.982 440.651C306.43 440.651 321.441 425.64 321.441 407.193C321.441 388.745 306.43 373.734 287.982 373.734C269.535 373.734 254.524 388.745 254.524 407.193C254.524 425.64 269.535 440.651 287.982 440.651ZM287.982 379.297C303.363 379.297 315.878 391.812 315.878 407.193C315.878 422.577 303.363 435.093 287.982 435.093C272.601 435.093 260.086 422.577 260.086 407.193C260.086 391.812 272.598 379.297 287.982 379.297Z" fill="black"/>
<path d="M327.177 367.192C339.7 367.192 349.851 361.867 349.851 355.298C349.851 348.73 339.7 343.405 327.177 343.405C314.655 343.405 304.503 348.73 304.503 355.298C304.503 361.867 314.655 367.192 327.177 367.192Z" fill="black"/>
<path d="M293.731 355.386C293.808 366.8 308.782 376.073 327.182 376.073C345.633 376.073 360.644 366.756 360.644 355.298C360.644 343.844 345.633 334.527 327.182 334.527C308.757 334.527 293.76 343.826 293.727 355.261C293.727 355.269 293.731 355.28 293.731 355.28V355.386ZM327.179 339.745C341.945 339.745 353.512 346.578 353.512 355.298C353.512 364.019 341.945 370.851 327.179 370.851C312.413 370.851 300.845 364.019 300.845 355.298C300.845 346.578 312.413 339.745 327.179 339.745Z" fill="black"/>
<path d="M293.731 365.819V370.569C296.121 370.942 298.43 371.543 300.644 372.348C297.826 370.448 295.495 368.238 293.731 365.819Z" fill="black"/>
<path d="M360.646 417.476C354.663 425.703 341.932 431.412 327.184 431.412C323.657 431.412 320.206 431.057 316.879 430.424C314.746 433.073 312.254 435.408 309.48 437.388C314.731 439.488 320.747 440.652 327.181 440.652C345.632 440.652 360.643 431.342 360.643 419.899L360.646 417.476Z" fill="black"/>
<path d="M360.65 391.637C354.667 399.863 341.936 405.572 327.188 405.572C326.445 405.572 325.735 405.521 325.011 405.495C325.036 406.062 325.095 406.619 325.095 407.193C325.095 409.773 324.828 412.291 324.323 414.724C325.23 414.779 326.171 414.816 327.184 414.816C345.636 414.816 360.647 405.506 360.647 394.063L360.65 391.637Z" fill="black"/>
<path d="M360.647 378.718C354.664 386.934 341.933 392.632 327.185 392.632C325.447 392.632 323.708 392.518 321.978 392.354C323.28 395.325 324.177 398.505 324.66 401.821C325.494 401.861 326.318 401.908 327.185 401.908C345.636 401.908 360.647 392.58 360.647 381.115V378.718Z" fill="black"/>
<path d="M360.647 365.797C354.667 374.024 341.932 379.732 327.177 379.732C320.503 379.732 314.252 378.55 308.836 376.512C313.37 379.604 317.161 383.692 319.954 388.435C322.336 388.779 324.762 388.973 327.188 388.973C345.64 388.973 360.651 379.663 360.651 368.22L360.647 365.797Z" fill="black"/>
<path d="M360.648 404.558C354.664 412.774 341.933 418.471 327.185 418.471C325.831 418.471 324.591 418.409 323.387 418.318C322.403 421.447 320.99 424.378 319.259 427.089C321.839 427.488 324.481 427.752 327.185 427.752C345.637 427.752 360.648 418.424 360.648 406.959V404.558Z" fill="black"/>
<path d="M298.102 385.782L299.231 383.21C301.955 384.463 304.428 386.167 306.557 388.228L304.571 390.214C302.688 388.398 300.505 386.893 298.102 385.782Z" fill="black"/>
<path d="M311.767 407.562H314.576C314.522 410.912 313.84 414.111 312.641 417.048L310.057 415.947C311.112 413.348 311.714 410.521 311.767 407.562Z" fill="black"/>
<path d="M310.057 398.313L312.641 397.212C313.84 400.149 314.522 403.348 314.576 406.698H311.767C311.714 403.738 311.112 400.912 310.057 398.313Z" fill="black"/>
<path d="M309.717 416.739L312.301 417.84C311.037 420.665 309.292 423.226 307.167 425.421L305.182 423.436C307.055 421.494 308.596 419.232 309.717 416.739Z" fill="black"/>
<path d="M304.571 424.046L306.557 426.031C304.428 428.092 301.954 429.796 299.231 431.05L298.102 428.478C300.505 427.366 302.688 425.862 304.571 424.046Z" fill="black"/>
<path d="M271.96 390.214L269.974 388.228C272.103 386.167 274.577 384.463 277.3 383.21L278.429 385.782C276.026 386.893 273.843 388.398 271.96 390.214Z" fill="black"/>
<path d="M288.697 383.628V380.819C292.145 380.875 295.436 381.591 298.443 382.857L297.313 385.43C294.653 384.316 291.744 383.683 288.697 383.628Z" fill="black"/>
<path d="M266.814 397.52L264.23 396.419C265.494 393.595 267.239 391.033 269.364 388.838L271.349 390.824C269.476 392.766 267.935 395.028 266.814 397.52Z" fill="black"/>
<path d="M264.764 406.698H261.955C262.009 403.348 262.69 400.149 263.89 397.212L266.474 398.313C265.419 400.912 264.817 403.738 264.764 406.698Z" fill="black"/>
<path d="M278.088 382.857C281.095 381.591 284.386 380.875 287.834 380.819V383.628C284.786 383.683 281.878 384.316 279.217 385.43L278.088 382.857Z" fill="black"/>
<path d="M298.443 431.403C295.436 432.669 292.145 433.385 288.697 433.441V430.631C291.744 430.576 294.652 429.943 297.313 428.829L298.443 431.403Z" fill="black"/>
<path d="M305.182 390.824L307.167 388.838C309.292 391.034 311.037 393.595 312.301 396.419L309.717 397.52C308.596 395.028 307.055 392.766 305.182 390.824Z" fill="black"/>
<path d="M287.834 430.631V433.441C284.385 433.384 281.094 432.668 278.088 431.403L279.217 428.829C281.878 429.943 284.786 430.576 287.834 430.631Z" fill="black"/>
<path d="M266.474 415.946L263.89 417.047C262.691 414.11 262.009 410.911 261.955 407.561H264.764C264.817 410.521 265.419 413.348 266.474 415.946Z" fill="black"/>
<path d="M271.349 423.436L269.364 425.421C267.239 423.226 265.494 420.665 264.23 417.84L266.814 416.739C267.935 419.232 269.476 421.494 271.349 423.436Z" fill="black"/>
<path d="M278.429 428.478L277.3 431.05C274.576 429.796 272.103 428.092 269.974 426.031L271.96 424.046C273.843 425.862 276.026 427.366 278.429 428.478Z" fill="black"/>
<path d="M265.611 407.135C265.611 394.646 275.772 384.485 288.261 384.485C300.75 384.485 310.91 394.646 310.91 407.135C310.91 419.624 300.75 429.784 288.261 429.784C275.772 429.784 265.611 419.624 265.611 407.135ZM288.261 426.451C298.912 426.451 307.577 417.785 307.577 407.134C307.577 396.483 298.912 387.818 288.261 387.818C277.609 387.818 268.944 396.484 268.944 407.135C268.944 417.786 277.61 426.451 288.261 426.451Z" fill="black"/>
<path fill-rule="evenodd" clip-rule="evenodd" d="M288.556 388.884C278.515 388.884 270.374 397.024 270.374 407.066C270.374 417.108 278.515 425.248 288.556 425.248C298.598 425.248 306.738 417.108 306.738 407.066C306.738 397.024 298.598 388.884 288.556 388.884ZM280.318 402.032L288.447 393.922L296.576 402.059L293.571 405.063L288.447 399.907L283.322 405.037L280.318 402.032ZM295.721 407.188L298.697 404.182L301.7 407.188L298.696 410.168L295.721 407.188ZM285.444 407.162L288.447 404.184H288.447L291.45 407.188L288.447 410.168L285.444 407.162ZM275.168 407.188L278.196 404.182L281.173 407.188L278.17 410.194L275.168 407.188ZM280.318 412.318L283.322 409.313L288.447 414.469L293.571 409.313L296.576 412.319L288.447 420.455L280.318 412.318Z" fill="black"/>
</svg>
