<svg width="451" height="458" viewBox="0 0 451 458" fill="none" xmlns="http://www.w3.org/2000/svg">
<path fill-rule="evenodd" clip-rule="evenodd" d="M99.4614 48.8093V38.8761C87.2669 39.0744 75.6309 41.6073 64.9989 46.0811L68.992 55.1812C78.4003 51.243 88.6844 49.0046 99.4614 48.8093ZM62.2126 47.3307L66.2027 56.4246C57.7068 60.3552 49.9876 65.6758 43.3273 72.0965L36.3069 65.0761C43.8339 57.7887 52.58 51.7632 62.2126 47.3307ZM7.94922 133.44H17.8824C18.0716 143.906 20.2002 153.901 23.9308 163.09L14.7926 166.984C10.5508 156.599 8.14147 145.287 7.94922 133.44ZM23.9308 100.738L14.7926 96.8442C10.5508 107.229 8.14147 118.54 7.94922 130.388H17.8824C18.0716 119.921 20.2002 109.925 23.9308 100.738ZM15.9962 169.787L25.1329 165.893C29.097 174.706 34.5458 182.705 41.1694 189.573L34.1491 196.593C26.6358 188.832 20.4638 179.774 15.9962 169.787ZM43.3273 191.73L36.3069 198.75C43.8339 206.038 52.5815 212.063 62.2126 216.496L66.2027 207.402C57.7068 203.471 49.9876 198.152 43.3273 191.73ZM165.666 65.0761L158.645 72.0965C151.987 65.6758 144.266 60.3552 135.77 56.4246L139.76 47.3307C149.391 51.7632 158.139 57.7887 165.666 65.0761ZM185.976 94.0397L176.84 97.9336C172.876 89.1219 167.427 81.1235 160.803 74.2542L167.823 67.2338C175.337 74.9942 181.509 84.0531 185.976 94.0397ZM184.091 130.388H194.024C193.832 118.542 191.422 107.229 187.181 96.8442L178.042 100.738C181.773 109.925 183.902 119.921 184.091 130.388ZM102.513 38.8761C114.706 39.0744 126.342 41.6073 136.976 46.0811L132.983 55.1812C123.573 51.243 113.289 49.0046 102.513 48.8093V38.8761ZM64.9989 217.745C75.6309 222.221 87.2669 224.753 99.4614 224.95V215.017C88.686 214.822 78.4018 212.583 68.992 208.645L64.9989 217.745ZM34.1491 67.2338L41.1694 74.2542C34.5458 81.1235 29.097 89.1219 25.1329 97.9336L15.9962 94.0397C20.4638 84.0531 26.6358 74.9957 34.1491 67.2338ZM102.513 215.017V224.95C114.708 224.752 126.344 222.219 136.976 217.745L132.983 208.645C123.573 212.583 113.289 214.822 102.513 215.017ZM187.181 166.982L178.042 163.088C181.773 153.901 183.902 143.906 184.091 133.438H194.024C193.832 145.285 191.421 156.598 187.181 166.982ZM160.803 189.573L167.823 196.593C175.337 188.831 181.509 179.774 185.976 169.787L176.84 165.893C172.876 174.706 167.427 182.705 160.803 189.573ZM139.76 216.496L135.77 207.402C144.266 203.471 151.987 198.152 158.645 191.73L165.666 198.75C158.139 206.038 149.393 212.063 139.76 216.496ZM101.003 66.678C65.0241 66.678 35.7509 95.9497 35.7509 131.93C35.7509 167.911 65.0241 197.183 101.003 197.183C136.983 197.183 166.256 167.911 166.256 131.93C166.256 95.9497 136.983 66.678 101.003 66.678ZM101.003 192.377C67.6714 192.377 40.5557 165.261 40.5557 131.929C40.5557 98.597 67.6714 71.4829 101.003 71.4829C134.335 71.4829 161.451 98.5986 161.451 131.93C161.451 165.262 134.334 192.377 101.003 192.377ZM101.004 51.8393C145.166 51.8393 181.095 87.7682 181.095 131.931C181.095 176.093 145.166 212.022 101.004 212.022C56.8414 212.022 20.9125 176.093 20.9125 131.931C20.9125 87.7682 56.8414 51.8393 101.004 51.8393ZM32.6996 131.929C32.6996 169.591 63.3399 200.233 101.004 200.233C138.666 200.233 169.308 169.593 169.308 131.931C169.308 94.2683 138.667 63.6264 101.004 63.6264C63.3399 63.6264 32.6996 94.2667 32.6996 131.929ZM158.684 131.096C158.684 162.697 133.066 188.315 101.465 188.315C69.8641 188.315 44.2463 162.697 44.2463 131.096C44.2463 99.4946 69.8641 73.8768 101.465 73.8768C133.066 73.8768 158.684 99.4946 158.684 131.096ZM136.04 151.764L131.003 160.488C130.024 162.182 128.197 163.241 126.238 163.241L75.9313 163.221L83.5888 149.964L101.677 149.984H101.684L120.837 150.004C121.433 150.004 121.976 149.686 122.274 149.177L130.375 135.086L136.04 144.895C137.258 147.012 137.258 149.647 136.04 151.764ZM128.938 130.948L136.033 118.625C137.257 116.5 137.251 113.866 136.026 111.741L130.361 101.959L104.549 146.674L119.884 146.693L128.938 130.948ZM98.8706 116.872L73.0653 161.566L67.4065 151.784C66.1755 149.666 66.1755 147.032 67.3999 144.907L74.475 132.604C74.475 132.604 74.4816 132.604 74.4816 132.597L83.5224 116.872H98.8706ZM119.846 113.562L127.497 100.305L77.1965 100.292C75.2375 100.292 73.4108 101.344 72.4313 103.045L67.3946 111.762C66.1702 113.88 66.1702 116.514 67.3946 118.638L73.0468 128.453L81.1345 114.396C81.4324 113.88 81.9751 113.562 82.5707 113.562H119.846Z" fill="black"/>
<path d="M314.908 56.412L310.915 47.3246C301.275 51.7539 292.523 57.7751 284.991 65.0573L292.016 72.0726C298.681 65.6565 306.406 60.3398 314.908 56.412Z" fill="black"/>
<path d="M266.553 133.372H256.612C256.805 145.21 259.216 156.514 263.461 166.892L272.605 163.001C268.872 153.819 266.742 143.83 266.553 133.372Z" fill="black"/>
<path d="M272.605 100.694L263.461 96.8025C259.216 107.18 256.805 118.483 256.612 130.322H266.553C266.742 119.863 268.872 109.874 272.605 100.694Z" fill="black"/>
<path d="M273.808 165.802L264.665 169.693C269.136 179.672 275.312 188.725 282.831 196.479L289.857 189.464C283.228 182.601 277.775 174.609 273.808 165.802Z" fill="black"/>
<path d="M292.016 191.62L284.991 198.635C292.523 205.918 301.277 211.939 310.915 216.368L314.908 207.281C306.406 203.353 298.681 198.038 292.016 191.62Z" fill="black"/>
<path d="M407.417 72.0726L414.443 65.0573C406.91 57.7751 398.157 51.7539 388.518 47.3246L384.526 56.412C393.028 60.3398 400.754 65.6565 407.417 72.0726Z" fill="black"/>
<path d="M348.191 48.8021V38.8761C335.987 39.0743 324.343 41.6053 313.703 46.0759L317.699 55.1694C327.114 51.2341 337.406 48.9973 348.191 48.8021Z" fill="black"/>
<path d="M425.625 97.8912L434.768 94C430.297 84.0206 424.121 74.9682 416.602 67.2134L409.577 74.2287C416.205 81.0931 421.658 89.0858 425.625 97.8912Z" fill="black"/>
<path d="M432.881 130.322H442.822C442.629 118.484 440.218 107.18 435.973 96.8025L426.828 100.694C430.562 109.874 432.692 119.863 432.881 130.322Z" fill="black"/>
<path d="M385.732 46.0759C375.091 41.6053 363.446 39.0743 351.245 38.8761V48.8021C362.028 48.9973 372.319 51.2341 381.736 55.1694L385.732 46.0759Z" fill="black"/>
<path d="M313.703 217.617C324.343 222.089 335.987 224.62 348.191 224.816V214.89C337.407 214.695 327.116 212.458 317.699 208.523L313.703 217.617Z" fill="black"/>
<path d="M289.857 74.2287L282.831 67.2134C275.312 74.9697 269.136 84.0206 264.665 94L273.808 97.8912C277.775 89.0858 283.228 81.0931 289.857 74.2287Z" fill="black"/>
<path d="M351.245 214.89V224.816C363.448 224.618 375.092 222.087 385.732 217.617L381.736 208.523C372.319 212.458 362.028 214.695 351.245 214.89Z" fill="black"/>
<path d="M426.828 162.999L435.973 166.89C440.217 156.513 442.629 145.208 442.822 133.37H432.881C432.692 143.83 430.562 153.819 426.828 162.999Z" fill="black"/>
<path d="M409.577 189.464L416.602 196.479C424.121 188.723 430.297 179.672 434.768 169.693L425.625 165.802C421.658 174.609 416.205 182.601 409.577 189.464Z" fill="black"/>
<path d="M384.526 207.281L388.518 216.368C398.158 211.939 406.91 205.918 414.443 198.635L407.417 191.62C400.754 198.038 393.028 203.353 384.526 207.281Z" fill="black"/>
<path d="M429.883 131.864C429.883 87.733 393.928 51.83 349.734 51.83C305.54 51.83 269.585 87.733 269.585 131.864C269.585 175.994 305.54 211.897 349.734 211.897C393.928 211.897 429.883 175.994 429.883 131.864ZM349.734 200.117C312.043 200.117 281.381 169.497 281.381 131.862C281.381 94.2269 312.043 63.6086 349.734 63.6086C387.425 63.6086 418.087 94.2284 418.087 131.864C418.087 169.499 387.423 200.117 349.734 200.117Z" fill="black"/>
<path fill-rule="evenodd" clip-rule="evenodd" d="M348.688 67.3749C384.221 67.3749 413.027 96.1393 413.027 131.622C413.027 167.105 384.221 195.869 348.688 195.869C313.154 195.869 284.348 167.105 284.348 131.622C284.348 96.1393 313.154 67.3749 348.688 67.3749ZM377.841 113.835L349.075 85.1775L320.31 113.929L330.941 124.546L349.075 106.327L367.21 124.453L377.841 113.835ZM323.335 132.054L312.802 121.433L302.175 132.054L312.806 142.582L323.335 132.054ZM359.702 131.96L349.075 121.437H349.075L338.448 132.054L349.075 142.582L359.702 131.96ZM396.065 132.054L385.348 121.433L374.815 132.054L385.442 142.676L396.065 132.054ZM377.841 150.18L367.21 139.562L349.075 157.782L330.941 139.562L320.31 150.184L349.075 178.931L377.841 150.18Z" fill="black"/>
<path d="M434.983 426.717H16.0172C7.44731 426.717 0.5 433.654 0.5 442.212C0.5 450.77 7.44731 457.707 16.0172 457.707H434.983C443.553 457.707 450.5 450.77 450.5 442.212C450.5 433.654 443.553 426.717 434.983 426.717Z" fill="black"/>
<path d="M380.672 264.022V411.223H411.707V264.022C411.707 259.743 408.233 256.275 403.948 256.275H388.431C384.146 256.275 380.672 259.743 380.672 264.022Z" fill="black"/>
<path d="M310.843 279.517V411.223H341.878V279.517C341.878 275.238 338.404 271.77 334.119 271.77H318.602C314.317 271.77 310.843 275.238 310.843 279.517Z" fill="black"/>
<path d="M241.014 295.012V411.224H272.049V295.012C272.049 290.734 268.575 287.265 264.29 287.265H248.773C244.488 287.265 241.014 290.734 241.014 295.012Z" fill="black"/>
<path d="M171.187 310.507V411.223H202.221V310.507C202.221 306.228 198.748 302.759 194.463 302.759H178.946C174.661 302.759 171.187 306.228 171.187 310.507Z" fill="black"/>
<path d="M101.36 333.749V411.223H132.395V333.749C132.395 329.471 128.921 326.002 124.636 326.002H109.119C104.834 326.002 101.36 329.471 101.36 333.749Z" fill="black"/>
<path d="M31.5329 356.991V411.223H62.5674V356.991C62.5674 352.712 59.0937 349.244 54.8088 349.244H39.2915C35.0066 349.244 31.5329 352.712 31.5329 356.991Z" fill="black"/>
<path d="M278.923 33.2866C278.454 35.0378 277.309 36.5315 275.741 37.4404C274.963 37.8914 274.112 38.1846 273.221 38.3034C272.329 38.4222 271.423 38.3642 270.554 38.1327C269.684 37.9012 268.869 37.5007 268.155 36.9542C267.441 36.4077 266.841 35.7258 266.39 34.9475C263.239 29.4873 258.873 24.8254 253.632 21.3226C248.39 17.8198 242.413 15.5699 236.162 14.7471C229.912 13.9243 223.556 14.5507 217.587 16.5777C211.617 18.6047 206.194 21.978 201.737 26.4366L194.057 34.1165H206.568C208.384 34.1165 210.126 34.838 211.411 36.1225C212.695 37.4069 213.416 39.1489 213.416 40.9653C213.416 42.7817 212.695 44.5238 211.411 45.8082C210.126 47.0926 208.384 47.8141 206.568 47.8141H177.519C175.703 47.8141 173.961 47.0926 172.677 45.8082C171.392 44.5238 170.671 42.7817 170.671 40.9653V11.9171C170.671 10.1007 171.392 8.35868 172.677 7.07428C173.961 5.78987 175.703 5.06829 177.519 5.06829C179.336 5.06829 181.078 5.78987 182.362 7.07428C183.647 8.35868 184.368 10.1007 184.368 11.9171V24.4368L192.039 16.7661C197.981 10.8206 205.211 6.32191 213.169 3.61804C221.128 0.914165 229.602 0.0776482 237.936 1.17322C246.269 2.26879 254.239 5.26707 261.229 9.93605C268.218 14.605 274.04 20.8195 278.243 28.0986C279.147 29.6699 279.392 31.5355 278.923 33.2866Z" fill="black"/>
<path d="M171.781 219.874C172.25 218.123 173.394 216.629 174.963 215.72C175.741 215.269 176.592 214.976 177.483 214.857C178.375 214.739 179.281 214.797 180.15 215.028C181.019 215.26 181.835 215.66 182.549 216.207C183.263 216.753 183.863 217.435 184.314 218.213C187.465 223.674 191.831 228.335 197.072 231.838C202.314 235.341 208.291 237.591 214.541 238.414C220.792 239.237 227.148 238.61 233.117 236.583C239.087 234.556 244.51 231.183 248.967 226.724L256.647 219.044H244.136C242.32 219.044 240.578 218.323 239.293 217.038C238.009 215.754 237.287 214.012 237.287 212.196C237.287 210.379 238.009 208.637 239.293 207.353C240.578 206.068 242.32 205.347 244.136 205.347H273.184C275.001 205.347 276.743 206.068 278.027 207.353C279.312 208.637 280.033 210.379 280.033 212.196V241.244C280.033 243.06 279.312 244.802 278.027 246.087C276.743 247.371 275.001 248.093 273.184 248.093C271.368 248.093 269.626 247.371 268.342 246.087C267.057 244.802 266.336 243.06 266.336 241.244V228.724L258.665 236.395C252.723 242.34 245.493 246.839 237.535 249.543C229.576 252.247 221.102 253.083 212.768 251.988C204.434 250.892 196.464 247.894 189.475 243.225C182.486 238.556 176.664 232.341 172.461 225.062C171.557 223.491 171.312 221.625 171.781 219.874Z" fill="black"/>
</svg>
