<svg width="451" height="412" viewBox="0 0 451 412" fill="none" xmlns="http://www.w3.org/2000/svg">
<path d="M225.5 197.709C279.901 197.709 324.002 153.609 324.002 99.2076C324.002 44.8066 279.901 0.705811 225.5 0.705811C171.099 0.705811 126.998 44.8066 126.998 99.2076C126.998 153.609 171.099 197.709 225.5 197.709Z" fill="black"/>
<path d="M341.406 38.0555C340.056 38.0555 338.803 38.3769 337.485 38.4573C347.337 56.5377 352.93 77.2377 352.93 99.2234C352.93 134.339 338.642 166.193 315.58 189.272C323.696 192.132 332.31 193.997 341.406 193.997C384.462 193.997 419.369 159.089 419.369 116.034C419.369 72.9787 384.462 38.0555 341.406 38.0555Z" fill="black"/>
<path d="M225.5 197.709C279.901 197.709 324.002 153.609 324.002 99.2076C324.002 44.8066 279.901 0.705811 225.5 0.705811C171.099 0.705811 126.998 44.8066 126.998 99.2076C126.998 153.609 171.099 197.709 225.5 197.709Z" fill="black"/>
<path d="M58.7429 307.943C58.7429 275.35 70.2339 245.024 89.7286 220.836C74.5893 217.943 60.4947 212.029 48.3286 203.463C19.9625 217.879 0.5 247.241 0.5 281.233V293.704C0.5 302.993 7.025 311.013 16.1536 312.765C29.0429 315.24 43.2982 317.425 58.7429 319V307.943Z" fill="black"/>
<path d="M98.0697 99.2073C98.0697 77.2216 103.663 56.5216 113.514 38.4412C112.196 38.3769 110.943 38.0555 109.593 38.0555C66.5375 38.0555 31.6304 72.9627 31.6304 116.018C31.6304 159.073 66.5375 193.981 109.593 193.981C118.689 193.981 127.304 192.116 135.42 189.256C112.357 166.193 98.0697 134.339 98.0697 99.2073Z" fill="black"/>
<path d="M379.433 240.251C406.77 240.251 431.568 251.308 449.633 269.147C445.631 240.379 427.599 216.143 402.672 203.479C390.49 212.029 376.411 217.959 361.272 220.852C366.254 227.024 370.69 233.597 374.563 240.508C376.186 240.411 377.793 240.251 379.433 240.251Z" fill="black"/>
<path d="M279.436 340.247C279.436 297.369 306.612 260.806 344.605 246.631C332.487 228.599 315.227 214.312 294.864 205.954C274.871 218.988 251.07 226.638 225.484 226.638C199.898 226.638 176.096 218.988 156.103 205.954C115.957 222.428 87.6392 261.851 87.6392 307.944V323.694C87.6392 335.442 95.8838 345.551 107.407 347.769C140.321 354.069 180.178 358.97 225.468 358.97C245.059 358.97 263.396 357.926 280.834 356.383C279.998 351.095 279.436 345.744 279.436 340.247Z" fill="black"/>
<path d="M379.464 269.163C340.25 269.163 308.429 300.984 308.429 340.199C308.429 379.413 340.25 411.234 379.464 411.234C418.679 411.234 450.5 379.413 450.5 340.199C450.5 300.984 418.679 269.163 379.464 269.163ZM403.764 354.711H393.897V364.563C393.897 372.551 387.42 379.027 379.432 379.027C371.445 379.027 364.968 372.551 364.968 364.563V354.711H355.1C347.113 354.711 340.636 348.234 340.636 340.247C340.636 332.259 347.113 325.783 355.1 325.783H364.968V315.931C364.968 307.943 371.445 301.467 379.432 301.467C387.42 301.467 393.897 307.943 393.897 315.931V325.783H403.764C411.752 325.783 418.229 332.259 418.229 340.247C418.229 348.234 411.752 354.711 403.764 354.711Z" fill="black"/>
</svg>
