<svg width="451" height="411" viewBox="0 0 451 411" fill="none" xmlns="http://www.w3.org/2000/svg">
<path d="M225.5 197.094C279.901 197.094 324.002 152.993 324.002 98.5919C324.002 44.1908 279.901 0.0900879 225.5 0.0900879C171.099 0.0900879 126.998 44.1908 126.998 98.5919C126.998 152.993 171.099 197.094 225.5 197.094Z" fill="white"/>
<path d="M341.406 37.4398C340.056 37.4398 338.803 37.7612 337.485 37.8416C347.337 55.9219 352.93 76.6219 352.93 98.6077C352.93 133.724 338.642 165.577 315.58 188.656C323.696 191.517 332.31 193.381 341.406 193.381C384.462 193.381 419.369 158.474 419.369 115.418C419.369 72.363 384.462 37.4398 341.406 37.4398Z" fill="white"/>
<path d="M225.5 197.094C279.901 197.094 324.002 152.993 324.002 98.5919C324.002 44.1908 279.901 0.0900879 225.5 0.0900879C171.099 0.0900879 126.998 44.1908 126.998 98.5919C126.998 152.993 171.099 197.094 225.5 197.094Z" fill="white"/>
<path d="M58.7429 307.328C58.7429 274.735 70.234 244.408 89.7286 220.22C74.5893 217.328 60.4947 211.413 48.3286 202.847C19.9625 217.263 0.500031 246.626 0.500031 280.617V293.088C0.500031 302.378 7.02503 310.397 16.1536 312.149C29.0429 314.624 43.2983 316.81 58.7429 318.385V307.328Z" fill="white"/>
<path d="M98.0697 98.5916C98.0697 76.6059 103.663 55.9059 113.514 37.8255C112.196 37.7612 110.943 37.4398 109.593 37.4398C66.5375 37.4398 31.6304 72.3469 31.6304 115.402C31.6304 158.458 66.5375 193.365 109.593 193.365C118.689 193.365 127.304 191.501 135.42 188.64C112.357 165.577 98.0697 133.724 98.0697 98.5916Z" fill="white"/>
<path d="M379.433 239.635C406.77 239.635 431.568 250.692 449.633 268.531C445.631 239.763 427.599 215.528 402.672 202.863C390.49 211.413 376.411 217.344 361.272 220.237C366.254 226.408 370.69 232.981 374.563 239.892C376.186 239.796 377.793 239.635 379.433 239.635Z" fill="white"/>
<path d="M279.436 339.632C279.436 296.753 306.612 260.19 344.605 246.015C332.487 227.983 315.227 213.696 294.864 205.339C274.871 218.373 251.069 226.023 225.484 226.023C199.898 226.023 176.096 218.373 156.103 205.339C115.957 221.812 87.639 261.235 87.639 307.328V323.078C87.639 334.826 95.8837 344.935 107.407 347.153C140.321 353.453 180.178 358.355 225.468 358.355C245.059 358.355 263.396 357.31 280.834 355.767C279.998 350.48 279.436 345.128 279.436 339.632Z" fill="white"/>
<path d="M379.464 268.547C340.25 268.547 308.429 300.369 308.429 339.583C308.429 378.797 340.25 410.619 379.464 410.619C418.679 410.619 450.5 378.797 450.5 339.583C450.5 300.369 418.679 268.547 379.464 268.547ZM403.764 354.096H393.896V363.947C393.896 371.935 387.42 378.412 379.432 378.412C371.445 378.412 364.968 371.935 364.968 363.947V354.096H355.1C347.112 354.096 340.636 347.619 340.636 339.631C340.636 331.644 347.112 325.167 355.1 325.167H364.968V315.315C364.968 307.328 371.445 300.851 379.432 300.851C387.42 300.851 393.896 307.328 393.896 315.315V325.167H403.764C411.752 325.167 418.229 331.644 418.229 339.631C418.229 347.619 411.752 354.096 403.764 354.096Z" fill="white"/>
</svg>
