<svg width="60" height="50" viewBox="0 0 60 50" fill="none" xmlns="http://www.w3.org/2000/svg">
<path fill-rule="evenodd" clip-rule="evenodd" d="M27.3055 0.283523C26.5036 0.418182 25.2646 0.719698 24.5522 0.953599C23.3048 1.36326 20.6935 2.57046 20.6935 2.73731C20.6935 2.78201 22.0394 2.76951 23.6842 2.70966C32.8548 2.37576 40.1468 4.67992 44.5058 9.28864C47.8719 12.8475 49.6014 17.0822 50.0332 22.822C50.2112 25.1862 49.9041 27.6445 48.6772 33.6801C48.0985 36.5273 47.6775 38.9091 47.7419 38.9731C47.8978 39.1286 50.7013 36.357 51.7565 35.0045C52.9951 33.4167 54.0309 31.3754 54.5746 29.4508C55.2261 27.1441 60 2.61004 60 1.56837C60 1.31117 59.7545 0.862311 59.445 0.553599L58.8899 0L43.8268 0.0195077C32.4697 0.034091 28.405 0.0990533 27.3055 0.283523ZM17.7502 7.77367C15.0857 8.16648 12.129 9.4733 10.109 11.1509C8.21393 12.7248 6.30519 15.5748 5.59046 17.8977C5.08688 19.5343 -0.00682904 47.0841 6.87421e-06 48.1333C0.00456415 48.8201 0.414909 49.4517 1.07514 49.7884C1.36966 49.9386 5.54678 50 15.467 50C30.6251 50 30.9259 49.9822 33.5065 48.9364C37.0634 47.4949 40.1673 44.6752 41.8216 41.3826C42.6149 39.8032 43.0727 38.0212 44.0837 32.5767C44.9363 27.9848 45.0516 27.0644 45.0559 24.8106C45.0593 23.0492 44.9621 21.85 44.7432 20.9559C43.1574 14.4748 38.4067 9.77727 31.6604 8.02008C30.7132 7.7733 29.2995 7.7 24.6811 7.65814C21.4957 7.62936 18.3769 7.68144 17.7502 7.77367Z" fill="#B9F641"/>
</svg>
