<svg width="75" height="90" viewBox="0 0 75 90" fill="none" xmlns="http://www.w3.org/2000/svg">
<path d="M60.8327 37.1478C62.4354 33.8711 63.5751 29.8109 63.5751 24.7177C63.5751 17.7369 60.7971 11.4328 55.7396 6.90957C50.7533 2.49314 43.9862 0.142465 36.1862 0.142465L9.36709 0C4.20273 0 0 4.20273 0 9.40271V89.0408H46.9423C64.4656 89.0408 74.7231 74.4025 74.7231 61.1889C74.7231 51.145 69.1669 41.956 60.8683 37.1122L60.8327 37.1478ZM36.1862 7.01642C48.7944 7.01642 56.7012 14.5671 56.7012 24.7177C56.7012 38.3232 46.4793 44.556 36.115 44.556C26.3917 44.556 18.378 36.5424 18.378 24.0766V17.2027C18.378 12.6794 15.6712 8.65477 11.5041 7.30135V7.01642H36.1862Z" fill="#FF4E17"/>
</svg>
