<svg width="97" height="97" viewBox="0 0 97 97" fill="none" xmlns="http://www.w3.org/2000/svg">
<g clip-path="url(#clip0_15134_2802)">
<mask id="mask0_15134_2802" style="mask-type:luminance" maskUnits="userSpaceOnUse" x="0" y="0" width="97" height="97">
<path d="M97 0H0V97H97V0Z" fill="white"/>
</mask>
<g mask="url(#mask0_15134_2802)">
<path fill-rule="evenodd" clip-rule="evenodd" d="M10.1077 91.8679H15.7268V95.4309H10.1077V91.8679ZM80.315 67.2726C80.315 72.0128 78.0234 75.5757 74.6488 77.365C71.2742 79.1543 66.5184 80.1746 58.4507 80.1746H9.40137V77.8359H58.2153C65.6551 77.8359 70.662 76.643 73.1263 75.2932C75.826 73.8178 77.6624 70.2391 77.6624 67.2569C77.6624 62.5953 74.5232 60.1311 72.1375 58.7184C70.9289 57.9964 66.9107 56.1914 56.3161 56.1914H37.7009V53.8527H56.7556C68.7001 53.8527 71.2271 55.0299 74.1308 56.7722C77.2229 58.64 80.315 61.9675 80.315 67.2726ZM58.7175 30.4032H41.7661V32.3809H58.7175V30.4032ZM24.1397 24.3917H59.3925V26.3694H24.1397V24.3917ZM36.3981 30.4032H15.1146V32.3809H36.3981V30.4032ZM21.5813 16.9362H30.8732V18.6314H21.5813V16.9362ZM38.1561 84.9775H15.6954V87.4417H38.1404V84.9775H38.1561ZM15.6954 69.3131H39.553V71.3692H15.6954V69.3131ZM28.4561 61.9675H20.6082V64.0236H28.4561V61.9675ZM43.9164 69.4544H59.3454V71.2123H43.9164V69.4544ZM59.5023 61.9675H32.9764V64.0236H59.5023V61.9675ZM78.4629 30.7171C78.4472 35.2689 77.0816 39.7265 74.5232 43.5092C74.1936 43.3209 73.864 43.1325 73.5344 42.9599C76.6892 39.648 78.4472 35.2689 78.4629 30.7171ZM77.9135 45.8008L77.7879 45.7066C80.7387 41.4688 82.1985 36.3048 82.1985 30.2463C82.1985 21.2369 79.1064 14.1895 72.9222 9.07263C66.7538 3.9558 58.2467 1.41309 47.4009 1.41309H20.4198V5.18008H46.9143C56.1277 5.18008 64.3366 7.23623 69.5476 11.4741C74.3976 15.4294 76.1713 18.8354 77.5839 23.9209C76.1399 19.2749 72.7496 16.2927 70.6464 14.5348C66.9578 11.4427 62.3747 9.26098 49.8808 9.26098H29.0682V12.9338H49.4099C60.0674 12.9338 63.9913 14.2522 67.57 16.9048C72.1688 20.3108 75.0098 24.376 75.0098 30.2306C75.0098 35.52 73.1577 38.3453 70.0342 41.2804C69.6732 41.1391 69.3122 40.9979 68.9355 40.8723L69.2808 40.684C72.6554 38.8162 74.9941 35.2532 74.9941 30.2149C74.9941 24.7213 71.8549 21.2997 68.7629 19.3691C65.8748 17.5641 63.1281 16.3398 51.4033 16.3398H36.4452V18.7883H50.9795C61.5742 18.7883 65.5766 20.6718 66.8009 21.4095C69.1866 22.8692 72.3258 25.3963 72.3258 30.2463C72.3258 33.3383 70.5051 37.0582 67.8054 38.5807C66.9264 39.0673 66.0004 39.4597 65.0429 39.7579C61.0248 38.8476 56.9125 38.4081 52.8002 38.4395H34.7501V42.2065H52.298C61.5114 42.2065 69.8459 44.1056 74.9313 48.5005C78.7768 51.7652 81.5706 56.0972 82.9675 60.9472C81.5392 56.3013 78.5884 53.4917 76.03 51.5611C72.1688 48.6417 67.7426 46.2874 55.2488 46.2874H26.965V49.9602H54.7936C65.451 49.9602 69.3593 51.2786 72.9536 53.9312C77.5525 57.3372 80.3464 61.4024 80.3464 67.2569C80.3464 72.9074 77.5054 77.0354 72.8908 80.4414C68.1664 83.9259 60.962 84.0201 58.0269 84.0201H42.5666V87.74H54.1187C63.7873 87.74 70.254 86.9081 75.8417 82.7644C81.0841 78.8718 83.8779 73.8178 83.8779 67.304C83.925 70.8042 83.1716 74.2573 81.6805 77.4278C80.1894 80.5827 77.992 83.3608 75.2609 85.5425C69.9714 89.9217 60.5226 91.8522 51.0737 91.8522H20.6396V95.5879H51.2777C62.6886 95.5879 71.5881 93.1079 77.992 88.148C84.3959 83.1882 87.5978 76.2349 87.5978 67.2569C87.5821 58.2319 84.4743 51.1844 78.2902 46.0833C78.1646 45.9891 78.0391 45.895 77.9135 45.8008Z" fill="black"/>
</g>
</g>
<defs>
<clipPath id="clip0_15134_2802">
<rect width="97" height="97" fill="white"/>
</clipPath>
</defs>
</svg>
