<svg width="142" height="29" viewBox="0 0 142 29" fill="none" xmlns="http://www.w3.org/2000/svg">
<path d="M21.2809 19.6123L24.8582 22.6724C24.1686 23.6207 23.3497 24.4683 22.4159 25.1866C21.2522 26.1061 19.9448 26.8388 18.5656 27.3704C17.0283 27.9594 15.3905 28.2611 13.7527 28.2468C11.2529 28.2899 8.78178 27.6577 6.6124 26.4222C4.57231 25.2297 2.8914 23.5057 1.75643 21.4513C0.563982 19.2531 -0.0537913 16.7821 0.00367589 14.2822C-0.0106909 12.4002 0.319749 10.5469 0.994988 8.79413C1.65586 7.11321 2.6328 5.57597 3.88271 4.25422C5.11825 2.94685 6.59803 1.91244 8.25022 1.1941C10.0317 0.432658 11.9568 0.059122 13.9107 0.0734888C16.2238 -0.0127119 18.5368 0.518859 20.5769 1.6251C22.2578 2.60204 23.7232 3.90942 24.8726 5.48977L21.2665 8.67919C20.462 7.50112 19.4419 6.49544 18.2639 5.6909C16.9565 4.90073 15.448 4.51283 13.9251 4.57029C12.3017 4.52719 10.7069 4.98693 9.35646 5.87767C8.06345 6.76841 7.04341 7.98959 6.38253 9.42627C5.67856 10.9204 5.31939 12.5582 5.33375 14.2104C5.31939 15.8195 5.67856 17.4142 6.38253 18.8652C7.02904 20.2157 8.02034 21.3651 9.27025 22.2127C10.5633 23.0603 12.1005 23.477 13.6378 23.4483C14.9451 23.5057 16.2381 23.2759 17.445 22.773C18.307 22.3851 19.0971 21.8535 19.7724 21.1783L21.2809 19.6123Z" fill="white"/>
<path d="M26.252 18.1061C26.2376 16.3534 26.683 14.6294 27.5306 13.0921C28.3927 11.5693 29.6282 10.3193 31.1367 9.4286C32.7745 8.53786 34.6135 8.07812 36.4668 8.07812C38.3345 8.07812 40.1734 8.53786 41.7969 9.4286C43.3054 10.305 44.5553 11.5693 45.4029 13.0921C46.2506 14.6294 46.6816 16.3534 46.6816 18.1061C46.6816 19.8589 46.2362 21.5829 45.4029 23.1202C44.4835 24.6718 43.1904 25.9504 41.6245 26.8412C40.0585 27.7319 38.277 28.206 36.4812 28.206C34.6709 28.206 32.8895 27.7463 31.3235 26.8555C29.7575 25.9648 28.4358 24.6861 27.5163 23.1489C26.6543 21.6116 26.2089 19.8876 26.2376 18.1349V18.1061H26.252ZM36.4381 24.1258C37.5156 24.1689 38.5787 23.8385 39.4407 23.2064C40.2309 22.6029 40.863 21.8128 41.2509 20.8933C41.6388 20.0313 41.84 19.0975 41.8543 18.1492C41.84 17.201 41.6388 16.2672 41.2509 15.4052C40.863 14.5001 40.2453 13.6955 39.4407 13.0921C38.55 12.4887 37.5012 12.1727 36.4381 12.1727C35.3605 12.1727 34.3118 12.4887 33.4354 13.0921C32.6596 13.6812 32.0562 14.4713 31.6683 15.3621C31.2804 16.2241 31.0792 17.1579 31.0649 18.1061C31.0792 19.0687 31.2804 20.0169 31.6683 20.8933C32.0562 21.8128 32.674 22.6029 33.4785 23.2064C34.3549 23.8385 35.4036 24.1689 36.4812 24.1258" fill="white"/>
<path d="M47.6709 0.707031H52.4407V5.72104H47.6709V0.707031ZM47.6709 8.6806H52.4407V27.5873H47.6709V8.6806Z" fill="white"/>
<path d="M54.3389 27.5867V8.70873H58.9075L59.0224 10.8637C59.6546 10.2172 60.3729 9.65694 61.1487 9.1972C62.2406 8.56506 63.4905 8.26336 64.7548 8.32083C65.7605 8.26336 66.7661 8.40703 67.7 8.78056C68.6338 9.13973 69.4815 9.7144 70.1711 10.4327C71.5072 12.0275 72.1824 14.0532 72.0675 16.122V27.5867H67.2546V16.1651C67.2833 15.6623 67.2115 15.145 67.0391 14.6709C66.8667 14.1968 66.5937 13.7515 66.2489 13.3779C65.9185 13.0475 65.5162 12.7889 65.0709 12.6165C64.6255 12.4441 64.1514 12.3723 63.6773 12.3866C63.0595 12.3723 62.4417 12.4872 61.8671 12.7314C61.2924 12.9757 60.7896 13.3492 60.3873 13.8089C59.5253 14.7859 59.0655 16.0502 59.1086 17.3575V27.5867H54.3389Z" fill="white"/>
<path d="M131.044 13.1764L139.477 0.705994H131.49L127.122 7.67389L122.625 0.705994H113.804L114.206 1.2663L113.919 1.15137C111.836 0.361192 109.609 -0.0267111 107.382 0.00202253C104.81 -0.0410778 102.268 0.605428 100.041 1.86971C98.4459 2.80355 97.0667 4.03909 95.9892 5.53324C94.8111 4.08219 93.3026 2.93285 91.5786 2.18577C89.2225 1.19447 86.6795 0.705995 84.1223 0.749095H73.7207V27.5863H84.0648C86.6364 27.6294 89.1794 27.1265 91.5212 26.1065C93.2308 25.3738 94.7537 24.2388 95.9318 22.8021C97.0236 24.2963 98.4316 25.5462 100.069 26.4656C102.296 27.6868 104.825 28.3046 107.368 28.2615C109.781 28.3046 112.166 27.7874 114.35 26.753L113.79 27.5863H121.648L126.907 19.3397L132.323 27.5863H141.316L131.044 13.1764ZM89.2799 19.2966C88.5616 19.9862 87.6996 20.5178 86.7514 20.8626C85.8175 21.2074 84.8119 21.3511 83.8062 21.2936H80.8754V6.96992H83.8062C84.8262 6.88371 85.8606 7.01301 86.8376 7.35782C87.8002 7.70262 88.6909 8.24856 89.4236 8.95253C90.6735 10.3892 91.3057 12.2425 91.2338 14.1246C91.2769 15.0728 91.1189 16.021 90.7884 16.9117C90.458 17.8025 89.9408 18.6214 89.2799 19.2966ZM118.042 21.2505L114.637 18.0754C113.833 19.1099 112.856 19.9862 111.75 20.6615C110.557 21.2649 109.235 21.5522 107.899 21.4947C106.578 21.5235 105.27 21.193 104.135 20.5465C103.058 19.9144 102.196 18.9806 101.635 17.8743C101.032 16.6819 100.73 15.3458 100.759 14.0096C100.73 12.7023 101.018 11.4093 101.607 10.2312C102.153 9.1393 103 8.20546 104.049 7.55895C105.227 6.86935 106.578 6.52454 107.942 6.56764C109.207 6.53891 110.457 6.85498 111.548 7.48712C112.626 8.11926 113.545 8.95253 114.278 9.95821L117.841 6.42398L123.056 13.866L118.042 21.2505Z" fill="#F94A29"/>
</svg>
