<svg width="92" height="93" viewBox="0 0 92 93" fill="none" xmlns="http://www.w3.org/2000/svg">
<path fill-rule="evenodd" clip-rule="evenodd" d="M16.2898 0.215209C15.7453 0.417209 14.109 0.846209 12.6539 1.16921C8.8101 2.02221 3.90713 6.56721 1.81745 11.2162C0.179172 14.8582 0 18.3162 0 46.2572C0 74.1982 0.179172 77.6562 1.81745 81.2982C3.85863 85.8402 8.68042 90.3812 12.6539 91.5072C14.109 91.9202 29.3317 92.2572 46.4817 92.2572C76.1915 92.2572 77.8506 92.1582 81.6231 90.1662C84.087 88.8662 86.7043 86.2512 88.5524 83.2452L91.5221 78.4142V46.2572V14.1002L88.5524 9.26921C83.1367 0.459208 82.3784 0.289209 47.4716 0.0532088C30.866 -0.0597912 16.8342 0.0132087 16.2898 0.215209ZM13.816 4.88021C10.5424 6.19921 7.05402 9.56521 5.17222 13.2212C3.332 16.7962 2.22826 49.9272 3.38051 67.0012C4.16451 78.6152 5.51077 81.9312 11.1631 86.1652C13.7744 88.1222 15.4276 88.2772 36.7342 88.5602C63.2803 88.9132 66.3618 88.3122 72.9724 81.4902C78.5277 75.7582 80.1383 71.4162 80.1383 62.1742C80.1383 54.5272 80.1373 54.5252 76.1787 50.8702C71.638 46.6772 71.2628 44.6622 74.5364 42.0612C78.1218 39.2122 79.1494 36.4242 79.1385 29.5732C79.1216 18.6942 73.8009 10.1832 64.2999 5.83821C60.2413 3.98221 57.9111 3.80521 38.0676 3.84221C26.0195 3.86521 15.1841 4.32921 13.816 4.88021ZM37.7686 12.4302C34.2871 14.1632 31.6332 18.2432 31.6332 21.8612C31.6332 23.0732 33.1626 26.8282 35.0325 30.2052C41.7599 42.3582 41.8698 51.0972 35.4245 61.3642C31.4946 67.6242 30.9086 72.2572 33.514 76.4532C37.4627 82.8112 46.7153 83.0862 51.4649 76.9872C54.4296 73.1792 53.9139 68.4842 49.6989 60.9192C46.2679 54.7622 45.9867 53.6502 45.9867 46.2572C45.9867 38.8642 46.2679 37.7522 49.6989 31.5952C55.1423 21.8252 54.4573 15.9062 47.4607 12.2512C43.8387 10.3592 41.8539 10.3962 37.7686 12.4302Z" fill="black"/>
<path d="M5.17253 13.221C7.05433 9.56501 10.5427 6.19901 13.8163 4.88001C15.1844 4.32901 26.0198 3.86501 38.0679 3.84201C57.9114 3.80501 60.2416 3.98201 64.3002 5.83801C73.8012 10.183 79.1219 18.694 79.1388 29.573C79.1497 36.424 78.1222 39.212 74.5367 42.061C71.2631 44.662 71.6383 46.677 76.179 50.87C80.1376 54.525 80.1386 54.527 80.1386 62.174C80.1386 71.416 78.528 75.758 72.9727 81.49C66.3622 88.312 63.2806 88.913 36.7345 88.56C15.4279 88.277 13.7748 88.122 11.1634 86.165C5.51108 81.931 4.16482 78.615 3.38082 67.001C2.22857 49.927 3.33231 16.796 5.17253 13.221Z" fill="#FFD900"/>
<path d="M31.6328 21.8611C31.6328 18.2431 34.2867 14.1631 37.7682 12.4301C41.8535 10.3961 43.8383 10.3591 47.4603 12.2511C54.4569 15.9061 55.1419 21.8251 49.6985 31.5951C46.2675 37.7521 45.9863 38.8641 45.9863 46.2571C45.9863 53.6501 46.2675 54.7621 49.6985 60.9191C53.9135 68.4841 54.4292 73.1791 51.4645 76.9871C46.7149 83.0861 37.4623 82.8111 33.5136 76.453C30.9082 72.257 31.4942 67.6241 35.4241 61.3641C41.8694 51.0971 41.7595 42.358 35.0321 30.205C33.1622 26.828 31.6328 23.0731 31.6328 21.8611Z" fill="black"/>
</svg>
