<svg width="451" height="451" viewBox="0 0 451 451" fill="none" xmlns="http://www.w3.org/2000/svg">
<path d="M274.375 229.054H362.438V246.667H274.375V229.054Z" fill="white"/>
<path d="M274.375 299.504H362.438V317.117H274.375V299.504Z" fill="white"/>
<path d="M159.895 88.153H291.988V105.766H159.895V88.153Z" fill="white"/>
<path d="M441.696 0.0900879H151.088C146.224 0.0900879 142.282 4.03334 142.282 8.896V17.7019H336.02C343.074 17.7019 349.708 20.4487 354.697 25.4367L425.151 95.8893C430.141 100.883 432.888 107.516 432.888 114.571V413.986H441.694C446.558 413.986 450.5 410.043 450.5 405.18V8.896C450.502 4.03334 446.559 0.0900879 441.696 0.0900879Z" fill="white"/>
<path d="M344.825 105.765H410.117L344.825 40.4736V105.765Z" fill="white"/>
<path d="M327.213 114.572V35.3157H115.862C110.999 35.3157 107.056 39.2589 107.056 44.1216V217.717C141.823 204.572 182.563 212.005 210.575 240.017C248.704 278.145 248.707 339.858 210.575 377.992C182.564 406.003 141.824 413.437 107.056 400.292V440.406C107.056 445.269 111 449.211 115.862 449.211H406.47C411.333 449.211 415.276 445.268 415.276 440.406V123.378H336.019C331.156 123.378 327.213 119.435 327.213 114.572ZM142.281 79.347C142.281 74.4835 146.224 70.5411 151.087 70.5411H300.793C305.657 70.5411 309.599 74.4844 309.599 79.347V114.572C309.599 119.436 305.656 123.378 300.793 123.378H151.087C146.223 123.378 142.281 119.435 142.281 114.572V79.347ZM151.087 193.828C146.223 193.828 142.281 189.885 142.281 185.022C142.281 180.16 146.224 176.217 151.087 176.217H274.375C279.238 176.217 283.181 180.16 283.181 185.022C283.181 189.885 279.237 193.828 274.375 193.828H151.087ZM371.244 405.18H230.344C225.48 405.18 221.538 401.237 221.538 396.374C221.538 391.511 225.481 387.568 230.344 387.568H371.244C376.108 387.568 380.05 391.511 380.05 396.374C380.05 401.237 376.108 405.18 371.244 405.18ZM371.244 369.955H265.569C260.705 369.955 256.763 366.011 256.763 361.149C256.763 356.286 260.706 352.343 265.569 352.343H371.244C376.108 352.343 380.05 356.286 380.05 361.149C380.05 366.011 376.108 369.955 371.244 369.955ZM380.051 325.923C380.051 330.787 376.108 334.729 371.245 334.729H265.569C260.705 334.729 256.763 330.786 256.763 325.923V290.698C256.763 285.834 260.706 281.892 265.569 281.892H371.244C376.108 281.892 380.05 285.835 380.05 290.698V325.923H380.051ZM380.051 255.472C380.051 260.336 376.108 264.278 371.245 264.278H265.569C260.705 264.278 256.763 260.335 256.763 255.472V220.247C256.763 215.383 260.706 211.441 265.569 211.441H371.244C376.108 211.441 380.05 215.384 380.05 220.247V255.472H380.051ZM380.051 149.797C380.051 154.661 376.108 158.603 371.245 158.603H151.087C146.223 158.603 142.281 154.66 142.281 149.797C142.281 144.934 146.224 140.991 151.087 140.991H371.244C376.108 140.991 380.051 144.934 380.051 149.797Z" fill="white"/>
<path d="M56.9046 357.5L7.99649 406.416C-1.99883 416.403 -1.99883 432.607 7.99649 442.594C17.9751 452.589 34.1963 452.59 44.1748 442.594L93.0909 393.687C78.3767 385.241 65.6928 372.81 56.9046 357.5Z" fill="white"/>
<path d="M141.588 351.593C165.108 351.593 184.176 332.526 184.176 309.005C184.176 285.484 165.108 266.417 141.588 266.417C118.067 266.417 99 285.484 99 309.005C99 332.526 118.067 351.593 141.588 351.593Z" fill="white"/>
<path d="M198.12 365.537C229.366 334.291 229.369 283.72 198.12 252.471C166.874 221.225 116.303 221.223 85.0541 252.471C53.8082 283.717 53.8055 334.289 85.0541 365.537C116.3 396.783 166.871 396.786 198.12 365.537ZM99.0183 266.435C122.543 242.909 160.628 242.906 184.156 266.435C207.682 289.96 207.686 328.045 184.156 351.573C160.631 375.099 122.546 375.103 99.0183 351.573C75.492 328.049 75.4885 289.963 99.0183 266.435Z" fill="white"/>
</svg>
