<svg width="451" height="451" viewBox="0 0 451 451" fill="none" xmlns="http://www.w3.org/2000/svg">
<path d="M274.375 229.67H362.438V247.283H274.375V229.67Z" fill="black"/>
<path d="M274.375 300.12H362.438V317.733H274.375V300.12Z" fill="black"/>
<path d="M159.895 88.7687H291.988V106.381H159.895V88.7687Z" fill="black"/>
<path d="M441.696 0.705811H151.088C146.224 0.705811 142.282 4.64906 142.282 9.51173V18.3176H336.02C343.074 18.3176 349.708 21.0644 354.697 26.0524L425.151 96.505C430.142 101.499 432.888 108.132 432.888 115.186V414.602H441.694C446.558 414.602 450.5 410.658 450.5 405.796V9.51173C450.502 4.64906 446.559 0.705811 441.696 0.705811Z" fill="black"/>
<path d="M344.825 106.381H410.117L344.825 41.0894V106.381Z" fill="black"/>
<path d="M327.213 115.188V35.9314H115.862C110.999 35.9314 107.056 39.8746 107.056 44.7373V218.333C141.823 205.188 182.563 212.621 210.575 240.633C248.703 278.761 248.707 340.474 210.575 378.608C182.564 406.619 141.824 414.053 107.056 400.908V441.021C107.056 445.885 111 449.827 115.862 449.827H406.47C411.333 449.827 415.275 445.884 415.275 441.021V123.994H336.019C331.156 123.994 327.213 120.051 327.213 115.188ZM142.281 79.9627C142.281 75.0992 146.224 71.1568 151.087 71.1568H300.793C305.657 71.1568 309.599 75.1001 309.599 79.9627V115.188C309.599 120.052 305.656 123.994 300.793 123.994H151.087C146.223 123.994 142.281 120.051 142.281 115.188V79.9627ZM151.087 194.444C146.223 194.444 142.281 190.501 142.281 185.638C142.281 180.775 146.224 176.832 151.087 176.832H274.375C279.238 176.832 283.181 180.775 283.181 185.638C283.181 190.501 279.237 194.444 274.375 194.444H151.087ZM371.244 405.796H230.343C225.48 405.796 221.537 401.853 221.537 396.99C221.537 392.127 225.481 388.184 230.343 388.184H371.244C376.108 388.184 380.05 392.127 380.05 396.99C380.05 401.853 376.108 405.796 371.244 405.796ZM371.244 370.57H265.569C260.705 370.57 256.763 366.627 256.763 361.764C256.763 356.902 260.706 352.959 265.569 352.959H371.244C376.108 352.959 380.05 356.902 380.05 361.764C380.05 366.627 376.108 370.57 371.244 370.57ZM380.051 326.539C380.051 331.403 376.108 335.345 371.245 335.345H265.569C260.705 335.345 256.763 331.402 256.763 326.539V291.314C256.763 286.45 260.706 282.508 265.569 282.508H371.244C376.108 282.508 380.05 286.451 380.05 291.314V326.539H380.051ZM380.051 256.088C380.051 260.952 376.108 264.894 371.245 264.894H265.569C260.705 264.894 256.763 260.951 256.763 256.088V220.863C256.763 215.999 260.706 212.057 265.569 212.057H371.244C376.108 212.057 380.05 216 380.05 220.863V256.088H380.051ZM380.051 150.413C380.051 155.276 376.108 159.219 371.245 159.219H151.087C146.223 159.219 142.281 155.275 142.281 150.413C142.281 145.55 146.224 141.607 151.087 141.607H371.244C376.108 141.607 380.051 145.55 380.051 150.413Z" fill="black"/>
<path d="M56.9046 358.115L7.99649 407.031C-1.99883 417.019 -1.99883 433.223 7.99649 443.21C17.9751 453.205 34.1963 453.206 44.1748 443.21L93.0909 394.302C78.3767 385.857 65.6928 373.426 56.9046 358.115Z" fill="black"/>
<path d="M141.588 352.209C165.108 352.209 184.176 333.141 184.176 309.621C184.176 286.1 165.108 267.033 141.588 267.033C118.067 267.033 99 286.1 99 309.621C99 333.141 118.067 352.209 141.588 352.209Z" fill="black"/>
<path d="M198.12 366.153C229.366 334.907 229.369 284.336 198.12 253.087C166.874 221.841 116.303 221.838 85.0541 253.087C53.8082 284.333 53.8055 334.904 85.0541 366.153C116.3 397.399 166.871 397.402 198.12 366.153ZM99.0183 267.051C122.543 243.525 160.628 243.521 184.156 267.051C207.682 290.576 207.686 328.661 184.156 352.189C160.631 375.715 122.546 375.719 99.0183 352.189C75.492 328.664 75.4885 290.579 99.0183 267.051Z" fill="black"/>
</svg>
