<svg width="450" height="306" viewBox="0 0 450 306" fill="none" xmlns="http://www.w3.org/2000/svg">
<path d="M305.358 209.019H176.786V225.09H305.358V209.019Z" fill="white"/>
<path d="M160.714 209.019H144.642V225.09H160.714V209.019Z" fill="white"/>
<path d="M64.2853 184.911C46.5615 184.911 32.1424 199.331 32.1424 217.054V233.126H96.4281V217.054C96.4281 199.331 82.0091 184.911 64.2853 184.911Z" fill="white"/>
<path d="M0 293.394C0 300.04 5.40703 305.447 12.0536 305.447H437.946C444.593 305.447 450 300.04 450 293.394V273.304H0V293.394ZM425.903 281.34H425.913C430.352 281.34 433.949 284.938 433.949 289.376C433.949 293.814 430.352 297.412 425.913 297.412C421.475 297.412 417.872 293.814 417.872 289.376C417.872 284.938 421.465 281.34 425.903 281.34ZM401.796 281.34H401.806C406.245 281.34 409.841 284.938 409.841 289.376C409.841 293.814 406.245 297.412 401.806 297.412C397.368 297.412 393.765 293.814 393.765 289.376C393.765 284.938 397.358 281.34 401.796 281.34ZM377.689 281.34H377.699C382.137 281.34 385.734 284.938 385.734 289.376C385.734 293.814 382.137 297.412 377.699 297.412C373.261 297.412 369.658 293.814 369.658 289.376C369.658 284.938 373.251 281.34 377.689 281.34ZM297.321 281.34H345.536C349.973 281.34 353.571 284.938 353.571 289.376C353.571 293.814 349.973 297.412 345.536 297.412H297.321C292.884 297.412 289.286 293.814 289.286 289.376C289.286 284.938 292.884 281.34 297.321 281.34ZM184.821 281.34H265.179C269.616 281.34 273.214 284.938 273.214 289.376C273.214 293.814 269.616 297.412 265.179 297.412H184.821C180.384 297.412 176.786 293.814 176.786 289.376C176.786 284.938 180.384 281.34 184.821 281.34ZM104.464 281.34H152.679C157.116 281.34 160.714 284.938 160.714 289.376C160.714 293.814 157.116 297.412 152.679 297.412H104.464C100.027 297.412 96.4286 293.814 96.4286 289.376C96.4286 284.938 100.027 281.34 104.464 281.34Z" fill="white"/>
<path d="M64.2851 168.84C73.1611 168.84 80.3565 161.645 80.3565 152.769C80.3565 143.893 73.1611 136.697 64.2851 136.697C55.4091 136.697 48.2137 143.893 48.2137 152.769C48.2137 161.645 55.4091 168.84 64.2851 168.84Z" fill="white"/>
<path d="M409.822 147.502C409.822 141.544 404.975 136.697 399.017 136.697H372.413C366.454 136.697 361.608 141.544 361.608 147.502V160.804H409.822V147.502Z" fill="white"/>
<path d="M437.946 0.0900879H12.0536C5.40703 0.0900879 0 5.49712 0 12.1437V257.233H450V12.1437C450 5.49712 444.593 0.0900879 437.946 0.0900879ZM192.857 24.1972C192.857 19.7595 196.455 16.1615 200.893 16.1615H265.179C269.616 16.1615 273.214 19.7595 273.214 24.1972V104.554C273.214 108.992 269.616 112.59 265.179 112.59H200.893C196.455 112.59 192.857 108.992 192.857 104.554V88.483C192.857 84.0452 196.455 80.4472 200.893 80.4472C205.331 80.4472 208.929 84.0452 208.929 88.483V96.5187H257.143V32.2329H208.929V40.2687C208.929 44.7064 205.331 48.3044 200.893 48.3044C196.455 48.3044 192.857 44.7064 192.857 40.2687V24.1972ZM168.75 56.3401H221.671L219.318 53.9866C216.18 50.8477 216.18 45.7611 219.318 42.6221C222.457 39.4852 227.543 39.4852 230.682 42.6221L246.754 58.6936C249.892 61.8325 249.892 66.9191 246.754 70.0581L230.682 86.1295C229.113 87.6985 227.057 88.483 225 88.483C222.943 88.483 220.887 87.6985 219.318 86.1295C216.18 82.9905 216.18 77.9039 219.318 74.765L221.671 72.4115H168.75C164.312 72.4115 160.714 68.8135 160.714 64.3758C160.714 59.9381 164.312 56.3401 168.75 56.3401ZM112.5 241.162C112.5 245.599 108.902 249.197 104.464 249.197H24.1071C19.6694 249.197 16.0714 245.599 16.0714 241.162V217.054C16.0714 198.92 26.1382 183.099 40.9741 174.868C35.5038 169.105 32.1429 161.324 32.1429 152.769C32.1429 135.045 46.5619 120.626 64.2857 120.626C82.0095 120.626 96.4286 135.045 96.4286 152.769C96.4286 161.325 93.0526 169.095 87.5802 174.859C102.425 183.086 112.5 198.913 112.5 217.054V241.162ZM321.429 233.126C321.429 237.564 317.831 241.162 313.393 241.162H136.607C132.169 241.162 128.571 237.564 128.571 233.126V200.983C128.571 196.545 132.169 192.947 136.607 192.947H313.393C317.831 192.947 321.429 196.545 321.429 200.983V233.126ZM321.429 168.84C321.429 173.278 317.831 176.876 313.393 176.876H136.607C132.169 176.876 128.571 173.278 128.571 168.84V136.697C128.571 132.26 132.169 128.662 136.607 128.662H313.393C317.831 128.662 321.429 132.26 321.429 136.697V168.84ZM433.929 233.126C433.929 237.564 430.331 241.162 425.893 241.162H345.536C341.098 241.162 337.5 237.564 337.5 233.126V168.84C337.5 164.402 341.098 160.804 345.536 160.804V147.502C345.536 132.682 357.592 120.626 372.412 120.626H399.016C413.836 120.626 425.893 132.682 425.893 147.502V160.804C430.331 160.804 433.929 164.402 433.929 168.84V233.126Z" fill="white"/>
<path d="M417.857 176.876H353.571V225.09H417.857V176.876Z" fill="white"/>
<path d="M160.714 144.733H144.642V160.804H160.714V144.733Z" fill="white"/>
<path d="M305.358 144.733H176.786V160.804H305.358V144.733Z" fill="white"/>
</svg>
