<svg width="451" height="307" viewBox="0 0 451 307" fill="none" xmlns="http://www.w3.org/2000/svg">
<path d="M305.858 209.634H177.286V225.706H305.858V209.634Z" fill="black"/>
<path d="M161.214 209.634H145.143V225.706H161.214V209.634Z" fill="black"/>
<path d="M64.7854 185.527C47.0617 185.527 32.6426 199.946 32.6426 217.67V233.742H96.9283V217.67C96.9283 199.946 82.5092 185.527 64.7854 185.527Z" fill="black"/>
<path d="M0.5 294.009C0.5 300.656 5.90703 306.063 12.5536 306.063H438.446C445.093 306.063 450.5 300.656 450.5 294.009V273.92H0.5V294.009ZM426.403 281.956H426.413C430.852 281.956 434.449 285.554 434.449 289.992C434.449 294.429 430.852 298.027 426.413 298.027C421.975 298.027 418.372 294.429 418.372 289.992C418.372 285.554 421.965 281.956 426.403 281.956ZM402.296 281.956H402.306C406.745 281.956 410.341 285.554 410.341 289.992C410.341 294.429 406.745 298.027 402.306 298.027C397.868 298.027 394.265 294.429 394.265 289.992C394.265 285.554 397.858 281.956 402.296 281.956ZM378.189 281.956H378.199C382.637 281.956 386.234 285.554 386.234 289.992C386.234 294.429 382.637 298.027 378.199 298.027C373.761 298.027 370.158 294.429 370.158 289.992C370.158 285.554 373.751 281.956 378.189 281.956ZM297.821 281.956H346.036C350.473 281.956 354.071 285.554 354.071 289.992C354.071 294.429 350.473 298.027 346.036 298.027H297.821C293.384 298.027 289.786 294.429 289.786 289.992C289.786 285.554 293.384 281.956 297.821 281.956ZM185.321 281.956H265.679C270.116 281.956 273.714 285.554 273.714 289.992C273.714 294.429 270.116 298.027 265.679 298.027H185.321C180.884 298.027 177.286 294.429 177.286 289.992C177.286 285.554 180.884 281.956 185.321 281.956ZM104.964 281.956H153.179C157.616 281.956 161.214 285.554 161.214 289.992C161.214 294.429 157.616 298.027 153.179 298.027H104.964C100.527 298.027 96.9286 294.429 96.9286 289.992C96.9286 285.554 100.527 281.956 104.964 281.956Z" fill="black"/>
<path d="M64.7853 169.456C73.6613 169.456 80.8567 162.26 80.8567 153.384C80.8567 144.508 73.6613 137.313 64.7853 137.313C55.9093 137.313 48.7139 144.508 48.7139 153.384C48.7139 162.26 55.9093 169.456 64.7853 169.456Z" fill="black"/>
<path d="M410.322 148.118C410.322 142.16 405.475 137.313 399.517 137.313H372.912C366.954 137.313 362.107 142.16 362.107 148.118V161.42H410.322V148.118Z" fill="black"/>
<path d="M438.446 0.705811H12.5536C5.90703 0.705811 0.5 6.11284 0.5 12.7594V257.849H450.5V12.7594C450.5 6.11284 445.093 0.705811 438.446 0.705811ZM193.357 24.813C193.357 20.3752 196.955 16.7772 201.393 16.7772H265.679C270.116 16.7772 273.714 20.3752 273.714 24.813V105.17C273.714 109.608 270.116 113.206 265.679 113.206H201.393C196.955 113.206 193.357 109.608 193.357 105.17V89.0987C193.357 84.6609 196.955 81.063 201.393 81.063C205.831 81.063 209.429 84.6609 209.429 89.0987V97.1344H257.643V32.8487H209.429V40.8844C209.429 45.3221 205.831 48.9201 201.393 48.9201C196.955 48.9201 193.357 45.3221 193.357 40.8844V24.813ZM169.25 56.9558H222.171L219.818 54.6024C216.68 51.4634 216.68 46.3768 219.818 43.2379C222.957 40.1009 228.043 40.1009 231.182 43.2379L247.254 59.3093C250.392 62.4482 250.392 67.5348 247.254 70.6738L231.182 86.7452C229.613 88.3142 227.557 89.0987 225.5 89.0987C223.443 89.0987 221.387 88.3142 219.818 86.7452C216.68 83.6063 216.68 78.5197 219.818 75.3807L222.171 73.0272H169.25C164.812 73.0272 161.214 69.4293 161.214 64.9915C161.214 60.5538 164.812 56.9558 169.25 56.9558ZM113 241.777C113 246.215 109.402 249.813 104.964 249.813H24.6071C20.1694 249.813 16.5714 246.215 16.5714 241.777V217.67C16.5714 199.536 26.6382 183.715 41.4741 175.484C36.0038 169.721 32.6429 161.939 32.6429 153.384C32.6429 135.661 47.0619 121.242 64.7857 121.242C82.5095 121.242 96.9286 135.661 96.9286 153.384C96.9286 161.94 93.5526 169.711 88.0802 175.475C102.925 183.702 113 199.528 113 217.67V241.777ZM321.929 233.742C321.929 238.179 318.331 241.777 313.893 241.777H137.107C132.669 241.777 129.071 238.179 129.071 233.742V201.599C129.071 197.161 132.669 193.563 137.107 193.563H313.893C318.331 193.563 321.929 197.161 321.929 201.599V233.742ZM321.929 169.456C321.929 173.894 318.331 177.492 313.893 177.492H137.107C132.669 177.492 129.071 173.894 129.071 169.456V137.313C129.071 132.875 132.669 129.277 137.107 129.277H313.893C318.331 129.277 321.929 132.875 321.929 137.313V169.456ZM434.429 233.742C434.429 238.179 430.831 241.777 426.393 241.777H346.036C341.598 241.777 338 238.179 338 233.742V169.456C338 165.018 341.598 161.42 346.036 161.42V148.118C346.036 133.298 358.092 121.242 372.912 121.242H399.516C414.336 121.242 426.393 133.298 426.393 148.118V161.42C430.831 161.42 434.429 165.018 434.429 169.456V233.742Z" fill="black"/>
<path d="M418.357 177.491H354.071V225.706H418.357V177.491Z" fill="black"/>
<path d="M161.214 145.349H145.143V161.42H161.214V145.349Z" fill="black"/>
<path d="M305.858 145.349H177.286V161.42H305.858V145.349Z" fill="black"/>
</svg>
