<svg width="451" height="443" viewBox="0 0 451 443" fill="none" xmlns="http://www.w3.org/2000/svg">
<path fill-rule="evenodd" clip-rule="evenodd" d="M368.387 267.43V261.893C361.59 262.004 355.105 263.416 349.179 265.909L351.405 270.981C356.649 268.786 362.381 267.539 368.387 267.43ZM347.626 266.606L349.85 271.674C345.115 273.865 340.812 276.83 337.1 280.409L333.187 276.496C337.383 272.435 342.257 269.076 347.626 266.606ZM317.382 314.6H322.918C323.024 320.433 324.21 326.004 326.289 331.126L321.196 333.296C318.832 327.508 317.489 321.203 317.382 314.6ZM326.289 296.373L321.196 294.203C318.832 299.991 317.489 306.295 317.382 312.899H322.918C323.024 307.065 324.21 301.493 326.289 296.373ZM321.867 334.858L326.959 332.688C329.169 337.6 332.206 342.058 335.898 345.886L331.985 349.799C327.797 345.473 324.357 340.424 321.867 334.858ZM337.1 347.088L333.187 351.001C337.383 355.063 342.258 358.421 347.626 360.892L349.85 355.823C345.115 353.633 340.812 350.668 337.1 347.088ZM405.287 276.496L401.374 280.409C397.663 276.83 393.36 273.865 388.624 271.674L390.848 266.606C396.216 269.076 401.092 272.435 405.287 276.496ZM416.607 292.639L411.515 294.81C409.305 289.898 406.268 285.44 402.577 281.612L406.49 277.699C410.677 282.024 414.117 287.073 416.607 292.639ZM415.556 312.899H421.093C420.986 306.296 419.643 299.991 417.279 294.203L412.185 296.373C414.265 301.493 415.451 307.065 415.556 312.899ZM370.088 261.893C376.884 262.004 383.37 263.416 389.296 265.909L387.071 270.981C381.826 268.786 376.094 267.539 370.088 267.43V261.893ZM349.179 361.588C355.105 364.083 361.59 365.495 368.387 365.604V360.068C362.381 359.959 356.649 358.711 351.405 356.516L349.179 361.588ZM331.985 277.699L335.898 281.612C332.206 285.44 329.169 289.898 326.959 294.81L321.867 292.639C324.357 287.073 327.797 282.025 331.985 277.699ZM370.088 360.068V365.604C376.885 365.494 383.37 364.082 389.296 361.588L387.071 356.516C381.826 358.711 376.094 359.959 370.088 360.068ZM417.279 333.295L412.185 331.125C414.265 326.004 415.451 320.433 415.556 314.599H421.093C420.986 321.202 419.642 327.507 417.279 333.295ZM402.577 345.886L406.49 349.799C410.677 345.473 414.117 340.424 416.607 334.858L411.515 332.688C409.305 337.6 406.268 342.058 402.577 345.886ZM390.848 360.892L388.624 355.823C393.36 353.633 397.663 350.668 401.374 347.088L405.287 351.001C401.092 355.063 396.217 358.421 390.848 360.892ZM369.247 277.389C349.193 277.389 332.877 293.704 332.877 313.758C332.877 333.813 349.193 350.128 369.247 350.128C389.3 350.128 405.616 333.813 405.616 313.758C405.616 293.704 389.3 277.389 369.247 277.389ZM369.247 347.449C350.669 347.449 335.555 332.336 335.555 313.758C335.555 295.18 350.669 280.067 369.247 280.067C387.825 280.067 402.938 295.18 402.938 313.758C402.938 332.336 387.824 347.449 369.247 347.449ZM369.247 269.119C393.861 269.119 413.887 289.144 413.887 313.758C413.887 338.373 393.861 358.398 369.247 358.398C344.632 358.398 324.607 338.373 324.607 313.758C324.607 289.144 344.632 269.119 369.247 269.119ZM331.177 313.758C331.177 334.749 348.254 351.828 369.247 351.828C390.238 351.828 407.317 334.75 407.317 313.758C407.317 292.767 390.239 275.688 369.247 275.688C348.254 275.688 331.177 292.766 331.177 313.758ZM401.396 313.293C401.396 330.906 387.117 345.185 369.504 345.185C351.891 345.185 337.612 330.906 337.612 313.293C337.612 295.68 351.891 281.401 369.504 281.401C387.117 281.401 401.396 295.68 401.396 313.293ZM388.775 324.812L385.967 329.674C385.422 330.619 384.403 331.209 383.312 331.209L355.272 331.198L359.54 323.809L369.622 323.82H369.626L380.301 323.831C380.633 323.831 380.936 323.654 381.102 323.37L385.617 315.516L388.775 320.983C389.453 322.164 389.453 323.632 388.775 324.812ZM384.816 313.212L388.771 306.343C389.453 305.159 389.45 303.691 388.767 302.506L385.61 297.054L371.223 321.976L379.77 321.987L384.816 313.212ZM368.058 305.365L353.675 330.276L350.521 324.824C349.835 323.644 349.835 322.175 350.517 320.991L354.461 314.134C354.461 314.134 354.464 314.134 354.464 314.13L359.503 305.365H368.058ZM379.749 303.521L384.013 296.132L355.978 296.125C354.886 296.125 353.867 296.711 353.322 297.659L350.514 302.517C349.832 303.698 349.832 305.166 350.514 306.35L353.665 311.821L358.172 303.986C358.338 303.698 358.641 303.521 358.973 303.521H379.749Z" fill="black"/>
<path fill-rule="evenodd" clip-rule="evenodd" d="M324.157 138.696C322.593 140.261 322.145 142.484 322.988 144.523C323.832 146.571 325.73 147.837 327.937 147.837H346.648C349.593 147.837 351.983 150.228 351.983 153.189V219.635C357.468 218.694 363.093 218.167 368.85 218.167C374.606 218.167 380.231 218.659 385.716 219.635V153.189C385.716 150.228 388.133 147.837 391.068 147.837H409.78C411.969 147.837 413.867 146.562 414.711 144.523C415.563 142.484 415.115 140.27 413.568 138.696L372.638 97.792C370.546 95.7002 367.153 95.7002 365.062 97.792L324.157 138.696ZM150.362 34.5986C148.016 35.2227 145.748 35.9434 143.56 36.7695L140.967 23.0322C139.596 15.8516 139.798 8.75 145.054 3.99512C149.264 0.207031 155.293 -0.293945 160.074 2.74707L164.636 5.68262C168.819 8.3457 173.855 8.3457 178.039 5.68262L182.68 2.70312C186.837 0.0400391 191.873 0.0400391 196.057 2.70312L200.688 5.66504C204.846 8.32813 209.882 8.32813 214.065 5.66504L218.627 2.72949C223.408 -0.311523 229.437 0.189453 233.647 3.97754C238.903 8.74121 239.105 15.8428 237.761 23.0146L236.39 30.2129H234.096C224.806 21.8721 211.604 18.1807 198.746 21.6436L150.362 34.5986ZM300.365 381.802C283.253 364.435 272.715 340.625 272.715 314.337C272.715 290.272 281.53 268.3 296.129 251.416C293.018 246.415 289.572 241.555 285.863 236.87C282.119 232.133 278.19 227.677 274.2 223.388C268.522 227.176 261.693 229.417 254.372 229.417H213.239C193.525 229.417 177.459 213.324 177.459 193.619C177.459 182.914 182.196 173.272 189.693 166.716C187.399 161.987 186.107 156.679 186.107 151.098C186.107 150.351 186.134 149.577 186.187 148.856H157.385C151.872 177.182 133.553 195.084 113.638 214.545C111.517 216.618 109.378 218.708 107.234 220.83C79.2588 248.489 61.2676 284.19 61.2676 321.359C61.2676 388.209 118.616 442.42 189.351 442.42C236.812 442.42 278.217 418.03 300.365 381.802ZM177.74 101.352L184.912 99.4355L190.071 118.771C191.021 122.234 192.436 125.469 194.281 128.387C192.761 130.224 191.416 132.219 190.291 134.337H161.894C170.568 125.688 176.369 114.184 177.74 101.352ZM259.206 100.227L255.743 87.2979L245.346 48.5557C244.994 47.2549 244.599 45.9893 244.098 44.7412H263.012C274.719 44.7412 284.29 54.3125 284.29 66.0195C284.29 77.709 274.719 87.2979 263.012 87.2979H274.596C286.276 87.2979 295.848 96.8691 295.848 108.55C295.848 120.257 286.276 129.828 274.596 129.828H263.012C274.719 129.828 284.29 139.399 284.29 151.106C284.29 162.787 274.719 172.358 263.012 172.358H254.363C266.07 172.358 275.642 181.956 275.642 193.637C275.642 205.344 266.07 214.915 254.363 214.915H213.23C201.523 214.915 191.952 205.344 191.952 193.637C191.952 181.947 201.523 172.358 213.23 172.358H221.879C210.189 172.358 200.601 162.787 200.601 151.106C200.601 146.598 202.024 142.414 204.441 138.951C212.791 144.655 223.479 146.844 233.894 144.058C242.366 141.79 249.345 136.578 254.003 129.828C259.777 121.452 262.019 110.712 259.206 100.227ZM135.184 167.349C129.611 177.14 121.71 186.061 113.413 194.454C110.17 193.883 106.856 193.584 103.358 193.593H91.3789V70.4668H99.7988C111.857 70.4668 122.193 67.1357 131.984 60.1309L136.273 57.0635C141.925 53.0293 147.409 50.4365 154.133 48.6436L202.49 35.6621C215.041 32.3223 227.996 39.793 231.362 52.3262L236.267 70.6602L245.179 103.979C248.22 115.265 241.443 126.998 230.158 130.013C218.847 133.054 207.14 126.277 204.099 114.992L195.178 81.6553L163.537 90.1279V95.4629C163.537 117.91 145.177 135.849 123.151 135.849H120.638C117.148 135.849 114.283 138.714 114.283 142.203V144.022C114.283 147.538 117.148 150.377 120.638 150.377H123.151C130.147 150.377 136.854 149.059 143.006 146.668C141.564 153.699 139.042 160.599 135.184 167.349ZM76.8418 58.751V199.763C76.8418 205.361 72.2539 209.923 66.6729 209.932H10.6689C5.08789 209.932 0.5 205.37 0.5 199.763V58.751C0.5 53.1436 5.08789 48.5557 10.6689 48.5645H66.6729C72.2539 48.5645 76.8418 53.1436 76.8418 58.751ZM368.858 395.952C413.955 395.952 450.5 359.407 450.5 314.337C450.5 269.24 413.946 232.695 368.858 232.695C323.788 232.695 287.217 269.24 287.217 314.337C287.217 359.407 323.788 395.952 368.858 395.952ZM368.858 258.579C399.655 258.579 424.59 283.54 424.59 314.337C424.59 345.107 399.646 370.068 368.858 370.068C338.088 370.068 313.127 345.107 313.127 314.337C313.127 283.54 338.088 258.579 368.858 258.579ZM192.79 303.904H214.395C217.26 303.904 220.008 305.042 222.034 307.068C224.06 309.094 225.198 311.842 225.198 314.707C225.198 317.572 224.06 320.32 222.034 322.346C220.008 324.372 217.26 325.51 214.395 325.51L192.79 325.126V347.115C192.79 349.98 191.652 352.728 189.626 354.754C187.6 356.78 184.852 357.918 181.987 357.918C179.122 357.918 176.374 356.78 174.348 354.754C172.322 352.728 171.184 349.98 171.184 347.115L171.568 325.126L149.579 325.51C146.713 325.51 143.966 324.372 141.94 322.346C139.914 320.32 138.776 317.572 138.776 314.707C138.776 311.842 139.914 309.094 141.94 307.068C143.966 305.042 146.713 303.904 149.579 303.904H171.568L171.184 282.299C171.184 279.434 172.322 276.686 174.348 274.66C176.374 272.634 179.122 271.496 181.987 271.496C184.852 271.496 187.6 272.634 189.626 274.66C191.652 276.686 192.79 279.434 192.79 282.299V303.904Z" fill="black"/>
</svg>
