<svg width="493" height="451" viewBox="0 0 493 451" fill="none" xmlns="http://www.w3.org/2000/svg">
<path fill-rule="evenodd" clip-rule="evenodd" d="M46.8889 17.1726V12.185C40.7659 12.2846 34.9233 13.5564 29.5848 15.8027L31.5898 20.372C36.3138 18.3946 41.4776 17.2706 46.8889 17.1726ZM28.1858 16.4301L30.1892 20.9964C25.9234 22.9699 22.0474 25.6415 18.7032 28.8654L15.1782 25.3404C18.9576 21.6813 23.3491 18.6558 28.1858 16.4301ZM0.939453 59.6668H5.92704C6.02204 64.9218 7.09081 69.9408 8.96402 74.5546L4.3756 76.5098C2.24573 71.2954 1.03599 65.6152 0.939453 59.6668ZM8.96402 43.2468L4.3756 41.2916C2.24573 46.5059 1.03599 52.1854 0.939453 58.1345H5.92704C6.02204 52.8787 7.09081 47.8597 8.96402 43.2468ZM4.97993 77.9172L9.56759 75.962C11.558 80.3872 14.2939 84.4033 17.6197 87.8518L14.0947 91.3768C10.3222 87.4802 7.22319 82.9316 4.97993 77.9172ZM18.7032 88.935L15.1782 92.4601C18.9576 96.1192 23.3499 99.1447 28.1858 101.37L30.1892 96.8041C25.9234 94.8305 22.0474 92.1598 18.7032 88.935ZM80.1309 25.3404L76.6059 28.8654C73.2624 25.6415 69.3858 22.9699 65.1199 20.9964L67.1233 16.4301C71.9592 18.6558 76.3515 21.6813 80.1309 25.3404ZM90.3291 39.8834L85.7414 41.8386C83.751 37.4141 81.0151 33.398 77.6893 29.9488L81.2143 26.4238C84.9868 30.3204 88.0858 34.869 90.3291 39.8834ZM89.3823 58.1345H94.3699C94.2734 52.1861 93.0636 46.5059 90.9338 41.2916L86.3453 43.2468C88.2186 47.8597 89.2873 52.8787 89.3823 58.1345ZM48.4212 12.185C54.5434 12.2846 60.386 13.5564 65.7253 15.8027L63.7203 20.372C58.9955 18.3946 53.8317 17.2706 48.4212 17.1726V12.185ZM29.5848 101.998C34.9233 104.245 40.7659 105.517 46.8889 105.615V100.628C41.4784 100.53 36.3146 99.4058 31.5898 97.4284L29.5848 101.998ZM14.0947 26.4238L17.6197 29.9488C14.2939 33.398 11.558 37.4141 9.56759 41.8386L4.97993 39.8834C7.22319 34.869 10.3222 30.3212 14.0947 26.4238ZM48.4212 100.628V105.615C54.5442 105.516 60.3868 104.244 65.7253 101.998L63.7203 97.4284C58.9955 99.4058 53.8317 100.53 48.4212 100.628ZM90.9338 76.509L86.3453 74.5538C88.2186 69.9408 89.2873 64.9218 89.3823 59.666H94.3699C94.2734 65.6144 93.0629 71.2946 90.9338 76.509ZM77.6893 87.8518L81.2143 91.3768C84.9868 87.4794 88.0858 82.9316 90.3291 77.9172L85.7414 75.962C83.751 80.3872 81.0151 84.4033 77.6893 87.8518ZM67.1233 101.37L65.1199 96.8041C69.3858 94.8305 73.2624 92.1598 76.6059 88.935L80.1309 92.4601C76.3515 96.1192 71.96 99.1447 67.1233 101.37ZM47.6631 26.1447C29.5974 26.1447 14.899 40.8424 14.899 58.9089C14.899 76.9753 29.5974 91.6731 47.6631 91.6731C65.7287 91.6731 80.4271 76.9753 80.4271 58.9089C80.4271 40.8424 65.7287 26.1447 47.6631 26.1447ZM47.6631 89.2597C30.9267 89.2597 17.3116 75.6446 17.3116 58.9081C17.3116 42.1717 30.9267 28.5573 47.6631 28.5573C64.3994 28.5573 78.0145 42.1725 78.0145 58.9089C78.0145 75.6453 64.3987 89.2597 47.6631 89.2597ZM47.6632 18.694C69.8377 18.694 87.878 36.7344 87.878 58.9089C87.878 81.0834 69.8377 99.1238 47.6632 99.1238C25.4888 99.1238 7.44846 81.0834 7.44846 58.9089C7.44846 36.7344 25.4888 18.694 47.6632 18.694ZM13.3669 58.9081C13.3669 77.8189 28.7518 93.2046 47.6632 93.2046C66.5739 93.2046 81.9596 77.8197 81.9596 58.9089C81.9596 39.9982 66.5747 24.6125 47.6632 24.6125C28.7518 24.6125 13.3669 39.9974 13.3669 58.9081ZM76.6253 58.4897C76.6253 74.3571 63.7623 87.2202 47.895 87.2202C32.0277 87.2202 19.1647 74.3571 19.1647 58.4897C19.1647 42.6224 32.0277 29.7593 47.895 29.7593C63.7623 29.7593 76.6253 42.6224 76.6253 58.4897ZM65.2556 68.8675L62.7266 73.2475C62.2348 74.0982 61.3176 74.6299 60.3339 74.6299L35.0742 74.62L38.9192 67.9636L48.0015 67.9735H48.0048L57.6222 67.9835C57.9213 67.9835 58.1938 67.824 58.3433 67.5681L62.4109 60.493L65.2556 65.418C65.867 66.4814 65.867 67.804 65.2556 68.8675ZM61.6897 58.416L65.2522 52.2281C65.867 51.1614 65.8637 49.8387 65.2489 48.772L62.4042 43.8603L49.4437 66.3119L57.1436 66.3219L61.6897 58.416ZM46.5923 51.3474L33.6352 73.7891L30.7938 68.8774C30.1757 67.8139 30.1757 66.4913 30.7905 65.4246L34.343 59.2467C34.343 59.2467 34.3463 59.2467 34.3463 59.2434L38.8858 51.3474H46.5923ZM57.1238 49.6859L60.9654 43.0295L35.7091 43.0228C34.7254 43.0228 33.8082 43.5512 33.3164 44.4053L30.7874 48.7819C30.1726 49.8454 30.1726 51.168 30.7874 52.2348L33.6254 57.1631L37.6864 50.1046C37.8359 49.8454 38.1084 49.6859 38.4075 49.6859H57.1238Z" fill="white"/>
<path d="M91.6013 154.823V172.54H65.0255C57.9836 172.519 51.2362 169.712 46.2568 164.733C41.2774 159.754 38.4707 153.006 38.4497 145.964V118.503C41.3625 119.113 44.3323 119.41 47.3083 119.388C50.2843 119.41 53.2541 119.113 56.1669 118.503V145.964C56.1669 148.314 57.1002 150.567 58.7615 152.228C60.4228 153.89 62.676 154.823 65.0255 154.823H91.6013Z" fill="white"/>
<path d="M30.1892 354.492L28.1858 349.926C23.3491 352.151 18.9576 355.177 15.1782 358.836L18.7032 362.361C22.0474 359.137 25.9234 356.466 30.1892 354.492Z" fill="white"/>
<path d="M5.92704 393.162H0.939453C1.03599 399.111 2.24573 404.791 4.3756 410.005L8.96402 408.05C7.09081 403.436 6.02204 398.417 5.92704 393.162Z" fill="white"/>
<path d="M8.96402 376.742L4.3756 374.787C2.24573 380.002 1.03599 385.681 0.939453 391.63H5.92704C6.02204 386.374 7.09081 381.355 8.96402 376.742Z" fill="white"/>
<path d="M9.56759 409.458L4.97993 411.413C7.22319 416.427 10.3222 420.976 14.0947 424.872L17.6197 421.347C14.2939 417.899 11.558 413.883 9.56759 409.458Z" fill="white"/>
<path d="M18.7032 422.431L15.1782 425.956C18.9576 429.615 23.3499 432.64 28.1858 434.866L30.1892 430.3C25.9234 428.326 22.0474 425.655 18.7032 422.431Z" fill="white"/>
<path d="M76.6059 362.361L80.1309 358.836C76.3515 355.177 71.9592 352.151 67.1233 349.926L65.1199 354.492C69.3858 356.466 73.2624 359.137 76.6059 362.361Z" fill="white"/>
<path d="M46.8889 350.668V345.681C40.7659 345.78 34.9233 347.052 29.5848 349.298L31.5898 353.868C36.3138 351.89 41.4776 350.766 46.8889 350.668Z" fill="white"/>
<path d="M85.7414 375.334L90.3291 373.379C88.0858 368.365 84.9868 363.816 81.2143 359.919L77.6893 363.444C81.0151 366.894 83.751 370.91 85.7414 375.334Z" fill="white"/>
<path d="M89.3823 391.63H94.3699C94.2734 385.682 93.0636 380.002 90.9338 374.787L86.3453 376.742C88.2186 381.355 89.2873 386.374 89.3823 391.63Z" fill="white"/>
<path d="M65.7253 349.298C60.386 347.052 54.5434 345.78 48.4212 345.681V350.668C53.8317 350.766 58.9955 351.89 63.7203 353.868L65.7253 349.298Z" fill="white"/>
<path d="M29.5848 435.493C34.9233 437.74 40.7659 439.012 46.8889 439.111V434.123C41.4784 434.025 36.3146 432.901 31.5898 430.924L29.5848 435.493Z" fill="white"/>
<path d="M17.6197 363.444L14.0947 359.919C10.3222 363.817 7.22319 368.365 4.97993 373.379L9.56759 375.334C11.558 370.91 14.2939 366.894 17.6197 363.444Z" fill="white"/>
<path d="M48.4212 434.123V439.111C54.5442 439.011 60.3868 437.74 65.7253 435.493L63.7203 430.924C58.9955 432.901 53.8317 434.025 48.4212 434.123Z" fill="white"/>
<path d="M86.3453 408.049L90.9338 410.005C93.0629 404.79 94.2734 399.11 94.3699 393.162H89.3823C89.2873 398.417 88.2186 403.436 86.3453 408.049Z" fill="white"/>
<path d="M77.6893 421.347L81.2143 424.872C84.9868 420.975 88.0858 416.427 90.3291 411.413L85.7414 409.458C83.751 413.883 81.0151 417.899 77.6893 421.347Z" fill="white"/>
<path d="M65.1199 430.3L67.1233 434.866C71.96 432.64 76.3515 429.615 80.1309 425.956L76.6059 422.431C73.2624 425.655 69.3858 428.326 65.1199 430.3Z" fill="white"/>
<path d="M87.878 392.405C87.878 370.23 69.8377 352.19 47.6632 352.19C25.4888 352.19 7.44846 370.23 7.44846 392.405C7.44846 414.579 25.4888 432.619 47.6632 432.619C69.8377 432.619 87.878 414.579 87.878 392.405ZM47.6632 426.7C28.7518 426.7 13.3669 411.315 13.3669 392.404C13.3669 373.493 28.7518 358.108 47.6632 358.108C66.5747 358.108 81.9596 373.494 81.9596 392.405C81.9596 411.315 66.5739 426.7 47.6632 426.7Z" fill="white"/>
<path fill-rule="evenodd" clip-rule="evenodd" d="M47.5418 360C65.3709 360 79.8243 374.454 79.8243 392.283C79.8243 410.112 65.3709 424.566 47.5418 424.566C29.7126 424.566 15.2593 410.112 15.2593 392.283C15.2593 374.454 29.7126 360 47.5418 360ZM62.1693 383.345L47.7361 368.946L33.3033 383.392L38.6372 388.727L47.7361 379.573L56.8353 388.68L62.1693 383.345ZM34.821 392.5L29.5361 387.163L24.2041 392.5L29.5379 397.79L34.821 392.5ZM53.068 392.453L47.7363 387.165H47.7361L42.4041 392.5L47.7361 397.79L53.068 392.453ZM71.3132 392.5L65.9362 387.163L60.6512 392.5L65.9833 397.837L71.3132 392.5ZM62.1695 401.608L56.8353 396.273L47.7362 405.427L38.6373 396.273L33.303 401.61L47.7361 416.055L62.1695 401.608Z" fill="white"/>
<path d="M91.6013 279.172V296.89H65.0255C62.676 296.89 60.4228 297.823 58.7615 299.484C57.1002 301.146 56.1669 303.399 56.1669 305.748V333.21C53.2541 332.6 50.2843 332.303 47.3083 332.324C44.3323 332.303 41.3625 332.6 38.4497 333.21V305.748C38.4707 298.706 41.2774 291.959 46.2568 286.98C51.2362 282 57.9836 279.193 65.0255 279.172H91.6013Z" fill="white"/>
<path d="M427.88 20.9964L425.876 16.4301C421.04 18.6558 416.648 21.6813 412.869 25.3404L416.394 28.8654C419.738 25.6415 423.614 22.9699 427.88 20.9964Z" fill="white"/>
<path d="M403.617 59.6668H398.63C398.726 65.6152 399.936 71.2954 402.066 76.5098L406.654 74.5546C404.781 69.9408 403.712 64.9218 403.617 59.6668Z" fill="white"/>
<path d="M406.654 43.2468L402.066 41.2916C399.936 46.5059 398.726 52.1854 398.63 58.1345H403.617C403.712 52.8787 404.781 47.8597 406.654 43.2468Z" fill="white"/>
<path d="M407.258 75.962L402.67 77.9172C404.914 82.9316 408.013 87.4802 411.785 91.3768L415.31 87.8518C411.984 84.4033 409.248 80.3872 407.258 75.962Z" fill="white"/>
<path d="M416.394 88.935L412.869 92.4601C416.648 96.1192 421.04 99.1447 425.876 101.37L427.88 96.8041C423.614 94.8305 419.738 92.1597 416.394 88.935Z" fill="white"/>
<path d="M474.296 28.8654L477.821 25.3404C474.042 21.6813 469.65 18.6558 464.814 16.4301L462.81 20.9964C467.076 22.9699 470.953 25.6415 474.296 28.8654Z" fill="white"/>
<path d="M444.579 17.1726V12.185C438.456 12.2846 432.614 13.5564 427.275 15.8027L429.28 20.372C434.004 18.3946 439.168 17.2706 444.579 17.1726Z" fill="white"/>
<path d="M483.432 41.8386L488.02 39.8834C485.776 34.869 482.677 30.3204 478.905 26.4238L475.38 29.9488C478.706 33.398 481.441 37.4141 483.432 41.8386Z" fill="white"/>
<path d="M487.073 58.1345H492.06C491.964 52.1861 490.754 46.5059 488.624 41.2916L484.036 43.2468C485.909 47.8597 486.978 52.8787 487.073 58.1345Z" fill="white"/>
<path d="M463.416 15.8027C458.076 13.5564 452.234 12.2846 446.112 12.185V17.1726C451.522 17.2706 456.686 18.3946 461.411 20.372L463.416 15.8027Z" fill="white"/>
<path d="M427.275 101.998C432.614 104.245 438.456 105.517 444.579 105.615V100.628C439.169 100.53 434.005 99.4058 429.28 97.4284L427.275 101.998Z" fill="white"/>
<path d="M415.31 29.9488L411.785 26.4238C408.013 30.3212 404.914 34.869 402.67 39.8834L407.258 41.8386C409.248 37.4141 411.984 33.398 415.31 29.9488Z" fill="white"/>
<path d="M446.112 100.628V105.615C452.235 105.516 458.077 104.244 463.416 101.998L461.411 97.4284C456.686 99.4058 451.522 100.53 446.112 100.628Z" fill="white"/>
<path d="M484.036 74.5538L488.624 76.509C490.753 71.2946 491.964 65.6144 492.06 59.666H487.073C486.978 64.9218 485.909 69.9408 484.036 74.5538Z" fill="white"/>
<path d="M475.38 87.8518L478.905 91.3768C482.677 87.4794 485.776 82.9316 488.02 77.9172L483.432 75.962C481.441 80.3872 478.706 84.4033 475.38 87.8518Z" fill="white"/>
<path d="M462.81 96.8041L464.814 101.37C469.65 99.1447 474.042 96.1192 477.821 92.4601L474.296 88.935C470.953 92.1597 467.076 94.8305 462.81 96.8041Z" fill="white"/>
<path d="M485.568 58.9089C485.568 36.7344 467.528 18.694 445.354 18.694C423.179 18.694 405.139 36.7344 405.139 58.9089C405.139 81.0834 423.179 99.1238 445.354 99.1238C467.528 99.1238 485.568 81.0834 485.568 58.9089ZM445.354 93.2046C426.442 93.2046 411.057 77.8189 411.057 58.9081C411.057 39.9974 426.442 24.6125 445.354 24.6125C464.265 24.6125 479.65 39.9982 479.65 58.9089C479.65 77.8197 464.264 93.2046 445.354 93.2046Z" fill="white"/>
<path fill-rule="evenodd" clip-rule="evenodd" d="M445.232 26.5048C463.061 26.5048 477.515 40.9582 477.515 58.7874C477.515 76.6166 463.061 91.07 445.232 91.07C427.403 91.07 412.95 76.6166 412.95 58.7874C412.95 40.9582 427.403 26.5048 445.232 26.5048ZM459.86 49.8496L445.427 35.4499L430.994 49.8966L436.328 55.2316L445.427 46.0769L454.526 55.1847L459.86 49.8496ZM432.511 59.0044L427.227 53.6673L421.895 59.0044L427.228 64.2943L432.511 59.0044ZM450.758 58.9572L445.427 53.6693H445.427L440.094 59.0044L445.427 64.2943L450.758 58.9572ZM469.004 59.0044L463.627 53.6673L458.342 59.0044L463.674 64.3414L469.004 59.0044ZM459.86 68.112L454.526 62.7769L445.427 71.9316L436.328 62.7769L430.993 68.114L445.427 82.559L459.86 68.112Z" fill="white"/>
<path d="M454.481 118.503V145.964C454.46 153.006 451.653 159.754 446.674 164.733C441.694 169.712 434.947 172.519 427.905 172.54H401.329V154.823H427.905C430.254 154.823 432.508 153.89 434.169 152.228C435.83 150.567 436.763 148.314 436.763 145.964V118.503C442.61 119.684 448.634 119.684 454.481 118.503Z" fill="white"/>
<path fill-rule="evenodd" clip-rule="evenodd" d="M444.579 350.182V345.195C438.456 345.294 432.614 346.566 427.275 348.812L429.28 353.382C434.004 351.404 439.168 350.28 444.579 350.182ZM425.876 349.44L427.88 354.006C423.614 355.98 419.738 358.652 416.394 361.876L412.869 358.35C416.648 354.691 421.04 351.666 425.876 349.44ZM398.63 392.678H403.617C403.712 397.933 404.781 402.953 406.654 407.566L402.066 409.522C399.936 404.307 398.726 398.627 398.63 392.678ZM406.654 376.257L402.066 374.302C399.936 379.517 398.726 385.196 398.63 391.146H403.617C403.712 385.89 404.781 380.871 406.654 376.257ZM402.67 410.929L407.258 408.974C409.248 413.399 411.984 417.416 415.31 420.864L411.785 424.389C408.013 420.493 404.914 415.944 402.67 410.929ZM416.394 421.947L412.869 425.473C416.648 429.132 421.04 432.157 425.876 434.383L427.88 429.817C423.614 427.843 419.738 425.172 416.394 421.947ZM477.821 358.35L474.296 361.876C470.953 358.652 467.076 355.98 462.81 354.006L464.814 349.44C469.65 351.666 474.042 354.691 477.821 358.35ZM488.02 372.894L483.432 374.849C481.441 370.425 478.706 366.408 475.38 362.959L478.905 359.434C482.677 363.331 485.776 367.879 488.02 372.894ZM487.073 391.146H492.06C491.964 385.197 490.754 379.517 488.624 374.302L484.036 376.257C485.909 380.871 486.978 385.89 487.073 391.146ZM446.112 345.195C452.234 345.294 458.076 346.566 463.416 348.812L461.411 353.382C456.686 351.404 451.522 350.28 446.112 350.182V345.195ZM427.275 435.011C432.614 437.258 438.456 438.53 444.579 438.628V433.641C439.169 433.543 434.005 432.419 429.28 430.441L427.275 435.011ZM411.785 359.434L415.31 362.959C411.984 366.408 409.248 370.425 407.258 374.849L402.67 372.894C404.914 367.879 408.013 363.331 411.785 359.434ZM446.112 433.641V438.628C452.235 438.529 458.077 437.257 463.416 435.011L461.411 430.441C456.686 432.419 451.522 433.543 446.112 433.641ZM488.624 409.521L484.036 407.566C485.909 402.953 486.978 397.933 487.073 392.677H492.06C491.964 398.626 490.753 404.306 488.624 409.521ZM475.38 420.864L478.905 424.389C482.677 420.492 485.776 415.944 488.02 410.929L483.432 408.974C481.441 413.399 478.706 417.416 475.38 420.864ZM464.814 434.383L462.81 429.817C467.076 427.843 470.953 425.172 474.296 421.947L477.821 425.473C474.042 429.132 469.65 432.157 464.814 434.383ZM445.354 359.155C427.288 359.155 412.589 373.853 412.589 391.92C412.589 409.987 427.288 424.686 445.354 424.686C463.419 424.686 478.118 409.987 478.118 391.92C478.118 373.853 463.419 359.155 445.354 359.155ZM445.354 422.272C428.617 422.272 415.002 408.656 415.002 391.919C415.002 375.182 428.617 361.567 445.354 361.567C462.09 361.567 475.705 375.183 475.705 391.92C475.705 408.657 462.089 422.272 445.354 422.272ZM445.354 351.704C467.528 351.704 485.568 369.745 485.568 391.92C485.568 414.096 467.528 432.137 445.354 432.137C423.179 432.137 405.139 414.096 405.139 391.92C405.139 369.745 423.179 351.704 445.354 351.704ZM411.057 391.919C411.057 410.831 426.442 426.217 445.354 426.217C464.264 426.217 479.65 410.832 479.65 391.92C479.65 373.009 464.265 357.622 445.354 357.622C426.442 357.622 411.057 373.008 411.057 391.919ZM474.316 391.501C474.316 407.369 461.453 420.233 445.585 420.233C429.718 420.233 416.855 407.369 416.855 391.501C416.855 375.633 429.718 362.77 445.585 362.77C461.453 362.77 474.316 375.633 474.316 391.501ZM462.946 401.879L460.417 406.259C459.925 407.11 459.008 407.642 458.024 407.642L432.765 407.632L436.61 400.975L445.692 400.985H445.695L455.313 400.995C455.612 400.995 455.884 400.836 456.034 400.58L460.101 393.504L462.946 398.43C463.557 399.493 463.557 400.816 462.946 401.879ZM459.38 391.427L462.943 385.239C463.557 384.172 463.554 382.85 462.939 381.783L460.095 376.871L447.134 399.323L454.834 399.333L459.38 391.427ZM444.283 384.358L431.326 406.801L428.484 401.889C427.866 400.826 427.866 399.503 428.481 398.436L432.033 392.258C432.033 392.258 432.035 392.258 432.036 392.257C432.036 392.257 432.037 392.256 432.037 392.255L436.576 384.358H444.283ZM454.814 382.697L458.656 376.04L433.4 376.034C432.416 376.034 431.499 376.562 431.007 377.416L428.478 381.793C427.863 382.856 427.863 384.179 428.478 385.246L431.316 390.174L435.377 383.116C435.526 382.856 435.799 382.697 436.098 382.697H454.814Z" fill="white"/>
<path d="M454.481 305.262V332.724C448.634 331.543 442.61 331.543 436.763 332.724V305.262C436.763 302.913 435.83 300.66 434.169 298.998C432.508 297.337 430.254 296.404 427.905 296.404H401.329V278.686H427.905C434.947 278.708 441.694 281.514 446.674 286.494C451.653 291.473 454.46 298.22 454.481 305.262Z" fill="white"/>
<path fill-rule="evenodd" clip-rule="evenodd" d="M134.24 0.0900879C123.549 0.0900879 114.882 8.75708 114.882 19.4483V430.732C114.882 441.423 123.549 450.09 134.24 450.09H359.16C369.852 450.09 378.519 441.423 378.519 430.732V19.4483C378.519 8.75705 369.852 0.0900879 359.16 0.0900879H134.24ZM144.678 18.2718C138.264 18.2718 133.063 23.472 133.063 29.8868V420.293C133.063 426.708 138.263 431.908 144.678 431.908H348.721C355.136 431.908 360.336 426.708 360.336 420.293V29.8868C360.336 23.472 355.136 18.2718 348.721 18.2718H144.678Z" fill="white"/>
<path d="M132.758 349.768C132.758 358.105 147.13 362.467 161.329 362.467C175.527 362.467 189.899 358.105 189.899 349.768C189.899 333.096 132.758 333.096 132.758 349.768Z" fill="white"/>
<path d="M161.329 368.815C151.054 368.815 132.758 365.805 132.758 356.117V362.466C132.758 370.783 147.107 375.164 161.329 375.164C175.551 375.164 189.899 370.783 189.899 362.466V356.117C189.899 365.796 171.69 368.815 161.329 368.815Z" fill="white"/>
<path d="M161.329 394.211C147.107 394.211 132.758 389.83 132.758 381.513V387.862C132.758 396.179 147.107 400.56 161.329 400.56C175.551 400.56 189.899 396.179 189.899 387.862V381.513C189.899 389.83 175.551 394.211 161.329 394.211Z" fill="white"/>
<path d="M161.329 406.909C147.107 406.909 132.758 402.528 132.758 394.211V400.56C132.758 408.877 147.107 413.258 161.329 413.258C175.551 413.258 189.899 408.877 189.899 400.56V394.211C189.899 402.528 175.551 406.909 161.329 406.909Z" fill="white"/>
<path d="M161.329 419.605C147.107 419.605 132.758 415.224 132.758 406.907V413.256C132.758 421.573 147.107 425.954 161.329 425.954C175.551 425.954 189.899 421.573 189.899 413.256V406.907C189.899 415.224 175.551 419.605 161.329 419.605Z" fill="white"/>
<path d="M161.329 432.304C147.107 432.304 132.758 427.924 132.758 419.606V425.955C132.758 434.273 147.107 438.653 161.329 438.653C175.551 438.653 189.899 434.273 189.899 425.955V419.606C189.899 427.924 175.551 432.304 161.329 432.304Z" fill="white"/>
<path d="M161.329 381.512C147.107 381.512 132.758 377.131 132.758 368.814V375.163C132.758 384.851 151.054 387.861 161.329 387.861C173.645 387.861 186.026 384.559 189.138 378.337C189.645 377.385 189.899 376.306 189.899 375.163V368.814C189.899 377.131 175.551 381.512 161.329 381.512Z" fill="white"/>
<path d="M212.123 432.304C206.279 432.304 200.471 431.525 195.588 430.076C194.957 432.051 193.864 433.812 192.412 435.378C197.788 437.54 204.967 438.653 212.123 438.653C226.345 438.653 241.117 434.273 241.117 425.955V419.606C241.117 427.924 226.345 432.304 212.123 432.304Z" fill="white"/>
<path d="M212.12 406.909C206.538 406.909 200.986 406.197 196.247 404.876C196.247 408.444 196.247 407.677 196.247 411.245C200.988 412.563 206.547 413.259 212.12 413.259C226.342 413.259 241.114 408.878 241.114 400.561V394.212C241.114 403.899 222.394 406.909 212.12 406.909Z" fill="white"/>
<path d="M212.12 419.608C206.521 419.608 200.998 418.853 196.247 417.518C196.247 419.871 196.247 418.446 196.247 423.899C200.979 425.235 206.524 425.957 212.12 425.957C222.481 425.957 241.114 422.938 241.114 413.259V406.91C241.114 415.227 226.342 419.608 212.12 419.608Z" fill="white"/>
<path d="M196.247 377.324V398.454C200.989 399.802 206.513 400.559 212.119 400.559C226.318 400.559 241.114 396.197 241.114 387.861C241.114 376.254 213.06 372.762 196.247 377.324Z" fill="white"/>
<path d="M127.172 275.773C127.172 275.359 128.656 273.467 135.916 271.783C142.273 270.306 150.752 269.494 159.79 269.494C164.433 269.484 169.074 269.715 173.693 270.187C173.019 273.884 172.937 277.665 173.45 281.389C168.911 281.845 164.352 282.068 159.79 282.057C150.752 282.057 142.273 281.244 135.916 279.768C128.656 278.082 127.172 276.187 127.172 275.773ZM128.122 285.222C133.553 289.931 157.121 292.143 175.699 289.814C175.026 288.156 174.481 286.45 174.068 284.709C169.325 285.198 164.559 285.437 159.791 285.426C150.503 285.426 141.754 284.581 135.155 283.047C131.694 282.244 129.041 281.316 127.173 280.251V283.639C127.172 283.827 127.172 284.395 128.122 285.222ZM128.286 293.913C135.118 299.411 163.41 300.675 180.15 297.699C179.043 296.217 178.053 294.652 177.189 293.016C171.386 293.761 165.54 294.124 159.689 294.103C155.755 294.103 151.808 293.949 148.049 293.642C142.236 293.164 132.253 291.898 127.172 288.683V292.194C127.172 292.741 127.545 293.317 128.285 293.913H128.286ZM149.819 307.509C153.582 305.466 157.736 304.246 162.006 303.929C166.276 303.612 170.564 304.206 174.587 305.671C176.769 303.981 180.463 302.793 183.933 301.989C183.483 301.554 183.045 301.108 182.62 300.65C176.368 301.949 168.068 302.656 159.619 302.656C156.904 302.656 154.177 302.583 151.496 302.434C144.7 302.054 132.882 300.878 127.172 297.244V300.751C127.172 303.317 134.95 306.462 149.819 307.508V307.509ZM140.758 315.053C142.119 313.375 143.656 311.847 145.341 310.495C140.094 309.942 135.583 309.087 132.138 307.989C130.396 307.469 128.728 306.73 127.172 305.789V309.305C127.172 311.096 131.381 313.549 140.758 315.053ZM127.172 314.343V317.854C127.172 319.206 129.57 321.166 136.217 322.724C136.871 321.117 137.662 319.569 138.582 318.097C133.445 317.167 129.642 315.915 127.172 314.343ZM127.172 326.408C127.172 327.575 129.048 329.278 134.185 330.749C134.365 329.118 134.678 327.503 135.121 325.923C131.698 325.098 129.049 324.087 127.172 322.89V326.408ZM176.484 276.557C176.485 258.905 190.847 244.543 208.499 244.543C226.146 244.543 240.504 258.905 240.504 276.557C240.504 294.204 226.147 308.562 208.5 308.562C190.847 308.562 176.485 294.204 176.485 276.557H176.484ZM181.263 276.557C181.263 281.943 182.861 287.209 185.853 291.687C188.846 296.165 193.099 299.656 198.076 301.717C203.052 303.778 208.528 304.317 213.811 303.266C219.094 302.215 223.946 299.622 227.755 295.813C231.563 292.004 234.157 287.152 235.208 281.869C236.259 276.586 235.72 271.11 233.659 266.134C231.598 261.158 228.107 256.904 223.629 253.911C219.15 250.919 213.885 249.321 208.499 249.321C201.278 249.329 194.355 252.201 189.249 257.307C184.143 262.413 181.271 269.336 181.263 276.557H181.263ZM208.455 336.153C203.638 336.153 198.833 335.926 194.434 335.48C194.356 337.194 194.132 338.899 193.763 340.576C212.329 342.658 235.02 340.359 240.212 335.776C241.116 334.977 241.116 334.429 241.116 334.248V330.728C236.604 333.587 228.274 334.927 221.747 335.552C217.537 335.954 212.995 336.153 208.456 336.153H208.455ZM193.59 326.836C194.015 328.561 194.286 330.319 194.401 332.091C213.072 334.075 235.128 331.754 240.229 327.207C241.115 326.416 241.115 325.872 241.115 325.694V322.176C235.086 325.992 221.491 327.592 208.543 327.592C203.549 327.603 198.558 327.351 193.591 326.836H193.59ZM208.498 318.932C201.772 318.932 195.209 318.472 189.589 317.626C190.753 319.416 191.726 321.325 192.49 323.319C211.325 325.674 234.809 323.413 240.2 318.683C240.809 318.149 241.117 317.632 241.117 317.146V313.754C239.248 314.819 236.595 315.748 233.135 316.55C226.533 318.087 217.784 318.931 208.499 318.931L208.498 318.932ZM208.498 311.931C200.792 311.938 193.296 309.417 187.16 304.755C182.648 305.606 179.933 306.556 178.322 307.335C181.4 308.963 184.176 311.108 186.527 313.677C192.645 314.894 200.439 315.564 208.498 315.564C217.534 315.564 226.013 314.749 232.372 313.269C239.632 311.584 241.116 309.691 241.116 309.277C241.116 308.763 239.18 306.517 229.835 304.749C223.701 309.415 216.206 311.939 208.499 311.931H208.498ZM191.101 334.078C191.102 339.391 189.526 344.586 186.574 349.004C183.622 353.422 179.426 356.866 174.517 358.9C169.608 360.933 164.206 361.466 158.995 360.429C153.783 359.393 148.996 356.834 145.238 353.077C141.481 349.32 138.922 344.533 137.885 339.321C136.848 334.11 137.38 328.708 139.413 323.798C141.447 318.889 144.89 314.693 149.308 311.741C153.726 308.788 158.921 307.213 164.234 307.212C171.357 307.221 178.186 310.054 183.222 315.09C188.259 320.127 191.093 326.955 191.101 334.078ZM187.569 334.078C187.569 329.463 186.2 324.951 183.636 321.114C181.072 317.276 177.427 314.285 173.164 312.519C168.9 310.753 164.208 310.291 159.681 311.191C155.155 312.092 150.997 314.314 147.733 317.578C144.47 320.841 142.248 324.999 141.347 329.526C140.447 334.052 140.909 338.744 142.675 343.008C144.442 347.272 147.433 350.916 151.27 353.48C155.107 356.044 159.619 357.413 164.234 357.413C170.421 357.405 176.352 354.944 180.726 350.57C185.101 346.195 187.562 340.264 187.569 334.078H187.569Z" fill="white"/>
<path fill-rule="evenodd" clip-rule="evenodd" d="M207.693 253.83V251.136C204.386 251.19 201.229 251.877 198.346 253.09L199.429 255.559C201.981 254.491 204.77 253.883 207.693 253.83ZM197.59 253.429L198.672 255.896C196.368 256.962 194.274 258.406 192.467 260.147L190.563 258.243C192.605 256.266 194.977 254.632 197.59 253.429ZM182.871 276.787H185.566C185.617 279.626 186.194 282.337 187.206 284.83L184.728 285.886C183.577 283.069 182.923 280.001 182.871 276.787ZM187.206 267.916L184.728 266.86C183.577 269.677 182.923 272.745 182.871 275.959H185.566C185.617 273.12 186.194 270.409 187.206 267.916ZM185.054 286.646L187.532 285.59C188.608 287.981 190.085 290.15 191.882 292.013L189.978 293.918C187.94 291.813 186.266 289.355 185.054 286.646ZM192.467 292.599L190.563 294.503C192.605 296.48 194.977 298.114 197.59 299.317L198.672 296.85C196.368 295.784 194.274 294.341 192.467 292.599ZM225.651 258.243L223.746 260.147C221.94 258.406 219.846 256.962 217.542 255.896L218.624 253.429C221.236 254.632 223.609 256.266 225.651 258.243ZM231.16 266.1L228.681 267.156C227.606 264.766 226.128 262.596 224.332 260.733L226.236 258.828C228.274 260.933 229.948 263.391 231.16 266.1ZM230.648 275.959H233.343C233.29 272.746 232.637 269.677 231.486 266.86L229.008 267.916C230.02 270.409 230.597 273.12 230.648 275.959ZM208.521 251.136C211.828 251.19 214.984 251.877 217.869 253.09L216.786 255.559C214.233 254.491 211.444 253.883 208.521 253.83V251.136ZM198.346 299.655C201.229 300.869 204.386 301.556 207.693 301.61V298.915C204.771 298.862 201.981 298.255 199.429 297.187L198.346 299.655ZM189.978 258.828L191.882 260.733C190.085 262.596 188.608 264.766 187.532 267.156L185.054 266.1C186.266 263.391 187.94 260.934 189.978 258.828ZM208.521 298.915V301.61C211.829 301.556 214.985 300.869 217.869 299.655L216.786 297.187C214.233 298.255 211.444 298.862 208.521 298.915ZM231.486 285.886L229.008 284.829C230.02 282.337 230.597 279.626 230.648 276.787H233.343C233.29 280 232.637 283.069 231.486 285.886ZM224.332 292.013L226.236 293.918C228.274 291.812 229.948 289.355 231.16 286.646L228.681 285.59C227.606 287.981 226.128 290.15 224.332 292.013ZM218.624 299.317L217.542 296.85C219.846 295.784 221.94 294.341 223.746 292.599L225.651 294.503C223.609 296.48 221.237 298.114 218.624 299.317ZM208.111 258.677C198.352 258.677 190.412 266.618 190.412 276.378C190.412 286.138 198.352 294.078 208.111 294.078C217.871 294.078 225.811 286.138 225.811 276.378C225.811 266.618 217.871 258.677 208.111 258.677ZM208.111 292.774C199.07 292.774 191.716 285.419 191.716 276.377C191.716 267.336 199.07 259.981 208.111 259.981C217.153 259.981 224.507 267.336 224.507 276.378C224.507 285.419 217.152 292.774 208.111 292.774ZM208.112 254.652C220.09 254.652 229.836 264.398 229.836 276.378C229.836 288.357 220.09 298.103 208.112 298.103C196.133 298.103 186.388 288.357 186.388 276.378C186.388 264.398 196.133 254.652 208.112 254.652ZM189.585 276.377C189.585 286.593 197.896 294.905 208.112 294.905C218.327 294.905 226.639 286.594 226.639 276.378C226.639 266.162 218.328 257.85 208.112 257.85C197.896 257.85 189.585 266.161 189.585 276.377ZM223.757 276.151C223.757 284.723 216.808 291.672 208.237 291.672C199.665 291.672 192.717 284.723 192.717 276.151C192.717 267.579 199.665 260.63 208.237 260.63C216.808 260.63 223.757 267.579 223.757 276.151ZM217.615 281.758L216.249 284.124C215.983 284.583 215.488 284.871 214.956 284.871L201.311 284.865L203.388 281.269L208.294 281.275H208.296L213.491 281.28C213.653 281.28 213.8 281.194 213.881 281.056L216.078 277.233L217.615 279.894C217.945 280.469 217.945 281.183 217.615 281.758ZM215.689 276.111L217.613 272.768C217.945 272.192 217.943 271.478 217.611 270.901L216.075 268.248L209.073 280.377L213.233 280.382L215.689 276.111ZM207.533 272.293L200.534 284.416L198.999 281.763C198.665 281.188 198.665 280.474 198.997 279.898L200.916 276.56C200.916 276.56 200.918 276.56 200.918 276.558L203.37 272.293H207.533ZM213.222 271.395L215.297 267.799L201.654 267.796C201.123 267.796 200.627 268.081 200.361 268.542L198.995 270.907C198.663 271.481 198.663 272.196 198.995 272.772L200.528 275.434L202.722 271.621C202.803 271.481 202.95 271.395 203.112 271.395H213.222Z" fill="white"/>
<path d="M156.071 316.181L155.135 314.048C152.875 315.088 150.823 316.501 149.058 318.211L150.705 319.858C152.267 318.352 154.078 317.103 156.071 316.181Z" fill="white"/>
<path d="M144.736 334.248H142.405C142.45 337.027 143.016 339.681 144.011 342.117L146.154 341.204C145.279 339.048 144.78 336.703 144.736 334.248Z" fill="white"/>
<path d="M146.154 326.577L144.011 325.663C143.016 328.1 142.45 330.753 142.405 333.532H144.736C144.78 331.077 145.279 328.732 146.154 326.577Z" fill="white"/>
<path d="M146.436 341.861L144.293 342.775C145.341 345.118 146.789 347.243 148.552 349.063L150.198 347.416C148.645 345.805 147.366 343.929 146.436 341.861Z" fill="white"/>
<path d="M150.705 347.922L149.058 349.569C150.823 351.279 152.876 352.692 155.135 353.732L156.071 351.599C154.078 350.677 152.267 349.429 150.705 347.922Z" fill="white"/>
<path d="M177.757 319.858L179.404 318.211C177.638 316.501 175.586 315.088 173.327 314.048L172.391 316.181C174.384 317.103 176.195 318.352 177.757 319.858Z" fill="white"/>
<path d="M163.873 314.395V312.065C161.012 312.111 158.283 312.705 155.789 313.755L156.725 315.89C158.932 314.966 161.345 314.441 163.873 314.395Z" fill="white"/>
<path d="M182.025 325.919L184.168 325.005C183.12 322.663 181.672 320.538 179.91 318.717L178.263 320.364C179.817 321.975 181.095 323.852 182.025 325.919Z" fill="white"/>
<path d="M183.726 333.532H186.056C186.011 330.753 185.446 328.1 184.451 325.663L182.307 326.577C183.182 328.732 183.682 331.077 183.726 333.532Z" fill="white"/>
<path d="M172.673 313.755C170.179 312.705 167.449 312.111 164.589 312.065V314.395C167.117 314.441 169.529 314.966 171.737 315.89L172.673 313.755Z" fill="white"/>
<path d="M155.789 354.025C158.283 355.075 161.012 355.669 163.873 355.716V353.385C161.345 353.34 158.933 352.814 156.725 351.891L155.789 354.025Z" fill="white"/>
<path d="M150.198 320.364L148.552 318.717C146.789 320.538 145.341 322.663 144.293 325.005L146.436 325.919C147.366 323.852 148.645 321.975 150.198 320.364Z" fill="white"/>
<path d="M164.589 353.385V355.716C167.45 355.669 170.179 355.075 172.673 354.025L171.737 351.891C169.529 352.814 167.117 353.34 164.589 353.385Z" fill="white"/>
<path d="M182.307 341.204L184.451 342.117C185.446 339.681 186.011 337.027 186.056 334.248H183.726C183.682 336.703 183.182 339.048 182.307 341.204Z" fill="white"/>
<path d="M178.263 347.416L179.91 349.063C181.672 347.242 183.12 345.118 184.168 342.775L182.025 341.861C181.095 343.929 179.817 345.805 178.263 347.416Z" fill="white"/>
<path d="M172.391 351.599L173.327 353.732C175.586 352.692 177.638 351.279 179.404 349.569L177.757 347.922C176.195 349.429 174.384 350.677 172.391 351.599Z" fill="white"/>
<path d="M183.023 333.894C183.023 323.534 174.595 315.106 164.235 315.106C153.875 315.106 145.446 323.534 145.446 333.894C145.446 344.254 153.875 352.683 164.235 352.683C174.595 352.683 183.023 344.254 183.023 333.894ZM164.235 349.917C155.399 349.917 148.212 342.729 148.212 333.894C148.212 325.059 155.399 317.871 164.235 317.871C173.07 317.871 180.258 325.059 180.258 333.894C180.258 342.729 173.07 349.917 164.235 349.917Z" fill="white"/>
<path fill-rule="evenodd" clip-rule="evenodd" d="M164.178 318.755C172.508 318.755 179.26 325.508 179.26 333.837C179.26 342.167 172.508 348.92 164.178 348.92C155.848 348.92 149.096 342.167 149.096 333.837C149.096 325.508 155.848 318.755 164.178 318.755ZM171.012 329.662L164.269 322.934L164.269 322.934L157.526 329.684L160.018 332.176L164.269 327.899L168.52 332.154L171.012 329.662ZM158.235 333.939L155.766 331.445L153.275 333.939L155.767 336.41L158.235 333.939ZM166.76 333.917L164.269 331.446H164.269L161.778 333.939L164.269 336.41L166.76 333.917ZM175.284 333.939L172.772 331.445L170.303 333.939L172.794 336.432L175.284 333.939ZM171.012 338.194L168.52 335.701L164.269 339.978L160.018 335.701L157.526 338.195L164.269 344.944L171.012 338.194Z" fill="white"/>
<path fill-rule="evenodd" clip-rule="evenodd" d="M328.48 294.789V292.748C325.975 292.789 323.584 293.309 321.399 294.229L322.22 296.098C324.153 295.289 326.266 294.829 328.48 294.789ZM320.827 294.485L321.647 296.354C319.901 297.162 318.315 298.255 316.946 299.574L315.504 298.132C317.051 296.634 318.848 295.396 320.827 294.485ZM309.677 312.179H311.718C311.757 314.33 312.195 316.384 312.961 318.272L311.084 319.072C310.212 316.938 309.717 314.613 309.677 312.179ZM312.961 305.459L311.084 304.659C310.212 306.793 309.717 309.117 309.677 311.552H311.718C311.757 309.401 312.195 307.347 312.961 305.459ZM311.331 319.648L313.208 318.848C314.023 320.658 315.142 322.302 316.503 323.713L315.061 325.156C313.517 323.561 312.249 321.7 311.331 319.648ZM316.946 324.157L315.504 325.599C317.051 327.096 318.848 328.335 320.827 329.245L321.647 327.377C319.901 326.569 318.315 325.476 316.946 324.157ZM342.083 298.132L340.64 299.574C339.272 298.255 337.686 297.162 335.94 296.354L336.76 294.485C338.739 295.396 340.536 296.634 342.083 298.132ZM346.256 304.083L344.379 304.883C343.564 303.073 342.445 301.429 341.084 300.018L342.526 298.575C344.07 300.17 345.338 302.031 346.256 304.083ZM345.868 311.552H347.909C347.87 309.118 347.375 306.793 346.503 304.659L344.626 305.459C345.392 307.347 345.83 309.401 345.868 311.552ZM329.107 292.748C331.612 292.789 334.003 293.309 336.188 294.229L335.367 296.098C333.434 295.289 331.321 294.829 329.107 294.789V292.748ZM321.399 329.502C323.584 330.422 325.975 330.942 328.48 330.983V328.942C326.266 328.901 324.153 328.441 322.22 327.632L321.399 329.502ZM315.061 298.575L316.503 300.018C315.142 301.429 314.023 303.073 313.208 304.883L311.331 304.083C312.249 302.031 313.517 300.17 315.061 298.575ZM329.107 328.942V330.983C331.613 330.942 334.003 330.421 336.188 329.502L335.367 327.632C333.434 328.441 331.321 328.901 329.107 328.942ZM346.503 319.071L344.626 318.271C345.392 316.383 345.83 314.33 345.868 312.179H347.909C347.87 314.613 347.375 316.937 346.503 319.071ZM341.084 323.713L342.526 325.156C344.07 323.561 345.338 321.7 346.256 319.648L344.379 318.848C343.564 320.658 342.445 322.302 341.084 323.713ZM336.76 329.245L335.94 327.377C337.686 326.569 339.272 325.476 340.64 324.157L342.083 325.599C340.536 327.096 338.739 328.335 336.76 329.245ZM328.797 298.461C321.404 298.461 315.39 304.476 315.39 311.869C315.39 319.262 321.404 325.277 328.797 325.277C336.189 325.277 342.204 319.262 342.204 311.869C342.204 304.476 336.189 298.461 328.797 298.461ZM328.797 324.289C321.948 324.289 316.377 318.718 316.377 311.869C316.377 305.02 321.948 299.448 328.797 299.448C335.645 299.448 341.217 305.02 341.217 311.869C341.217 318.718 335.645 324.289 328.797 324.289ZM328.797 295.412C337.871 295.412 345.253 302.794 345.253 311.869C345.253 320.943 337.871 328.326 328.797 328.326C319.723 328.326 312.341 320.943 312.341 311.869C312.341 302.794 319.723 295.412 328.797 295.412ZM314.763 311.869C314.763 319.607 321.058 325.904 328.797 325.904C336.535 325.904 342.831 319.608 342.831 311.869C342.831 304.13 336.536 297.834 328.797 297.834C321.058 297.834 314.763 304.13 314.763 311.869ZM340.648 311.697C340.648 318.191 335.385 323.455 328.892 323.455C322.399 323.455 317.135 318.191 317.135 311.697C317.135 305.204 322.399 299.94 328.892 299.94C335.385 299.94 340.648 305.204 340.648 311.697ZM335.996 315.944L334.961 317.737C334.76 318.085 334.384 318.302 333.982 318.302L323.646 318.298L325.219 315.574L328.935 315.578H328.937L332.872 315.582C332.995 315.582 333.106 315.517 333.167 315.413L334.832 312.517L335.996 314.533C336.246 314.968 336.246 315.509 335.996 315.944ZM334.537 311.667L335.994 309.135C336.246 308.698 336.245 308.157 335.993 307.721L334.829 305.711L329.525 314.898L332.676 314.903L334.537 311.667ZM328.359 308.774L323.057 317.958L321.894 315.948C321.641 315.513 321.641 314.972 321.893 314.535L323.346 312.007C323.346 312.007 323.348 312.007 323.348 312.006L325.205 308.774H328.359ZM332.668 308.095L334.24 305.371L323.905 305.368C323.503 305.368 323.127 305.584 322.926 305.934L321.891 307.725C321.64 308.16 321.64 308.701 321.891 309.138L323.053 311.154L324.714 308.266C324.776 308.16 324.887 308.095 325.009 308.095H332.668Z" fill="white"/>
<path d="M354.08 299.327C352.764 296.649 351.041 294.191 348.974 292.04C354.831 290.705 359.276 288.614 361.812 286.091V292.354C361.812 294.847 358.944 297.416 354.08 299.327Z" fill="white"/>
<path d="M346.841 290.034C343.233 286.964 338.923 284.832 334.293 283.826C329.664 282.821 324.858 282.973 320.301 284.269C317.503 281.925 312.991 280.063 307.544 278.895V274.77C309.076 276.291 311.316 277.664 314.195 278.816C319.685 281.012 326.959 282.221 334.677 282.221C342.394 282.221 349.668 281.012 355.158 278.816C358.038 277.664 360.277 276.291 361.81 274.77V281.02C361.812 284.692 355.82 288.284 346.841 290.034Z" fill="white"/>
<path d="M293.942 302.595C294.05 302.595 294.158 302.595 294.265 302.595C296.54 302.594 298.814 302.475 301.076 302.238C300.026 305.15 299.455 308.214 299.385 311.309C297.578 311.456 295.752 311.533 293.945 311.525C286.523 311.525 279.566 310.376 274.353 308.291C269.558 306.374 266.809 303.859 266.809 301.393V295.144C268.341 296.665 270.581 298.038 273.461 299.19C278.951 301.385 286.225 302.595 293.942 302.595Z" fill="white"/>
<path d="M354.268 276.585C349.055 278.67 342.098 279.819 334.679 279.819C327.26 279.819 320.303 278.67 315.09 276.585C310.296 274.667 307.546 272.153 307.546 269.686V263.436C309.078 264.958 311.318 266.33 314.198 267.482C319.688 269.678 326.962 270.887 334.679 270.887C342.396 270.887 349.671 269.678 355.161 267.482C358.04 266.331 360.28 264.958 361.812 263.437V269.686C361.812 272.153 359.063 274.667 354.268 276.585Z" fill="white"/>
<path d="M354.268 253.917C349.055 256.002 342.098 257.151 334.679 257.151C327.26 257.151 320.303 256.002 315.09 253.917C310.296 252 307.546 249.485 307.546 247.019V240.769C309.078 242.29 311.318 243.663 314.198 244.814C319.688 247.01 326.962 248.22 334.679 248.22C342.396 248.22 349.671 247.01 355.161 244.814C358.04 243.663 360.28 242.29 361.812 240.769V247.019C361.812 249.485 359.063 252 354.268 253.917Z" fill="white"/>
<path d="M274.353 283.16C279.567 281.075 286.523 279.926 293.942 279.926C303.635 279.926 312.697 282.001 317.547 285.21C310.768 287.925 305.264 293.099 302.134 299.697C299.419 300.038 296.685 300.203 293.948 300.193C286.523 300.193 279.566 299.044 274.353 296.959C269.559 295.041 266.809 292.526 266.809 290.06C266.809 287.594 269.559 285.078 274.353 283.16Z" fill="white"/>
<path d="M354.268 242.584C349.055 244.669 342.098 245.817 334.679 245.817C327.259 245.817 320.303 244.669 315.09 242.584C310.296 240.666 307.546 238.152 307.546 235.685C307.546 233.218 310.296 230.704 315.09 228.786C320.303 226.701 327.26 225.552 334.679 225.552C342.098 225.552 349.055 226.701 354.268 228.786C359.062 230.704 361.812 233.219 361.812 235.685C361.812 238.151 359.062 240.666 354.268 242.584ZM349.772 231.065C345.447 229.834 340.087 229.156 334.679 229.156C334.361 229.156 334.055 229.283 333.83 229.508C333.605 229.733 333.478 230.039 333.478 230.357C333.478 230.676 333.605 230.982 333.83 231.207C334.055 231.432 334.361 231.559 334.679 231.559C339.871 231.559 344.997 232.204 349.114 233.376C349.266 233.419 349.425 233.432 349.581 233.414C349.738 233.396 349.89 233.347 350.027 233.27C350.165 233.193 350.287 233.09 350.384 232.967C350.482 232.843 350.555 232.701 350.598 232.55C350.641 232.398 350.654 232.239 350.636 232.082C350.618 231.926 350.569 231.774 350.492 231.636C350.416 231.498 350.313 231.377 350.189 231.279C350.065 231.181 349.924 231.108 349.772 231.065ZM357.888 235.183C357.592 234.823 356.854 234.085 355.224 233.199C354.945 233.057 354.622 233.03 354.324 233.123C354.025 233.216 353.774 233.421 353.625 233.696C353.476 233.971 353.439 234.293 353.523 234.594C353.607 234.895 353.806 235.151 354.076 235.308C355.495 236.081 355.978 236.643 356.028 236.704C356.232 236.944 356.522 237.093 356.835 237.121C357.148 237.149 357.46 237.054 357.703 236.855C357.946 236.656 358.102 236.369 358.136 236.057C358.171 235.744 358.082 235.431 357.888 235.183Z" fill="white"/>
<path d="M354.268 265.251C349.055 267.337 342.099 268.485 334.679 268.485C327.259 268.485 320.303 267.336 315.09 265.251C310.296 263.334 307.546 260.819 307.546 258.352V252.102C309.078 253.623 311.318 254.996 314.198 256.147C319.688 258.343 326.961 259.553 334.679 259.553C342.397 259.553 349.671 258.343 355.161 256.147C358.04 254.996 360.28 253.623 361.812 252.102V258.351C361.812 260.819 359.063 263.334 354.268 265.251Z" fill="white"/>
<path d="M310.396 292.489C314.95 288.316 320.827 285.878 326.998 285.601V287.481C326.998 287.8 327.124 288.105 327.35 288.331C327.575 288.556 327.88 288.683 328.199 288.683C328.518 288.683 328.823 288.556 329.048 288.331C329.274 288.105 329.4 287.8 329.4 287.481V285.601C335.571 285.878 341.448 288.316 346.002 292.489L344.68 293.81C344.46 294.037 344.337 294.341 344.339 294.657C344.341 294.973 344.467 295.275 344.691 295.498C344.914 295.722 345.217 295.848 345.533 295.85C345.848 295.852 346.153 295.73 346.379 295.509L347.7 294.188C351.873 298.742 354.312 304.619 354.588 310.789H352.708C352.389 310.789 352.084 310.916 351.859 311.141C351.633 311.366 351.507 311.672 351.507 311.991C351.507 312.309 351.633 312.615 351.859 312.84C352.084 313.065 352.389 313.192 352.708 313.192H354.586C354.31 319.362 351.871 325.239 347.698 329.793L346.377 328.472C346.151 328.251 345.847 328.129 345.531 328.131C345.215 328.133 344.912 328.259 344.689 328.482C344.465 328.706 344.339 329.008 344.337 329.324C344.335 329.64 344.457 329.944 344.678 330.17L345.999 331.492C341.445 335.665 335.569 338.103 329.398 338.38V336.5C329.398 336.181 329.272 335.876 329.046 335.65C328.821 335.425 328.515 335.298 328.197 335.298C327.878 335.298 327.573 335.425 327.347 335.65C327.122 335.876 326.996 336.181 326.996 336.5V338.38C320.825 338.103 314.948 335.665 310.394 331.492L311.716 330.17C311.936 329.944 312.059 329.64 312.057 329.324C312.055 329.008 311.928 328.706 311.705 328.482C311.481 328.259 311.179 328.133 310.863 328.131C310.547 328.129 310.243 328.251 310.017 328.472L308.695 329.793C304.522 325.239 302.084 319.362 301.808 313.192H303.687C304.006 313.192 304.312 313.065 304.537 312.84C304.762 312.615 304.889 312.309 304.889 311.991C304.889 311.672 304.762 311.366 304.537 311.141C304.312 310.916 304.006 310.789 303.687 310.789H301.808C302.084 304.619 304.522 298.742 308.695 294.188L310.017 295.509C310.242 295.735 310.548 295.862 310.867 295.862C311.186 295.862 311.492 295.735 311.717 295.51C311.943 295.284 312.07 294.979 312.07 294.66C312.07 294.341 311.943 294.035 311.718 293.809L310.396 292.489ZM307.27 311.989C307.27 316.129 308.497 320.175 310.797 323.616C313.096 327.058 316.365 329.74 320.189 331.324C324.013 332.908 328.221 333.323 332.281 332.515C336.341 331.708 340.07 329.715 342.997 326.788C345.923 323.861 347.917 320.132 348.724 316.072C349.532 312.013 349.117 307.805 347.533 303.98C345.949 300.156 343.267 296.888 339.825 294.588C336.384 292.288 332.337 291.061 328.198 291.061C322.649 291.067 317.33 293.274 313.406 297.198C309.483 301.121 307.276 306.441 307.27 311.989Z" fill="white"/>
<path d="M293.944 325.262C294.058 325.262 294.173 325.262 294.288 325.262C296.988 325.261 299.687 325.092 302.366 324.756C303.824 327.691 305.769 330.357 308.119 332.641C303.47 333.702 298.713 334.222 293.944 334.193C286.525 334.193 279.568 333.044 274.355 330.959C269.561 329.041 266.811 326.527 266.811 324.06V317.811C268.343 319.332 270.583 320.704 273.463 321.856C278.952 324.053 286.227 325.262 293.944 325.262Z" fill="white"/>
<path d="M294.118 313.929C295.884 313.929 297.665 313.857 299.431 313.717C299.607 316.713 300.254 319.663 301.347 322.459C298.891 322.737 296.421 322.871 293.95 322.86C286.524 322.86 279.567 321.711 274.354 319.626C269.56 317.709 266.81 315.194 266.81 312.728V306.478C268.342 307.999 270.582 309.371 273.462 310.523C278.993 312.736 286.338 313.937 294.118 313.929Z" fill="white"/>
<path d="M356.895 309.366C356.653 306.679 356.031 304.04 355.049 301.528C357.986 300.368 360.263 298.988 361.812 297.454V303.687C361.812 305.637 360.042 307.66 356.895 309.366Z" fill="white"/>
<path d="M287.982 440.036C306.429 440.036 321.441 425.025 321.441 406.577C321.441 388.13 306.429 373.119 287.982 373.119C269.535 373.119 254.523 388.13 254.523 406.577C254.523 425.025 269.535 440.036 287.982 440.036ZM287.982 378.681C303.363 378.681 315.878 391.196 315.878 406.577C315.878 421.962 303.363 434.477 287.982 434.477C272.601 434.477 260.086 421.962 260.086 406.577C260.086 391.196 272.598 378.681 287.982 378.681Z" fill="white"/>
<path d="M327.177 366.576C339.7 366.576 349.851 361.251 349.851 354.683C349.851 348.114 339.7 342.789 327.177 342.789C314.654 342.789 304.503 348.114 304.503 354.683C304.503 361.251 314.654 366.576 327.177 366.576Z" fill="white"/>
<path d="M293.731 354.77C293.808 366.184 308.782 375.457 327.182 375.457C345.633 375.457 360.644 366.14 360.644 354.682C360.644 343.228 345.633 333.911 327.182 333.911C308.757 333.911 293.76 343.21 293.727 354.646C293.727 354.653 293.731 354.664 293.731 354.664V354.77ZM327.178 339.13C341.944 339.13 353.512 345.962 353.512 354.682C353.512 363.403 341.944 370.235 327.178 370.235C312.412 370.235 300.845 363.403 300.845 354.682C300.845 345.962 312.412 339.13 327.178 339.13Z" fill="white"/>
<path d="M293.731 365.203V369.953C296.121 370.327 298.43 370.927 300.644 371.732C297.826 369.833 295.495 367.622 293.731 365.203Z" fill="white"/>
<path d="M360.646 416.861C354.663 425.087 341.932 430.796 327.184 430.796C323.656 430.796 320.205 430.441 316.879 429.808C314.745 432.457 312.253 434.792 309.479 436.772C314.731 438.872 320.747 440.036 327.18 440.036C345.631 440.036 360.643 430.726 360.643 419.283L360.646 416.861Z" fill="white"/>
<path d="M360.65 391.021C354.667 399.248 341.936 404.956 327.188 404.956C326.445 404.956 325.735 404.905 325.01 404.879C325.036 405.447 325.095 406.003 325.095 406.577C325.095 409.157 324.828 411.675 324.323 414.109C325.23 414.164 326.171 414.2 327.184 414.2C345.635 414.2 360.646 404.89 360.646 393.447L360.65 391.021Z" fill="white"/>
<path d="M360.647 378.103C354.664 386.318 341.932 392.016 327.185 392.016C325.446 392.016 323.708 391.903 321.977 391.738C323.28 394.709 324.177 397.889 324.66 401.205C325.494 401.245 326.317 401.293 327.185 401.293C345.636 401.293 360.647 391.965 360.647 380.5V378.103Z" fill="white"/>
<path d="M360.647 365.181C354.667 373.408 341.932 379.117 327.177 379.117C320.502 379.117 314.252 377.935 308.836 375.896C313.37 378.989 317.161 383.076 319.953 387.819C322.336 388.163 324.762 388.357 327.188 388.357C345.639 388.357 360.65 379.047 360.65 367.604L360.647 365.181Z" fill="white"/>
<path d="M360.647 403.942C354.664 412.158 341.933 417.856 327.185 417.856C325.831 417.856 324.591 417.793 323.387 417.702C322.402 420.831 320.99 423.762 319.259 426.474C321.839 426.873 324.481 427.136 327.185 427.136C345.636 427.136 360.647 417.808 360.647 406.343V403.942Z" fill="white"/>
<path d="M298.102 385.166L299.23 382.594C301.954 383.848 304.428 385.552 306.556 387.613L304.571 389.598C302.688 387.782 300.505 386.277 298.102 385.166Z" fill="white"/>
<path d="M311.767 406.946H314.576C314.522 410.296 313.84 413.495 312.641 416.432L310.056 415.331C311.111 412.732 311.713 409.906 311.767 406.946Z" fill="white"/>
<path d="M310.056 397.698L312.641 396.597C313.84 399.533 314.522 402.732 314.576 406.083H311.767C311.713 403.123 311.111 400.296 310.056 397.698Z" fill="white"/>
<path d="M309.716 416.124L312.3 417.225C311.037 420.049 309.291 422.611 307.167 424.805L305.181 422.82C307.054 420.878 308.595 418.616 309.716 416.124Z" fill="white"/>
<path d="M304.571 423.43L306.556 425.416C304.428 427.476 301.954 429.18 299.23 430.434L298.102 427.862C300.505 426.751 302.688 425.246 304.571 423.43Z" fill="white"/>
<path d="M271.959 389.598L269.974 387.613C272.103 385.552 274.576 383.848 277.3 382.594L278.428 385.166C276.026 386.277 273.842 387.782 271.959 389.598Z" fill="white"/>
<path d="M288.696 383.012V380.203C292.145 380.259 295.436 380.976 298.442 382.241L297.313 384.814C294.652 383.701 291.744 383.068 288.696 383.012Z" fill="white"/>
<path d="M266.814 396.905L264.23 395.803C265.494 392.979 267.239 390.417 269.364 388.223L271.349 390.208C269.476 392.151 267.935 394.413 266.814 396.905Z" fill="white"/>
<path d="M264.763 406.083H261.954C262.009 402.733 262.69 399.533 263.89 396.597L266.474 397.698C265.419 400.296 264.817 403.123 264.763 406.083Z" fill="white"/>
<path d="M278.087 382.241C281.095 380.976 284.385 380.259 287.833 380.203V383.012C284.786 383.068 281.878 383.701 279.217 384.814L278.087 382.241Z" fill="white"/>
<path d="M298.442 430.787C295.436 432.053 292.145 432.769 288.696 432.825V430.016C291.744 429.961 294.652 429.327 297.313 428.214L298.442 430.787Z" fill="white"/>
<path d="M305.181 390.208L307.167 388.223C309.291 390.418 311.037 392.979 312.3 395.803L309.716 396.905C308.595 394.413 307.054 392.151 305.181 390.208Z" fill="white"/>
<path d="M287.833 430.016V432.825C284.385 432.769 281.094 432.052 278.087 430.787L279.217 428.214C281.878 429.327 284.786 429.961 287.833 430.016Z" fill="white"/>
<path d="M266.474 415.33L263.89 416.432C262.69 413.495 262.009 410.296 261.954 406.945H264.763C264.817 409.905 265.419 412.732 266.474 415.33Z" fill="white"/>
<path d="M271.349 422.82L269.364 424.805C267.239 422.61 265.494 420.049 264.23 417.225L266.814 416.124C267.935 418.616 269.476 420.878 271.349 422.82Z" fill="white"/>
<path d="M278.428 427.862L277.3 430.434C274.576 429.18 272.103 427.476 269.974 425.416L271.959 423.43C273.842 425.246 276.026 426.751 278.428 427.862Z" fill="white"/>
<path d="M265.611 406.519C265.611 394.03 275.771 383.869 288.26 383.869C300.749 383.869 310.91 394.03 310.91 406.519C310.91 419.008 300.749 429.169 288.26 429.169C275.771 429.169 265.611 419.008 265.611 406.519ZM288.26 425.835C298.912 425.835 307.577 417.169 307.577 406.519C307.577 395.868 298.912 387.203 288.26 387.203C277.609 387.203 268.944 395.868 268.944 406.519C268.944 417.17 277.609 425.835 288.26 425.835Z" fill="white"/>
<path fill-rule="evenodd" clip-rule="evenodd" d="M288.329 388.268C278.287 388.268 270.147 396.409 270.147 406.451C270.147 416.492 278.287 424.633 288.329 424.633C298.37 424.633 306.511 416.492 306.511 406.451C306.511 396.409 298.37 388.268 288.329 388.268ZM280.09 401.417L288.219 393.306L296.348 401.443L293.344 404.448L288.219 399.292L283.094 404.421L280.09 401.417ZM295.493 406.573L298.47 403.567L301.473 406.573L298.469 409.552L295.493 406.573ZM285.216 406.546L288.219 403.568H288.219L291.222 406.573L288.219 409.552L285.216 406.546ZM274.94 406.573L277.969 403.567L280.945 406.573L277.942 409.579L274.94 406.573ZM280.09 411.702L283.094 408.697L288.219 413.854L293.344 408.697L296.348 411.703L288.219 419.839L280.09 411.702Z" fill="white"/>
</svg>
