<svg width="451" height="458" viewBox="0 0 451 458" fill="none" xmlns="http://www.w3.org/2000/svg">
<path fill-rule="evenodd" clip-rule="evenodd" d="M99.4614 48.1935V38.2603C87.2669 38.4587 75.6309 40.9916 64.9989 45.4653L68.992 54.5654C78.4003 50.6272 88.6844 48.3888 99.4614 48.1935ZM62.2126 46.7149L66.2027 55.8089C57.7068 59.7395 49.9876 65.0601 43.3273 71.4808L36.3069 64.4604C43.8339 57.173 52.58 51.1475 62.2126 46.7149ZM7.94922 132.824H17.8824C18.0716 143.29 20.2002 153.286 23.9308 162.474L14.7926 166.368C10.5508 155.983 8.14147 144.671 7.94922 132.824ZM23.9308 100.122L14.7926 96.2284C10.5508 106.613 8.14147 117.924 7.94922 129.772H17.8824C18.0716 119.305 20.2002 109.309 23.9308 100.122ZM15.9962 169.171L25.1329 165.277C29.097 174.091 34.5458 182.089 41.1694 188.957L34.1491 195.977C26.6358 188.217 20.4638 179.158 15.9962 169.171ZM43.3273 191.114L36.3069 198.135C43.8339 205.422 52.5815 211.448 62.2126 215.88L66.2027 206.786C57.7068 202.856 49.9876 197.536 43.3273 191.114ZM165.666 64.4604L158.645 71.4808C151.987 65.0601 144.266 59.7395 135.77 55.8089L139.76 46.7149C149.391 51.1475 158.139 57.173 165.666 64.4604ZM185.976 93.424L176.84 97.3179C172.876 88.5062 167.427 80.5078 160.803 73.6384L167.823 66.6181C175.337 74.3785 181.509 83.4374 185.976 93.424ZM184.091 129.772H194.024C193.832 117.926 191.422 106.613 187.181 96.2284L178.042 100.122C181.773 109.309 183.902 119.305 184.091 129.772ZM102.513 38.2603C114.706 38.4587 126.342 40.9916 136.976 45.4653L132.983 54.5654C123.573 50.6272 113.289 48.3888 102.513 48.1935V38.2603ZM64.9989 217.13C75.6309 221.605 87.2669 224.138 99.4614 224.335V214.401C88.686 214.206 78.4018 211.968 68.992 208.029L64.9989 217.13ZM34.1491 66.6181L41.1694 73.6384C34.5458 80.5078 29.097 88.5062 25.1329 97.3179L15.9962 93.424C20.4638 83.4374 26.6358 74.38 34.1491 66.6181ZM102.513 214.401V224.335C114.708 224.136 126.344 221.603 136.976 217.13L132.983 208.029C123.573 211.968 113.289 214.206 102.513 214.401ZM187.181 166.367L178.042 162.473C181.773 153.286 183.902 143.29 184.091 132.823H194.024C193.832 144.669 191.421 155.982 187.181 166.367ZM160.803 188.957L167.823 195.977C175.337 188.215 181.509 179.158 185.976 169.171L176.84 165.277C172.876 174.091 167.427 182.089 160.803 188.957ZM139.76 215.88L135.77 206.786C144.266 202.856 151.987 197.536 158.645 191.114L165.666 198.135C158.139 205.422 149.393 211.448 139.76 215.88ZM101.003 66.0623C65.0241 66.0623 35.7509 95.334 35.7509 131.315C35.7509 167.296 65.0241 196.567 101.003 196.567C136.983 196.567 166.256 167.296 166.256 131.315C166.256 95.334 136.983 66.0623 101.003 66.0623ZM101.003 191.761C67.6714 191.761 40.5557 164.645 40.5557 131.313C40.5557 97.9813 67.6714 70.8672 101.003 70.8672C134.335 70.8672 161.451 97.9828 161.451 131.315C161.451 164.647 134.334 191.761 101.003 191.761ZM101.004 51.2236C145.166 51.2236 181.095 87.1525 181.095 131.315C181.095 175.477 145.166 211.406 101.004 211.406C56.8414 211.406 20.9125 175.477 20.9125 131.315C20.9125 87.1525 56.8414 51.2236 101.004 51.2236ZM32.6996 131.313C32.6996 168.976 63.3399 199.617 101.004 199.617C138.666 199.617 169.308 168.977 169.308 131.315C169.308 93.6525 138.667 63.0107 101.004 63.0107C63.3399 63.0107 32.6996 93.651 32.6996 131.313ZM158.684 130.48C158.684 162.081 133.066 187.699 101.465 187.699C69.8641 187.699 44.2463 162.081 44.2463 130.48C44.2463 98.8789 69.8641 73.2611 101.465 73.2611C133.066 73.2611 158.684 98.8789 158.684 130.48ZM136.04 151.149L131.004 159.872C130.024 161.566 128.198 162.625 126.238 162.625L75.9317 162.605L83.5892 149.349L101.677 149.368H101.684L120.838 149.388C121.433 149.388 121.976 149.071 122.274 148.561L130.375 134.47L136.04 144.279C137.258 146.397 137.258 149.031 136.04 151.149ZM128.939 130.332L136.034 118.009C137.258 115.884 137.251 113.25 136.027 111.126L130.362 101.344L104.55 146.058L119.885 146.078L128.939 130.332ZM98.8708 116.256L73.0655 160.95L67.4068 151.168C66.1757 149.05 66.1757 146.416 67.4002 144.292L74.4753 131.988C74.4753 131.988 74.4772 131.988 74.479 131.987C74.4805 131.986 74.4819 131.984 74.4819 131.981L83.5227 116.256H98.8708ZM119.845 112.946L127.496 99.6895L77.1959 99.6763C75.2369 99.6763 73.4102 100.729 72.4306 102.43L67.394 111.146C66.1696 113.264 66.1696 115.898 67.394 118.023L73.0462 127.838L81.1339 113.78C81.4317 113.264 81.9744 112.946 82.5701 112.946H119.845Z" fill="white"/>
<path d="M314.908 55.7963L310.915 46.7088C301.275 51.1382 292.523 57.1594 284.991 64.4416L292.016 71.4569C298.681 65.0408 306.406 59.724 314.908 55.7963Z" fill="white"/>
<path d="M266.553 132.756H256.612C256.805 144.594 259.216 155.899 263.461 166.276L272.605 162.385C268.872 153.203 266.742 143.214 266.553 132.756Z" fill="white"/>
<path d="M272.605 100.078L263.461 96.1867C259.216 106.564 256.805 117.867 256.612 129.707H266.553C266.742 119.247 268.872 109.258 272.605 100.078Z" fill="white"/>
<path d="M273.808 165.186L264.665 169.077C269.136 179.057 275.312 188.109 282.831 195.864L289.857 188.848C283.228 181.986 277.775 173.993 273.808 165.186Z" fill="white"/>
<path d="M292.016 191.004L284.991 198.02C292.523 205.302 301.277 211.323 310.915 215.752L314.908 206.665C306.406 202.737 298.681 197.422 292.016 191.004Z" fill="white"/>
<path d="M407.417 71.4569L414.443 64.4416C406.91 57.1594 398.157 51.1382 388.518 46.7088L384.526 55.7963C393.028 59.724 400.754 65.0408 407.417 71.4569Z" fill="white"/>
<path d="M348.191 48.1864V38.2603C335.987 38.4586 324.343 40.9896 313.703 45.4602L317.699 54.5537C327.114 50.6184 337.406 48.3816 348.191 48.1864Z" fill="white"/>
<path d="M425.625 97.2754L434.768 93.3843C430.297 83.4049 424.121 74.3525 416.602 66.5977L409.577 73.613C416.205 80.4774 421.658 88.4701 425.625 97.2754Z" fill="white"/>
<path d="M432.881 129.707H442.822C442.629 117.869 440.218 106.564 435.973 96.1867L426.828 100.078C430.562 109.258 432.692 119.247 432.881 129.707Z" fill="white"/>
<path d="M385.732 45.4602C375.091 40.9896 363.446 38.4586 351.245 38.2603V48.1864C362.028 48.3816 372.319 50.6184 381.736 54.5537L385.732 45.4602Z" fill="white"/>
<path d="M313.703 217.001C324.343 221.473 335.987 224.004 348.191 224.201V214.275C337.407 214.079 327.116 211.843 317.699 207.907L313.703 217.001Z" fill="white"/>
<path d="M289.857 73.613L282.831 66.5977C275.312 74.354 269.136 83.4049 264.665 93.3843L273.808 97.2754C277.775 88.4701 283.228 80.4774 289.857 73.613Z" fill="white"/>
<path d="M351.245 214.275V224.201C363.448 224.002 375.092 221.471 385.732 217.001L381.736 207.907C372.319 211.843 362.028 214.079 351.245 214.275Z" fill="white"/>
<path d="M426.828 162.383L435.973 166.275C440.217 155.897 442.629 144.593 442.822 132.755H432.881C432.692 143.214 430.562 153.203 426.828 162.383Z" fill="white"/>
<path d="M409.577 188.848L416.602 195.864C424.121 188.107 430.297 179.057 434.768 169.077L425.625 165.186C421.658 173.993 416.205 181.986 409.577 188.848Z" fill="white"/>
<path d="M384.526 206.665L388.518 215.752C398.158 211.323 406.91 205.302 414.443 198.02L407.417 191.004C400.754 197.422 393.028 202.737 384.526 206.665Z" fill="white"/>
<path d="M429.883 131.248C429.883 87.1173 393.928 51.2143 349.734 51.2143C305.54 51.2143 269.585 87.1173 269.585 131.248C269.585 175.378 305.54 211.281 349.734 211.281C393.928 211.281 429.883 175.378 429.883 131.248ZM349.734 199.501C312.043 199.501 281.381 168.881 281.381 131.246C281.381 93.6112 312.043 62.9929 349.734 62.9929C387.425 62.9929 418.087 93.6127 418.087 131.248C418.087 168.883 387.423 199.501 349.734 199.501Z" fill="white"/>
<path fill-rule="evenodd" clip-rule="evenodd" d="M349.492 66.7592C385.026 66.7592 413.832 95.5236 413.832 131.006C413.832 166.489 385.026 195.253 349.492 195.253C313.958 195.253 285.152 166.489 285.152 131.006C285.152 95.5236 313.958 66.7592 349.492 66.7592ZM378.645 113.219L349.879 84.5618L321.114 113.313L331.745 123.93L349.879 105.711L368.014 123.837L378.645 113.219ZM324.139 131.439L313.606 120.817L302.979 131.439L313.61 141.966L324.139 131.439ZM360.506 131.345L349.88 120.821H349.879L339.252 131.439L349.879 141.966L360.506 131.345ZM396.869 131.439L386.153 120.817L375.62 131.439L386.247 142.06L396.869 131.439ZM378.645 149.564L368.014 138.947L349.88 157.166L331.745 138.947L321.114 149.568L349.879 178.316L378.645 149.564Z" fill="white"/>
<path d="M434.983 426.102H16.0172C7.44731 426.102 0.5 433.039 0.5 441.596C0.5 450.154 7.44731 457.091 16.0172 457.091H434.983C443.553 457.091 450.5 450.154 450.5 441.596C450.5 433.039 443.553 426.102 434.983 426.102Z" fill="white"/>
<path d="M380.672 263.406V410.607H411.707V263.406C411.707 259.128 408.233 255.659 403.948 255.659H388.431C384.146 255.659 380.672 259.128 380.672 263.406Z" fill="white"/>
<path d="M310.843 278.902V410.608H341.878V278.902C341.878 274.623 338.404 271.154 334.119 271.154H318.602C314.317 271.154 310.843 274.623 310.843 278.902Z" fill="white"/>
<path d="M241.014 294.397V410.608H272.049V294.397C272.049 290.118 268.575 286.649 264.29 286.649H248.773C244.488 286.649 241.014 290.118 241.014 294.397Z" fill="white"/>
<path d="M171.187 309.891V410.607H202.221V309.891C202.221 305.612 198.748 302.143 194.463 302.143H178.946C174.661 302.143 171.187 305.612 171.187 309.891Z" fill="white"/>
<path d="M101.36 333.134V410.608H132.395V333.134C132.395 328.855 128.921 325.386 124.636 325.386H109.119C104.834 325.386 101.36 328.855 101.36 333.134Z" fill="white"/>
<path d="M31.5329 356.375V410.607H62.5674V356.375C62.5674 352.097 59.0937 348.628 54.8088 348.628H39.2915C35.0066 348.628 31.5329 352.097 31.5329 356.375Z" fill="white"/>
<path d="M278.923 32.6709C278.454 34.422 277.309 35.9158 275.741 36.8247C274.963 37.2757 274.112 37.5689 273.221 37.6877C272.329 37.8065 271.423 37.7485 270.554 37.517C269.684 37.2855 268.869 36.885 268.155 36.3385C267.441 35.792 266.841 35.1101 266.39 34.3317C263.239 28.8716 258.873 24.2097 253.632 20.7069C248.39 17.204 242.413 14.9542 236.162 14.1314C229.912 13.3086 223.556 13.9349 217.587 15.962C211.617 17.989 206.194 21.3623 201.737 25.8209L194.057 33.5008H206.568C208.384 33.5008 210.126 34.2223 211.411 35.5067C212.695 36.7911 213.416 38.5332 213.416 40.3496C213.416 42.166 212.695 43.908 211.411 45.1924C210.126 46.4769 208.384 47.1984 206.568 47.1984H177.519C175.703 47.1984 173.961 46.4769 172.677 45.1924C171.392 43.908 170.671 42.166 170.671 40.3496V11.3014C170.671 9.48498 171.392 7.74296 172.677 6.45855C173.961 5.17415 175.703 4.45257 177.519 4.45257C179.336 4.45257 181.078 5.17415 182.362 6.45855C183.647 7.74296 184.368 9.48498 184.368 11.3014V23.8211L192.039 16.1504C197.981 10.2049 205.211 5.70619 213.169 3.00232C221.128 0.298443 229.602 -0.538074 237.936 0.557495C246.269 1.65307 254.239 4.65135 261.229 9.32033C268.218 13.9893 274.04 20.2038 278.243 27.4829C279.147 29.0542 279.392 30.9198 278.923 32.6709Z" fill="white"/>
<path d="M171.781 219.259C172.25 217.507 173.394 216.014 174.963 215.105C175.741 214.654 176.592 214.361 177.483 214.242C178.375 214.123 179.281 214.181 180.15 214.412C181.019 214.644 181.835 215.044 182.549 215.591C183.263 216.137 183.863 216.819 184.314 217.598C187.465 223.058 191.831 227.72 197.072 231.223C202.314 234.725 208.291 236.975 214.541 237.798C220.792 238.621 227.148 237.995 233.117 235.967C239.087 233.94 244.51 230.567 248.967 226.109L256.647 218.429H244.136C242.32 218.429 240.578 217.707 239.293 216.423C238.009 215.138 237.287 213.396 237.287 211.58C237.287 209.763 238.009 208.021 239.293 206.737C240.578 205.453 242.32 204.731 244.136 204.731H273.184C275.001 204.731 276.743 205.453 278.027 206.737C279.312 208.021 280.033 209.763 280.033 211.58V240.628C280.033 242.444 279.312 244.186 278.027 245.471C276.743 246.755 275.001 247.477 273.184 247.477C271.368 247.477 269.626 246.755 268.342 245.471C267.057 244.186 266.336 242.444 266.336 240.628V228.108L258.665 235.779C252.723 241.725 245.493 246.223 237.535 248.927C229.576 251.631 221.102 252.468 212.768 251.372C204.434 250.276 196.464 247.278 189.475 242.609C182.486 237.94 176.664 231.726 172.461 224.447C171.557 222.875 171.312 221.01 171.781 219.259Z" fill="white"/>
</svg>
