<svg width="100" height="100" viewBox="0 0 100 100" fill="none" xmlns="http://www.w3.org/2000/svg">
<circle cx="50" cy="50" r="50" fill="white"/>
<path d="M65.1459 36.1041C62.3751 34.8124 59.3751 33.8749 56.2501 33.3333C56.1951 33.334 56.1427 33.3565 56.1042 33.3958C55.7292 34.0833 55.2917 34.9791 55.0001 35.6666C51.6855 35.1669 48.3147 35.1669 45.0001 35.6666C44.7084 34.9583 44.2709 34.0833 43.8751 33.3958C43.8542 33.3541 43.7917 33.3333 43.7292 33.3333C40.6042 33.8749 37.6251 34.8124 34.8334 36.1041C34.8126 36.1041 34.7917 36.1249 34.7709 36.1458C29.1042 44.6249 27.5417 52.8749 28.3126 61.0416C28.3126 61.0832 28.3334 61.1249 28.3751 61.1458C32.1251 63.8958 35.7292 65.5624 39.2917 66.6666C39.3542 66.6874 39.4167 66.6666 39.4376 66.6249C40.2709 65.4791 41.0209 64.2708 41.6667 62.9999C41.7084 62.9166 41.6667 62.8333 41.5834 62.8124C40.3959 62.3541 39.2709 61.8124 38.1667 61.1874C38.0834 61.1458 38.0834 61.0208 38.1459 60.9583C38.3751 60.7916 38.6042 60.6041 38.8334 60.4374C38.8751 60.3958 38.9376 60.3958 38.9792 60.4166C46.1459 63.6874 53.8751 63.6874 60.9584 60.4166C61.0001 60.3958 61.0626 60.3958 61.1042 60.4374C61.3334 60.6249 61.5626 60.7916 61.7917 60.9791C61.8751 61.0416 61.8751 61.1666 61.7709 61.2082C60.6876 61.8541 59.5417 62.3749 58.3542 62.8333C58.2709 62.8541 58.2501 62.9583 58.2709 63.0208C58.9376 64.2916 59.6876 65.4999 60.5001 66.6458C60.5626 66.6666 60.6251 66.6874 60.6876 66.6666C64.2709 65.5624 67.8751 63.8958 71.6251 61.1458C71.6667 61.1249 71.6876 61.0832 71.6876 61.0416C72.6042 51.6041 70.1667 43.4166 65.2292 36.1458C65.2084 36.1249 65.1876 36.1041 65.1459 36.1041ZM42.7501 56.0624C40.6042 56.0624 38.8126 54.0833 38.8126 51.6458C38.8126 49.2083 40.5626 47.2291 42.7501 47.2291C44.9584 47.2291 46.7084 49.2291 46.6876 51.6458C46.6876 54.0833 44.9376 56.0624 42.7501 56.0624ZM57.2709 56.0624C55.1251 56.0624 53.3334 54.0833 53.3334 51.6458C53.3334 49.2083 55.0834 47.2291 57.2709 47.2291C59.4792 47.2291 61.2292 49.2291 61.2084 51.6458C61.2084 54.0833 59.4792 56.0624 57.2709 56.0624Z" fill="black"/>
</svg>
