<svg width="100" height="100" viewBox="0 0 100 100" fill="none" xmlns="http://www.w3.org/2000/svg">
<circle cx="50" cy="50" r="50" fill="black"/>
<g clip-path="url(#clip0_29_308)">
<path d="M41.669 50C41.669 45.3978 45.3988 41.666 50.001 41.666C54.6032 41.666 58.335 45.3978 58.335 50C58.335 54.6022 54.6032 58.334 50.001 58.334C45.3988 58.334 41.669 54.6022 41.669 50ZM37.1638 50C37.1638 57.09 42.911 62.8372 50.001 62.8372C57.091 62.8372 62.8382 57.09 62.8382 50C62.8382 42.91 57.091 37.1628 50.001 37.1628C42.911 37.1628 37.1638 42.91 37.1638 50ZM60.3464 36.6538C60.3461 37.2471 60.5219 37.8272 60.8513 38.3207C61.1807 38.8142 61.6491 39.1989 62.1972 39.4262C62.7453 39.6535 63.3485 39.7131 63.9305 39.5976C64.5125 39.4821 65.0471 39.1966 65.4668 38.7772C65.8866 38.3578 66.1725 37.8233 66.2885 37.2414C66.4045 36.6596 66.3453 36.0563 66.1185 35.5081C65.8916 34.9598 65.5073 34.4911 65.0141 34.1613C64.5209 33.8314 63.9409 33.6552 63.3476 33.655H63.3464C62.551 33.6554 61.7884 33.9714 61.2259 34.5337C60.6634 35.0959 60.3471 35.8585 60.3464 36.6538ZM39.901 70.3494C37.4636 70.2384 36.1388 69.8324 35.2584 69.4894C34.0912 69.035 33.2584 68.4938 32.3828 67.6194C31.5072 66.745 30.9652 65.913 30.5128 64.7458C30.1696 63.8658 29.7636 62.5406 29.6528 60.1032C29.5316 57.468 29.5074 56.6764 29.5074 50.0002C29.5074 43.324 29.5336 42.5346 29.6528 39.8972C29.7638 37.4598 30.1728 36.1372 30.5128 35.2546C30.9672 34.0874 31.5084 33.2546 32.3828 32.379C33.2572 31.5034 34.0892 30.9614 35.2584 30.509C36.1384 30.1658 37.4636 29.7598 39.901 29.649C42.5362 29.5278 43.3278 29.5036 50.001 29.5036C56.6742 29.5036 57.4666 29.5298 60.104 29.649C62.5414 29.76 63.864 30.169 64.7466 30.509C65.9138 30.9614 66.7466 31.5046 67.6222 32.379C68.4978 33.2534 69.0378 34.0874 69.4922 35.2546C69.8354 36.1346 70.2414 37.4598 70.3522 39.8972C70.4734 42.5346 70.4976 43.324 70.4976 50.0002C70.4976 56.6764 70.4734 57.4658 70.3522 60.1032C70.2412 62.5406 69.8332 63.8654 69.4922 64.7458C69.0378 65.913 68.4966 66.7458 67.6222 67.6194C66.7478 68.493 65.9138 69.035 64.7466 69.4894C63.8666 69.8326 62.5414 70.2386 60.104 70.3494C57.4688 70.4706 56.6772 70.4948 50.001 70.4948C43.3248 70.4948 42.5354 70.4706 39.901 70.3494ZM39.694 25.1514C37.0326 25.2726 35.214 25.6946 33.6258 26.3126C31.981 26.9508 30.5886 27.807 29.1972 29.1962C27.8058 30.5854 26.9518 31.98 26.3136 33.6248C25.6956 35.214 25.2736 37.0316 25.1524 39.693C25.0292 42.3586 25.001 43.2108 25.001 50C25.001 56.7892 25.0292 57.6414 25.1524 60.307C25.2736 62.9686 25.6956 64.786 26.3136 66.3752C26.9518 68.019 27.806 69.4152 29.1972 70.8038C30.5884 72.1924 31.981 73.0474 33.6258 73.6874C35.217 74.3054 37.0326 74.7274 39.694 74.8486C42.361 74.9698 43.2118 75 50.001 75C56.7902 75 57.6424 74.9718 60.308 74.8486C62.9696 74.7274 64.787 74.3054 66.3762 73.6874C68.02 73.0474 69.4134 72.193 70.8048 70.8038C72.1962 69.4146 73.0484 68.019 73.6884 66.3752C74.3064 64.786 74.7304 62.9684 74.8496 60.307C74.9708 57.6394 74.999 56.7892 74.999 50C74.999 43.2108 74.9708 42.3586 74.8496 39.693C74.7284 37.0314 74.3064 35.213 73.6884 33.6248C73.0484 31.981 72.194 30.5876 70.8048 29.1962C69.4156 27.8048 68.02 26.9508 66.3782 26.3126C64.787 25.6946 62.9694 25.2706 60.31 25.1514C57.6444 25.0302 56.7922 25 50.003 25C43.2138 25 42.361 25.0282 39.694 25.1514Z" fill="url(#paint0_radial_29_308)"/>
<path d="M41.669 50C41.669 45.3978 45.3988 41.666 50.001 41.666C54.6032 41.666 58.335 45.3978 58.335 50C58.335 54.6022 54.6032 58.334 50.001 58.334C45.3988 58.334 41.669 54.6022 41.669 50ZM37.1638 50C37.1638 57.09 42.911 62.8372 50.001 62.8372C57.091 62.8372 62.8382 57.09 62.8382 50C62.8382 42.91 57.091 37.1628 50.001 37.1628C42.911 37.1628 37.1638 42.91 37.1638 50ZM60.3464 36.6538C60.3461 37.2471 60.5219 37.8272 60.8513 38.3207C61.1807 38.8142 61.6491 39.1989 62.1972 39.4262C62.7453 39.6535 63.3485 39.7131 63.9305 39.5976C64.5125 39.4821 65.0471 39.1966 65.4668 38.7772C65.8866 38.3578 66.1725 37.8233 66.2885 37.2414C66.4045 36.6596 66.3453 36.0563 66.1185 35.5081C65.8916 34.9598 65.5073 34.4911 65.0141 34.1613C64.5209 33.8314 63.9409 33.6552 63.3476 33.655H63.3464C62.551 33.6554 61.7884 33.9714 61.2259 34.5337C60.6634 35.0959 60.3471 35.8585 60.3464 36.6538ZM39.901 70.3494C37.4636 70.2384 36.1388 69.8324 35.2584 69.4894C34.0912 69.035 33.2584 68.4938 32.3828 67.6194C31.5072 66.745 30.9652 65.913 30.5128 64.7458C30.1696 63.8658 29.7636 62.5406 29.6528 60.1032C29.5316 57.468 29.5074 56.6764 29.5074 50.0002C29.5074 43.324 29.5336 42.5346 29.6528 39.8972C29.7638 37.4598 30.1728 36.1372 30.5128 35.2546C30.9672 34.0874 31.5084 33.2546 32.3828 32.379C33.2572 31.5034 34.0892 30.9614 35.2584 30.509C36.1384 30.1658 37.4636 29.7598 39.901 29.649C42.5362 29.5278 43.3278 29.5036 50.001 29.5036C56.6742 29.5036 57.4666 29.5298 60.104 29.649C62.5414 29.76 63.864 30.169 64.7466 30.509C65.9138 30.9614 66.7466 31.5046 67.6222 32.379C68.4978 33.2534 69.0378 34.0874 69.4922 35.2546C69.8354 36.1346 70.2414 37.4598 70.3522 39.8972C70.4734 42.5346 70.4976 43.324 70.4976 50.0002C70.4976 56.6764 70.4734 57.4658 70.3522 60.1032C70.2412 62.5406 69.8332 63.8654 69.4922 64.7458C69.0378 65.913 68.4966 66.7458 67.6222 67.6194C66.7478 68.493 65.9138 69.035 64.7466 69.4894C63.8666 69.8326 62.5414 70.2386 60.104 70.3494C57.4688 70.4706 56.6772 70.4948 50.001 70.4948C43.3248 70.4948 42.5354 70.4706 39.901 70.3494ZM39.694 25.1514C37.0326 25.2726 35.214 25.6946 33.6258 26.3126C31.981 26.9508 30.5886 27.807 29.1972 29.1962C27.8058 30.5854 26.9518 31.98 26.3136 33.6248C25.6956 35.214 25.2736 37.0316 25.1524 39.693C25.0292 42.3586 25.001 43.2108 25.001 50C25.001 56.7892 25.0292 57.6414 25.1524 60.307C25.2736 62.9686 25.6956 64.786 26.3136 66.3752C26.9518 68.019 27.806 69.4152 29.1972 70.8038C30.5884 72.1924 31.981 73.0474 33.6258 73.6874C35.217 74.3054 37.0326 74.7274 39.694 74.8486C42.361 74.9698 43.2118 75 50.001 75C56.7902 75 57.6424 74.9718 60.308 74.8486C62.9696 74.7274 64.787 74.3054 66.3762 73.6874C68.02 73.0474 69.4134 72.193 70.8048 70.8038C72.1962 69.4146 73.0484 68.019 73.6884 66.3752C74.3064 64.786 74.7304 62.9684 74.8496 60.307C74.9708 57.6394 74.999 56.7892 74.999 50C74.999 43.2108 74.9708 42.3586 74.8496 39.693C74.7284 37.0314 74.3064 35.213 73.6884 33.6248C73.0484 31.981 72.194 30.5876 70.8048 29.1962C69.4156 27.8048 68.02 26.9508 66.3782 26.3126C64.787 25.6946 62.9694 25.2706 60.31 25.1514C57.6444 25.0302 56.7922 25 50.003 25C43.2138 25 42.361 25.0282 39.694 25.1514Z" fill="white"/>
</g>
<defs>
<radialGradient id="paint0_radial_29_308" cx="0" cy="0" r="1" gradientUnits="userSpaceOnUse" gradientTransform="translate(31.6438 75.2362) scale(65.2708 65.2708)">
<stop offset="0.09" stop-color="#FA8F21"/>
<stop offset="0.78" stop-color="#D82D7E"/>
</radialGradient>
<clipPath id="clip0_29_308">
<rect width="50" height="50" fill="white" transform="translate(25 25)"/>
</clipPath>
</defs>
</svg>
