<svg width="100" height="100" viewBox="0 0 100 100" fill="none" xmlns="http://www.w3.org/2000/svg">
<circle cx="50" cy="50" r="50" fill="white"/>
<path fill-rule="evenodd" clip-rule="evenodd" d="M44.6436 43.6855H52.3811V47.5397C53.4957 45.323 56.354 43.3313 60.6478 43.3313C68.879 43.3313 70.8332 47.7438 70.8332 55.8397V70.8334H62.4998V57.6834C62.4998 53.073 61.3853 50.473 58.5478 50.473C54.6123 50.473 52.9769 53.2751 52.9769 57.6813V70.8334H44.6436V43.6855ZM30.354 70.4793H38.6873V43.3313H30.354V70.4793ZM39.8811 34.4793C39.8814 35.1777 39.7429 35.8693 39.4736 36.5138C39.2043 37.1583 38.8095 37.7428 38.3123 38.2334C37.8137 38.7295 37.2221 39.1225 36.5716 39.3898C35.921 39.6572 35.2241 39.7938 34.5207 39.7918C33.1032 39.7886 31.7434 39.2298 30.7332 38.2355C30.238 37.7431 29.8447 37.1579 29.5759 36.5134C29.307 35.8688 29.1679 35.1776 29.1665 34.4793C29.1665 33.0688 29.729 31.7188 30.7353 30.723C31.743 29.7248 33.1044 29.1654 34.5228 29.1668C35.9436 29.1668 37.3061 29.7272 38.3123 30.723C39.3186 31.7188 39.8811 33.0688 39.8811 34.4793Z" fill="black"/>
</svg>
