<svg width="100" height="100" viewBox="0 0 100 100" fill="none" xmlns="http://www.w3.org/2000/svg">
<circle cx="50" cy="50" r="50" fill="black"/>
<path fill-rule="evenodd" clip-rule="evenodd" d="M30.9292 39.3479C30.9917 38.7333 30.7562 38.1271 30.2979 37.7146L25.6312 32.0896V31.25H40.1271L51.3312 55.8229L61.1813 31.25H75V32.0896L71.0083 35.9167C70.6646 36.1792 70.4937 36.6104 70.5646 37.0375V65.1583C70.4937 65.5833 70.6646 66.0146 71.0083 66.2771L74.9062 70.1042V70.9437H55.2979V70.1042L59.3375 66.1833C59.7333 65.7875 59.7333 65.6708 59.7333 65.0646V42.3354L48.5062 70.8521H46.9896L33.9167 42.3354V61.4479C33.8083 62.25 34.075 63.0604 34.6396 63.6396L39.8917 70.0104V70.8521H25V70.0104L30.2521 63.6396C30.8146 63.0583 31.0646 62.2438 30.9292 61.4479V39.3479Z" fill="white"/>
</svg>
