<svg width="100" height="100" viewBox="0 0 100 100" fill="none" xmlns="http://www.w3.org/2000/svg">
<circle cx="50" cy="50" r="50" fill="black"/>
<path fill-rule="evenodd" clip-rule="evenodd" d="M55.3627 25.9652C55.2321 26.0175 52.8685 27.6947 50.1103 29.6922C47.3519 31.6897 42.3377 35.3211 38.9674 37.7618C35.597 40.2025 32.8265 42.2106 32.8105 42.2243C32.7603 42.2674 37.3962 59.4109 37.4824 59.5012C37.5276 59.5485 43.7594 60.2453 51.3307 61.0496L65.0969 62.5119L65.5659 62.3057C66.1121 62.0655 66.3787 61.6393 66.3787 61.0063C66.3787 60.7685 65.7667 58.3062 65.0187 55.5346C63.0725 48.3225 58.3888 30.9384 57.774 28.6447C57.4837 27.5618 57.1576 26.5806 57.0375 26.4287C56.6599 25.9515 55.9128 25.7447 55.3627 25.9652ZM69.1139 26.3185C68.5814 26.6793 66.368 30.5139 66.3037 31.1865C66.2134 32.1333 66.9259 32.7789 67.9531 32.6808C68.677 32.6116 68.8537 32.4017 70.2907 29.9028C71.5144 27.7748 71.6124 27.4348 71.1978 26.759C70.7737 26.0672 69.791 25.8596 69.1139 26.3185ZM71.6859 39.6181C69.2705 40.263 68.9116 40.4098 68.6416 40.8642C68.3967 41.2763 68.4076 42.0357 68.6642 42.4541C68.87 42.7897 69.4747 43.1524 69.8281 43.1524C70.1738 43.1524 74.6367 41.9414 74.8918 41.7783C75.6005 41.3255 75.7772 40.1888 75.2306 39.5994C74.9467 39.2933 74.3813 39.0142 74.0694 39.0263C73.9622 39.0305 72.8896 39.2968 71.6859 39.6181ZM27.2587 43.7123C26.1754 44.0094 25.0705 44.3796 24.8035 44.5348C23.3798 45.3628 22.5037 46.8448 22.5 48.4321C22.4985 49.0864 24.9863 58.4467 25.3501 59.1558C25.7339 59.9035 26.6137 60.743 27.4148 61.1262C28.0238 61.4174 28.2853 61.476 29.119 61.5083C30.0231 61.5435 30.2685 61.5021 32.1128 61.0039C33.2178 60.7054 34.1397 60.4435 34.1615 60.4217C34.1834 60.4001 33.8633 59.1367 33.4502 57.6144C31.0473 48.7569 29.6114 43.3961 29.6114 43.2822C29.6114 43.0867 29.3967 43.126 27.2587 43.7123ZM72.4954 50.4694C71.9969 50.7996 71.6958 51.4204 71.7906 51.9228C71.9063 52.5358 72.4279 52.9594 74.5857 54.1931C76.4875 55.2804 76.6405 55.3478 77.1132 55.3064C77.7111 55.2539 78.1232 54.9822 78.3696 54.4778C78.5878 54.031 78.5269 53.3961 78.2262 52.9857C78.11 52.8271 77.0427 52.1431 75.8466 51.4607C73.4586 50.0982 73.1803 50.0159 72.4954 50.4694ZM40.1163 63.333C40.1163 63.3639 40.3546 63.7188 40.6456 64.1217C40.9367 64.5246 42.3971 66.5921 43.891 68.7161C47.1671 73.3742 47.2176 73.4379 47.9041 73.7838C48.7409 74.2053 49.3027 74.2269 50.6206 73.8886C52.074 73.5155 52.3613 73.3924 52.8941 72.9138C53.4773 72.3899 53.8303 71.5667 53.831 70.7285C53.8315 70.0235 53.7264 69.73 52.2138 66.2157L51.442 64.4225L46.1348 63.8544C40.8627 63.2902 40.1163 63.2255 40.1163 63.333Z" fill="white"/>
</svg>
